M48
;DRILL file {KiCad 4.0.2+dfsg1-stable} date 2017年07月19日 12時55分54秒
;FORMAT={-:-/ absolute / inch / decimal}
FMAT,2
INCH,TZ
T1C0.016
T2C0.020
T3C0.026
T4C0.030
T5C0.031
T6C0.032
T7C0.032
T8C0.039
T9C0.039
T10C0.040
T11C0.050
T12C0.079
T13C0.091
T14C0.157
%
G90
G05
M72
T1
X4.3144Y-3.2774
X4.8666Y-4.0586
X5.3694Y-6.2929
X5.7844Y-6.3329
X6.0294Y-6.3279
X6.2544Y-6.4529
X6.4069Y-5.4329
X6.5694Y-5.6329
X6.7544Y-5.6529
X6.9044Y-5.436
T2
X4.3097Y-2.8587
X4.3097Y-2.9087
X4.3597Y-2.8587
X4.3597Y-2.9087
X4.4097Y-2.8587
X4.4097Y-2.9087
X4.4597Y-2.8587
X4.4597Y-2.9087
X4.5097Y-2.8587
X4.5097Y-2.9087
X4.5597Y-2.8587
X4.5597Y-2.9087
X4.6097Y-2.8587
X4.6097Y-2.9087
X4.6597Y-2.8587
X4.6597Y-2.9087
X4.7097Y-2.8587
X4.7097Y-2.9087
X4.7597Y-2.8587
X4.7597Y-2.9087
X4.8097Y-2.8587
X4.8097Y-2.9087
X4.8597Y-2.8587
X4.8597Y-2.9087
X4.9097Y-2.8587
X4.9097Y-2.9087
T3
X5.0294Y-5.7129
X5.1294Y-5.7129
X5.2294Y-5.7129
X5.6294Y-5.6529
X5.7294Y-5.6529
X5.8294Y-5.6529
T4
X3.712Y-3.3683
X3.712Y-3.9683
X3.812Y-3.3683
X3.812Y-3.9683
X3.912Y-3.3683
X3.912Y-3.9683
X4.012Y-3.3683
X4.012Y-3.9683
X4.112Y-3.3683
X4.112Y-3.9683
X4.212Y-3.3683
X4.212Y-3.9683
X4.312Y-3.3683
X4.312Y-3.9683
X4.412Y-3.3683
X4.412Y-3.9683
X4.512Y-3.3683
X4.512Y-3.9683
X4.612Y-3.3683
X4.612Y-3.9683
X4.712Y-3.3683
X4.712Y-3.9683
X4.812Y-3.3683
X4.812Y-3.9683
X4.912Y-3.3683
X4.912Y-3.9683
X5.012Y-3.3683
X5.012Y-3.9683
X5.112Y-3.3683
X5.112Y-3.9683
X5.212Y-3.3683
X5.212Y-3.9683
X5.312Y-3.3683
X5.312Y-3.9683
X5.412Y-3.3683
X5.412Y-3.9683
X5.512Y-3.3683
X5.512Y-3.9683
X5.612Y-3.3683
X5.612Y-3.9683
T5
X4.4094Y-5.7029
X4.5078Y-5.7029
T6
X4.1794Y-6.6529
X4.2794Y-6.6529
X4.3794Y-6.6529
X4.4794Y-6.6529
X4.5794Y-6.6529
T7
X4.7794Y-5.7529
X4.7794Y-5.9529
X4.7794Y-6.1529
X4.8794Y-5.7529
X5.0794Y-5.9529
X5.0794Y-6.1529
X5.2758Y-4.4388
X5.6758Y-4.4388
X5.8467Y-4.4388
X6.2467Y-4.4388
X6.3029Y-1.8386
X6.7029Y-1.8386
T8
X6.7866Y-1.5386
X6.7866Y-1.7386
X6.9466Y-2.8074
X6.9466Y-3.5948
X7.0866Y-1.5386
X7.0866Y-1.7386
T9
X4.0978Y-4.4146
X4.0978Y-4.5146
X4.0978Y-4.5946
X4.0978Y-4.6946
X4.3734Y-5.9033
X4.3734Y-6.2025
X4.5694Y-6.1129
X5.2294Y-6.0529
X5.3294Y-6.0529
X5.3494Y-5.5529
X6.0294Y-5.8029
X6.5029Y-1.6386
X6.6029Y-1.6386
T10
X3.8766Y-4.5736
X3.8766Y-4.6736
X4.1794Y-6.4779
X4.2794Y-6.4779
X4.3794Y-6.4779
X4.4794Y-6.4779
X4.5794Y-6.4779
X4.9566Y-5.1586
X5.4364Y-2.5096
X5.4364Y-2.6096
X5.4364Y-2.7096
X5.4364Y-2.8096
X5.4364Y-2.9096
X5.4364Y-3.0096
X5.8294Y-6.0529
X5.8695Y-5.1671
X5.9294Y-5.9529
X5.9294Y-6.1529
X6.6016Y-3.5236
X6.6016Y-3.6236
X6.6016Y-3.7236
X6.6016Y-3.8236
X6.6016Y-3.9236
X6.6016Y-4.0236
X6.6016Y-4.1236
X6.6016Y-4.2236
X6.6016Y-4.3236
X6.6016Y-4.4236
X6.6016Y-4.5236
X6.6016Y-4.6236
X6.7016Y-3.5236
X6.7016Y-3.6236
X6.7016Y-3.7236
X6.7016Y-3.8236
X6.7016Y-3.9236
X6.7016Y-4.0236
X6.7016Y-4.1236
X6.7016Y-4.2236
X6.7016Y-4.3236
X6.7016Y-4.4236
X6.7016Y-4.5236
X6.7016Y-4.6236
T11
X6.0266Y-4.3286
X6.2816Y-4.0986
T12
X6.9466Y-1.9586
X6.9466Y-4.8586
T13
X4.2028Y-4.2946
X4.2028Y-4.8346
T14
X6.6018Y-6.1108
T0
M30
