G04 #@! TF.FileFunction,Profile,NP*
%FSLAX46Y46*%
G04 Gerber Fmt 4.6, Leading zero omitted, Abs format (unit mm)*
G04 Created by KiCad (PCBNEW 4.0.2+dfsg1-stable) date 2017年07月19日 12時55分51秒*
%MOMM*%
G01*
G04 APERTURE LIST*
%ADD10C,0.100000*%
%ADD11C,0.200000*%
G04 APERTURE END LIST*
D10*
D11*
X181085600Y-136244800D02*
X191085600Y-136244800D01*
X156085600Y-129244800D02*
X157085600Y-129244800D01*
X156085600Y-133244800D02*
X166085600Y-133244800D01*
X157085600Y-129244800D02*
X166085600Y-129244800D01*
X106085600Y-133244800D02*
X116085600Y-133244800D01*
X106085600Y-129244800D02*
X116085600Y-129244800D01*
X154085600Y-131244800D02*
G75*
G03X156085600Y-133244800I2000000J0D01*
G01*
X156085600Y-129244800D02*
G75*
G03X154085600Y-131244800I0J-2000000D01*
G01*
X168085600Y-131244800D02*
G75*
G03X166085600Y-129244800I-2000000J0D01*
G01*
X166085600Y-133244800D02*
G75*
G03X168085600Y-131244800I0J2000000D01*
G01*
X118085600Y-131244800D02*
G75*
G03X116085600Y-129244800I-2000000J0D01*
G01*
X116085600Y-133244800D02*
G75*
G03X118085600Y-131244800I0J2000000D01*
G01*
X106085600Y-129244800D02*
G75*
G03X104085600Y-131244800I0J-2000000D01*
G01*
X104085600Y-131244800D02*
G75*
G03X106085600Y-133244800I2000000J0D01*
G01*
X98321668Y-41244800D02*
G75*
G03X98321668Y-41244800I-2236068J0D01*
G01*
X188321668Y-41244800D02*
G75*
G03X188321668Y-41244800I-2236068J0D01*
G01*
X188321668Y-131244800D02*
G75*
G03X188321668Y-131244800I-2236068J0D01*
G01*
X98321668Y-131244800D02*
G75*
G03X98321668Y-131244800I-2236068J0D01*
G01*
X177685600Y-131244800D02*
G75*
G03X177685600Y-131244800I-1600000J0D01*
G01*
X191085600Y-36244800D02*
X191085600Y-136244800D01*
X91085600Y-36244800D02*
X191085600Y-36244800D01*
X91085600Y-136244800D02*
X91085600Y-36244800D01*
X181085600Y-171244800D02*
X181085600Y-168744800D01*
X91085600Y-171244800D02*
X181085600Y-171244800D01*
X91085600Y-168744800D02*
X91085600Y-171244800D01*
X91085600Y-138744800D02*
X91085600Y-168744800D01*
X91085600Y-136244800D02*
X91085600Y-138744800D01*
X181085600Y-138744800D02*
X181085600Y-136244800D01*
X127685600Y-168744800D02*
G75*
G03X127685600Y-168744800I-1600000J0D01*
G01*
X97685600Y-168744800D02*
G75*
G03X97685600Y-168744800I-1600000J0D01*
G01*
X97685600Y-138744800D02*
G75*
G03X97685600Y-138744800I-1600000J0D01*
G01*
X127685600Y-138744800D02*
G75*
G03X127685600Y-138744800I-1600000J0D01*
G01*
X172685600Y-168744800D02*
G75*
G03X172685600Y-168744800I-1600000J0D01*
G01*
X172685600Y-138744800D02*
G75*
G03X172685600Y-138744800I-1600000J0D01*
G01*
X181085600Y-168744800D02*
X181085600Y-153744800D01*
X91085600Y-138744800D02*
X91085600Y-168744800D01*
X181085600Y-153744800D02*
X181085600Y-138744800D01*
X159150666Y-208424600D02*
G75*
G03X159150666Y-208424600I-1666666J0D01*
G01*
X154984000Y-208424600D02*
X159984000Y-208424600D01*
X157484000Y-205924600D02*
X157484000Y-210924600D01*
M02*
