G04 #@! TF.FileFunction,Copper,L1,Top,Signal*
%FSLAX46Y46*%
G04 Gerber Fmt 4.6, Leading zero omitted, Abs format (unit mm)*
G04 Created by KiCad (PCBNEW 4.0.2+dfsg1-stable) date 2017年07月19日 12時55分51秒*
%MOMM*%
G01*
G04 APERTURE LIST*
%ADD10C,0.100000*%
%ADD11R,3.000000X3.000000*%
%ADD12O,4.000000X4.000000*%
%ADD13C,2.000000*%
%ADD14R,1.900000X2.000000*%
%ADD15C,1.900000*%
%ADD16R,2.700020X1.501140*%
%ADD17C,1.501140*%
%ADD18C,2.999740*%
%ADD19R,2.032000X1.727200*%
%ADD20O,2.032000X1.727200*%
%ADD21C,1.524000*%
%ADD22C,1.500000*%
%ADD23R,2.032000X2.032000*%
%ADD24O,2.032000X2.032000*%
%ADD25C,0.900000*%
%ADD26R,1.727200X1.727200*%
%ADD27O,1.727200X1.727200*%
%ADD28R,1.600000X1.200000*%
%ADD29R,1.300000X1.300000*%
%ADD30C,1.300000*%
%ADD31R,2.000000X2.000000*%
%ADD32O,1.700000X2.000000*%
%ADD33R,1.727200X2.032000*%
%ADD34O,1.727200X2.032000*%
%ADD35C,1.700000*%
%ADD36R,0.900000X1.700000*%
%ADD37C,1.397000*%
%ADD38R,0.900000X0.900000*%
%ADD39R,0.900000X1.400000*%
%ADD40R,1.400000X0.900000*%
%ADD41C,5.000000*%
%ADD42C,2.540000*%
%ADD43C,1.399540*%
%ADD44C,0.600000*%
%ADD45C,1.016000*%
%ADD46C,0.508000*%
%ADD47C,0.254000*%
%ADD48C,0.381000*%
%ADD49C,0.203200*%
G04 APERTURE END LIST*
D10*
D11*
X176443600Y-49748800D03*
D12*
X176443600Y-123408800D03*
D13*
X176443600Y-91308800D03*
X176443600Y-71308800D03*
D14*
X165173600Y-41620800D03*
D15*
X167713600Y-41620800D03*
D16*
X160085600Y-51344500D03*
X160085600Y-56145100D03*
D17*
X104083480Y-112131940D03*
X104083480Y-114671940D03*
X104083480Y-116703940D03*
X104083480Y-119243940D03*
D18*
X106750480Y-109083940D03*
X106750480Y-122799940D03*
D19*
X138085600Y-63744800D03*
D20*
X138085600Y-66284800D03*
X138085600Y-68824800D03*
X138085600Y-71364800D03*
X138085600Y-73904800D03*
X138085600Y-76444800D03*
D21*
X160093600Y-46700800D03*
X170253600Y-46700800D03*
X134005600Y-112744800D03*
X144165600Y-112744800D03*
X148505600Y-112744800D03*
X158665600Y-112744800D03*
D22*
X179999600Y-39080800D03*
X179999600Y-44160800D03*
X172379600Y-39080800D03*
X172379600Y-44160800D03*
D23*
X125897600Y-131028800D03*
D24*
X149085600Y-131244800D03*
D25*
X109465600Y-73879800D03*
X109465600Y-72609800D03*
X110735600Y-73879800D03*
X110735600Y-72609800D03*
X112005600Y-73879800D03*
X112005600Y-72609800D03*
X113275600Y-73879800D03*
X113275600Y-72609800D03*
X114545600Y-73879800D03*
X114545600Y-72609800D03*
X115815600Y-73879800D03*
X115815600Y-72609800D03*
X117085600Y-73879800D03*
X117085600Y-72609800D03*
X118355600Y-73879800D03*
X118355600Y-72609800D03*
X119625600Y-73879800D03*
X119625600Y-72609800D03*
X120895600Y-73879800D03*
X120895600Y-72609800D03*
X122165600Y-73879800D03*
X122165600Y-72609800D03*
X123435600Y-73879800D03*
X123435600Y-72609800D03*
X124705600Y-73879800D03*
X124705600Y-72609800D03*
D21*
X142545600Y-85554800D03*
X140005600Y-85554800D03*
X137465600Y-85554800D03*
X134925600Y-85554800D03*
X132385600Y-85554800D03*
X129845600Y-85554800D03*
X127305600Y-85554800D03*
X124765600Y-85554800D03*
X122225600Y-85554800D03*
X119685600Y-85554800D03*
X117145600Y-85554800D03*
X114605600Y-85554800D03*
X112065600Y-85554800D03*
X109525600Y-85554800D03*
X106985600Y-85554800D03*
X104445600Y-85554800D03*
X101905600Y-85554800D03*
X99365600Y-85554800D03*
X96825600Y-85554800D03*
X94285600Y-85554800D03*
X94285600Y-100794800D03*
X96825600Y-100794800D03*
X99365600Y-100794800D03*
X101905600Y-100794800D03*
X104445600Y-100794800D03*
X106985600Y-100794800D03*
X109525600Y-100794800D03*
X112065600Y-100794800D03*
X114605600Y-100794800D03*
X117145600Y-100794800D03*
X119685600Y-100794800D03*
X122225600Y-100794800D03*
X124765600Y-100794800D03*
X127305600Y-100794800D03*
X129845600Y-100794800D03*
X132385600Y-100794800D03*
X134925600Y-100794800D03*
X137465600Y-100794800D03*
X140005600Y-100794800D03*
X142545600Y-100794800D03*
D23*
X98465600Y-116169800D03*
D24*
X98465600Y-118709800D03*
D26*
X170220600Y-117439800D03*
D27*
X167680600Y-117439800D03*
X170220600Y-114899800D03*
X167680600Y-114899800D03*
X170220600Y-112359800D03*
X167680600Y-112359800D03*
X170220600Y-109819800D03*
X167680600Y-109819800D03*
X170220600Y-107279800D03*
X167680600Y-107279800D03*
X170220600Y-104739800D03*
X167680600Y-104739800D03*
X170220600Y-102199800D03*
X167680600Y-102199800D03*
X170220600Y-99659800D03*
X167680600Y-99659800D03*
X170220600Y-97119800D03*
X167680600Y-97119800D03*
X170220600Y-94579800D03*
X167680600Y-94579800D03*
X170220600Y-92039800D03*
X167680600Y-92039800D03*
X170220600Y-89499800D03*
X167680600Y-89499800D03*
D28*
X175370600Y-138074800D03*
X175370600Y-141474800D03*
D29*
X111997600Y-144854800D03*
D30*
X114497600Y-144854800D03*
D28*
X178545600Y-138074800D03*
X178545600Y-141474800D03*
D31*
X132825600Y-153744800D03*
D13*
X135365600Y-153744800D03*
D32*
X148065600Y-143584800D03*
X145525600Y-143584800D03*
X142985600Y-143584800D03*
X132825600Y-145108800D03*
X130285600Y-145108800D03*
X127745600Y-145108800D03*
D33*
X106155600Y-164539800D03*
D34*
X108695600Y-164539800D03*
X111235600Y-164539800D03*
X113775600Y-164539800D03*
X116315600Y-164539800D03*
D35*
X116315600Y-168984800D03*
X111235600Y-168984800D03*
X113775600Y-168984800D03*
X108695600Y-168984800D03*
X106155600Y-168984800D03*
D19*
X148065600Y-153744800D03*
D20*
X150605600Y-151204800D03*
X150605600Y-156284800D03*
D36*
X131735600Y-147648800D03*
X128835600Y-147648800D03*
D37*
X121395600Y-146124800D03*
X123935600Y-146124800D03*
D38*
X141310600Y-161459800D03*
X141310600Y-157459800D03*
X141310600Y-160119800D03*
X141310600Y-158799800D03*
X138310600Y-160119800D03*
X138310600Y-161459800D03*
X138310600Y-157459800D03*
X138310600Y-158799800D03*
D13*
X111085600Y-157544640D03*
X111085600Y-149944960D03*
D37*
X129015600Y-151204800D03*
X129015600Y-156284800D03*
X121395600Y-151204800D03*
X121395600Y-156284800D03*
D31*
X103085600Y-146244800D03*
X93085600Y-146244800D03*
X93085600Y-162244800D03*
X103085600Y-162244800D03*
D39*
X174085600Y-144854800D03*
X172815600Y-144854800D03*
X171545600Y-144854800D03*
X170275600Y-144854800D03*
X169005600Y-144854800D03*
X167735600Y-144854800D03*
X166465600Y-144854800D03*
X165195600Y-144854800D03*
X163925600Y-144854800D03*
X162655600Y-144854800D03*
X161385600Y-144854800D03*
X160115600Y-144854800D03*
X158845600Y-144854800D03*
X157575600Y-144854800D03*
D40*
X156051600Y-148029800D03*
X156051600Y-149299800D03*
X156051600Y-150569800D03*
X156051600Y-151839800D03*
X156051600Y-153109800D03*
X156051600Y-154379800D03*
X156051600Y-155649800D03*
X156051600Y-156919800D03*
X156051600Y-158189800D03*
X156051600Y-159459800D03*
D39*
X157575600Y-162634800D03*
X158845600Y-162634800D03*
X160115600Y-162634800D03*
X161385600Y-162634800D03*
X162655600Y-162634800D03*
X163925600Y-162634800D03*
X165195600Y-162634800D03*
X166465600Y-162634800D03*
X167735600Y-162634800D03*
X169005600Y-162634800D03*
X170275600Y-162634800D03*
X171545600Y-162634800D03*
X172815600Y-162634800D03*
X174085600Y-162634800D03*
D41*
X167685600Y-155214800D03*
D42*
X159552600Y-104104800D03*
D43*
X135873600Y-141044800D03*
X153145600Y-147394800D03*
D42*
X153075600Y-109946800D03*
D44*
X136381600Y-159840800D03*
D43*
X116061600Y-155268800D03*
D44*
X123611600Y-103088800D03*
X109585600Y-83244800D03*
X162734100Y-137996800D03*
X171560600Y-143584800D03*
X175370600Y-138074800D03*
X166861600Y-143076800D03*
X146922600Y-160856800D03*
X153145600Y-160729800D03*
X158860600Y-163904800D03*
D45*
X167680600Y-102199800D02*
X161330600Y-102199800D01*
X159552600Y-103977800D02*
X159552600Y-104104800D01*
X161330600Y-102199800D02*
X159552600Y-103977800D01*
X176443600Y-91308800D02*
X176443600Y-89245800D01*
X164505600Y-84165800D02*
X164505600Y-96484800D01*
X166029600Y-82641800D02*
X164505600Y-84165800D01*
X169839600Y-82641800D02*
X166029600Y-82641800D01*
X176443600Y-89245800D02*
X169839600Y-82641800D01*
X167680600Y-94579800D02*
X165775600Y-94579800D01*
X165775600Y-94579800D02*
X164505600Y-95849800D01*
X164505600Y-95849800D02*
X164505600Y-96484800D01*
X164505600Y-99024800D02*
X167680600Y-102199800D01*
X164505600Y-96484800D02*
X164505600Y-99024800D01*
X170220600Y-107279800D02*
X175681600Y-107279800D01*
X175681600Y-107279800D02*
X176443600Y-108041800D01*
X176443600Y-123408800D02*
X165394600Y-123408800D01*
X158665600Y-116679800D02*
X158665600Y-112744800D01*
X165394600Y-123408800D02*
X158665600Y-116679800D01*
X106750480Y-122799940D02*
X106750480Y-109083940D01*
D46*
X104083480Y-112131940D02*
X104083480Y-111750940D01*
X104083480Y-111750940D02*
X106750480Y-109083940D01*
D45*
X176443600Y-123408800D02*
X176443600Y-108041800D01*
X176443600Y-108041800D02*
X176443600Y-91308800D01*
D47*
X131735600Y-147648800D02*
X132825600Y-147648800D01*
X131735600Y-147648800D02*
X131735600Y-147066800D01*
D45*
X135365600Y-141552800D02*
X131428600Y-141552800D01*
X135873600Y-141044800D02*
X135365600Y-141552800D01*
X156051600Y-148029800D02*
X160500600Y-148029800D01*
X160500600Y-148029800D02*
X167685600Y-155214800D01*
X156051600Y-148029800D02*
X153780600Y-148029800D01*
D47*
X132825600Y-153744800D02*
X132825600Y-149172800D01*
X132825600Y-149172800D02*
X132825600Y-147648800D01*
X132825600Y-147648800D02*
X132825600Y-145108800D01*
X138310600Y-158799800D02*
X137372600Y-158799800D01*
X135492600Y-151077800D02*
X132825600Y-153744800D01*
X136127600Y-151077800D02*
X135492600Y-151077800D01*
X136826100Y-151776300D02*
X136127600Y-151077800D01*
X136826100Y-158253300D02*
X136826100Y-151776300D01*
X137372600Y-158799800D02*
X136826100Y-158253300D01*
D45*
X132825600Y-145108800D02*
X132825600Y-144473800D01*
X132825600Y-144473800D02*
X131428600Y-141552800D01*
X131428600Y-141552800D02*
X131365100Y-141489300D01*
X131365100Y-141489300D02*
X122792600Y-141489300D01*
X122792600Y-141489300D02*
X120633600Y-143648300D01*
X120633600Y-143648300D02*
X120633600Y-145362800D01*
X114497600Y-144854800D02*
X120125600Y-144854800D01*
X120125600Y-144854800D02*
X120633600Y-145362800D01*
X120633600Y-145362800D02*
X121395600Y-146124800D01*
X111085600Y-149944960D02*
X111085600Y-148266800D01*
X111085600Y-148266800D02*
X114497600Y-144854800D01*
X93085600Y-146244800D02*
X97518600Y-145744800D01*
X112275100Y-142632300D02*
X114497600Y-144854800D01*
X109775100Y-142632300D02*
X112275100Y-142632300D01*
X108378100Y-144029300D02*
X109775100Y-142632300D01*
X99234100Y-144029300D02*
X108378100Y-144029300D01*
X97518600Y-145744800D02*
X99234100Y-144029300D01*
X93085600Y-146244800D02*
X93085600Y-162244800D01*
X150605600Y-156284800D02*
X153145600Y-153744800D01*
X153145600Y-153744800D02*
X153145600Y-149934800D01*
X153145600Y-149934800D02*
X153780600Y-149299800D01*
X153780600Y-149299800D02*
X153780600Y-148029800D01*
X153780600Y-148029800D02*
X153145600Y-147394800D01*
X178545600Y-141474800D02*
X177465600Y-141474800D01*
X177465600Y-141474800D02*
X174085600Y-144854800D01*
X174085600Y-144854800D02*
X174085600Y-157569800D01*
X174085600Y-157569800D02*
X173465600Y-158189800D01*
X174085600Y-162634800D02*
X174085600Y-157539800D01*
X174085600Y-157539800D02*
X171760600Y-155214800D01*
X171760600Y-155214800D02*
X167685600Y-155214800D01*
D48*
X153145600Y-147394800D02*
X153780600Y-148029800D01*
X175370600Y-141474800D02*
X178545600Y-141474800D01*
X174085600Y-144854800D02*
X175800600Y-144854800D01*
X175800600Y-144854800D02*
X178545600Y-142109800D01*
D45*
X170220600Y-117439800D02*
X170220600Y-118836800D01*
X170220600Y-118836800D02*
X169585600Y-119471800D01*
X169585600Y-119471800D02*
X164632600Y-119471800D01*
X164632600Y-119471800D02*
X161457600Y-116296800D01*
X161457600Y-116296800D02*
X161457600Y-113121800D01*
X161457600Y-113121800D02*
X158282600Y-109946800D01*
X158282600Y-109946800D02*
X153075600Y-109946800D01*
X153075600Y-109946800D02*
X152948600Y-109819800D01*
X94285600Y-100794800D02*
X94285600Y-85554800D01*
X98465600Y-116169800D02*
X98338600Y-116169800D01*
X98338600Y-116169800D02*
X94285600Y-112116800D01*
X94285600Y-112116800D02*
X94285600Y-100794800D01*
X120585600Y-67744800D02*
X115085600Y-67744800D01*
X115085600Y-67744800D02*
X114085600Y-66744800D01*
X160085600Y-56145100D02*
X132185300Y-56145100D01*
X132185300Y-56145100D02*
X120585600Y-67744800D01*
D46*
X123435600Y-73879800D02*
X123435600Y-74594800D01*
X123435600Y-74594800D02*
X124085600Y-75244800D01*
X124085600Y-75244800D02*
X125085600Y-75244800D01*
X125085600Y-75244800D02*
X127085600Y-73244800D01*
X127085600Y-73244800D02*
X120585600Y-66744800D01*
X120585600Y-66744800D02*
X114085600Y-66744800D01*
D45*
X114085600Y-66744800D02*
X108085600Y-66744800D01*
X94285600Y-74544800D02*
X94285600Y-80244800D01*
X94285600Y-80244800D02*
X94285600Y-85554800D01*
X101085600Y-67744800D02*
X94285600Y-74544800D01*
X107085600Y-67744800D02*
X101085600Y-67744800D01*
X108085600Y-66744800D02*
X107085600Y-67744800D01*
D46*
X94285600Y-85554800D02*
X94285600Y-92044800D01*
X94285600Y-92044800D02*
X94285600Y-100794800D01*
D49*
X136660600Y-160119800D02*
X138310600Y-160119800D01*
X136381600Y-159840800D02*
X136660600Y-160119800D01*
D45*
X116061600Y-155268800D02*
X116061600Y-156284800D01*
X111997600Y-144854800D02*
X111045100Y-144854800D01*
X111045100Y-144854800D02*
X106346100Y-149553800D01*
X121395600Y-156284800D02*
X116061600Y-156284800D01*
X116061600Y-156284800D02*
X113077100Y-156284800D01*
X113077100Y-156284800D02*
X106346100Y-149553800D01*
X104741100Y-148220300D02*
X103085600Y-146244800D01*
X105012600Y-148220300D02*
X104741100Y-148220300D01*
X106346100Y-149553800D02*
X105012600Y-148220300D01*
X121395600Y-156284800D02*
X129015600Y-156284800D01*
X113775600Y-168984800D02*
X113775600Y-167968800D01*
X118093600Y-166635300D02*
X128444100Y-156284800D01*
X115109100Y-166635300D02*
X118093600Y-166635300D01*
X113775600Y-167968800D02*
X115109100Y-166635300D01*
X128444100Y-156284800D02*
X129015600Y-156284800D01*
X148065600Y-143584800D02*
X148065600Y-148664800D01*
X148065600Y-148664800D02*
X150605600Y-151204800D01*
X172815600Y-144854800D02*
X172815600Y-142299800D01*
X151875600Y-139774800D02*
X150923100Y-140727300D01*
X150923100Y-140727300D02*
X148065600Y-143584800D01*
X168385600Y-139774800D02*
X151875600Y-139774800D01*
X170290600Y-141679800D02*
X168385600Y-139774800D01*
X172195600Y-141679800D02*
X170290600Y-141679800D01*
X172815600Y-142299800D02*
X172195600Y-141679800D01*
D48*
X178545600Y-138074800D02*
X178340600Y-138074800D01*
X178340600Y-138074800D02*
X176640600Y-139774800D01*
X176640600Y-139774800D02*
X174735600Y-139774800D01*
X174735600Y-139774800D02*
X173465600Y-141044800D01*
X173465600Y-141044800D02*
X173465600Y-143584800D01*
X173465600Y-143584800D02*
X172815600Y-144234800D01*
X172815600Y-144234800D02*
X172815600Y-144854800D01*
D45*
X160085600Y-51344500D02*
X174847900Y-51344500D01*
X174847900Y-51344500D02*
X176443600Y-49748800D01*
X170253600Y-46700800D02*
X169041600Y-46700800D01*
X167713600Y-45372800D02*
X167713600Y-41620800D01*
X169041600Y-46700800D02*
X167713600Y-45372800D01*
D49*
X138310600Y-161459800D02*
X136095600Y-161459800D01*
X136095600Y-161459800D02*
X135365600Y-160729800D01*
X135365600Y-160729800D02*
X135365600Y-153744800D01*
X174988100Y-59342300D02*
X164056100Y-59342300D01*
X144566600Y-92801800D02*
X143123600Y-94244800D01*
X144566600Y-78831800D02*
X144566600Y-92801800D01*
X164056100Y-59342300D02*
X144566600Y-78831800D01*
X124765600Y-100794800D02*
X124765600Y-98564800D01*
X124765600Y-98564800D02*
X129085600Y-94244800D01*
X129085600Y-94244800D02*
X143123600Y-94244800D01*
X160085600Y-41744800D02*
X160085600Y-46692800D01*
X162085600Y-39744800D02*
X160085600Y-41744800D01*
X169085600Y-39744800D02*
X162085600Y-39744800D01*
X171085600Y-41744800D02*
X169085600Y-39744800D01*
X179585600Y-41744800D02*
X171085600Y-41744800D01*
X181585600Y-43744800D02*
X179585600Y-41744800D01*
X181585600Y-52744800D02*
X181585600Y-43744800D01*
X174988100Y-59342300D02*
X181585600Y-52744800D01*
X160085600Y-46692800D02*
X160093600Y-46700800D01*
X144165600Y-112744800D02*
X144165600Y-94091800D01*
X164251600Y-60416800D02*
X175913600Y-60416800D01*
X145455600Y-79212800D02*
X164251600Y-60416800D01*
X145455600Y-92801800D02*
X145455600Y-79212800D01*
X144165600Y-94091800D02*
X145455600Y-92801800D01*
D45*
X179999600Y-39080800D02*
X179999600Y-40658800D01*
X179999600Y-40658800D02*
X183585600Y-44244800D01*
X183585600Y-44244800D02*
X183585600Y-52744800D01*
X183585600Y-52744800D02*
X175913600Y-60416800D01*
X179999600Y-39080800D02*
X172379600Y-39080800D01*
X144165600Y-112744800D02*
X148505600Y-112744800D01*
X148505600Y-112744800D02*
X149085600Y-113324800D01*
X149085600Y-113324800D02*
X149085600Y-131244800D01*
D49*
X144111100Y-92219300D02*
X144111100Y-78271300D01*
X164759600Y-57622800D02*
X175035600Y-57622800D01*
X144111100Y-78271300D02*
X164759600Y-57622800D01*
X143147600Y-93182800D02*
X144111100Y-92219300D01*
X128945600Y-93182800D02*
X143147600Y-93182800D01*
X123611600Y-98516800D02*
X128945600Y-93182800D01*
X123611600Y-103088800D02*
X123611600Y-98516800D01*
D45*
X179999600Y-44160800D02*
X179999600Y-52658800D01*
X179999600Y-52658800D02*
X175035600Y-57622800D01*
X172379600Y-44160800D02*
X179999600Y-44160800D01*
D49*
X103136100Y-95694300D02*
X103136100Y-102482300D01*
X103136100Y-102482300D02*
X100585600Y-105032800D01*
X104083480Y-114671940D02*
X104012740Y-114671940D01*
X104012740Y-114671940D02*
X100585600Y-111244800D01*
X100585600Y-111244800D02*
X100585600Y-105032800D01*
X103136100Y-95694300D02*
X108085600Y-90744800D01*
X108085600Y-90744800D02*
X125585600Y-90744800D01*
X125585600Y-90744800D02*
X127305600Y-89024800D01*
X127305600Y-89024800D02*
X127305600Y-85554800D01*
X100612100Y-96218300D02*
X100612100Y-102593300D01*
X100612100Y-102593300D02*
X98085600Y-105119800D01*
X124765600Y-85554800D02*
X124765600Y-88064800D01*
X98085600Y-110706060D02*
X104083480Y-116703940D01*
X98085600Y-105119800D02*
X98085600Y-110706060D01*
X107085600Y-89744800D02*
X100612100Y-96218300D01*
X123085600Y-89744800D02*
X107085600Y-89744800D01*
X124765600Y-88064800D02*
X123085600Y-89744800D01*
X127739100Y-73561300D02*
X127739100Y-69243300D01*
X130697600Y-66284800D02*
X135015600Y-66284800D01*
X127739100Y-69243300D02*
X130697600Y-66284800D01*
X109525600Y-100794800D02*
X109525600Y-99902800D01*
X135015600Y-66284800D02*
X138085600Y-66284800D01*
X127675600Y-73624800D02*
X127739100Y-73561300D01*
X127675600Y-82768800D02*
X127675600Y-73624800D01*
X128564600Y-83657800D02*
X127675600Y-82768800D01*
X128564600Y-89245800D02*
X128564600Y-83657800D01*
X126659600Y-91150800D02*
X128564600Y-89245800D01*
X118277600Y-91150800D02*
X126659600Y-91150800D01*
X109525600Y-99902800D02*
X118277600Y-91150800D01*
X138085600Y-68824800D02*
X129808600Y-68824800D01*
X112065600Y-98505800D02*
X112065600Y-100794800D01*
X118785600Y-91785800D02*
X112065600Y-98505800D01*
X127040600Y-91785800D02*
X118785600Y-91785800D01*
X131104600Y-87721800D02*
X127040600Y-91785800D01*
X131104600Y-84546800D02*
X131104600Y-87721800D01*
X128183600Y-81625800D02*
X131104600Y-84546800D01*
X128183600Y-70449800D02*
X128183600Y-81625800D01*
X129808600Y-68824800D02*
X128183600Y-70449800D01*
X114605600Y-100794800D02*
X114605600Y-96981800D01*
X133390600Y-70068800D02*
X137226600Y-73904800D01*
X130215600Y-70068800D02*
X133390600Y-70068800D01*
X128691600Y-71592800D02*
X130215600Y-70068800D01*
X128691600Y-79847800D02*
X128691600Y-71592800D01*
X133517600Y-84673800D02*
X128691600Y-79847800D01*
X133517600Y-86578800D02*
X133517600Y-84673800D01*
X127421600Y-92674800D02*
X133517600Y-86578800D01*
X118912600Y-92674800D02*
X127421600Y-92674800D01*
X114605600Y-96981800D02*
X118912600Y-92674800D01*
X137226600Y-73904800D02*
X138085600Y-73904800D01*
D45*
X117145600Y-100794800D02*
X117145600Y-122276800D01*
X117145600Y-122276800D02*
X125897600Y-131028800D01*
D46*
X112005600Y-72609800D02*
X112005600Y-70664800D01*
X111085600Y-83994800D02*
X109525600Y-85554800D01*
X111085600Y-82244800D02*
X111085600Y-83994800D01*
X110085600Y-81244800D02*
X111085600Y-82244800D01*
X103085600Y-81244800D02*
X110085600Y-81244800D01*
X98585600Y-76744800D02*
X103085600Y-81244800D01*
X98585600Y-72244800D02*
X98585600Y-76744800D01*
X101585600Y-69244800D02*
X98585600Y-72244800D01*
X110585600Y-69244800D02*
X101585600Y-69244800D01*
X112005600Y-70664800D02*
X110585600Y-69244800D01*
X104445600Y-83884800D02*
X104445600Y-85554800D01*
X105085600Y-83244800D02*
X104445600Y-83884800D01*
X109585600Y-83244800D02*
X105085600Y-83244800D01*
D45*
X98465600Y-118709800D02*
X103549340Y-118709800D01*
X103549340Y-118709800D02*
X104083480Y-119243940D01*
X96814600Y-103088800D02*
X96814600Y-111343800D01*
X100751600Y-115912060D02*
X104083480Y-119243940D01*
X100751600Y-115280800D02*
X100751600Y-115912060D01*
X96814600Y-111343800D02*
X100751600Y-115280800D01*
D46*
X95925600Y-97754800D02*
X95925600Y-99532800D01*
D45*
X96306600Y-97373800D02*
X95925600Y-97754800D01*
X99365600Y-94314800D02*
X96306600Y-97373800D01*
X99365600Y-85554800D02*
X99365600Y-94314800D01*
D46*
X98084600Y-99151800D02*
X96306600Y-97373800D01*
X98084600Y-102199800D02*
X98084600Y-99151800D01*
X97195600Y-103088800D02*
X98084600Y-102199800D01*
X96179600Y-103088800D02*
X96814600Y-103088800D01*
X96814600Y-103088800D02*
X97195600Y-103088800D01*
X95544600Y-102453800D02*
X96179600Y-103088800D01*
X95544600Y-99913800D02*
X95544600Y-102453800D01*
X95925600Y-99532800D02*
X95544600Y-99913800D01*
X104083480Y-119243940D02*
X104083480Y-119242680D01*
D49*
X145525600Y-143584800D02*
X145525600Y-146823300D01*
X138310600Y-154038300D02*
X138310600Y-157459800D01*
X145525600Y-146823300D02*
X138310600Y-154038300D01*
X141310600Y-160119800D02*
X140661100Y-160119800D01*
X151240600Y-137996800D02*
X162734100Y-137996800D01*
X146795600Y-142441800D02*
X151240600Y-137996800D01*
X146795600Y-147140800D02*
X146795600Y-142441800D01*
X140064600Y-153871800D02*
X146795600Y-147140800D01*
X140064600Y-159523300D02*
X140064600Y-153871800D01*
X140661100Y-160119800D02*
X140064600Y-159523300D01*
D48*
X171545600Y-144854800D02*
X171545600Y-143599800D01*
X171545600Y-143599800D02*
X171560600Y-143584800D01*
D49*
X170275600Y-143726800D02*
X170275600Y-144854800D01*
X170417600Y-143584800D02*
X170275600Y-143726800D01*
X167369600Y-143584800D02*
X170417600Y-143584800D01*
X166861600Y-143076800D02*
X167369600Y-143584800D01*
D47*
X128835600Y-147648800D02*
X128835600Y-146198800D01*
X128835600Y-146198800D02*
X127745600Y-145108800D01*
D45*
X106155600Y-164539800D02*
X105060600Y-164539800D01*
X105060600Y-164539800D02*
X103085600Y-162244800D01*
X111235600Y-168984800D02*
X111235600Y-168730800D01*
X111235600Y-168730800D02*
X108949600Y-166444800D01*
X108949600Y-166444800D02*
X108060600Y-166444800D01*
X108060600Y-166444800D02*
X106155600Y-164539800D01*
D49*
X162655600Y-162634800D02*
X162655600Y-160524300D01*
X151367600Y-161491800D02*
X151240600Y-161364800D01*
X156511100Y-161491800D02*
X151367600Y-161491800D01*
X158035100Y-159967800D02*
X156511100Y-161491800D01*
X162099100Y-159967800D02*
X158035100Y-159967800D01*
X162655600Y-160524300D02*
X162099100Y-159967800D01*
X148065600Y-153744800D02*
X148065600Y-158189800D01*
X148065600Y-158189800D02*
X151240600Y-161364800D01*
X160115600Y-162634800D02*
X160115600Y-163792800D01*
X143525100Y-161459800D02*
X141310600Y-161459800D01*
X147303600Y-165238300D02*
X143525100Y-161459800D01*
X158670100Y-165238300D02*
X147303600Y-165238300D01*
X160115600Y-163792800D02*
X158670100Y-165238300D01*
X156574600Y-162634800D02*
X150288100Y-162634800D01*
X145113100Y-157459800D02*
X141310600Y-157459800D01*
X150288100Y-162634800D02*
X145113100Y-157459800D01*
X157575600Y-162634800D02*
X156574600Y-162634800D01*
X108695600Y-168984800D02*
X109203600Y-168984800D01*
X109203600Y-168984800D02*
X110514898Y-170296098D01*
X123427600Y-164539800D02*
X123554600Y-164539800D01*
X117671302Y-170296098D02*
X123427600Y-164539800D01*
X110514898Y-170296098D02*
X117671302Y-170296098D01*
X169005600Y-163919800D02*
X169005600Y-162634800D01*
X165845600Y-167079800D02*
X169005600Y-163919800D01*
X131555600Y-167079800D02*
X165845600Y-167079800D01*
X129015600Y-164539800D02*
X131555600Y-167079800D01*
X123554600Y-164539800D02*
X129015600Y-164539800D01*
X170275600Y-162634800D02*
X170275600Y-163284800D01*
X170275600Y-163284800D02*
X165210600Y-168349800D01*
X165210600Y-168349800D02*
X130920600Y-168349800D01*
X130920600Y-168349800D02*
X127745600Y-165174800D01*
X127745600Y-165174800D02*
X123935600Y-165174800D01*
X123935600Y-165174800D02*
X118411100Y-170699300D01*
X118411100Y-170699300D02*
X107870100Y-170699300D01*
X107870100Y-170699300D02*
X106155600Y-168984800D01*
X141793600Y-158316800D02*
X141310600Y-158799800D01*
X144382600Y-158316800D02*
X141793600Y-158316800D01*
X146922600Y-160856800D02*
X144382600Y-158316800D01*
X156051600Y-158189800D02*
X155685600Y-158189800D01*
X155685600Y-158189800D02*
X153145600Y-160729800D01*
X158845600Y-163889800D02*
X158845600Y-162634800D01*
X158860600Y-163904800D02*
X158845600Y-163889800D01*
M02*
