G04 #@! TF.FileFunction,Copper,L2,Bot,Signal*
%FSLAX46Y46*%
G04 Gerber Fmt 4.6, Leading zero omitted, Abs format (unit mm)*
G04 Created by KiCad (PCBNEW 4.0.2+dfsg1-stable) date 2017年07月19日 12時55分51秒*
%MOMM*%
G01*
G04 APERTURE LIST*
%ADD10C,0.100000*%
%ADD11R,3.000000X3.000000*%
%ADD12O,4.000000X4.000000*%
%ADD13C,2.000000*%
%ADD14R,1.900000X2.000000*%
%ADD15C,1.900000*%
%ADD16C,1.501140*%
%ADD17C,2.999740*%
%ADD18R,2.032000X1.727200*%
%ADD19O,2.032000X1.727200*%
%ADD20C,1.524000*%
%ADD21C,1.500000*%
%ADD22R,2.032000X2.032000*%
%ADD23O,2.032000X2.032000*%
%ADD24C,0.900000*%
%ADD25R,1.727200X1.727200*%
%ADD26O,1.727200X1.727200*%
%ADD27R,1.300000X1.300000*%
%ADD28C,1.300000*%
%ADD29R,2.000000X2.000000*%
%ADD30O,1.700000X2.000000*%
%ADD31R,1.727200X2.032000*%
%ADD32O,1.727200X2.032000*%
%ADD33C,1.700000*%
%ADD34C,1.397000*%
%ADD35R,3.500120X2.301240*%
%ADD36C,5.000000*%
%ADD37C,2.540000*%
%ADD38C,1.399540*%
%ADD39C,0.600000*%
%ADD40C,1.016000*%
%ADD41C,0.508000*%
%ADD42C,0.381000*%
%ADD43C,0.203200*%
G04 APERTURE END LIST*
D10*
D11*
X176443600Y-49748800D03*
D12*
X176443600Y-123408800D03*
D13*
X176443600Y-91308800D03*
X176443600Y-71308800D03*
D14*
X165173600Y-41620800D03*
D15*
X167713600Y-41620800D03*
D16*
X104083480Y-112131940D03*
X104083480Y-114671940D03*
X104083480Y-116703940D03*
X104083480Y-119243940D03*
D17*
X106750480Y-109083940D03*
X106750480Y-122799940D03*
D18*
X138085600Y-63744800D03*
D19*
X138085600Y-66284800D03*
X138085600Y-68824800D03*
X138085600Y-71364800D03*
X138085600Y-73904800D03*
X138085600Y-76444800D03*
D20*
X160093600Y-46700800D03*
X170253600Y-46700800D03*
X134005600Y-112744800D03*
X144165600Y-112744800D03*
X148505600Y-112744800D03*
X158665600Y-112744800D03*
D21*
X179999600Y-39080800D03*
X179999600Y-44160800D03*
X172379600Y-39080800D03*
X172379600Y-44160800D03*
D22*
X125897600Y-131028800D03*
D23*
X149085600Y-131244800D03*
D24*
X109465600Y-73879800D03*
X109465600Y-72609800D03*
X110735600Y-73879800D03*
X110735600Y-72609800D03*
X112005600Y-73879800D03*
X112005600Y-72609800D03*
X113275600Y-73879800D03*
X113275600Y-72609800D03*
X114545600Y-73879800D03*
X114545600Y-72609800D03*
X115815600Y-73879800D03*
X115815600Y-72609800D03*
X117085600Y-73879800D03*
X117085600Y-72609800D03*
X118355600Y-73879800D03*
X118355600Y-72609800D03*
X119625600Y-73879800D03*
X119625600Y-72609800D03*
X120895600Y-73879800D03*
X120895600Y-72609800D03*
X122165600Y-73879800D03*
X122165600Y-72609800D03*
X123435600Y-73879800D03*
X123435600Y-72609800D03*
X124705600Y-73879800D03*
X124705600Y-72609800D03*
D20*
X142545600Y-85554800D03*
X140005600Y-85554800D03*
X137465600Y-85554800D03*
X134925600Y-85554800D03*
X132385600Y-85554800D03*
X129845600Y-85554800D03*
X127305600Y-85554800D03*
X124765600Y-85554800D03*
X122225600Y-85554800D03*
X119685600Y-85554800D03*
X117145600Y-85554800D03*
X114605600Y-85554800D03*
X112065600Y-85554800D03*
X109525600Y-85554800D03*
X106985600Y-85554800D03*
X104445600Y-85554800D03*
X101905600Y-85554800D03*
X99365600Y-85554800D03*
X96825600Y-85554800D03*
X94285600Y-85554800D03*
X94285600Y-100794800D03*
X96825600Y-100794800D03*
X99365600Y-100794800D03*
X101905600Y-100794800D03*
X104445600Y-100794800D03*
X106985600Y-100794800D03*
X109525600Y-100794800D03*
X112065600Y-100794800D03*
X114605600Y-100794800D03*
X117145600Y-100794800D03*
X119685600Y-100794800D03*
X122225600Y-100794800D03*
X124765600Y-100794800D03*
X127305600Y-100794800D03*
X129845600Y-100794800D03*
X132385600Y-100794800D03*
X134925600Y-100794800D03*
X137465600Y-100794800D03*
X140005600Y-100794800D03*
X142545600Y-100794800D03*
D22*
X98465600Y-116169800D03*
D23*
X98465600Y-118709800D03*
D25*
X170220600Y-117439800D03*
D26*
X167680600Y-117439800D03*
X170220600Y-114899800D03*
X167680600Y-114899800D03*
X170220600Y-112359800D03*
X167680600Y-112359800D03*
X170220600Y-109819800D03*
X167680600Y-109819800D03*
X170220600Y-107279800D03*
X167680600Y-107279800D03*
X170220600Y-104739800D03*
X167680600Y-104739800D03*
X170220600Y-102199800D03*
X167680600Y-102199800D03*
X170220600Y-99659800D03*
X167680600Y-99659800D03*
X170220600Y-97119800D03*
X167680600Y-97119800D03*
X170220600Y-94579800D03*
X167680600Y-94579800D03*
X170220600Y-92039800D03*
X167680600Y-92039800D03*
X170220600Y-89499800D03*
X167680600Y-89499800D03*
D27*
X111997600Y-144854800D03*
D28*
X114497600Y-144854800D03*
D29*
X132825600Y-153744800D03*
D13*
X135365600Y-153744800D03*
D30*
X148065600Y-143584800D03*
X145525600Y-143584800D03*
X142985600Y-143584800D03*
X132825600Y-145108800D03*
X130285600Y-145108800D03*
X127745600Y-145108800D03*
D31*
X106155600Y-164539800D03*
D32*
X108695600Y-164539800D03*
X111235600Y-164539800D03*
X113775600Y-164539800D03*
X116315600Y-164539800D03*
D33*
X116315600Y-168984800D03*
X111235600Y-168984800D03*
X113775600Y-168984800D03*
X108695600Y-168984800D03*
X106155600Y-168984800D03*
D18*
X148065600Y-153744800D03*
D19*
X150605600Y-151204800D03*
X150605600Y-156284800D03*
D34*
X121395600Y-146124800D03*
X123935600Y-146124800D03*
D13*
X111085600Y-157544640D03*
X111085600Y-149944960D03*
D35*
X159970580Y-139774800D03*
X165370620Y-139774800D03*
D34*
X129015600Y-151204800D03*
X129015600Y-156284800D03*
X121395600Y-151204800D03*
X121395600Y-156284800D03*
D36*
X167685600Y-155214800D03*
D37*
X159552600Y-104104800D03*
D38*
X135873600Y-141044800D03*
X153145600Y-147394800D03*
D37*
X153075600Y-109946800D03*
D39*
X136381600Y-159840800D03*
D38*
X116061600Y-155268800D03*
D39*
X123611600Y-103088800D03*
X109585600Y-83244800D03*
X162734100Y-137996800D03*
X171560600Y-143584800D03*
X175370600Y-138074800D03*
X166861600Y-143076800D03*
X146922600Y-160856800D03*
X153145600Y-160729800D03*
X158860600Y-163904800D03*
D40*
X158665600Y-104991800D02*
X158665600Y-105324800D01*
X159552600Y-104104800D02*
X158665600Y-104991800D01*
X167680600Y-112359800D02*
X159050600Y-112359800D01*
X159050600Y-112359800D02*
X158665600Y-112744800D01*
X96825600Y-85554800D02*
X96825600Y-76984800D01*
X96825600Y-76984800D02*
X97085600Y-76724800D01*
X142545600Y-100794800D02*
X140005600Y-100794800D01*
X158665600Y-112744800D02*
X158665600Y-105324800D01*
X158665600Y-105324800D02*
X154135600Y-100794800D01*
X154135600Y-100794800D02*
X142545600Y-100794800D01*
D41*
X123435600Y-72609800D02*
X123435600Y-65894800D01*
X123435600Y-65894800D02*
X123085600Y-66244800D01*
X123085600Y-66244800D02*
X123085600Y-66744800D01*
X123085600Y-66744800D02*
X123085600Y-66244800D01*
D40*
X98585600Y-93244800D02*
X98585600Y-89244800D01*
X95424740Y-109083940D02*
X92585600Y-106244800D01*
X92585600Y-106244800D02*
X92585600Y-99244800D01*
X92585600Y-99244800D02*
X98585600Y-93244800D01*
X106750480Y-109083940D02*
X95424740Y-109083940D01*
X155085600Y-69244800D02*
X155085600Y-71244800D01*
X155085600Y-71244800D02*
X155085600Y-71364800D01*
X143085600Y-57244800D02*
X155085600Y-69244800D01*
X132085600Y-57244800D02*
X143085600Y-57244800D01*
X122585600Y-66744800D02*
X123085600Y-66244800D01*
X123085600Y-66244800D02*
X132085600Y-57244800D01*
X98585600Y-66744800D02*
X122585600Y-66744800D01*
X97085600Y-68244800D02*
X98585600Y-66744800D01*
X97085600Y-76724800D02*
X97085600Y-68244800D01*
X96825600Y-76984800D02*
X97085600Y-76724800D01*
X96825600Y-87484800D02*
X96825600Y-76984800D01*
X98585600Y-89244800D02*
X96825600Y-87484800D01*
X138085600Y-71364800D02*
X148249600Y-71364800D01*
X148249600Y-71364800D02*
X155085600Y-71364800D01*
X155085600Y-71364800D02*
X165173600Y-71364800D01*
X165173600Y-71364800D02*
X165085600Y-71276800D01*
X165085600Y-71276800D02*
X165085600Y-71244800D01*
X165085600Y-71244800D02*
X165173600Y-71244800D01*
X165173600Y-41620800D02*
X165173600Y-71244800D01*
X165173600Y-71244800D02*
X165173600Y-74332800D01*
X176443600Y-85602800D02*
X176443600Y-91308800D01*
X165173600Y-74332800D02*
X176443600Y-85602800D01*
X113775600Y-164539800D02*
X113775600Y-162634800D01*
X108441600Y-152588960D02*
X111085600Y-149944960D01*
X108441600Y-158316800D02*
X108441600Y-152588960D01*
X110473600Y-160348800D02*
X108441600Y-158316800D01*
X111489600Y-160348800D02*
X110473600Y-160348800D01*
X113775600Y-162634800D02*
X111489600Y-160348800D01*
X140445600Y-143584800D02*
X138413600Y-143584800D01*
X138413600Y-143584800D02*
X135873600Y-141044800D01*
X137905600Y-143584800D02*
X140445600Y-143584800D01*
X142985600Y-146124800D02*
X145525600Y-146124800D01*
X140445600Y-143584800D02*
X142985600Y-146124800D01*
X142985600Y-143584800D02*
X145525600Y-146124800D01*
X145525600Y-146124800D02*
X147049600Y-147648800D01*
X147049600Y-147648800D02*
X152891600Y-147648800D01*
X152891600Y-147648800D02*
X153145600Y-147394800D01*
X153145600Y-146632800D02*
X153145600Y-143584800D01*
D42*
X153145600Y-146632800D02*
X153145600Y-147394800D01*
D40*
X153145600Y-143584800D02*
X156955600Y-139774800D01*
X156955600Y-139774800D02*
X159970580Y-139774800D01*
X116315600Y-168984800D02*
X116315600Y-164539800D01*
X116315600Y-164539800D02*
X113775600Y-164539800D01*
X142985600Y-143584800D02*
X137905600Y-143584800D01*
X137905600Y-143584800D02*
X132825600Y-145108800D01*
X135907600Y-108422800D02*
X151551600Y-108422800D01*
X151551600Y-108422800D02*
X153075600Y-109946800D01*
X134005600Y-112744800D02*
X107006458Y-112744800D01*
X98465600Y-114391800D02*
X98465600Y-116169800D01*
X102275600Y-110581800D02*
X98465600Y-114391800D01*
X104843458Y-110581800D02*
X102275600Y-110581800D01*
X107006458Y-112744800D02*
X104843458Y-110581800D01*
X137465600Y-100794800D02*
X137465600Y-106864800D01*
X134005600Y-110324800D02*
X134005600Y-112744800D01*
X137465600Y-106864800D02*
X135907600Y-108422800D01*
X135907600Y-108422800D02*
X134005600Y-110324800D01*
D43*
X135111600Y-148410800D02*
X137397600Y-150696800D01*
X137397600Y-150696800D02*
X137397600Y-156284800D01*
X137397600Y-156284800D02*
X136381600Y-157300800D01*
X136381600Y-157300800D02*
X136381600Y-159840800D01*
X127999600Y-148410800D02*
X135111600Y-148410800D01*
D40*
X116315600Y-149172800D02*
X116315600Y-155014800D01*
X116315600Y-155014800D02*
X116061600Y-155268800D01*
X130285600Y-145108800D02*
X130285600Y-146124800D01*
X116315600Y-149172800D02*
X111997600Y-144854800D01*
X127237600Y-149172800D02*
X116315600Y-149172800D01*
X130285600Y-146124800D02*
X127999600Y-148410800D01*
X127999600Y-148410800D02*
X127237600Y-149172800D01*
X130285600Y-145108800D02*
X130285600Y-141933800D01*
X148065600Y-140536800D02*
X148065600Y-143584800D01*
X146478100Y-138949300D02*
X148065600Y-140536800D01*
X133270100Y-138949300D02*
X146478100Y-138949300D01*
X130285600Y-141933800D02*
X133270100Y-138949300D01*
X176443600Y-71308800D02*
X176443600Y-49748800D01*
D43*
X106212600Y-103215800D02*
X123103600Y-103215800D01*
X123103600Y-103215800D02*
X123230600Y-103088800D01*
X123230600Y-103088800D02*
X123611600Y-103088800D01*
X104445600Y-101448800D02*
X106212600Y-103215800D01*
X104445600Y-100794800D02*
X104445600Y-101448800D01*
D41*
X114605600Y-100794800D02*
X114605600Y-100724800D01*
D43*
X101905600Y-85554800D02*
X101905600Y-87224800D01*
X168950600Y-106009800D02*
X170220600Y-104739800D01*
X168950600Y-110327800D02*
X168950600Y-106009800D01*
X168188600Y-111089800D02*
X168950600Y-110327800D01*
X165902600Y-111089800D02*
X168188600Y-111089800D01*
X162727600Y-107914800D02*
X165902600Y-111089800D01*
X162727600Y-101564800D02*
X162727600Y-107914800D01*
X154853600Y-93690800D02*
X162727600Y-101564800D01*
X108371600Y-93690800D02*
X154853600Y-93690800D01*
X101905600Y-87224800D02*
X108371600Y-93690800D01*
D41*
X109465600Y-73879800D02*
X109465600Y-75364800D01*
X101905600Y-82924800D02*
X101905600Y-85554800D01*
X109465600Y-75364800D02*
X101905600Y-82924800D01*
D43*
X167680600Y-109819800D02*
X165648600Y-109819800D01*
X117026600Y-93055800D02*
X109525600Y-85554800D01*
X155361600Y-93055800D02*
X117026600Y-93055800D01*
X163616600Y-101310800D02*
X155361600Y-93055800D01*
X163616600Y-107787800D02*
X163616600Y-101310800D01*
X165648600Y-109819800D02*
X163616600Y-107787800D01*
D41*
X112005600Y-72609800D02*
X112005600Y-72164800D01*
D43*
X106985600Y-85554800D02*
X107490600Y-85554800D01*
X107490600Y-85554800D02*
X108752600Y-84292800D01*
X164505600Y-104104800D02*
X167680600Y-107279800D01*
X164505600Y-101056800D02*
X164505600Y-104104800D01*
X155869600Y-92420800D02*
X164505600Y-101056800D01*
X116961814Y-92420800D02*
X155869600Y-92420800D01*
X110784600Y-86243586D02*
X116961814Y-92420800D01*
X110784600Y-84673800D02*
X110784600Y-86243586D01*
X110403600Y-84292800D02*
X110784600Y-84673800D01*
X108752600Y-84292800D02*
X110403600Y-84292800D01*
D41*
X113275600Y-73879800D02*
X113275600Y-76554800D01*
X106985600Y-82844800D02*
X106985600Y-85554800D01*
X113275600Y-76554800D02*
X106985600Y-82844800D01*
D43*
X167680600Y-104739800D02*
X166918600Y-104739800D01*
X166918600Y-104739800D02*
X165140600Y-102961800D01*
X165140600Y-102961800D02*
X165140600Y-100802800D01*
X165140600Y-100802800D02*
X155869600Y-91531800D01*
X155869600Y-91531800D02*
X118150600Y-91531800D01*
X118150600Y-91531800D02*
X113324600Y-86705800D01*
X113324600Y-86705800D02*
X113324600Y-83244800D01*
D41*
X124705600Y-73879800D02*
X124705600Y-75124800D01*
X116585600Y-83244800D02*
X113324600Y-83244800D01*
X113324600Y-83244800D02*
X109585600Y-83244800D01*
X124705600Y-75124800D02*
X116585600Y-83244800D01*
D40*
X167680600Y-114899800D02*
X167680600Y-117439800D01*
X104083480Y-119243940D02*
X132983460Y-119243940D01*
X134787600Y-117439800D02*
X167680600Y-117439800D01*
X132983460Y-119243940D02*
X134787600Y-117439800D01*
D43*
X162734100Y-137996800D02*
X164512100Y-139774800D01*
X164512100Y-139774800D02*
X165370620Y-139774800D01*
D42*
X171560600Y-143584800D02*
X171560600Y-142314800D01*
X165370620Y-139774800D02*
X166480600Y-139774800D01*
X166480600Y-139774800D02*
X167750600Y-141044800D01*
X166480600Y-139774800D02*
X167750600Y-141044800D01*
X167750600Y-141044800D02*
X169020600Y-142314800D01*
X172195600Y-142314800D02*
X171560600Y-142314800D01*
X171560600Y-142314800D02*
X169020600Y-142314800D01*
X174735600Y-139774800D02*
X172195600Y-142314800D01*
X174735600Y-138709800D02*
X174735600Y-139774800D01*
X174735600Y-138709800D02*
X175370600Y-138074800D01*
D43*
X123935600Y-146124800D02*
X123935600Y-145870800D01*
X123935600Y-145870800D02*
X132317600Y-137488800D01*
X166353600Y-142568800D02*
X166861600Y-143076800D01*
X164321600Y-142568800D02*
X166353600Y-142568800D01*
X162289600Y-140536800D02*
X164321600Y-142568800D01*
X162289600Y-138504800D02*
X162289600Y-140536800D01*
X161273600Y-137488800D02*
X162289600Y-138504800D01*
X132317600Y-137488800D02*
X161273600Y-137488800D01*
X123935600Y-146124800D02*
X125205600Y-146124800D01*
X125205600Y-146124800D02*
X127745600Y-145108800D01*
X145144600Y-162634800D02*
X146922600Y-160856800D01*
X136445100Y-162634800D02*
X145144600Y-162634800D01*
X130730100Y-156919800D02*
X136445100Y-162634800D01*
X130730100Y-152919300D02*
X130730100Y-156919800D01*
X129015600Y-151204800D02*
X130730100Y-152919300D01*
X121395600Y-151204800D02*
X129015600Y-151204800D01*
X153145600Y-160729800D02*
X146795600Y-160729800D01*
X111085600Y-157544640D02*
X129005440Y-157544640D01*
X158225600Y-164539800D02*
X158860600Y-163904800D01*
X136000600Y-164539800D02*
X158225600Y-164539800D01*
X129005440Y-157544640D02*
X136000600Y-164539800D01*
M02*
