G04 #@! TF.FileFunction,Soldermask,Bot*
%FSLAX46Y46*%
G04 Gerber Fmt 4.6, Leading zero omitted, Abs format (unit mm)*
G04 Created by KiCad (PCBNEW 4.0.2+dfsg1-stable) date 2017年07月19日 12時55分51秒*
%MOMM*%
G01*
G04 APERTURE LIST*
%ADD10C,0.100000*%
%ADD11R,3.400000X3.400000*%
%ADD12O,4.400000X4.400000*%
%ADD13C,2.400000*%
%ADD14C,1.900000*%
%ADD15R,2.300000X2.400000*%
%ADD16C,2.300000*%
%ADD17C,1.901140*%
%ADD18C,3.399740*%
%ADD19R,2.432000X2.127200*%
%ADD20O,2.432000X2.127200*%
%ADD21C,1.924000*%
%ADD22R,2.432000X2.432000*%
%ADD23O,2.432000X2.432000*%
%ADD24C,3.400000*%
%ADD25C,1.300000*%
%ADD26R,2.127200X2.127200*%
%ADD27O,2.127200X2.127200*%
%ADD28R,1.700000X1.700000*%
%ADD29C,1.700000*%
%ADD30R,2.400000X2.400000*%
%ADD31O,2.100000X2.400000*%
%ADD32R,2.127200X2.432000*%
%ADD33O,2.127200X2.432000*%
%ADD34C,2.100000*%
%ADD35C,1.797000*%
%ADD36R,3.900120X2.701240*%
%ADD37C,5.400000*%
G04 APERTURE END LIST*
D10*
D11*
X176443600Y-49748800D03*
D12*
X176443600Y-123408800D03*
D13*
X176443600Y-91308800D03*
X176443600Y-71308800D03*
D14*
X166843600Y-85308800D03*
X180843600Y-93408800D03*
X180843600Y-77208800D03*
D15*
X165173600Y-41620800D03*
D16*
X167713600Y-41620800D03*
D17*
X104083480Y-112131940D03*
X104083480Y-114671940D03*
X104083480Y-116703940D03*
X104083480Y-119243940D03*
D18*
X106750480Y-109083940D03*
X106750480Y-122799940D03*
D19*
X138085600Y-63744800D03*
D20*
X138085600Y-66284800D03*
X138085600Y-68824800D03*
X138085600Y-71364800D03*
X138085600Y-73904800D03*
X138085600Y-76444800D03*
D21*
X160093600Y-46700800D03*
X170253600Y-46700800D03*
X134005600Y-112744800D03*
X144165600Y-112744800D03*
X148505600Y-112744800D03*
X158665600Y-112744800D03*
D14*
X179999600Y-39080800D03*
X179999600Y-44160800D03*
X172379600Y-39080800D03*
X172379600Y-44160800D03*
D22*
X125897600Y-131028800D03*
D23*
X149085600Y-131244800D03*
D24*
X117085600Y-39344800D03*
X130985600Y-73244800D03*
X103685600Y-73244800D03*
D25*
X109465600Y-73879800D03*
X109465600Y-72609800D03*
X110735600Y-73879800D03*
X110735600Y-72609800D03*
X112005600Y-73879800D03*
X112005600Y-72609800D03*
X113275600Y-73879800D03*
X113275600Y-72609800D03*
X114545600Y-73879800D03*
X114545600Y-72609800D03*
X115815600Y-73879800D03*
X115815600Y-72609800D03*
X117085600Y-73879800D03*
X117085600Y-72609800D03*
X118355600Y-73879800D03*
X118355600Y-72609800D03*
X119625600Y-73879800D03*
X119625600Y-72609800D03*
X120895600Y-73879800D03*
X120895600Y-72609800D03*
X122165600Y-73879800D03*
X122165600Y-72609800D03*
X123435600Y-73879800D03*
X123435600Y-72609800D03*
X124705600Y-73879800D03*
X124705600Y-72609800D03*
D21*
X142545600Y-85554800D03*
X140005600Y-85554800D03*
X137465600Y-85554800D03*
X134925600Y-85554800D03*
X132385600Y-85554800D03*
X129845600Y-85554800D03*
X127305600Y-85554800D03*
X124765600Y-85554800D03*
X122225600Y-85554800D03*
X119685600Y-85554800D03*
X117145600Y-85554800D03*
X114605600Y-85554800D03*
X112065600Y-85554800D03*
X109525600Y-85554800D03*
X106985600Y-85554800D03*
X104445600Y-85554800D03*
X101905600Y-85554800D03*
X99365600Y-85554800D03*
X96825600Y-85554800D03*
X94285600Y-85554800D03*
X94285600Y-100794800D03*
X96825600Y-100794800D03*
X99365600Y-100794800D03*
X101905600Y-100794800D03*
X104445600Y-100794800D03*
X106985600Y-100794800D03*
X109525600Y-100794800D03*
X112065600Y-100794800D03*
X114605600Y-100794800D03*
X117145600Y-100794800D03*
X119685600Y-100794800D03*
X122225600Y-100794800D03*
X124765600Y-100794800D03*
X127305600Y-100794800D03*
X129845600Y-100794800D03*
X132385600Y-100794800D03*
X134925600Y-100794800D03*
X137465600Y-100794800D03*
X140005600Y-100794800D03*
X142545600Y-100794800D03*
D22*
X98465600Y-116169800D03*
D23*
X98465600Y-118709800D03*
D26*
X170220600Y-117439800D03*
D27*
X167680600Y-117439800D03*
X170220600Y-114899800D03*
X167680600Y-114899800D03*
X170220600Y-112359800D03*
X167680600Y-112359800D03*
X170220600Y-109819800D03*
X167680600Y-109819800D03*
X170220600Y-107279800D03*
X167680600Y-107279800D03*
X170220600Y-104739800D03*
X167680600Y-104739800D03*
X170220600Y-102199800D03*
X167680600Y-102199800D03*
X170220600Y-99659800D03*
X167680600Y-99659800D03*
X170220600Y-97119800D03*
X167680600Y-97119800D03*
X170220600Y-94579800D03*
X167680600Y-94579800D03*
X170220600Y-92039800D03*
X167680600Y-92039800D03*
X170220600Y-89499800D03*
X167680600Y-89499800D03*
D28*
X111997600Y-144854800D03*
D29*
X114497600Y-144854800D03*
D30*
X132825600Y-153744800D03*
D13*
X135365600Y-153744800D03*
D31*
X148065600Y-143584800D03*
X145525600Y-143584800D03*
X142985600Y-143584800D03*
X132825600Y-145108800D03*
X130285600Y-145108800D03*
X127745600Y-145108800D03*
D32*
X106155600Y-164539800D03*
D33*
X108695600Y-164539800D03*
X111235600Y-164539800D03*
X113775600Y-164539800D03*
X116315600Y-164539800D03*
D34*
X116315600Y-168984800D03*
X111235600Y-168984800D03*
X113775600Y-168984800D03*
X108695600Y-168984800D03*
X106155600Y-168984800D03*
D19*
X148065600Y-153744800D03*
D20*
X150605600Y-151204800D03*
X150605600Y-156284800D03*
D35*
X121395600Y-146124800D03*
X123935600Y-146124800D03*
D13*
X111085600Y-157544640D03*
X111085600Y-149944960D03*
D36*
X159970580Y-139774800D03*
X165370620Y-139774800D03*
D35*
X129015600Y-151204800D03*
X129015600Y-156284800D03*
X121395600Y-151204800D03*
X121395600Y-156284800D03*
D37*
X167685600Y-155214800D03*
M02*
