G04 #@! TF.FileFunction,Profile,NP*
%FSLAX46Y46*%
G04 Gerber Fmt 4.6, Leading zero omitted, Abs format (unit mm)*
G04 Created by KiCad (PCBNEW 4.0.2+dfsg1-stable) date 2017年09月12日 18時24分26秒*
%MOMM*%
G01*
G04 APERTURE LIST*
%ADD10C,0.100000*%
%ADD11C,0.200000*%
G04 APERTURE END LIST*
D10*
D11*
X181085600Y-72744800D02*
X181085600Y-156244800D01*
X179585600Y-72744800D02*
X181085600Y-72744800D01*
X179085600Y-72244800D02*
X179585600Y-72744800D01*
X179085600Y-70244800D02*
X179085600Y-72244800D01*
X179585600Y-69744800D02*
X179085600Y-70244800D01*
X181085600Y-69744800D02*
X179585600Y-69744800D01*
X181085600Y-36244800D02*
X181085600Y-69744800D01*
X168585600Y-36244800D02*
X181085600Y-36244800D01*
X168585600Y-37744800D02*
X168585600Y-36244800D01*
X167585600Y-38744800D02*
X168585600Y-37744800D01*
X166585600Y-38744800D02*
X167585600Y-38744800D01*
X165585600Y-37744800D02*
X166585600Y-38744800D01*
X165585600Y-36244800D02*
X165585600Y-37744800D01*
X101085600Y-36244800D02*
X165585600Y-36244800D01*
X101085600Y-111244800D02*
X101085600Y-36244800D01*
X91085600Y-111244800D02*
X101085600Y-111244800D01*
X91085600Y-156244800D02*
X91085600Y-111244800D01*
X126085600Y-156244800D02*
X91085600Y-156244800D01*
X126085600Y-141244800D02*
X126085600Y-156244800D01*
X146085600Y-141244800D02*
X126085600Y-141244800D01*
X146085600Y-156244800D02*
X146085600Y-141244800D01*
X181085600Y-156244800D02*
X146085600Y-156244800D01*
X173321668Y-131244800D02*
G75*
G03X173321668Y-131244800I-2236068J0D01*
G01*
X113321668Y-131244800D02*
G75*
G03X113321668Y-131244800I-2236068J0D01*
G01*
X123321668Y-56244800D02*
G75*
G03X123321668Y-56244800I-2236068J0D01*
G01*
X163321668Y-56244800D02*
G75*
G03X163321668Y-56244800I-2236068J0D01*
G01*
X113321668Y-56244800D02*
G75*
G03X113321668Y-56244800I-2236068J0D01*
G01*
X113321668Y-151244800D02*
G75*
G03X113321668Y-151244800I-2236068J0D01*
G01*
X156085600Y-139244800D02*
X157085600Y-139244800D01*
X156085600Y-143244800D02*
X166085600Y-143244800D01*
X157085600Y-139244800D02*
X166085600Y-139244800D01*
X106085600Y-143244800D02*
X116085600Y-143244800D01*
X106085600Y-139244800D02*
X116085600Y-139244800D01*
X154085600Y-141244800D02*
G75*
G03X156085600Y-143244800I2000000J0D01*
G01*
X156085600Y-139244800D02*
G75*
G03X154085600Y-141244800I0J-2000000D01*
G01*
X168085600Y-141244800D02*
G75*
G03X166085600Y-139244800I-2000000J0D01*
G01*
X166085600Y-143244800D02*
G75*
G03X168085600Y-141244800I0J2000000D01*
G01*
X118085600Y-141244800D02*
G75*
G03X116085600Y-139244800I-2000000J0D01*
G01*
X116085600Y-143244800D02*
G75*
G03X118085600Y-141244800I0J2000000D01*
G01*
X106085600Y-139244800D02*
G75*
G03X104085600Y-141244800I0J-2000000D01*
G01*
X104085600Y-141244800D02*
G75*
G03X106085600Y-143244800I2000000J0D01*
G01*
X173321668Y-56244800D02*
G75*
G03X173321668Y-56244800I-2236068J0D01*
G01*
X173321668Y-151244800D02*
G75*
G03X173321668Y-151244800I-2236068J0D01*
G01*
M02*
