M48
;DRILL file {KiCad 4.0.2+dfsg1-stable} date 2017年09月12日 18時24分28秒
;FORMAT={-:-/ absolute / inch / decimal}
FMAT,2
INCH,TZ
T1C0.016
T2C0.020
T3C0.030
T4C0.031
T5C0.032
T6C0.036
T7C0.039
T8C0.039
T9C0.040
T10C0.053
T11C0.080
%
G90
G05
M72
T1
X4.9216Y-4.7486
X4.9616Y-4.7786
X5.0356Y-2.8166
X5.0636Y-2.7886
X5.0956Y-2.7556
X5.1276Y-2.7246
X5.1446Y-2.1746
X5.1636Y-2.4116
X5.2496Y-2.2136
X5.2726Y-2.5016
X5.3026Y-2.8606
X5.3286Y-2.8376
X5.3316Y-2.2636
X5.3706Y-2.8226
X5.3746Y-2.4796
X5.3936Y-2.7886
X5.4266Y-2.6206
X5.4406Y-2.4006
X5.4736Y-2.1226
X5.5996Y-2.3686
X5.6466Y-3.1086
X5.6716Y-3.0796
X5.6986Y-3.0586
X5.7226Y-3.0366
X6.2286Y-2.6356
X6.2316Y-2.8606
X6.2596Y-2.9256
T2
X6.2766Y-2.7736
X6.2766Y-2.8236
X6.3266Y-2.7736
X6.3266Y-2.8236
X6.3766Y-2.7736
X6.3766Y-2.8236
X6.4266Y-2.7736
X6.4266Y-2.8236
X6.4766Y-2.7736
X6.4766Y-2.8236
X6.5266Y-2.7736
X6.5266Y-2.8236
X6.5766Y-2.7736
X6.5766Y-2.8236
X6.6266Y-2.7736
X6.6266Y-2.8236
X6.6766Y-2.7736
X6.6766Y-2.8236
X6.7266Y-2.7736
X6.7266Y-2.8236
X6.7766Y-2.7736
X6.7766Y-2.8236
X6.8266Y-2.7736
X6.8266Y-2.8236
X6.8766Y-2.7736
X6.8766Y-2.8236
T3
X4.0266Y-1.9486
X4.0266Y-2.5486
X4.1266Y-1.9486
X4.1266Y-2.5486
X4.2266Y-1.9486
X4.2266Y-2.5486
X4.3266Y-1.9486
X4.3266Y-2.5486
X4.4266Y-1.9486
X4.4266Y-2.5486
X4.5266Y-1.9486
X4.5266Y-2.5486
X4.6266Y-1.9486
X4.6266Y-2.5486
X4.7266Y-1.9486
X4.7266Y-2.5486
X4.8266Y-1.9486
X4.8266Y-2.5486
X4.9266Y-1.9486
X4.9266Y-2.5486
X5.0266Y-1.9486
X5.0266Y-2.5486
X5.1266Y-1.9486
X5.1266Y-2.5486
X5.2266Y-1.9486
X5.2266Y-2.5486
X5.3266Y-1.9486
X5.3266Y-2.5486
X5.4266Y-1.9486
X5.4266Y-2.5486
X5.5266Y-1.9486
X5.5266Y-2.5486
X5.6266Y-1.9486
X5.6266Y-2.5486
X5.7266Y-1.9486
X5.7266Y-2.5486
X5.8266Y-1.9486
X5.8266Y-2.5486
X5.9266Y-1.9486
X5.9266Y-2.5486
T4
X6.2266Y-3.0986
X6.2266Y-3.2955
T5
X4.0296Y-2.3966
X4.2116Y-1.7536
X4.4296Y-2.3966
X4.6116Y-1.7536
X5.2066Y-1.7536
X5.5366Y-2.2286
X5.5446Y-2.0936
X5.6066Y-1.7536
X5.9366Y-2.2286
X5.9446Y-2.0936
T6
X3.7766Y-4.6736
X3.7766Y-4.7524
X3.7766Y-4.8311
X3.7766Y-4.9098
X5.5904Y-3.4736
X5.6691Y-3.4736
X5.7479Y-3.4736
X5.8266Y-3.4736
T7
X4.0979Y-3.1592
X4.0979Y-3.4742
X5.3577Y-3.1789
X5.3577Y-3.4742
X5.7266Y-1.4736
X5.7266Y-1.7736
X5.9266Y-1.4736
X5.9266Y-1.7736
T8
X3.677Y-5.2236
X3.8606Y-5.1436
X3.9762Y-5.2236
X4.3406Y-2.6536
X5.1966Y-4.0786
X5.3196Y-4.5216
X5.5366Y-1.5086
X5.5366Y-1.6086
X5.7636Y-2.9776
X5.7636Y-3.2276
X6.0546Y-3.7536
X6.1736Y-1.8866
T9
X4.0416Y-2.7656
X4.2183Y-1.4844
X4.2183Y-1.5844
X4.2183Y-2.9427
X4.3183Y-1.4844
X4.3183Y-1.5844
X4.3183Y-2.9427
X4.4183Y-1.4844
X4.4183Y-1.5844
X4.4183Y-2.9427
X4.5183Y-1.4844
X4.5183Y-1.5844
X4.5183Y-2.9427
X4.6183Y-1.4844
X4.6183Y-1.5844
X4.6183Y-2.9427
X4.7183Y-1.4844
X4.7183Y-1.5844
X4.7183Y-2.9427
X4.8183Y-1.4844
X4.8183Y-1.5844
X4.8183Y-2.9427
X4.8853Y-5.4427
X4.9183Y-1.4844
X4.9183Y-1.5844
X4.9183Y-2.9427
X5.0183Y-1.4844
X5.0183Y-1.5844
X5.0183Y-2.9427
X5.1183Y-1.4844
X5.1183Y-1.5844
X5.1183Y-2.9427
X5.2183Y-1.4844
X5.2183Y-1.5844
X5.2183Y-2.9427
X5.3183Y-1.4844
X5.3183Y-1.5844
X5.3183Y-2.9427
X5.7516Y-2.7736
X5.7982Y-5.4512
X5.8516Y-2.7736
X6.4566Y-3.0736
X6.5266Y-3.3986
X6.5266Y-3.4986
X6.5266Y-3.5986
X6.5566Y-3.0736
X6.6266Y-3.3986
X6.6266Y-3.4986
X6.6266Y-3.5986
X6.6566Y-3.0736
X6.7266Y-3.3986
X6.7266Y-3.4986
X6.7266Y-3.5986
X6.7566Y-3.0736
X6.8266Y-3.3986
X6.8266Y-3.4986
X6.8266Y-3.5986
X6.8566Y-3.0736
X6.9566Y-3.0736
T10
X3.6695Y-4.6449
X3.6695Y-4.9205
X3.8837Y-4.6449
X3.8837Y-4.9205
X5.5797Y-3.3665
X5.5797Y-3.5807
X5.8553Y-3.3665
X5.8553Y-3.5807
T11
X4.129Y-4.0648
X4.129Y-4.9112
X4.129Y-5.7577
X7.029Y-4.0648
X7.029Y-4.9112
X7.029Y-5.7577
T5
X3.9325Y-5.7908G85X3.9325Y-5.7047
G05
T8
X3.6923Y-5.6297G85X3.7907Y-5.6297
G05
X3.6943Y-5.8758G85X3.7927Y-5.8758
G05
T0
M30
