G04 #@! TF.FileFunction,Copper,L2,Bot,Signal*
%FSLAX46Y46*%
G04 Gerber Fmt 4.6, Leading zero omitted, Abs format (unit mm)*
G04 Created by KiCad (PCBNEW 4.0.2+dfsg1-stable) date 2017年09月12日 18時24分26秒*
%MOMM*%
G01*
G04 APERTURE LIST*
%ADD10C,0.100000*%
%ADD11C,0.900000*%
%ADD12R,3.556000X3.556000*%
%ADD13C,3.556000*%
%ADD14R,2.000000X1.900000*%
%ADD15C,1.900000*%
%ADD16R,1.727200X2.032000*%
%ADD17O,1.727200X2.032000*%
%ADD18C,1.524000*%
%ADD19C,1.500000*%
%ADD20R,2.032000X2.032000*%
%ADD21O,2.032000X2.032000*%
%ADD22R,1.727200X1.727200*%
%ADD23O,1.727200X1.727200*%
%ADD24R,1.300000X1.300000*%
%ADD25C,1.300000*%
%ADD26R,2.999740X5.001260*%
%ADD27R,5.001260X5.001260*%
%ADD28R,2.235200X2.235200*%
%ADD29C,1.620000*%
%ADD30C,1.850000*%
%ADD31C,1.600200*%
%ADD32C,2.000000*%
%ADD33R,7.000000X3.000000*%
%ADD34R,5.000000X3.000000*%
%ADD35C,1.399540*%
%ADD36C,0.600000*%
%ADD37C,1.270000*%
%ADD38C,1.016000*%
%ADD39C,0.203200*%
%ADD40C,0.508000*%
%ADD41C,0.381000*%
G04 APERTURE END LIST*
D10*
D11*
X174665600Y-71719800D03*
X174665600Y-70449800D03*
X173395600Y-71719800D03*
X173395600Y-70449800D03*
X172125600Y-71719800D03*
X172125600Y-70449800D03*
X170855600Y-71719800D03*
X170855600Y-70449800D03*
X169585600Y-71719800D03*
X169585600Y-70449800D03*
X168315600Y-71719800D03*
X168315600Y-70449800D03*
X167045600Y-71719800D03*
X167045600Y-70449800D03*
X165775600Y-71719800D03*
X165775600Y-70449800D03*
X164505600Y-71719800D03*
X164505600Y-70449800D03*
X163235600Y-71719800D03*
X163235600Y-70449800D03*
X161965600Y-71719800D03*
X161965600Y-70449800D03*
X160695600Y-71719800D03*
X160695600Y-70449800D03*
X159425600Y-71719800D03*
X159425600Y-70449800D03*
D12*
X104875600Y-124744800D03*
D13*
X178535600Y-124744800D03*
D14*
X140629600Y-38318800D03*
D15*
X140629600Y-40858800D03*
D16*
X163997600Y-78069800D03*
D17*
X166537600Y-78069800D03*
X169077600Y-78069800D03*
X171617600Y-78069800D03*
X174157600Y-78069800D03*
X176697600Y-78069800D03*
D18*
X132247600Y-44541800D03*
X142407600Y-44541800D03*
X150789600Y-56606800D03*
X140629600Y-56606800D03*
X140832800Y-53177800D03*
X150992800Y-53177800D03*
D19*
X150535600Y-45049800D03*
X145455600Y-45049800D03*
X150535600Y-37429800D03*
X145455600Y-37429800D03*
D20*
X124085600Y-138244800D03*
D21*
X147273600Y-138460800D03*
D18*
X102275600Y-64734800D03*
X104815600Y-64734800D03*
X107355600Y-64734800D03*
X109895600Y-64734800D03*
X112435600Y-64734800D03*
X114975600Y-64734800D03*
X117515600Y-64734800D03*
X120055600Y-64734800D03*
X122595600Y-64734800D03*
X125135600Y-64734800D03*
X127675600Y-64734800D03*
X130215600Y-64734800D03*
X132755600Y-64734800D03*
X135295600Y-64734800D03*
X137835600Y-64734800D03*
X140375600Y-64734800D03*
X142915600Y-64734800D03*
X145455600Y-64734800D03*
X147995600Y-64734800D03*
X150535600Y-64734800D03*
X150535600Y-49494800D03*
X147995600Y-49494800D03*
X145455600Y-49494800D03*
X142915600Y-49494800D03*
X140375600Y-49494800D03*
X137835600Y-49494800D03*
X135295600Y-49494800D03*
X132755600Y-49494800D03*
X130215600Y-49494800D03*
X127675600Y-49494800D03*
X125135600Y-49494800D03*
X122595600Y-49494800D03*
X120055600Y-49494800D03*
X117515600Y-49494800D03*
X114975600Y-49494800D03*
X112435600Y-49494800D03*
X109895600Y-49494800D03*
X107355600Y-49494800D03*
X104815600Y-49494800D03*
X102275600Y-49494800D03*
D20*
X148630600Y-70449800D03*
D21*
X146090600Y-70449800D03*
D22*
X135085600Y-40244800D03*
D23*
X135085600Y-37704800D03*
X132545600Y-40244800D03*
X132545600Y-37704800D03*
X130005600Y-40244800D03*
X130005600Y-37704800D03*
X127465600Y-40244800D03*
X127465600Y-37704800D03*
X124925600Y-40244800D03*
X124925600Y-37704800D03*
X122385600Y-40244800D03*
X122385600Y-37704800D03*
X119845600Y-40244800D03*
X119845600Y-37704800D03*
X117305600Y-40244800D03*
X117305600Y-37704800D03*
X114765600Y-40244800D03*
X114765600Y-37704800D03*
X112225600Y-40244800D03*
X112225600Y-37704800D03*
X109685600Y-40244800D03*
X109685600Y-37704800D03*
X107145600Y-40244800D03*
X107145600Y-37704800D03*
D24*
X158155600Y-78704800D03*
D25*
X158155600Y-83704800D03*
D26*
X99886200Y-145993600D03*
D27*
X95034800Y-142993860D03*
X95085600Y-149244800D03*
D28*
X102656600Y-70246600D03*
D16*
X135085600Y-74744800D03*
D17*
X132545600Y-74744800D03*
X130005600Y-74744800D03*
X127465600Y-74744800D03*
X124925600Y-74744800D03*
X122385600Y-74744800D03*
X119845600Y-74744800D03*
X117305600Y-74744800D03*
X114765600Y-74744800D03*
X112225600Y-74744800D03*
X109685600Y-74744800D03*
X107145600Y-74744800D03*
D29*
X147995600Y-88229800D03*
X145995600Y-88229800D03*
X143995600Y-88229800D03*
D30*
X148725600Y-90949800D03*
D29*
X141995600Y-88229800D03*
D30*
X141725600Y-90949800D03*
X148725600Y-85509800D03*
X141725600Y-85509800D03*
D29*
X95925600Y-118709800D03*
X95925600Y-120709800D03*
X95925600Y-122709800D03*
D30*
X98645600Y-117979800D03*
D29*
X95925600Y-124709800D03*
D30*
X98645600Y-124979800D03*
X93205600Y-117979800D03*
X93205600Y-124979800D03*
D16*
X165775600Y-86324800D03*
D17*
X168315600Y-86324800D03*
X170855600Y-86324800D03*
X173395600Y-86324800D03*
D16*
X165775600Y-88864800D03*
D17*
X168315600Y-88864800D03*
X170855600Y-88864800D03*
X173395600Y-88864800D03*
D16*
X165775600Y-91404800D03*
D17*
X168315600Y-91404800D03*
X170855600Y-91404800D03*
X173395600Y-91404800D03*
D18*
X112511800Y-60874000D03*
X102351800Y-60874000D03*
X106974600Y-44541800D03*
X117134600Y-44541800D03*
D31*
X146395400Y-81981400D03*
X146395400Y-75631400D03*
D32*
X93395760Y-132679800D03*
X100995440Y-132679800D03*
D33*
X136085600Y-80744800D03*
X136085600Y-88244800D03*
D34*
X104085600Y-88244800D03*
X104085600Y-80244800D03*
D12*
X104875600Y-146244800D03*
D13*
X178535600Y-146244800D03*
D12*
X104875600Y-103244800D03*
D13*
X178535600Y-103244800D03*
D35*
X110251200Y-67401800D03*
D36*
X158206400Y-66944600D03*
D35*
X131993600Y-103596800D03*
D36*
X139029400Y-53914400D03*
X137835600Y-66563600D03*
X135422600Y-57495800D03*
X133339800Y-56225800D03*
X130672800Y-55235200D03*
X131155400Y-61255000D03*
X142229800Y-60162800D03*
X138191200Y-60975600D03*
X136514800Y-62982200D03*
X158282600Y-72659600D03*
X133924000Y-63541000D03*
D35*
X98059200Y-130647800D03*
X153786800Y-95341800D03*
D36*
X158993800Y-74310600D03*
D35*
X135117800Y-114849000D03*
X156809400Y-47920000D03*
D36*
X126024600Y-121376800D03*
X125008600Y-120614800D03*
X143423600Y-78958800D03*
X134686000Y-72659600D03*
X127904200Y-71542000D03*
X144058600Y-78222200D03*
X135346400Y-72075400D03*
X128615400Y-70830800D03*
X129428200Y-69992600D03*
X136413200Y-71694400D03*
X144744400Y-77688800D03*
X145354000Y-77130000D03*
X136997400Y-70830800D03*
X130241000Y-69205200D03*
D37*
X95925600Y-124709800D02*
X93475600Y-124709800D01*
X93475600Y-124709800D02*
X93205600Y-124979800D01*
X93205600Y-117979800D02*
X93205600Y-124979800D01*
X105882400Y-66258800D02*
X106390400Y-66258800D01*
X110251200Y-67376400D02*
X110251200Y-67401800D01*
X109311400Y-66436600D02*
X110251200Y-67376400D01*
X106568200Y-66436600D02*
X109311400Y-66436600D01*
X106390400Y-66258800D02*
X106568200Y-66436600D01*
D38*
X103367800Y-66258800D02*
X105882400Y-66258800D01*
X105882400Y-66258800D02*
X106009400Y-66258800D01*
X106009400Y-66258800D02*
X106085600Y-66182600D01*
D39*
X102351800Y-60874000D02*
X102555000Y-60874000D01*
X102555000Y-60874000D02*
X104815600Y-58613400D01*
D40*
X103367800Y-66081000D02*
X103367800Y-66258800D01*
X103571000Y-65877800D02*
X103367800Y-66081000D01*
X104815600Y-61813800D02*
X104815600Y-62296400D01*
X103571000Y-63541000D02*
X103571000Y-64709400D01*
X104815600Y-62296400D02*
X103571000Y-63541000D01*
X103571000Y-64709400D02*
X103571000Y-65877800D01*
X104815600Y-61813800D02*
X104815600Y-61813800D01*
X104815600Y-61813800D02*
X106111000Y-63109200D01*
X106111000Y-66157200D02*
X106085600Y-66182600D01*
X106111000Y-63109200D02*
X106111000Y-66157200D01*
X104815600Y-61813800D02*
X104815600Y-61204200D01*
D37*
X104815600Y-49494800D02*
X104815600Y-58613400D01*
X104815600Y-58613400D02*
X104815600Y-61204200D01*
X141725600Y-85509800D02*
X140850600Y-85509800D01*
X140850600Y-85509800D02*
X136085600Y-80744800D01*
X141995600Y-88229800D02*
X141995600Y-90679800D01*
X141995600Y-90679800D02*
X141725600Y-90949800D01*
X141725600Y-85509800D02*
X141725600Y-87959800D01*
X141725600Y-87959800D02*
X141995600Y-88229800D01*
X146395400Y-81981400D02*
X146395400Y-83179600D01*
X146395400Y-83179600D02*
X148725600Y-85509800D01*
X165775600Y-91404800D02*
X161533800Y-91404800D01*
X158155600Y-88026600D02*
X158155600Y-83704800D01*
X161533800Y-91404800D02*
X158155600Y-88026600D01*
X171617600Y-78069800D02*
X171617600Y-78323800D01*
D40*
X160670200Y-67681200D02*
X161711600Y-68722600D01*
X158943000Y-67681200D02*
X160670200Y-67681200D01*
X158206400Y-66944600D02*
X158943000Y-67681200D01*
D39*
X150992800Y-53177800D02*
X150992800Y-53863600D01*
X150992800Y-53863600D02*
X147995600Y-56911600D01*
X147995600Y-56911600D02*
X147995600Y-64734800D01*
D41*
X104815600Y-49494800D02*
X102275600Y-49494800D01*
X112225600Y-37704800D02*
X112225600Y-38046200D01*
X112225600Y-38046200D02*
X110962400Y-39309400D01*
X104815600Y-44846600D02*
X104815600Y-49494800D01*
X106695200Y-42967000D02*
X104815600Y-44846600D01*
X109463800Y-42967000D02*
X106695200Y-42967000D01*
X110962400Y-41468400D02*
X109463800Y-42967000D01*
X110962400Y-39309400D02*
X110962400Y-41468400D01*
D39*
X164505600Y-70449800D02*
X163235600Y-71719800D01*
X160695600Y-70449800D02*
X160695600Y-69738600D01*
X160695600Y-69738600D02*
X161711600Y-68722600D01*
X164505600Y-69306800D02*
X164505600Y-70449800D01*
X161711600Y-68722600D02*
X163921400Y-68722600D01*
X163921400Y-68722600D02*
X164505600Y-69306800D01*
D41*
X130005600Y-37704800D02*
X130490600Y-37704800D01*
X130490600Y-37704800D02*
X131765000Y-38979200D01*
X131765000Y-38979200D02*
X139969200Y-38979200D01*
X139969200Y-38979200D02*
X140629600Y-38318800D01*
X112225600Y-37704800D02*
X112532800Y-37704800D01*
X112532800Y-37704800D02*
X113807200Y-38979200D01*
X113807200Y-38979200D02*
X118571200Y-38979200D01*
X118571200Y-38979200D02*
X119845600Y-37704800D01*
D37*
X98645600Y-124979800D02*
X96195600Y-124979800D01*
X96195600Y-124979800D02*
X95925600Y-124709800D01*
X98645600Y-117979800D02*
X98645600Y-124979800D01*
D39*
X131739600Y-81956000D02*
X131739600Y-80076400D01*
X136540200Y-64404600D02*
X139054800Y-61890000D01*
X136540200Y-66131800D02*
X136540200Y-64404600D01*
X128717000Y-73955000D02*
X136540200Y-66131800D01*
X128717000Y-77053800D02*
X128717000Y-73955000D01*
X131739600Y-80076400D02*
X128717000Y-77053800D01*
D41*
X131739600Y-103342800D02*
X131739600Y-81956000D01*
X131993600Y-103596800D02*
X131739600Y-103342800D01*
D39*
X139054800Y-61890000D02*
X139054800Y-54701800D01*
X139054800Y-54701800D02*
X139029400Y-53914400D01*
D37*
X104875600Y-124744800D02*
X104875600Y-103244800D01*
X100995440Y-132679800D02*
X101208800Y-132679800D01*
X101208800Y-132679800D02*
X104875600Y-129013000D01*
X104875600Y-129013000D02*
X104875600Y-124744800D01*
X104875600Y-146244800D02*
X104875600Y-145109600D01*
X104875600Y-145109600D02*
X102834400Y-143068400D01*
X102834400Y-143068400D02*
X102834400Y-134518760D01*
X102834400Y-134518760D02*
X100995440Y-132679800D01*
D39*
X140629600Y-40858800D02*
X140629600Y-42763800D01*
X140629600Y-42763800D02*
X142407600Y-44541800D01*
X132247600Y-44541800D02*
X132882600Y-44541800D01*
X132882600Y-44541800D02*
X137835600Y-49494800D01*
X143144200Y-72685000D02*
X146903400Y-72685000D01*
X150027600Y-75809200D02*
X150027600Y-82768800D01*
X146903400Y-72685000D02*
X150027600Y-75809200D01*
X141645600Y-63769600D02*
X141645600Y-61382000D01*
X141645600Y-61382000D02*
X140629600Y-60366000D01*
X143144200Y-72685000D02*
X141645600Y-71186400D01*
X140629600Y-56606800D02*
X140629600Y-60366000D01*
X141645600Y-63769600D02*
X141645600Y-71186400D01*
X147273600Y-116891800D02*
X147273600Y-138460800D01*
X151170600Y-112994800D02*
X147273600Y-116891800D01*
X151170600Y-83911800D02*
X151170600Y-112994800D01*
X150027600Y-82768800D02*
X151170600Y-83911800D01*
X150535600Y-45049800D02*
X147487600Y-45049800D01*
X144185600Y-49875800D02*
X140832800Y-53177800D01*
X144185600Y-48351800D02*
X144185600Y-49875800D01*
X147487600Y-45049800D02*
X144185600Y-48351800D01*
D38*
X140832800Y-53177800D02*
X140629600Y-56606800D01*
X150535600Y-37429800D02*
X150535600Y-45049800D01*
D39*
X137835600Y-66563600D02*
X138419800Y-67147800D01*
X138419800Y-67147800D02*
X138419800Y-70043400D01*
X138419800Y-70043400D02*
X144007800Y-75631400D01*
X144007800Y-75631400D02*
X146395400Y-75631400D01*
X145455600Y-45049800D02*
X144820600Y-45049800D01*
X144820600Y-45049800D02*
X140375600Y-49494800D01*
X145455600Y-37429800D02*
X145455600Y-45049800D01*
X135295600Y-49494800D02*
X135295600Y-57368800D01*
X135295600Y-57368800D02*
X135422600Y-57495800D01*
X132755600Y-49494800D02*
X132755600Y-55641600D01*
X132755600Y-55641600D02*
X133339800Y-56225800D01*
X130215600Y-54778000D02*
X130215600Y-49494800D01*
X130672800Y-55235200D02*
X130215600Y-54778000D01*
X127675600Y-49494800D02*
X127675600Y-59451600D01*
X122367000Y-72532600D02*
X121071600Y-73828000D01*
X129174200Y-72532600D02*
X122367000Y-72532600D01*
X131384000Y-70322800D02*
X129174200Y-72532600D01*
X131384000Y-63160000D02*
X131384000Y-70322800D01*
X127675600Y-59451600D02*
X131384000Y-63160000D01*
X124085600Y-138244800D02*
X124085600Y-86671800D01*
X121071600Y-83657800D02*
X121071600Y-73828000D01*
X124085600Y-86671800D02*
X121071600Y-83657800D01*
X122385600Y-40244800D02*
X128971000Y-46830200D01*
X128971000Y-59070600D02*
X128971000Y-46830200D01*
X128971000Y-59070600D02*
X131155400Y-61255000D01*
X142915600Y-64734800D02*
X142915600Y-60848600D01*
X142915600Y-60848600D02*
X142229800Y-60162800D01*
X128818600Y-41087400D02*
X128818600Y-41290600D01*
X138191200Y-57724400D02*
X138191200Y-60975600D01*
X138191200Y-57724400D02*
X138191200Y-57724400D01*
X138191200Y-52390400D02*
X138191200Y-57724400D01*
X139283400Y-51298200D02*
X138191200Y-52390400D01*
X139283400Y-45075200D02*
X139283400Y-51298200D01*
X136794200Y-42586000D02*
X139283400Y-45075200D01*
X130114000Y-42586000D02*
X136794200Y-42586000D01*
X128818600Y-41290600D02*
X130114000Y-42586000D01*
X127465600Y-37704800D02*
X127465600Y-37981800D01*
X127465600Y-37981800D02*
X128818600Y-39334800D01*
X128818600Y-39334800D02*
X128818600Y-41087400D01*
X130279100Y-46484900D02*
X133962100Y-46484900D01*
X136489400Y-61636000D02*
X136514800Y-62982200D01*
X136489400Y-49012200D02*
X136489400Y-61636000D01*
X133962100Y-46484900D02*
X136489400Y-49012200D01*
X124925600Y-37704800D02*
X124928000Y-37704800D01*
X124928000Y-37704800D02*
X126227800Y-39004600D01*
X126227800Y-42433600D02*
X130279100Y-46484900D01*
X126227800Y-39004600D02*
X126227800Y-42433600D01*
X159425600Y-71719800D02*
X159222400Y-71719800D01*
X159222400Y-71719800D02*
X158282600Y-72659600D01*
X129275800Y-46294400D02*
X129301200Y-46294400D01*
X132171400Y-61788400D02*
X133924000Y-63541000D01*
X132171400Y-60975600D02*
X132171400Y-61788400D01*
X131561800Y-60366000D02*
X132171400Y-60975600D01*
X131561800Y-48555000D02*
X131561800Y-60366000D01*
X129301200Y-46294400D02*
X131561800Y-48555000D01*
X122385600Y-37704800D02*
X122385600Y-38032600D01*
X122385600Y-38032600D02*
X123662400Y-39309400D01*
X123662400Y-39309400D02*
X123662400Y-40681000D01*
X123662400Y-40681000D02*
X129275800Y-46294400D01*
X129275800Y-46294400D02*
X129301200Y-46319800D01*
D37*
X104085600Y-88244800D02*
X104085600Y-98154600D01*
X100929400Y-127777600D02*
X98059200Y-130647800D01*
X100929400Y-121453000D02*
X100929400Y-127777600D01*
X102174000Y-120208400D02*
X100929400Y-121453000D01*
X102174000Y-100066200D02*
X102174000Y-120208400D01*
X104085600Y-98154600D02*
X102174000Y-100066200D01*
X150535600Y-64734800D02*
X150535600Y-56860800D01*
X150535600Y-56860800D02*
X150789600Y-56606800D01*
X104085600Y-88244800D02*
X104699000Y-88244800D01*
X163870600Y-95341800D02*
X153786800Y-95341800D01*
X153786800Y-95341800D02*
X153761400Y-95367200D01*
X173395600Y-88864800D02*
X174233800Y-88864800D01*
X174233800Y-88864800D02*
X175884800Y-90515800D01*
X175503800Y-95341800D02*
X163870600Y-95341800D01*
X163870600Y-95341800D02*
X163845200Y-95341800D01*
X175884800Y-94960800D02*
X175503800Y-95341800D01*
X175884800Y-90515800D02*
X175884800Y-94960800D01*
X160924200Y-74031200D02*
X159273200Y-74031200D01*
X161711600Y-86045400D02*
X161711600Y-74818600D01*
X161711600Y-74818600D02*
X160924200Y-74031200D01*
X164531000Y-88864800D02*
X161711600Y-86045400D01*
X159273200Y-74031200D02*
X158993800Y-74310600D01*
X165775600Y-88864800D02*
X164531000Y-88864800D01*
D40*
X160695600Y-71719800D02*
X160695600Y-73116800D01*
X162118000Y-86451800D02*
X164531000Y-88864800D01*
X162118000Y-74539200D02*
X162118000Y-86451800D01*
X160695600Y-73116800D02*
X162118000Y-74539200D01*
D37*
X148630600Y-70449800D02*
X148630600Y-66639800D01*
X148630600Y-66639800D02*
X150535600Y-64734800D01*
D39*
X112511800Y-60874000D02*
X112511800Y-62118600D01*
X112511800Y-62118600D02*
X109895600Y-64734800D01*
D37*
X136085600Y-88244800D02*
X136085600Y-113881200D01*
X136085600Y-113881200D02*
X135117800Y-114849000D01*
X146090600Y-70449800D02*
X146090600Y-65369800D01*
X146090600Y-65369800D02*
X145455600Y-64734800D01*
X158155600Y-78704800D02*
X158155600Y-76215600D01*
X156809400Y-74869400D02*
X156809400Y-47920000D01*
X158155600Y-76215600D02*
X156809400Y-74869400D01*
D39*
X132545600Y-74744800D02*
X132545600Y-75079400D01*
X132545600Y-75079400D02*
X131714200Y-75910800D01*
X131714200Y-75910800D02*
X131714200Y-77155400D01*
X131714200Y-77155400D02*
X132577800Y-78019000D01*
X132577800Y-78019000D02*
X134813000Y-78019000D01*
X134813000Y-78019000D02*
X135168600Y-77663400D01*
X135168600Y-77663400D02*
X138800800Y-77663400D01*
X138800800Y-77663400D02*
X142941000Y-81803600D01*
X142941000Y-81803600D02*
X142941000Y-82210000D01*
X142941000Y-82210000D02*
X142382200Y-82768800D01*
X142382200Y-82768800D02*
X142382200Y-83200600D01*
X142382200Y-83200600D02*
X144820600Y-85639000D01*
X144820600Y-85639000D02*
X144820600Y-85715200D01*
X144820600Y-85715200D02*
X143995600Y-86540200D01*
X143995600Y-86540200D02*
X143995600Y-88229800D01*
X133822400Y-75758400D02*
X133822400Y-76368000D01*
X134457400Y-77003000D02*
X134711400Y-77003000D01*
X133822400Y-76368000D02*
X134457400Y-77003000D01*
X145995600Y-88229800D02*
X145995600Y-85137600D01*
X145995600Y-85137600D02*
X143601400Y-82743400D01*
X143601400Y-82743400D02*
X143601400Y-81397200D01*
X143601400Y-81397200D02*
X139207200Y-77003000D01*
X139207200Y-77003000D02*
X134711400Y-77003000D01*
X131180800Y-72786600D02*
X130005600Y-73961800D01*
X132679400Y-72786600D02*
X131180800Y-72786600D01*
X133822400Y-73929600D02*
X132679400Y-72786600D01*
X133822400Y-75758400D02*
X133822400Y-73929600D01*
X130005600Y-73961800D02*
X130005600Y-74744800D01*
X126735800Y-86477200D02*
X126329400Y-86477200D01*
X122316200Y-79644600D02*
X127216000Y-74744800D01*
X122316200Y-82464000D02*
X122316200Y-79644600D01*
X126329400Y-86477200D02*
X122316200Y-82464000D01*
X127216000Y-74744800D02*
X127465600Y-74744800D01*
X126735800Y-120665600D02*
X126735800Y-86477200D01*
X126024600Y-121376800D02*
X126735800Y-120665600D01*
X124925600Y-74744800D02*
X124925600Y-75142000D01*
X124925600Y-75142000D02*
X121732000Y-78335600D01*
X121732000Y-82972000D02*
X125415000Y-86655000D01*
X121732000Y-78335600D02*
X121732000Y-82972000D01*
X125415000Y-120208400D02*
X125415000Y-86655000D01*
X125008600Y-120614800D02*
X125415000Y-120208400D01*
X125415000Y-75234200D02*
X124925600Y-74744800D01*
X143423600Y-78958800D02*
X142890200Y-78425400D01*
X142890200Y-78425400D02*
X141417000Y-78425400D01*
X141417000Y-78425400D02*
X136184600Y-73193000D01*
X136184600Y-73193000D02*
X135219400Y-73193000D01*
X135219400Y-73193000D02*
X134686000Y-72659600D01*
X127904200Y-71542000D02*
X122595600Y-66233400D01*
X122595600Y-66233400D02*
X121859000Y-66233400D01*
X121859000Y-66233400D02*
X121300200Y-65674600D01*
X121300200Y-65674600D02*
X121300200Y-62271000D01*
X121300200Y-62271000D02*
X116779000Y-57749800D01*
X116779000Y-57749800D02*
X116779000Y-50231400D01*
X116779000Y-50231400D02*
X117515600Y-49494800D01*
X120055600Y-49494800D02*
X120055600Y-51399800D01*
X144033200Y-78222200D02*
X144058600Y-78222200D01*
X143804600Y-77993600D02*
X144033200Y-78222200D01*
X142077400Y-77993600D02*
X143804600Y-77993600D01*
X136718000Y-72634200D02*
X142077400Y-77993600D01*
X135905200Y-72634200D02*
X136718000Y-72634200D01*
X135346400Y-72075400D02*
X135905200Y-72634200D01*
X123865600Y-66081000D02*
X128615400Y-70830800D01*
X123865600Y-63312400D02*
X123865600Y-66081000D01*
X117617200Y-57064000D02*
X123865600Y-63312400D01*
X117617200Y-53838200D02*
X117617200Y-57064000D01*
X120055600Y-51399800D02*
X117617200Y-53838200D01*
X124119600Y-51018800D02*
X122595600Y-49494800D01*
X124119600Y-61356600D02*
X124119600Y-51018800D01*
X126380200Y-63617200D02*
X124119600Y-61356600D01*
X126380200Y-66944600D02*
X126380200Y-63617200D01*
X129428200Y-69992600D02*
X126380200Y-66944600D01*
X136768800Y-71694400D02*
X136413200Y-71694400D01*
X142407600Y-77333200D02*
X136768800Y-71694400D01*
X144388800Y-77333200D02*
X142407600Y-77333200D01*
X144744400Y-77688800D02*
X144388800Y-77333200D01*
X125135600Y-49494800D02*
X125135600Y-61128000D01*
X144896800Y-76672800D02*
X145354000Y-77130000D01*
X142839400Y-76672800D02*
X144896800Y-76672800D01*
X136997400Y-70830800D02*
X142839400Y-76672800D01*
X130190200Y-69205200D02*
X130241000Y-69205200D01*
X128894800Y-67909800D02*
X130190200Y-69205200D01*
X128894800Y-63972800D02*
X128894800Y-67909800D01*
X128361400Y-63439400D02*
X128894800Y-63972800D01*
X127447000Y-63439400D02*
X128361400Y-63439400D01*
X125135600Y-61128000D02*
X127447000Y-63439400D01*
X106974600Y-44541800D02*
X106974600Y-47208800D01*
X107355600Y-59908800D02*
X107355600Y-64734800D01*
X106085600Y-58638800D02*
X107355600Y-59908800D01*
X106085600Y-48097800D02*
X106085600Y-58638800D01*
X106974600Y-47208800D02*
X106085600Y-48097800D01*
X117305600Y-40244800D02*
X117305600Y-44370800D01*
X117305600Y-44370800D02*
X117134600Y-44541800D01*
M02*
