G04 #@! TF.FileFunction,Legend,Top*
%FSLAX46Y46*%
G04 Gerber Fmt 4.6, Leading zero omitted, Abs format (unit mm)*
G04 Created by KiCad (PCBNEW 4.0.2+dfsg1-stable) date 2017年09月12日 18時24分26秒*
%MOMM*%
G01*
G04 APERTURE LIST*
%ADD10C,0.100000*%
%ADD11C,0.300000*%
%ADD12C,0.200000*%
%ADD13C,0.150000*%
%ADD14C,0.381000*%
%ADD15C,0.304800*%
%ADD16C,0.125000*%
G04 APERTURE END LIST*
D10*
D11*
X132053601Y-139073371D02*
X131339315Y-139073371D01*
X131339315Y-137573371D01*
X132553601Y-138287657D02*
X133053601Y-138287657D01*
X133267887Y-139073371D02*
X132553601Y-139073371D01*
X132553601Y-137573371D01*
X133267887Y-137573371D01*
X133839315Y-138644800D02*
X134553601Y-138644800D01*
X133696458Y-139073371D02*
X134196458Y-137573371D01*
X134696458Y-139073371D01*
X135196458Y-139073371D02*
X135196458Y-137573371D01*
X135553601Y-137573371D01*
X135767886Y-137644800D01*
X135910744Y-137787657D01*
X135982172Y-137930514D01*
X136053601Y-138216229D01*
X136053601Y-138430514D01*
X135982172Y-138716229D01*
X135910744Y-138859086D01*
X135767886Y-139001943D01*
X135553601Y-139073371D01*
X135196458Y-139073371D01*
X137767886Y-139001943D02*
X137982172Y-139073371D01*
X138339315Y-139073371D01*
X138482172Y-139001943D01*
X138553601Y-138930514D01*
X138625029Y-138787657D01*
X138625029Y-138644800D01*
X138553601Y-138501943D01*
X138482172Y-138430514D01*
X138339315Y-138359086D01*
X138053601Y-138287657D01*
X137910743Y-138216229D01*
X137839315Y-138144800D01*
X137767886Y-138001943D01*
X137767886Y-137859086D01*
X137839315Y-137716229D01*
X137910743Y-137644800D01*
X138053601Y-137573371D01*
X138410743Y-137573371D01*
X138625029Y-137644800D01*
X139125029Y-137573371D02*
X139482172Y-139073371D01*
X139767886Y-138001943D01*
X140053600Y-139073371D01*
X140410743Y-137573371D01*
X120085600Y-101459086D02*
X122371314Y-101459086D01*
X121228457Y-102601943D02*
X121228457Y-100316229D01*
X127657028Y-102601943D02*
X125942743Y-102601943D01*
X126799885Y-102601943D02*
X126799885Y-99601943D01*
X126514171Y-100030514D01*
X126228457Y-100316229D01*
X125942743Y-100459086D01*
X129371314Y-100887657D02*
X129085600Y-100744800D01*
X128942743Y-100601943D01*
X128799886Y-100316229D01*
X128799886Y-100173371D01*
X128942743Y-99887657D01*
X129085600Y-99744800D01*
X129371314Y-99601943D01*
X129942743Y-99601943D01*
X130228457Y-99744800D01*
X130371314Y-99887657D01*
X130514171Y-100173371D01*
X130514171Y-100316229D01*
X130371314Y-100601943D01*
X130228457Y-100744800D01*
X129942743Y-100887657D01*
X129371314Y-100887657D01*
X129085600Y-101030514D01*
X128942743Y-101173371D01*
X128799886Y-101459086D01*
X128799886Y-102030514D01*
X128942743Y-102316229D01*
X129085600Y-102459086D01*
X129371314Y-102601943D01*
X129942743Y-102601943D01*
X130228457Y-102459086D01*
X130371314Y-102316229D01*
X130514171Y-102030514D01*
X130514171Y-101459086D01*
X130371314Y-101173371D01*
X130228457Y-101030514D01*
X129942743Y-100887657D01*
X133085600Y-99601943D02*
X132514171Y-99601943D01*
X132228457Y-99744800D01*
X132085600Y-99887657D01*
X131799886Y-100316229D01*
X131657029Y-100887657D01*
X131657029Y-102030514D01*
X131799886Y-102316229D01*
X131942743Y-102459086D01*
X132228457Y-102601943D01*
X132799886Y-102601943D01*
X133085600Y-102459086D01*
X133228457Y-102316229D01*
X133371314Y-102030514D01*
X133371314Y-101316229D01*
X133228457Y-101030514D01*
X133085600Y-100887657D01*
X132799886Y-100744800D01*
X132228457Y-100744800D01*
X131942743Y-100887657D01*
X131799886Y-101030514D01*
X131657029Y-101316229D01*
X136085600Y-99601943D02*
X134657029Y-99601943D01*
X134514172Y-101030514D01*
X134657029Y-100887657D01*
X134942743Y-100744800D01*
X135657029Y-100744800D01*
X135942743Y-100887657D01*
X136085600Y-101030514D01*
X136228457Y-101316229D01*
X136228457Y-102030514D01*
X136085600Y-102316229D01*
X135942743Y-102459086D01*
X135657029Y-102601943D01*
X134942743Y-102601943D01*
X134657029Y-102459086D01*
X134514172Y-102316229D01*
X138085600Y-99601943D02*
X138371315Y-99601943D01*
X138657029Y-99744800D01*
X138799886Y-99887657D01*
X138942743Y-100173371D01*
X139085600Y-100744800D01*
X139085600Y-101459086D01*
X138942743Y-102030514D01*
X138799886Y-102316229D01*
X138657029Y-102459086D01*
X138371315Y-102601943D01*
X138085600Y-102601943D01*
X137799886Y-102459086D01*
X137657029Y-102316229D01*
X137514172Y-102030514D01*
X137371315Y-101459086D01*
X137371315Y-100744800D01*
X137514172Y-100173371D01*
X137657029Y-99887657D01*
X137799886Y-99744800D01*
X138085600Y-99601943D01*
X143657029Y-101030514D02*
X142657029Y-101030514D01*
X142657029Y-102601943D02*
X142657029Y-99601943D01*
X144085600Y-99601943D01*
X146371315Y-102459086D02*
X146085601Y-102601943D01*
X145514172Y-102601943D01*
X145228458Y-102459086D01*
X145085601Y-102173371D01*
X145085601Y-101030514D01*
X145228458Y-100744800D01*
X145514172Y-100601943D01*
X146085601Y-100601943D01*
X146371315Y-100744800D01*
X146514172Y-101030514D01*
X146514172Y-101316229D01*
X145085601Y-101601943D01*
X149228458Y-102601943D02*
X147799887Y-102601943D01*
X147799887Y-99601943D01*
X150228458Y-102601943D02*
X150228458Y-100601943D01*
X150228458Y-99601943D02*
X150085601Y-99744800D01*
X150228458Y-99887657D01*
X150371315Y-99744800D01*
X150228458Y-99601943D01*
X150228458Y-99887657D01*
X151657029Y-102601943D02*
X151657029Y-99601943D01*
X152799886Y-99601943D01*
X153085600Y-99744800D01*
X153228457Y-99887657D01*
X153371314Y-100173371D01*
X153371314Y-100601943D01*
X153228457Y-100887657D01*
X153085600Y-101030514D01*
X152799886Y-101173371D01*
X151657029Y-101173371D01*
X155228457Y-99601943D02*
X155514172Y-99601943D01*
X155799886Y-99744800D01*
X155942743Y-99887657D01*
X156085600Y-100173371D01*
X156228457Y-100744800D01*
X156228457Y-101459086D01*
X156085600Y-102030514D01*
X155942743Y-102316229D01*
X155799886Y-102459086D01*
X155514172Y-102601943D01*
X155228457Y-102601943D01*
X154942743Y-102459086D01*
X154799886Y-102316229D01*
X154657029Y-102030514D01*
X154514172Y-101459086D01*
X154514172Y-100744800D01*
X154657029Y-100173371D01*
X154799886Y-99887657D01*
X154942743Y-99744800D01*
X155228457Y-99601943D01*
X159799886Y-101459086D02*
X162085600Y-101459086D01*
X120085600Y-146459086D02*
X122371314Y-146459086D01*
X121228457Y-147601943D02*
X121228457Y-145316229D01*
X127657028Y-147601943D02*
X125942743Y-147601943D01*
X126799885Y-147601943D02*
X126799885Y-144601943D01*
X126514171Y-145030514D01*
X126228457Y-145316229D01*
X125942743Y-145459086D01*
X129371314Y-145887657D02*
X129085600Y-145744800D01*
X128942743Y-145601943D01*
X128799886Y-145316229D01*
X128799886Y-145173371D01*
X128942743Y-144887657D01*
X129085600Y-144744800D01*
X129371314Y-144601943D01*
X129942743Y-144601943D01*
X130228457Y-144744800D01*
X130371314Y-144887657D01*
X130514171Y-145173371D01*
X130514171Y-145316229D01*
X130371314Y-145601943D01*
X130228457Y-145744800D01*
X129942743Y-145887657D01*
X129371314Y-145887657D01*
X129085600Y-146030514D01*
X128942743Y-146173371D01*
X128799886Y-146459086D01*
X128799886Y-147030514D01*
X128942743Y-147316229D01*
X129085600Y-147459086D01*
X129371314Y-147601943D01*
X129942743Y-147601943D01*
X130228457Y-147459086D01*
X130371314Y-147316229D01*
X130514171Y-147030514D01*
X130514171Y-146459086D01*
X130371314Y-146173371D01*
X130228457Y-146030514D01*
X129942743Y-145887657D01*
X133085600Y-144601943D02*
X132514171Y-144601943D01*
X132228457Y-144744800D01*
X132085600Y-144887657D01*
X131799886Y-145316229D01*
X131657029Y-145887657D01*
X131657029Y-147030514D01*
X131799886Y-147316229D01*
X131942743Y-147459086D01*
X132228457Y-147601943D01*
X132799886Y-147601943D01*
X133085600Y-147459086D01*
X133228457Y-147316229D01*
X133371314Y-147030514D01*
X133371314Y-146316229D01*
X133228457Y-146030514D01*
X133085600Y-145887657D01*
X132799886Y-145744800D01*
X132228457Y-145744800D01*
X131942743Y-145887657D01*
X131799886Y-146030514D01*
X131657029Y-146316229D01*
X136085600Y-144601943D02*
X134657029Y-144601943D01*
X134514172Y-146030514D01*
X134657029Y-145887657D01*
X134942743Y-145744800D01*
X135657029Y-145744800D01*
X135942743Y-145887657D01*
X136085600Y-146030514D01*
X136228457Y-146316229D01*
X136228457Y-147030514D01*
X136085600Y-147316229D01*
X135942743Y-147459086D01*
X135657029Y-147601943D01*
X134942743Y-147601943D01*
X134657029Y-147459086D01*
X134514172Y-147316229D01*
X138085600Y-144601943D02*
X138371315Y-144601943D01*
X138657029Y-144744800D01*
X138799886Y-144887657D01*
X138942743Y-145173371D01*
X139085600Y-145744800D01*
X139085600Y-146459086D01*
X138942743Y-147030514D01*
X138799886Y-147316229D01*
X138657029Y-147459086D01*
X138371315Y-147601943D01*
X138085600Y-147601943D01*
X137799886Y-147459086D01*
X137657029Y-147316229D01*
X137514172Y-147030514D01*
X137371315Y-146459086D01*
X137371315Y-145744800D01*
X137514172Y-145173371D01*
X137657029Y-144887657D01*
X137799886Y-144744800D01*
X138085600Y-144601943D01*
X143657029Y-146030514D02*
X142657029Y-146030514D01*
X142657029Y-147601943D02*
X142657029Y-144601943D01*
X144085600Y-144601943D01*
X146371315Y-147459086D02*
X146085601Y-147601943D01*
X145514172Y-147601943D01*
X145228458Y-147459086D01*
X145085601Y-147173371D01*
X145085601Y-146030514D01*
X145228458Y-145744800D01*
X145514172Y-145601943D01*
X146085601Y-145601943D01*
X146371315Y-145744800D01*
X146514172Y-146030514D01*
X146514172Y-146316229D01*
X145085601Y-146601943D01*
X149228458Y-147601943D02*
X147799887Y-147601943D01*
X147799887Y-144601943D01*
X150228458Y-147601943D02*
X150228458Y-145601943D01*
X150228458Y-144601943D02*
X150085601Y-144744800D01*
X150228458Y-144887657D01*
X150371315Y-144744800D01*
X150228458Y-144601943D01*
X150228458Y-144887657D01*
X151657029Y-147601943D02*
X151657029Y-144601943D01*
X152799886Y-144601943D01*
X153085600Y-144744800D01*
X153228457Y-144887657D01*
X153371314Y-145173371D01*
X153371314Y-145601943D01*
X153228457Y-145887657D01*
X153085600Y-146030514D01*
X152799886Y-146173371D01*
X151657029Y-146173371D01*
X155228457Y-144601943D02*
X155514172Y-144601943D01*
X155799886Y-144744800D01*
X155942743Y-144887657D01*
X156085600Y-145173371D01*
X156228457Y-145744800D01*
X156228457Y-146459086D01*
X156085600Y-147030514D01*
X155942743Y-147316229D01*
X155799886Y-147459086D01*
X155514172Y-147601943D01*
X155228457Y-147601943D01*
X154942743Y-147459086D01*
X154799886Y-147316229D01*
X154657029Y-147030514D01*
X154514172Y-146459086D01*
X154514172Y-145744800D01*
X154657029Y-145173371D01*
X154799886Y-144887657D01*
X154942743Y-144744800D01*
X155228457Y-144601943D01*
X159799886Y-146459086D02*
X162085600Y-146459086D01*
X120085600Y-126459086D02*
X122371314Y-126459086D01*
X121228457Y-127601943D02*
X121228457Y-125316229D01*
X127657028Y-127601943D02*
X125942743Y-127601943D01*
X126799885Y-127601943D02*
X126799885Y-124601943D01*
X126514171Y-125030514D01*
X126228457Y-125316229D01*
X125942743Y-125459086D01*
X129371314Y-125887657D02*
X129085600Y-125744800D01*
X128942743Y-125601943D01*
X128799886Y-125316229D01*
X128799886Y-125173371D01*
X128942743Y-124887657D01*
X129085600Y-124744800D01*
X129371314Y-124601943D01*
X129942743Y-124601943D01*
X130228457Y-124744800D01*
X130371314Y-124887657D01*
X130514171Y-125173371D01*
X130514171Y-125316229D01*
X130371314Y-125601943D01*
X130228457Y-125744800D01*
X129942743Y-125887657D01*
X129371314Y-125887657D01*
X129085600Y-126030514D01*
X128942743Y-126173371D01*
X128799886Y-126459086D01*
X128799886Y-127030514D01*
X128942743Y-127316229D01*
X129085600Y-127459086D01*
X129371314Y-127601943D01*
X129942743Y-127601943D01*
X130228457Y-127459086D01*
X130371314Y-127316229D01*
X130514171Y-127030514D01*
X130514171Y-126459086D01*
X130371314Y-126173371D01*
X130228457Y-126030514D01*
X129942743Y-125887657D01*
X133085600Y-124601943D02*
X132514171Y-124601943D01*
X132228457Y-124744800D01*
X132085600Y-124887657D01*
X131799886Y-125316229D01*
X131657029Y-125887657D01*
X131657029Y-127030514D01*
X131799886Y-127316229D01*
X131942743Y-127459086D01*
X132228457Y-127601943D01*
X132799886Y-127601943D01*
X133085600Y-127459086D01*
X133228457Y-127316229D01*
X133371314Y-127030514D01*
X133371314Y-126316229D01*
X133228457Y-126030514D01*
X133085600Y-125887657D01*
X132799886Y-125744800D01*
X132228457Y-125744800D01*
X131942743Y-125887657D01*
X131799886Y-126030514D01*
X131657029Y-126316229D01*
X136085600Y-124601943D02*
X134657029Y-124601943D01*
X134514172Y-126030514D01*
X134657029Y-125887657D01*
X134942743Y-125744800D01*
X135657029Y-125744800D01*
X135942743Y-125887657D01*
X136085600Y-126030514D01*
X136228457Y-126316229D01*
X136228457Y-127030514D01*
X136085600Y-127316229D01*
X135942743Y-127459086D01*
X135657029Y-127601943D01*
X134942743Y-127601943D01*
X134657029Y-127459086D01*
X134514172Y-127316229D01*
X138085600Y-124601943D02*
X138371315Y-124601943D01*
X138657029Y-124744800D01*
X138799886Y-124887657D01*
X138942743Y-125173371D01*
X139085600Y-125744800D01*
X139085600Y-126459086D01*
X138942743Y-127030514D01*
X138799886Y-127316229D01*
X138657029Y-127459086D01*
X138371315Y-127601943D01*
X138085600Y-127601943D01*
X137799886Y-127459086D01*
X137657029Y-127316229D01*
X137514172Y-127030514D01*
X137371315Y-126459086D01*
X137371315Y-125744800D01*
X137514172Y-125173371D01*
X137657029Y-124887657D01*
X137799886Y-124744800D01*
X138085600Y-124601943D01*
X143657029Y-126030514D02*
X142657029Y-126030514D01*
X142657029Y-127601943D02*
X142657029Y-124601943D01*
X144085600Y-124601943D01*
X146371315Y-127459086D02*
X146085601Y-127601943D01*
X145514172Y-127601943D01*
X145228458Y-127459086D01*
X145085601Y-127173371D01*
X145085601Y-126030514D01*
X145228458Y-125744800D01*
X145514172Y-125601943D01*
X146085601Y-125601943D01*
X146371315Y-125744800D01*
X146514172Y-126030514D01*
X146514172Y-126316229D01*
X145085601Y-126601943D01*
X149228458Y-127601943D02*
X147799887Y-127601943D01*
X147799887Y-124601943D01*
X150228458Y-127601943D02*
X150228458Y-125601943D01*
X150228458Y-124601943D02*
X150085601Y-124744800D01*
X150228458Y-124887657D01*
X150371315Y-124744800D01*
X150228458Y-124601943D01*
X150228458Y-124887657D01*
X151657029Y-127601943D02*
X151657029Y-124601943D01*
X152799886Y-124601943D01*
X153085600Y-124744800D01*
X153228457Y-124887657D01*
X153371314Y-125173371D01*
X153371314Y-125601943D01*
X153228457Y-125887657D01*
X153085600Y-126030514D01*
X152799886Y-126173371D01*
X151657029Y-126173371D01*
X155228457Y-124601943D02*
X155514172Y-124601943D01*
X155799886Y-124744800D01*
X155942743Y-124887657D01*
X156085600Y-125173371D01*
X156228457Y-125744800D01*
X156228457Y-126459086D01*
X156085600Y-127030514D01*
X155942743Y-127316229D01*
X155799886Y-127459086D01*
X155514172Y-127601943D01*
X155228457Y-127601943D01*
X154942743Y-127459086D01*
X154799886Y-127316229D01*
X154657029Y-127030514D01*
X154514172Y-126459086D01*
X154514172Y-125744800D01*
X154657029Y-125173371D01*
X154799886Y-124887657D01*
X154942743Y-124744800D01*
X155228457Y-124601943D01*
X159799886Y-126459086D02*
X162085600Y-126459086D01*
X93140800Y-130391343D02*
X93355086Y-130462771D01*
X93712229Y-130462771D01*
X93855086Y-130391343D01*
X93926515Y-130319914D01*
X93997943Y-130177057D01*
X93997943Y-130034200D01*
X93926515Y-129891343D01*
X93855086Y-129819914D01*
X93712229Y-129748486D01*
X93426515Y-129677057D01*
X93283657Y-129605629D01*
X93212229Y-129534200D01*
X93140800Y-129391343D01*
X93140800Y-129248486D01*
X93212229Y-129105629D01*
X93283657Y-129034200D01*
X93426515Y-128962771D01*
X93783657Y-128962771D01*
X93997943Y-129034200D01*
X94497943Y-128962771D02*
X94855086Y-130462771D01*
X95140800Y-129391343D01*
X95426514Y-130462771D01*
X95783657Y-128962771D01*
X96355086Y-130462771D02*
X96355086Y-128962771D01*
X96855086Y-128962771D02*
X97712229Y-128962771D01*
X97283658Y-130462771D02*
X97283658Y-128962771D01*
X99069372Y-130319914D02*
X98997943Y-130391343D01*
X98783657Y-130462771D01*
X98640800Y-130462771D01*
X98426515Y-130391343D01*
X98283657Y-130248486D01*
X98212229Y-130105629D01*
X98140800Y-129819914D01*
X98140800Y-129605629D01*
X98212229Y-129319914D01*
X98283657Y-129177057D01*
X98426515Y-129034200D01*
X98640800Y-128962771D01*
X98783657Y-128962771D01*
X98997943Y-129034200D01*
X99069372Y-129105629D01*
X99712229Y-130462771D02*
X99712229Y-128962771D01*
X99712229Y-129677057D02*
X100569372Y-129677057D01*
X100569372Y-130462771D02*
X100569372Y-128962771D01*
X106479115Y-84945971D02*
X106479115Y-83445971D01*
X106979115Y-84517400D01*
X107479115Y-83445971D01*
X107479115Y-84945971D01*
X107979115Y-83445971D02*
X108836258Y-83445971D01*
X108407687Y-84945971D02*
X108407687Y-83445971D01*
X109193401Y-83445971D02*
X110121972Y-83445971D01*
X109621972Y-84017400D01*
X109836258Y-84017400D01*
X109979115Y-84088829D01*
X110050544Y-84160257D01*
X110121972Y-84303114D01*
X110121972Y-84660257D01*
X110050544Y-84803114D01*
X109979115Y-84874543D01*
X109836258Y-84945971D01*
X109407686Y-84945971D01*
X109264829Y-84874543D01*
X109193401Y-84803114D01*
X111407686Y-83445971D02*
X111121972Y-83445971D01*
X110979115Y-83517400D01*
X110907686Y-83588829D01*
X110764829Y-83803114D01*
X110693400Y-84088829D01*
X110693400Y-84660257D01*
X110764829Y-84803114D01*
X110836257Y-84874543D01*
X110979115Y-84945971D01*
X111264829Y-84945971D01*
X111407686Y-84874543D01*
X111479115Y-84803114D01*
X111550543Y-84660257D01*
X111550543Y-84303114D01*
X111479115Y-84160257D01*
X111407686Y-84088829D01*
X111264829Y-84017400D01*
X110979115Y-84017400D01*
X110836257Y-84088829D01*
X110764829Y-84160257D01*
X110693400Y-84303114D01*
X112479114Y-83445971D02*
X112621971Y-83445971D01*
X112764828Y-83517400D01*
X112836257Y-83588829D01*
X112907686Y-83731686D01*
X112979114Y-84017400D01*
X112979114Y-84374543D01*
X112907686Y-84660257D01*
X112836257Y-84803114D01*
X112764828Y-84874543D01*
X112621971Y-84945971D01*
X112479114Y-84945971D01*
X112336257Y-84874543D01*
X112264828Y-84803114D01*
X112193400Y-84660257D01*
X112121971Y-84374543D01*
X112121971Y-84017400D01*
X112193400Y-83731686D01*
X112264828Y-83588829D01*
X112336257Y-83517400D01*
X112479114Y-83445971D01*
X113836257Y-84088829D02*
X113693399Y-84017400D01*
X113621971Y-83945971D01*
X113550542Y-83803114D01*
X113550542Y-83731686D01*
X113621971Y-83588829D01*
X113693399Y-83517400D01*
X113836257Y-83445971D01*
X114121971Y-83445971D01*
X114264828Y-83517400D01*
X114336257Y-83588829D01*
X114407685Y-83731686D01*
X114407685Y-83803114D01*
X114336257Y-83945971D01*
X114264828Y-84017400D01*
X114121971Y-84088829D01*
X113836257Y-84088829D01*
X113693399Y-84160257D01*
X113621971Y-84231686D01*
X113550542Y-84374543D01*
X113550542Y-84660257D01*
X113621971Y-84803114D01*
X113693399Y-84874543D01*
X113836257Y-84945971D01*
X114121971Y-84945971D01*
X114264828Y-84874543D01*
X114336257Y-84803114D01*
X114407685Y-84660257D01*
X114407685Y-84374543D01*
X114336257Y-84231686D01*
X114264828Y-84160257D01*
X114121971Y-84088829D01*
X116693399Y-84160257D02*
X116907685Y-84231686D01*
X116979113Y-84303114D01*
X117050542Y-84445971D01*
X117050542Y-84660257D01*
X116979113Y-84803114D01*
X116907685Y-84874543D01*
X116764827Y-84945971D01*
X116193399Y-84945971D01*
X116193399Y-83445971D01*
X116693399Y-83445971D01*
X116836256Y-83517400D01*
X116907685Y-83588829D01*
X116979113Y-83731686D01*
X116979113Y-83874543D01*
X116907685Y-84017400D01*
X116836256Y-84088829D01*
X116693399Y-84160257D01*
X116193399Y-84160257D01*
X117907685Y-84945971D02*
X117764827Y-84874543D01*
X117693399Y-84803114D01*
X117621970Y-84660257D01*
X117621970Y-84231686D01*
X117693399Y-84088829D01*
X117764827Y-84017400D01*
X117907685Y-83945971D01*
X118121970Y-83945971D01*
X118264827Y-84017400D01*
X118336256Y-84088829D01*
X118407685Y-84231686D01*
X118407685Y-84660257D01*
X118336256Y-84803114D01*
X118264827Y-84874543D01*
X118121970Y-84945971D01*
X117907685Y-84945971D01*
X119264828Y-84945971D02*
X119121970Y-84874543D01*
X119050542Y-84803114D01*
X118979113Y-84660257D01*
X118979113Y-84231686D01*
X119050542Y-84088829D01*
X119121970Y-84017400D01*
X119264828Y-83945971D01*
X119479113Y-83945971D01*
X119621970Y-84017400D01*
X119693399Y-84088829D01*
X119764828Y-84231686D01*
X119764828Y-84660257D01*
X119693399Y-84803114D01*
X119621970Y-84874543D01*
X119479113Y-84945971D01*
X119264828Y-84945971D01*
X120336256Y-84874543D02*
X120479113Y-84945971D01*
X120764828Y-84945971D01*
X120907685Y-84874543D01*
X120979113Y-84731686D01*
X120979113Y-84660257D01*
X120907685Y-84517400D01*
X120764828Y-84445971D01*
X120550542Y-84445971D01*
X120407685Y-84374543D01*
X120336256Y-84231686D01*
X120336256Y-84160257D01*
X120407685Y-84017400D01*
X120550542Y-83945971D01*
X120764828Y-83945971D01*
X120907685Y-84017400D01*
X121407685Y-83945971D02*
X121979114Y-83945971D01*
X121621971Y-83445971D02*
X121621971Y-84731686D01*
X121693399Y-84874543D01*
X121836257Y-84945971D01*
X121979114Y-84945971D01*
X123621971Y-84945971D02*
X123621971Y-83445971D01*
X123979114Y-83445971D01*
X124193399Y-83517400D01*
X124336257Y-83660257D01*
X124407685Y-83803114D01*
X124479114Y-84088829D01*
X124479114Y-84303114D01*
X124407685Y-84588829D01*
X124336257Y-84731686D01*
X124193399Y-84874543D01*
X123979114Y-84945971D01*
X123621971Y-84945971D01*
X125979114Y-84803114D02*
X125907685Y-84874543D01*
X125693399Y-84945971D01*
X125550542Y-84945971D01*
X125336257Y-84874543D01*
X125193399Y-84731686D01*
X125121971Y-84588829D01*
X125050542Y-84303114D01*
X125050542Y-84088829D01*
X125121971Y-83803114D01*
X125193399Y-83660257D01*
X125336257Y-83517400D01*
X125550542Y-83445971D01*
X125693399Y-83445971D01*
X125907685Y-83517400D01*
X125979114Y-83588829D01*
X126621971Y-84945971D02*
X126621971Y-83445971D01*
X126979114Y-83445971D01*
X127193399Y-83517400D01*
X127336257Y-83660257D01*
X127407685Y-83803114D01*
X127479114Y-84088829D01*
X127479114Y-84303114D01*
X127407685Y-84588829D01*
X127336257Y-84731686D01*
X127193399Y-84874543D01*
X126979114Y-84945971D01*
X126621971Y-84945971D01*
X128979114Y-84803114D02*
X128907685Y-84874543D01*
X128693399Y-84945971D01*
X128550542Y-84945971D01*
X128336257Y-84874543D01*
X128193399Y-84731686D01*
X128121971Y-84588829D01*
X128050542Y-84303114D01*
X128050542Y-84088829D01*
X128121971Y-83803114D01*
X128193399Y-83660257D01*
X128336257Y-83517400D01*
X128550542Y-83445971D01*
X128693399Y-83445971D01*
X128907685Y-83517400D01*
X128979114Y-83588829D01*
X113577000Y-72322171D02*
X113577000Y-70822171D01*
X114434143Y-72322171D01*
X114434143Y-70822171D01*
X115791286Y-72322171D02*
X115791286Y-71536457D01*
X115719857Y-71393600D01*
X115577000Y-71322171D01*
X115291286Y-71322171D01*
X115148429Y-71393600D01*
X115791286Y-72250743D02*
X115648429Y-72322171D01*
X115291286Y-72322171D01*
X115148429Y-72250743D01*
X115077000Y-72107886D01*
X115077000Y-71965029D01*
X115148429Y-71822171D01*
X115291286Y-71750743D01*
X115648429Y-71750743D01*
X115791286Y-71679314D01*
X116505572Y-71322171D02*
X116505572Y-72322171D01*
X116505572Y-71465029D02*
X116577000Y-71393600D01*
X116719858Y-71322171D01*
X116934143Y-71322171D01*
X117077000Y-71393600D01*
X117148429Y-71536457D01*
X117148429Y-72322171D01*
X118077001Y-72322171D02*
X117934143Y-72250743D01*
X117862715Y-72179314D01*
X117791286Y-72036457D01*
X117791286Y-71607886D01*
X117862715Y-71465029D01*
X117934143Y-71393600D01*
X118077001Y-71322171D01*
X118291286Y-71322171D01*
X118434143Y-71393600D01*
X118505572Y-71465029D01*
X118577001Y-71607886D01*
X118577001Y-72036457D01*
X118505572Y-72179314D01*
X118434143Y-72250743D01*
X118291286Y-72322171D01*
X118077001Y-72322171D01*
X119219858Y-72322171D02*
X119219858Y-70822171D01*
X119791286Y-70822171D01*
X119934144Y-70893600D01*
X120005572Y-70965029D01*
X120077001Y-71107886D01*
X120077001Y-71322171D01*
X120005572Y-71465029D01*
X119934144Y-71536457D01*
X119791286Y-71607886D01*
X119219858Y-71607886D01*
X120719858Y-72322171D02*
X120719858Y-71322171D01*
X120719858Y-70822171D02*
X120648429Y-70893600D01*
X120719858Y-70965029D01*
X120791286Y-70893600D01*
X120719858Y-70822171D01*
X120719858Y-70965029D01*
X122577001Y-72322171D02*
X122577001Y-70822171D01*
X123434144Y-72322171D01*
X123434144Y-70822171D01*
X124719858Y-72250743D02*
X124577001Y-72322171D01*
X124291287Y-72322171D01*
X124148430Y-72250743D01*
X124077001Y-72107886D01*
X124077001Y-71536457D01*
X124148430Y-71393600D01*
X124291287Y-71322171D01*
X124577001Y-71322171D01*
X124719858Y-71393600D01*
X124791287Y-71536457D01*
X124791287Y-71679314D01*
X124077001Y-71822171D01*
X125648430Y-72322171D02*
X125505572Y-72250743D01*
X125434144Y-72179314D01*
X125362715Y-72036457D01*
X125362715Y-71607886D01*
X125434144Y-71465029D01*
X125505572Y-71393600D01*
X125648430Y-71322171D01*
X125862715Y-71322171D01*
X126005572Y-71393600D01*
X126077001Y-71465029D01*
X126148430Y-71607886D01*
X126148430Y-72036457D01*
X126077001Y-72179314D01*
X126005572Y-72250743D01*
X125862715Y-72322171D01*
X125648430Y-72322171D01*
X104351171Y-44176229D02*
X102851171Y-44176229D01*
X104351171Y-43319086D01*
X102851171Y-43319086D01*
X104351171Y-41961943D02*
X103565457Y-41961943D01*
X103422600Y-42033372D01*
X103351171Y-42176229D01*
X103351171Y-42461943D01*
X103422600Y-42604800D01*
X104279743Y-41961943D02*
X104351171Y-42104800D01*
X104351171Y-42461943D01*
X104279743Y-42604800D01*
X104136886Y-42676229D01*
X103994029Y-42676229D01*
X103851171Y-42604800D01*
X103779743Y-42461943D01*
X103779743Y-42104800D01*
X103708314Y-41961943D01*
X103351171Y-41247657D02*
X104351171Y-41247657D01*
X103494029Y-41247657D02*
X103422600Y-41176229D01*
X103351171Y-41033371D01*
X103351171Y-40819086D01*
X103422600Y-40676229D01*
X103565457Y-40604800D01*
X104351171Y-40604800D01*
X104351171Y-39676228D02*
X104279743Y-39819086D01*
X104208314Y-39890514D01*
X104065457Y-39961943D01*
X103636886Y-39961943D01*
X103494029Y-39890514D01*
X103422600Y-39819086D01*
X103351171Y-39676228D01*
X103351171Y-39461943D01*
X103422600Y-39319086D01*
X103494029Y-39247657D01*
X103636886Y-39176228D01*
X104065457Y-39176228D01*
X104208314Y-39247657D01*
X104279743Y-39319086D01*
X104351171Y-39461943D01*
X104351171Y-39676228D01*
X104351171Y-38533371D02*
X102851171Y-38533371D01*
X102851171Y-37961943D01*
X102922600Y-37819085D01*
X102994029Y-37747657D01*
X103136886Y-37676228D01*
X103351171Y-37676228D01*
X103494029Y-37747657D01*
X103565457Y-37819085D01*
X103636886Y-37961943D01*
X103636886Y-38533371D01*
X104351171Y-37033371D02*
X103351171Y-37033371D01*
X102851171Y-37033371D02*
X102922600Y-37104800D01*
X102994029Y-37033371D01*
X102922600Y-36961943D01*
X102851171Y-37033371D01*
X102994029Y-37033371D01*
X164299601Y-68867771D02*
X164299601Y-67367771D01*
X165013887Y-68867771D02*
X165013887Y-67367771D01*
X165513887Y-68439200D01*
X166013887Y-67367771D01*
X166013887Y-68867771D01*
X166799601Y-68867771D02*
X167085316Y-68867771D01*
X167228173Y-68796343D01*
X167299601Y-68724914D01*
X167442459Y-68510629D01*
X167513887Y-68224914D01*
X167513887Y-67653486D01*
X167442459Y-67510629D01*
X167371030Y-67439200D01*
X167228173Y-67367771D01*
X166942459Y-67367771D01*
X166799601Y-67439200D01*
X166728173Y-67510629D01*
X166656744Y-67653486D01*
X166656744Y-68010629D01*
X166728173Y-68153486D01*
X166799601Y-68224914D01*
X166942459Y-68296343D01*
X167228173Y-68296343D01*
X167371030Y-68224914D01*
X167442459Y-68153486D01*
X167513887Y-68010629D01*
X168085315Y-67510629D02*
X168156744Y-67439200D01*
X168299601Y-67367771D01*
X168656744Y-67367771D01*
X168799601Y-67439200D01*
X168871030Y-67510629D01*
X168942458Y-67653486D01*
X168942458Y-67796343D01*
X168871030Y-68010629D01*
X168013887Y-68867771D01*
X168942458Y-68867771D01*
X169871029Y-67367771D02*
X170013886Y-67367771D01*
X170156743Y-67439200D01*
X170228172Y-67510629D01*
X170299601Y-67653486D01*
X170371029Y-67939200D01*
X170371029Y-68296343D01*
X170299601Y-68582057D01*
X170228172Y-68724914D01*
X170156743Y-68796343D01*
X170013886Y-68867771D01*
X169871029Y-68867771D01*
X169728172Y-68796343D01*
X169656743Y-68724914D01*
X169585315Y-68582057D01*
X169513886Y-68296343D01*
X169513886Y-67939200D01*
X169585315Y-67653486D01*
X169656743Y-67510629D01*
X169728172Y-67439200D01*
X169871029Y-67367771D01*
X104839886Y-70469657D02*
X105339886Y-70469657D01*
X105554172Y-71255371D02*
X104839886Y-71255371D01*
X104839886Y-69755371D01*
X105554172Y-69755371D01*
X106197029Y-71255371D02*
X106197029Y-69755371D01*
X107054172Y-71255371D01*
X107054172Y-69755371D01*
X107697029Y-70826800D02*
X108411315Y-70826800D01*
X107554172Y-71255371D02*
X108054172Y-69755371D01*
X108554172Y-71255371D01*
X109554172Y-70469657D02*
X109768458Y-70541086D01*
X109839886Y-70612514D01*
X109911315Y-70755371D01*
X109911315Y-70969657D01*
X109839886Y-71112514D01*
X109768458Y-71183943D01*
X109625600Y-71255371D01*
X109054172Y-71255371D01*
X109054172Y-69755371D01*
X109554172Y-69755371D01*
X109697029Y-69826800D01*
X109768458Y-69898229D01*
X109839886Y-70041086D01*
X109839886Y-70183943D01*
X109768458Y-70326800D01*
X109697029Y-70398229D01*
X109554172Y-70469657D01*
X109054172Y-70469657D01*
X111268458Y-71255371D02*
X110554172Y-71255371D01*
X110554172Y-69755371D01*
X111768458Y-70469657D02*
X112268458Y-70469657D01*
X112482744Y-71255371D02*
X111768458Y-71255371D01*
X111768458Y-69755371D01*
X112482744Y-69755371D01*
X166664171Y-84264799D02*
X165164171Y-84264799D01*
X165164171Y-83693371D01*
X165235600Y-83550513D01*
X165307029Y-83479085D01*
X165449886Y-83407656D01*
X165664171Y-83407656D01*
X165807029Y-83479085D01*
X165878457Y-83550513D01*
X165949886Y-83693371D01*
X165949886Y-84264799D01*
X166235600Y-82836228D02*
X166235600Y-82121942D01*
X166664171Y-82979085D02*
X165164171Y-82479085D01*
X166664171Y-81979085D01*
X166664171Y-80693371D02*
X166664171Y-81550514D01*
X166664171Y-81121942D02*
X165164171Y-81121942D01*
X165378457Y-81264799D01*
X165521314Y-81407657D01*
X165592743Y-81550514D01*
X169064171Y-84264799D02*
X167564171Y-84264799D01*
X167564171Y-83693371D01*
X167635600Y-83550513D01*
X167707029Y-83479085D01*
X167849886Y-83407656D01*
X168064171Y-83407656D01*
X168207029Y-83479085D01*
X168278457Y-83550513D01*
X168349886Y-83693371D01*
X168349886Y-84264799D01*
X168635600Y-82836228D02*
X168635600Y-82121942D01*
X169064171Y-82979085D02*
X167564171Y-82479085D01*
X169064171Y-81979085D01*
X167564171Y-81193371D02*
X167564171Y-81050514D01*
X167635600Y-80907657D01*
X167707029Y-80836228D01*
X167849886Y-80764799D01*
X168135600Y-80693371D01*
X168492743Y-80693371D01*
X168778457Y-80764799D01*
X168921314Y-80836228D01*
X168992743Y-80907657D01*
X169064171Y-81050514D01*
X169064171Y-81193371D01*
X168992743Y-81336228D01*
X168921314Y-81407657D01*
X168778457Y-81479085D01*
X168492743Y-81550514D01*
X168135600Y-81550514D01*
X167849886Y-81479085D01*
X167707029Y-81407657D01*
X167635600Y-81336228D01*
X167564171Y-81193371D01*
X171464171Y-84371942D02*
X169964171Y-84371942D01*
X169964171Y-83800514D01*
X170035600Y-83657656D01*
X170107029Y-83586228D01*
X170249886Y-83514799D01*
X170464171Y-83514799D01*
X170607029Y-83586228D01*
X170678457Y-83657656D01*
X170749886Y-83800514D01*
X170749886Y-84371942D01*
X170678457Y-82371942D02*
X170749886Y-82157656D01*
X170821314Y-82086228D01*
X170964171Y-82014799D01*
X171178457Y-82014799D01*
X171321314Y-82086228D01*
X171392743Y-82157656D01*
X171464171Y-82300514D01*
X171464171Y-82871942D01*
X169964171Y-82871942D01*
X169964171Y-82371942D01*
X170035600Y-82229085D01*
X170107029Y-82157656D01*
X170249886Y-82086228D01*
X170392743Y-82086228D01*
X170535600Y-82157656D01*
X170607029Y-82229085D01*
X170678457Y-82371942D01*
X170678457Y-82871942D01*
X169964171Y-81514799D02*
X169964171Y-80514799D01*
X171464171Y-81157656D01*
X173864171Y-84371942D02*
X172364171Y-84371942D01*
X172364171Y-83800514D01*
X172435600Y-83657656D01*
X172507029Y-83586228D01*
X172649886Y-83514799D01*
X172864171Y-83514799D01*
X173007029Y-83586228D01*
X173078457Y-83657656D01*
X173149886Y-83800514D01*
X173149886Y-84371942D01*
X173078457Y-82371942D02*
X173149886Y-82157656D01*
X173221314Y-82086228D01*
X173364171Y-82014799D01*
X173578457Y-82014799D01*
X173721314Y-82086228D01*
X173792743Y-82157656D01*
X173864171Y-82300514D01*
X173864171Y-82871942D01*
X172364171Y-82871942D01*
X172364171Y-82371942D01*
X172435600Y-82229085D01*
X172507029Y-82157656D01*
X172649886Y-82086228D01*
X172792743Y-82086228D01*
X172935600Y-82157656D01*
X173007029Y-82229085D01*
X173078457Y-82371942D01*
X173078457Y-82871942D01*
X172364171Y-80729085D02*
X172364171Y-81014799D01*
X172435600Y-81157656D01*
X172507029Y-81229085D01*
X172721314Y-81371942D01*
X173007029Y-81443371D01*
X173578457Y-81443371D01*
X173721314Y-81371942D01*
X173792743Y-81300514D01*
X173864171Y-81157656D01*
X173864171Y-80871942D01*
X173792743Y-80729085D01*
X173721314Y-80657656D01*
X173578457Y-80586228D01*
X173221314Y-80586228D01*
X173078457Y-80657656D01*
X173007029Y-80729085D01*
X172935600Y-80871942D01*
X172935600Y-81157656D01*
X173007029Y-81300514D01*
X173078457Y-81371942D01*
X173221314Y-81443371D01*
X175348458Y-86843371D02*
X176277029Y-86843371D01*
X175777029Y-87414800D01*
X175991315Y-87414800D01*
X176134172Y-87486229D01*
X176205601Y-87557657D01*
X176277029Y-87700514D01*
X176277029Y-88057657D01*
X176205601Y-88200514D01*
X176134172Y-88271943D01*
X175991315Y-88343371D01*
X175562743Y-88343371D01*
X175419886Y-88271943D01*
X175348458Y-88200514D01*
X176705600Y-86843371D02*
X177205600Y-88343371D01*
X177705600Y-86843371D01*
X178062743Y-86843371D02*
X178991314Y-86843371D01*
X178491314Y-87414800D01*
X178705600Y-87414800D01*
X178848457Y-87486229D01*
X178919886Y-87557657D01*
X178991314Y-87700514D01*
X178991314Y-88057657D01*
X178919886Y-88200514D01*
X178848457Y-88271943D01*
X178705600Y-88343371D01*
X178277028Y-88343371D01*
X178134171Y-88271943D01*
X178062743Y-88200514D01*
X176062743Y-89314800D02*
X175919886Y-89243371D01*
X175705600Y-89243371D01*
X175491315Y-89314800D01*
X175348457Y-89457657D01*
X175277029Y-89600514D01*
X175205600Y-89886229D01*
X175205600Y-90100514D01*
X175277029Y-90386229D01*
X175348457Y-90529086D01*
X175491315Y-90671943D01*
X175705600Y-90743371D01*
X175848457Y-90743371D01*
X176062743Y-90671943D01*
X176134172Y-90600514D01*
X176134172Y-90100514D01*
X175848457Y-90100514D01*
X176777029Y-90743371D02*
X176777029Y-89243371D01*
X177634172Y-90743371D01*
X177634172Y-89243371D01*
X178348458Y-90743371D02*
X178348458Y-89243371D01*
X178705601Y-89243371D01*
X178919886Y-89314800D01*
X179062744Y-89457657D01*
X179134172Y-89600514D01*
X179205601Y-89886229D01*
X179205601Y-90100514D01*
X179134172Y-90386229D01*
X179062744Y-90529086D01*
X178919886Y-90671943D01*
X178705601Y-90743371D01*
X178348458Y-90743371D01*
X178630457Y-76637514D02*
X178559029Y-76851800D01*
X178559029Y-77208943D01*
X178630457Y-77351800D01*
X178701886Y-77423229D01*
X178844743Y-77494657D01*
X178987600Y-77494657D01*
X179130457Y-77423229D01*
X179201886Y-77351800D01*
X179273314Y-77208943D01*
X179344743Y-76923229D01*
X179416171Y-76780371D01*
X179487600Y-76708943D01*
X179630457Y-76637514D01*
X179773314Y-76637514D01*
X179916171Y-76708943D01*
X179987600Y-76780371D01*
X180059029Y-76923229D01*
X180059029Y-77280371D01*
X179987600Y-77494657D01*
X179344743Y-78137514D02*
X179344743Y-78637514D01*
X178559029Y-78851800D02*
X178559029Y-78137514D01*
X180059029Y-78137514D01*
X180059029Y-78851800D01*
X178559029Y-80351800D02*
X179273314Y-79851800D01*
X178559029Y-79494657D02*
X180059029Y-79494657D01*
X180059029Y-80066085D01*
X179987600Y-80208943D01*
X179916171Y-80280371D01*
X179773314Y-80351800D01*
X179559029Y-80351800D01*
X179416171Y-80280371D01*
X179344743Y-80208943D01*
X179273314Y-80066085D01*
X179273314Y-79494657D01*
X178559029Y-80994657D02*
X180059029Y-80994657D01*
X178987600Y-81637514D02*
X178987600Y-82351800D01*
X178559029Y-81494657D02*
X180059029Y-81994657D01*
X178559029Y-82494657D01*
X178559029Y-83708943D02*
X178559029Y-82994657D01*
X180059029Y-82994657D01*
D12*
X181085600Y-156244800D02*
X181085600Y-36244800D01*
X91085600Y-136244800D02*
X91085600Y-156244800D01*
X91085600Y-111244800D02*
X91085600Y-136244800D01*
X101085600Y-111244800D02*
X101085600Y-36244800D01*
X91085600Y-111244800D02*
X101085600Y-111244800D01*
X101085600Y-76244800D02*
X101085600Y-36244800D01*
X141085600Y-76244800D02*
X101085600Y-76244800D01*
X141085600Y-36244800D02*
X141085600Y-76244800D01*
X101085600Y-36244800D02*
X141085600Y-36244800D01*
D11*
X94469171Y-119756656D02*
X94469171Y-120470942D01*
X95183457Y-120542371D01*
X95112029Y-120470942D01*
X95040600Y-120328085D01*
X95040600Y-119970942D01*
X95112029Y-119828085D01*
X95183457Y-119756656D01*
X95326314Y-119685228D01*
X95683457Y-119685228D01*
X95826314Y-119756656D01*
X95897743Y-119828085D01*
X95969171Y-119970942D01*
X95969171Y-120328085D01*
X95897743Y-120470942D01*
X95826314Y-120542371D01*
X94469171Y-119256657D02*
X95969171Y-118756657D01*
X94469171Y-118256657D01*
X94469171Y-116756657D02*
X94469171Y-115828086D01*
X95040600Y-116328086D01*
X95040600Y-116113800D01*
X95112029Y-115970943D01*
X95183457Y-115899514D01*
X95326314Y-115828086D01*
X95683457Y-115828086D01*
X95826314Y-115899514D01*
X95897743Y-115970943D01*
X95969171Y-116113800D01*
X95969171Y-116542372D01*
X95897743Y-116685229D01*
X95826314Y-116756657D01*
X94469171Y-115399515D02*
X95969171Y-114899515D01*
X94469171Y-114399515D01*
X95969171Y-112756658D02*
X94469171Y-112756658D01*
X95897743Y-112113801D02*
X95969171Y-111899515D01*
X95969171Y-111542372D01*
X95897743Y-111399515D01*
X95826314Y-111328086D01*
X95683457Y-111256658D01*
X95540600Y-111256658D01*
X95397743Y-111328086D01*
X95326314Y-111399515D01*
X95254886Y-111542372D01*
X95183457Y-111828086D01*
X95112029Y-111970944D01*
X95040600Y-112042372D01*
X94897743Y-112113801D01*
X94754886Y-112113801D01*
X94612029Y-112042372D01*
X94540600Y-111970944D01*
X94469171Y-111828086D01*
X94469171Y-111470944D01*
X94540600Y-111256658D01*
X94469171Y-110328087D02*
X94469171Y-110042373D01*
X94540600Y-109899515D01*
X94683457Y-109756658D01*
X94969171Y-109685230D01*
X95469171Y-109685230D01*
X95754886Y-109756658D01*
X95897743Y-109899515D01*
X95969171Y-110042373D01*
X95969171Y-110328087D01*
X95897743Y-110470944D01*
X95754886Y-110613801D01*
X95469171Y-110685230D01*
X94969171Y-110685230D01*
X94683457Y-110613801D01*
X94540600Y-110470944D01*
X94469171Y-110328087D01*
X95969171Y-108328086D02*
X95969171Y-109042372D01*
X94469171Y-109042372D01*
X95540600Y-107899515D02*
X95540600Y-107185229D01*
X95969171Y-108042372D02*
X94469171Y-107542372D01*
X95969171Y-107042372D01*
X94469171Y-106756658D02*
X94469171Y-105899515D01*
X95969171Y-106328086D02*
X94469171Y-106328086D01*
X95183457Y-105399515D02*
X95183457Y-104899515D01*
X95969171Y-104685229D02*
X95969171Y-105399515D01*
X94469171Y-105399515D01*
X94469171Y-104685229D01*
D13*
X104085600Y-124744800D02*
X104085600Y-135244800D01*
X104085600Y-135244800D02*
X179085600Y-135244800D01*
X179085600Y-135244800D02*
X179085600Y-114244800D01*
X179085600Y-114244800D02*
X104085600Y-114244800D01*
X104085600Y-114244800D02*
X104085600Y-125244800D01*
X116305600Y-117124800D02*
X117575600Y-115854800D01*
X117575600Y-115854800D02*
X151865600Y-115854800D01*
X151865600Y-115854800D02*
X153135600Y-117124800D01*
X153135600Y-117124800D02*
X153135600Y-132364800D01*
X153135600Y-132364800D02*
X151865600Y-133634800D01*
X151865600Y-133634800D02*
X117575600Y-133634800D01*
X117575600Y-133634800D02*
X116305600Y-132364800D01*
X113765600Y-124744800D02*
X111225600Y-124744800D01*
X153135600Y-124744800D02*
X156945600Y-124744800D01*
X116305600Y-123474800D02*
X113765600Y-123474800D01*
X113765600Y-123474800D02*
X113765600Y-126014800D01*
X113765600Y-126014800D02*
X116305600Y-126014800D01*
X116305600Y-117124800D02*
X116305600Y-132364800D01*
X118845600Y-115854800D02*
X118845600Y-133634800D01*
X120115600Y-115854800D02*
X120115600Y-133634800D01*
X139104696Y-37103912D02*
G75*
G03X142129600Y-37088800I1524904J-2484888D01*
G01*
X139129600Y-37088800D02*
X142129600Y-37088800D01*
X143147536Y-39588800D02*
G75*
G03X143147536Y-39588800I-2517936J0D01*
G01*
X95409980Y-137759800D02*
X96359940Y-136510120D01*
X96359940Y-136510120D02*
X96359940Y-139009480D01*
X96359940Y-139009480D02*
X95361720Y-137759800D01*
X95361720Y-136510120D02*
X95361720Y-139009480D01*
X97660420Y-136510120D02*
X97759480Y-136510120D01*
X97660420Y-139009480D02*
X97759480Y-139009480D01*
X95361720Y-136510120D02*
X97711220Y-136510120D01*
X95361720Y-139009480D02*
X97609620Y-139009480D01*
X165267600Y-76799800D02*
X177967600Y-76799800D01*
X177967600Y-76799800D02*
X177967600Y-79339800D01*
X177967600Y-79339800D02*
X165267600Y-79339800D01*
X162447600Y-76519800D02*
X163997600Y-76519800D01*
X165267600Y-76799800D02*
X165267600Y-79339800D01*
X163997600Y-79619800D02*
X162447600Y-79619800D01*
X162447600Y-79619800D02*
X162447600Y-76519800D01*
X132247600Y-44541800D02*
X133263600Y-44541800D01*
X133263600Y-44541800D02*
X133263600Y-43525800D01*
X133263600Y-43525800D02*
X141391600Y-43525800D01*
X141391600Y-43525800D02*
X141391600Y-45557800D01*
X141391600Y-45557800D02*
X133263600Y-45557800D01*
X133263600Y-45557800D02*
X133263600Y-44541800D01*
X133263600Y-44033800D02*
X133771600Y-43525800D01*
X142407600Y-44541800D02*
X141391600Y-44541800D01*
X150789600Y-56606800D02*
X149773600Y-56606800D01*
X149773600Y-56606800D02*
X149773600Y-57622800D01*
X149773600Y-57622800D02*
X141645600Y-57622800D01*
X141645600Y-57622800D02*
X141645600Y-55590800D01*
X141645600Y-55590800D02*
X149773600Y-55590800D01*
X149773600Y-55590800D02*
X149773600Y-56606800D01*
X149773600Y-57114800D02*
X149265600Y-57622800D01*
X140629600Y-56606800D02*
X141645600Y-56606800D01*
X140832800Y-53177800D02*
X141848800Y-53177800D01*
X141848800Y-53177800D02*
X141848800Y-52161800D01*
X141848800Y-52161800D02*
X149976800Y-52161800D01*
X149976800Y-52161800D02*
X149976800Y-54193800D01*
X149976800Y-54193800D02*
X141848800Y-54193800D01*
X141848800Y-54193800D02*
X141848800Y-53177800D01*
X141848800Y-52669800D02*
X142356800Y-52161800D01*
X150992800Y-53177800D02*
X149976800Y-53177800D01*
X150535600Y-41239800D02*
G75*
G03X150535600Y-41239800I-2540000J0D01*
G01*
X151805600Y-37429800D02*
X151805600Y-45049800D01*
X151805600Y-45049800D02*
X144185600Y-45049800D01*
X144185600Y-45049800D02*
X144185600Y-37429800D01*
X151805600Y-37429800D02*
X144185600Y-37429800D01*
X125355600Y-136974800D02*
X127895600Y-136974800D01*
X122535600Y-136694800D02*
X124085600Y-136694800D01*
X125355600Y-136974800D02*
X125355600Y-139514800D01*
X124085600Y-139794800D02*
X122535600Y-139794800D01*
X122535600Y-139794800D02*
X122535600Y-136694800D01*
X125355600Y-139514800D02*
X127895600Y-139514800D01*
X127895600Y-139514800D02*
X127895600Y-136974800D01*
X99735600Y-68544800D02*
X99735600Y-45684800D01*
X99735600Y-45684800D02*
X153075600Y-45684800D01*
X153075600Y-45684800D02*
X153075600Y-68544800D01*
X153075600Y-68544800D02*
X99735600Y-68544800D01*
X147360600Y-71719800D02*
X144820600Y-71719800D01*
X150180600Y-71999800D02*
X148630600Y-71999800D01*
X147360600Y-71719800D02*
X147360600Y-69179800D01*
X148630600Y-68899800D02*
X150180600Y-68899800D01*
X150180600Y-68899800D02*
X150180600Y-71999800D01*
X147360600Y-69179800D02*
X144820600Y-69179800D01*
X144820600Y-69179800D02*
X144820600Y-71719800D01*
X163154600Y-81279800D02*
X153156600Y-81279800D01*
X163150600Y-81419800D02*
X153160600Y-81419800D01*
X163142600Y-81559800D02*
X153168600Y-81559800D01*
X163130600Y-81699800D02*
X153180600Y-81699800D01*
X163115600Y-81839800D02*
X153195600Y-81839800D01*
X163095600Y-81979800D02*
X153215600Y-81979800D01*
X163071600Y-82119800D02*
X153239600Y-82119800D01*
X163042600Y-82259800D02*
X153268600Y-82259800D01*
X163010600Y-82399800D02*
X153300600Y-82399800D01*
X162973600Y-82539800D02*
X153337600Y-82539800D01*
X162932600Y-82679800D02*
X153378600Y-82679800D01*
X162887600Y-82819800D02*
X158621600Y-82819800D01*
X157689600Y-82819800D02*
X153423600Y-82819800D01*
X162837600Y-82959800D02*
X158822600Y-82959800D01*
X157488600Y-82959800D02*
X153473600Y-82959800D01*
X162782600Y-83099800D02*
X158951600Y-83099800D01*
X157359600Y-83099800D02*
X153528600Y-83099800D01*
X162722600Y-83239800D02*
X159040600Y-83239800D01*
X157270600Y-83239800D02*
X153588600Y-83239800D01*
X162657600Y-83379800D02*
X159101600Y-83379800D01*
X157209600Y-83379800D02*
X153653600Y-83379800D01*
X162587600Y-83519800D02*
X159138600Y-83519800D01*
X157172600Y-83519800D02*
X153723600Y-83519800D01*
X162511600Y-83659800D02*
X159154600Y-83659800D01*
X157156600Y-83659800D02*
X153799600Y-83659800D01*
X162429600Y-83799800D02*
X159150600Y-83799800D01*
X157160600Y-83799800D02*
X153881600Y-83799800D01*
X162341600Y-83939800D02*
X159127600Y-83939800D01*
X157183600Y-83939800D02*
X153969600Y-83939800D01*
X162246600Y-84079800D02*
X159082600Y-84079800D01*
X157228600Y-84079800D02*
X154064600Y-84079800D01*
X162144600Y-84219800D02*
X159012600Y-84219800D01*
X157298600Y-84219800D02*
X154166600Y-84219800D01*
X162034600Y-84359800D02*
X158911600Y-84359800D01*
X157399600Y-84359800D02*
X154276600Y-84359800D01*
X161916600Y-84499800D02*
X158762600Y-84499800D01*
X157548600Y-84499800D02*
X154394600Y-84499800D01*
X161788600Y-84639800D02*
X158510600Y-84639800D01*
X157800600Y-84639800D02*
X154522600Y-84639800D01*
X161651600Y-84779800D02*
X154659600Y-84779800D01*
X161501600Y-84919800D02*
X154809600Y-84919800D01*
X161339600Y-85059800D02*
X154971600Y-85059800D01*
X161162600Y-85199800D02*
X155148600Y-85199800D01*
X160966600Y-85339800D02*
X155344600Y-85339800D01*
X160748600Y-85479800D02*
X155562600Y-85479800D01*
X160502600Y-85619800D02*
X155808600Y-85619800D01*
X160217600Y-85759800D02*
X156093600Y-85759800D01*
X159875600Y-85899800D02*
X156435600Y-85899800D01*
X159429600Y-86039800D02*
X156881600Y-86039800D01*
X158654600Y-86179800D02*
X157656600Y-86179800D01*
X159155600Y-83704800D02*
G75*
G03X159155600Y-83704800I-1000000J0D01*
G01*
X163193100Y-81204800D02*
G75*
G03X163193100Y-81204800I-5037500J0D01*
G01*
D14*
X90584720Y-156745420D02*
X99586480Y-156745420D01*
X99586480Y-156745420D02*
X99586480Y-142244560D01*
X99586480Y-142244560D02*
X90584720Y-142244560D01*
X90584720Y-142244560D02*
X90584720Y-156745420D01*
D13*
X104206600Y-68696600D02*
X104206600Y-70246600D01*
X101106600Y-70246600D02*
X101106600Y-68696600D01*
X101106600Y-68696600D02*
X104206600Y-68696600D01*
X101386600Y-71516600D02*
X103926600Y-71516600D01*
X149815600Y-91229800D02*
X160495600Y-91229800D01*
X149815600Y-85229800D02*
X160495600Y-85229800D01*
X160495600Y-85229800D02*
X160495600Y-91229800D01*
X147635600Y-85229800D02*
X142815600Y-85229800D01*
X140722100Y-90429800D02*
X140722100Y-86029800D01*
X147635600Y-91229800D02*
X142815600Y-91229800D01*
X98925600Y-116889800D02*
X98925600Y-106209800D01*
X92925600Y-116889800D02*
X92925600Y-106209800D01*
X92925600Y-106209800D02*
X98925600Y-106209800D01*
X92925600Y-119069800D02*
X92925600Y-123889800D01*
X98125600Y-125983300D02*
X93725600Y-125983300D01*
X98925600Y-119069800D02*
X98925600Y-123889800D01*
X167045600Y-87594800D02*
X174665600Y-87594800D01*
X167045600Y-85054800D02*
X174665600Y-85054800D01*
X164225600Y-84774800D02*
X165775600Y-84774800D01*
X174665600Y-87594800D02*
X174665600Y-85054800D01*
X167045600Y-85054800D02*
X167045600Y-87594800D01*
X165775600Y-87874800D02*
X164225600Y-87874800D01*
X164225600Y-87874800D02*
X164225600Y-84774800D01*
X167045600Y-90134800D02*
X174665600Y-90134800D01*
X167045600Y-87594800D02*
X174665600Y-87594800D01*
X164225600Y-87314800D02*
X165775600Y-87314800D01*
X174665600Y-90134800D02*
X174665600Y-87594800D01*
X167045600Y-87594800D02*
X167045600Y-90134800D01*
X165775600Y-90414800D02*
X164225600Y-90414800D01*
X164225600Y-90414800D02*
X164225600Y-87314800D01*
X167045600Y-92674800D02*
X174665600Y-92674800D01*
X167045600Y-90134800D02*
X174665600Y-90134800D01*
X164225600Y-89854800D02*
X165775600Y-89854800D01*
X174665600Y-92674800D02*
X174665600Y-90134800D01*
X167045600Y-90134800D02*
X167045600Y-92674800D01*
X165775600Y-92954800D02*
X164225600Y-92954800D01*
X164225600Y-92954800D02*
X164225600Y-89854800D01*
X112511800Y-60874000D02*
X111495800Y-60874000D01*
X111495800Y-60874000D02*
X111495800Y-61890000D01*
X111495800Y-61890000D02*
X103367800Y-61890000D01*
X103367800Y-61890000D02*
X103367800Y-59858000D01*
X103367800Y-59858000D02*
X111495800Y-59858000D01*
X111495800Y-59858000D02*
X111495800Y-60874000D01*
X111495800Y-61382000D02*
X110987800Y-61890000D01*
X102351800Y-60874000D02*
X103367800Y-60874000D01*
X106974600Y-44541800D02*
X107990600Y-44541800D01*
X107990600Y-44541800D02*
X107990600Y-43525800D01*
X107990600Y-43525800D02*
X116118600Y-43525800D01*
X116118600Y-43525800D02*
X116118600Y-45557800D01*
X116118600Y-45557800D02*
X107990600Y-45557800D01*
X107990600Y-45557800D02*
X107990600Y-44541800D01*
X107990600Y-44033800D02*
X108498600Y-43525800D01*
X117134600Y-44541800D02*
X116118600Y-44541800D01*
X145895020Y-73805140D02*
X146895780Y-73805140D01*
X146395400Y-74305520D02*
X146395400Y-73307300D01*
X147396160Y-78806400D02*
G75*
G03X147396160Y-78806400I-1000760J0D01*
G01*
X152595540Y-78806400D02*
G75*
G03X152595540Y-78806400I-6200140J0D01*
G01*
X98196360Y-132679800D02*
G75*
G03X98196360Y-132679800I-1000760J0D01*
G01*
X103395740Y-132679800D02*
G75*
G03X103395740Y-132679800I-6200140J0D01*
G01*
X122585600Y-81244800D02*
X126085600Y-77744800D01*
X122585600Y-82244800D02*
X127085600Y-77744800D01*
X123585600Y-82244800D02*
X128085600Y-77744800D01*
X124585600Y-82244800D02*
X128585600Y-78244800D01*
X125585600Y-82244800D02*
X129085600Y-78744800D01*
X126585600Y-82244800D02*
X129585600Y-79244800D01*
X127585600Y-82244800D02*
X130085600Y-79744800D01*
X128585600Y-82244800D02*
X130585600Y-80244800D01*
X131085600Y-80744800D02*
X129585600Y-82244800D01*
X131085600Y-82244800D02*
X122585600Y-82244800D01*
X122585600Y-82244800D02*
X122585600Y-80244800D01*
X122585600Y-80244800D02*
X126085600Y-77744800D01*
X126085600Y-77744800D02*
X127585600Y-77744800D01*
X127585600Y-77744800D02*
X131085600Y-80244800D01*
X131085600Y-80244800D02*
X131085600Y-82244800D01*
X117328241Y-87244800D02*
G75*
G03X117328241Y-87244800I-4242641J0D01*
G01*
X130585600Y-78244800D02*
X130585600Y-76244800D01*
X130585600Y-76244800D02*
X128585600Y-76244800D01*
X128585600Y-76244800D02*
X128585600Y-78244800D01*
X128585600Y-78244800D02*
X130585600Y-78244800D01*
X132585600Y-76244800D02*
X132585600Y-88244800D01*
X132585600Y-88244800D02*
X121585600Y-88244800D01*
X121585600Y-88244800D02*
X121585600Y-76244800D01*
X139085600Y-76244800D02*
X101085600Y-76244800D01*
X101085600Y-76244800D02*
X101085600Y-92244800D01*
X101085600Y-92244800D02*
X139085600Y-92244800D01*
X139085600Y-92244800D02*
X139085600Y-76244800D01*
X104085600Y-146244800D02*
X104085600Y-156744800D01*
X104085600Y-156744800D02*
X179085600Y-156744800D01*
X179085600Y-156744800D02*
X179085600Y-135744800D01*
X179085600Y-135744800D02*
X104085600Y-135744800D01*
X104085600Y-135744800D02*
X104085600Y-146744800D01*
X116305600Y-138624800D02*
X117575600Y-137354800D01*
X117575600Y-137354800D02*
X151865600Y-137354800D01*
X151865600Y-137354800D02*
X153135600Y-138624800D01*
X153135600Y-138624800D02*
X153135600Y-153864800D01*
X153135600Y-153864800D02*
X151865600Y-155134800D01*
X151865600Y-155134800D02*
X117575600Y-155134800D01*
X117575600Y-155134800D02*
X116305600Y-153864800D01*
X113765600Y-146244800D02*
X111225600Y-146244800D01*
X153135600Y-146244800D02*
X156945600Y-146244800D01*
X116305600Y-144974800D02*
X113765600Y-144974800D01*
X113765600Y-144974800D02*
X113765600Y-147514800D01*
X113765600Y-147514800D02*
X116305600Y-147514800D01*
X116305600Y-138624800D02*
X116305600Y-153864800D01*
X118845600Y-137354800D02*
X118845600Y-155134800D01*
X120115600Y-137354800D02*
X120115600Y-155134800D01*
X104085600Y-103244800D02*
X104085600Y-113744800D01*
X104085600Y-113744800D02*
X179085600Y-113744800D01*
X179085600Y-113744800D02*
X179085600Y-92744800D01*
X179085600Y-92744800D02*
X104085600Y-92744800D01*
X104085600Y-92744800D02*
X104085600Y-103744800D01*
X116305600Y-95624800D02*
X117575600Y-94354800D01*
X117575600Y-94354800D02*
X151865600Y-94354800D01*
X151865600Y-94354800D02*
X153135600Y-95624800D01*
X153135600Y-95624800D02*
X153135600Y-110864800D01*
X153135600Y-110864800D02*
X151865600Y-112134800D01*
X151865600Y-112134800D02*
X117575600Y-112134800D01*
X117575600Y-112134800D02*
X116305600Y-110864800D01*
X113765600Y-103244800D02*
X111225600Y-103244800D01*
X153135600Y-103244800D02*
X156945600Y-103244800D01*
X116305600Y-101974800D02*
X113765600Y-101974800D01*
X113765600Y-101974800D02*
X113765600Y-104514800D01*
X113765600Y-104514800D02*
X116305600Y-104514800D01*
X116305600Y-95624800D02*
X116305600Y-110864800D01*
X118845600Y-94354800D02*
X118845600Y-112134800D01*
X120115600Y-94354800D02*
X120115600Y-112134800D01*
X126949886Y-119593371D02*
X127092743Y-119640990D01*
X127140362Y-119688610D01*
X127187981Y-119783848D01*
X127187981Y-119926705D01*
X127140362Y-120021943D01*
X127092743Y-120069562D01*
X126997505Y-120117181D01*
X126616552Y-120117181D01*
X126616552Y-119117181D01*
X126949886Y-119117181D01*
X127045124Y-119164800D01*
X127092743Y-119212419D01*
X127140362Y-119307657D01*
X127140362Y-119402895D01*
X127092743Y-119498133D01*
X127045124Y-119545752D01*
X126949886Y-119593371D01*
X126616552Y-119593371D01*
X127473695Y-119117181D02*
X128045124Y-119117181D01*
X127759409Y-120117181D02*
X127759409Y-119117181D01*
X128902267Y-120117181D02*
X128330838Y-120117181D01*
X128616552Y-120117181D02*
X128616552Y-119117181D01*
X128521314Y-119260038D01*
X128426076Y-119355276D01*
X128330838Y-119402895D01*
X137017981Y-40580895D02*
X136017981Y-40580895D01*
X136017981Y-40342800D01*
X136065600Y-40199942D01*
X136160838Y-40104704D01*
X136256076Y-40057085D01*
X136446552Y-40009466D01*
X136589410Y-40009466D01*
X136779886Y-40057085D01*
X136875124Y-40104704D01*
X136970362Y-40199942D01*
X137017981Y-40342800D01*
X137017981Y-40580895D01*
X137017981Y-39057085D02*
X137017981Y-39628514D01*
X137017981Y-39342800D02*
X136017981Y-39342800D01*
X136160838Y-39438038D01*
X136256076Y-39533276D01*
X136303695Y-39628514D01*
X139176981Y-36675705D02*
X138176981Y-36675705D01*
X139176981Y-36104276D02*
X138605552Y-36532848D01*
X138176981Y-36104276D02*
X138748410Y-36675705D01*
X95822505Y-135672181D02*
X95822505Y-134672181D01*
X96060600Y-134672181D01*
X96203458Y-134719800D01*
X96298696Y-134815038D01*
X96346315Y-134910276D01*
X96393934Y-135100752D01*
X96393934Y-135243610D01*
X96346315Y-135434086D01*
X96298696Y-135529324D01*
X96203458Y-135624562D01*
X96060600Y-135672181D01*
X95822505Y-135672181D01*
X96774886Y-134767419D02*
X96822505Y-134719800D01*
X96917743Y-134672181D01*
X97155839Y-134672181D01*
X97251077Y-134719800D01*
X97298696Y-134767419D01*
X97346315Y-134862657D01*
X97346315Y-134957895D01*
X97298696Y-135100752D01*
X96727267Y-135672181D01*
X97346315Y-135672181D01*
X93748695Y-140612181D02*
X93748695Y-139612181D01*
X94320124Y-140612181D02*
X93891552Y-140040752D01*
X94320124Y-139612181D02*
X93748695Y-140183610D01*
X98672505Y-140276467D02*
X99148696Y-140276467D01*
X98577267Y-140562181D02*
X98910600Y-139562181D01*
X99243934Y-140562181D01*
X159349981Y-78807895D02*
X158349981Y-78807895D01*
X158349981Y-78426942D01*
X158397600Y-78331704D01*
X158445219Y-78284085D01*
X158540457Y-78236466D01*
X158683314Y-78236466D01*
X158778552Y-78284085D01*
X158826171Y-78331704D01*
X158873790Y-78426942D01*
X158873790Y-78807895D01*
X158445219Y-77855514D02*
X158397600Y-77807895D01*
X158349981Y-77712657D01*
X158349981Y-77474561D01*
X158397600Y-77379323D01*
X158445219Y-77331704D01*
X158540457Y-77284085D01*
X158635695Y-77284085D01*
X158778552Y-77331704D01*
X159349981Y-77903133D01*
X159349981Y-77284085D01*
X137160934Y-44994181D02*
X136827600Y-44517990D01*
X136589505Y-44994181D02*
X136589505Y-43994181D01*
X136970458Y-43994181D01*
X137065696Y-44041800D01*
X137113315Y-44089419D01*
X137160934Y-44184657D01*
X137160934Y-44327514D01*
X137113315Y-44422752D01*
X137065696Y-44470371D01*
X136970458Y-44517990D01*
X136589505Y-44517990D01*
X137541886Y-44089419D02*
X137589505Y-44041800D01*
X137684743Y-43994181D01*
X137922839Y-43994181D01*
X138018077Y-44041800D01*
X138065696Y-44089419D01*
X138113315Y-44184657D01*
X138113315Y-44279895D01*
X138065696Y-44422752D01*
X137494267Y-44994181D01*
X138113315Y-44994181D01*
X145542934Y-57059181D02*
X145209600Y-56582990D01*
X144971505Y-57059181D02*
X144971505Y-56059181D01*
X145352458Y-56059181D01*
X145447696Y-56106800D01*
X145495315Y-56154419D01*
X145542934Y-56249657D01*
X145542934Y-56392514D01*
X145495315Y-56487752D01*
X145447696Y-56535371D01*
X145352458Y-56582990D01*
X144971505Y-56582990D01*
X145876267Y-56059181D02*
X146495315Y-56059181D01*
X146161981Y-56440133D01*
X146304839Y-56440133D01*
X146400077Y-56487752D01*
X146447696Y-56535371D01*
X146495315Y-56630610D01*
X146495315Y-56868705D01*
X146447696Y-56963943D01*
X146400077Y-57011562D01*
X146304839Y-57059181D01*
X146019124Y-57059181D01*
X145923886Y-57011562D01*
X145876267Y-56963943D01*
X145746134Y-53630181D02*
X145412800Y-53153990D01*
X145174705Y-53630181D02*
X145174705Y-52630181D01*
X145555658Y-52630181D01*
X145650896Y-52677800D01*
X145698515Y-52725419D01*
X145746134Y-52820657D01*
X145746134Y-52963514D01*
X145698515Y-53058752D01*
X145650896Y-53106371D01*
X145555658Y-53153990D01*
X145174705Y-53153990D01*
X146603277Y-52963514D02*
X146603277Y-53630181D01*
X146365181Y-52582562D02*
X146127086Y-53296848D01*
X146746134Y-53296848D01*
X149162362Y-42573133D02*
X149209981Y-42430276D01*
X149209981Y-42192180D01*
X149162362Y-42096942D01*
X149114743Y-42049323D01*
X149019505Y-42001704D01*
X148924267Y-42001704D01*
X148829029Y-42049323D01*
X148781410Y-42096942D01*
X148733790Y-42192180D01*
X148686171Y-42382657D01*
X148638552Y-42477895D01*
X148590933Y-42525514D01*
X148495695Y-42573133D01*
X148400457Y-42573133D01*
X148305219Y-42525514D01*
X148257600Y-42477895D01*
X148209981Y-42382657D01*
X148209981Y-42144561D01*
X148257600Y-42001704D01*
X148209981Y-41668371D02*
X149209981Y-41430276D01*
X148495695Y-41239799D01*
X149209981Y-41049323D01*
X148209981Y-40811228D01*
X149209981Y-39906466D02*
X149209981Y-40477895D01*
X149209981Y-40192181D02*
X148209981Y-40192181D01*
X148352838Y-40287419D01*
X148448076Y-40382657D01*
X148495695Y-40477895D01*
X119390362Y-139578133D02*
X119437981Y-139435276D01*
X119437981Y-139197180D01*
X119390362Y-139101942D01*
X119342743Y-139054323D01*
X119247505Y-139006704D01*
X119152267Y-139006704D01*
X119057029Y-139054323D01*
X119009410Y-139101942D01*
X118961790Y-139197180D01*
X118914171Y-139387657D01*
X118866552Y-139482895D01*
X118818933Y-139530514D01*
X118723695Y-139578133D01*
X118628457Y-139578133D01*
X118533219Y-139530514D01*
X118485600Y-139482895D01*
X118437981Y-139387657D01*
X118437981Y-139149561D01*
X118485600Y-139006704D01*
X118437981Y-138673371D02*
X119437981Y-138435276D01*
X118723695Y-138244799D01*
X119437981Y-138054323D01*
X118437981Y-137816228D01*
X118533219Y-137482895D02*
X118485600Y-137435276D01*
X118437981Y-137340038D01*
X118437981Y-137101942D01*
X118485600Y-137006704D01*
X118533219Y-136959085D01*
X118628457Y-136911466D01*
X118723695Y-136911466D01*
X118866552Y-136959085D01*
X119437981Y-137530514D01*
X119437981Y-136911466D01*
X126913695Y-70537181D02*
X126913695Y-71346705D01*
X126961314Y-71441943D01*
X127008933Y-71489562D01*
X127104171Y-71537181D01*
X127294648Y-71537181D01*
X127389886Y-71489562D01*
X127437505Y-71441943D01*
X127485124Y-71346705D01*
X127485124Y-70537181D01*
X127866076Y-70537181D02*
X128485124Y-70537181D01*
X128151790Y-70918133D01*
X128294648Y-70918133D01*
X128389886Y-70965752D01*
X128437505Y-71013371D01*
X128485124Y-71108610D01*
X128485124Y-71346705D01*
X128437505Y-71441943D01*
X128389886Y-71489562D01*
X128294648Y-71537181D01*
X128008933Y-71537181D01*
X127913695Y-71489562D01*
X127866076Y-71441943D01*
X153297981Y-60377181D02*
X153917029Y-60377181D01*
X153583695Y-60758133D01*
X153726553Y-60758133D01*
X153821791Y-60805752D01*
X153869410Y-60853371D01*
X153917029Y-60948610D01*
X153917029Y-61186705D01*
X153869410Y-61281943D01*
X153821791Y-61329562D01*
X153726553Y-61377181D01*
X153440838Y-61377181D01*
X153345600Y-61329562D01*
X153297981Y-61281943D01*
X154345600Y-61281943D02*
X154393219Y-61329562D01*
X154345600Y-61377181D01*
X154297981Y-61329562D01*
X154345600Y-61281943D01*
X154345600Y-61377181D01*
X154726552Y-60377181D02*
X155345600Y-60377181D01*
X155012266Y-60758133D01*
X155155124Y-60758133D01*
X155250362Y-60805752D01*
X155297981Y-60853371D01*
X155345600Y-60948610D01*
X155345600Y-61186705D01*
X155297981Y-61281943D01*
X155250362Y-61329562D01*
X155155124Y-61377181D01*
X154869409Y-61377181D01*
X154774171Y-61329562D01*
X154726552Y-61281943D01*
X153321791Y-58837181D02*
X153321791Y-57837181D01*
X153559886Y-57837181D01*
X153702744Y-57884800D01*
X153797982Y-57980038D01*
X153845601Y-58075276D01*
X153893220Y-58265752D01*
X153893220Y-58408610D01*
X153845601Y-58599086D01*
X153797982Y-58694324D01*
X153702744Y-58789562D01*
X153559886Y-58837181D01*
X153321791Y-58837181D01*
X154321791Y-58837181D02*
X154321791Y-57837181D01*
X154988457Y-57837181D02*
X155178934Y-57837181D01*
X155274172Y-57884800D01*
X155369410Y-57980038D01*
X155417029Y-58170514D01*
X155417029Y-58503848D01*
X155369410Y-58694324D01*
X155274172Y-58789562D01*
X155178934Y-58837181D01*
X154988457Y-58837181D01*
X154893219Y-58789562D01*
X154797981Y-58694324D01*
X154750362Y-58503848D01*
X154750362Y-58170514D01*
X154797981Y-57980038D01*
X154893219Y-57884800D01*
X154988457Y-57837181D01*
X153313933Y-56297181D02*
X153313933Y-55297181D01*
X153552028Y-55297181D01*
X153694886Y-55344800D01*
X153790124Y-55440038D01*
X153837743Y-55535276D01*
X153885362Y-55725752D01*
X153885362Y-55868610D01*
X153837743Y-56059086D01*
X153790124Y-56154324D01*
X153694886Y-56249562D01*
X153552028Y-56297181D01*
X153313933Y-56297181D01*
X154885362Y-56201943D02*
X154837743Y-56249562D01*
X154694886Y-56297181D01*
X154599648Y-56297181D01*
X154456790Y-56249562D01*
X154361552Y-56154324D01*
X154313933Y-56059086D01*
X154266314Y-55868610D01*
X154266314Y-55725752D01*
X154313933Y-55535276D01*
X154361552Y-55440038D01*
X154456790Y-55344800D01*
X154599648Y-55297181D01*
X154694886Y-55297181D01*
X154837743Y-55344800D01*
X154885362Y-55392419D01*
X155790124Y-56297181D02*
X155313933Y-56297181D01*
X155313933Y-55297181D01*
X156123457Y-56297181D02*
X156123457Y-55297181D01*
X156694886Y-56297181D02*
X156266314Y-55725752D01*
X156694886Y-55297181D02*
X156123457Y-55868610D01*
X153583696Y-52804800D02*
X153488458Y-52757181D01*
X153345601Y-52757181D01*
X153202743Y-52804800D01*
X153107505Y-52900038D01*
X153059886Y-52995276D01*
X153012267Y-53185752D01*
X153012267Y-53328610D01*
X153059886Y-53519086D01*
X153107505Y-53614324D01*
X153202743Y-53709562D01*
X153345601Y-53757181D01*
X153440839Y-53757181D01*
X153583696Y-53709562D01*
X153631315Y-53661943D01*
X153631315Y-53328610D01*
X153440839Y-53328610D01*
X154059886Y-53757181D02*
X154059886Y-52757181D01*
X154631315Y-53757181D01*
X154631315Y-52757181D01*
X155107505Y-53757181D02*
X155107505Y-52757181D01*
X155345600Y-52757181D01*
X155488458Y-52804800D01*
X155583696Y-52900038D01*
X155631315Y-52995276D01*
X155678934Y-53185752D01*
X155678934Y-53328610D01*
X155631315Y-53519086D01*
X155583696Y-53614324D01*
X155488458Y-53709562D01*
X155345600Y-53757181D01*
X155107505Y-53757181D01*
X153182981Y-71283133D02*
X153897267Y-71283133D01*
X154040124Y-71330753D01*
X154135362Y-71425991D01*
X154182981Y-71568848D01*
X154182981Y-71664086D01*
X154182981Y-70806943D02*
X153182981Y-70806943D01*
X153182981Y-70425990D01*
X153230600Y-70330752D01*
X153278219Y-70283133D01*
X153373457Y-70235514D01*
X153516314Y-70235514D01*
X153611552Y-70283133D01*
X153659171Y-70330752D01*
X153706790Y-70425990D01*
X153706790Y-70806943D01*
X154182981Y-69283133D02*
X154182981Y-69854562D01*
X154182981Y-69568848D02*
X153182981Y-69568848D01*
X153325838Y-69664086D01*
X153421076Y-69759324D01*
X153468695Y-69854562D01*
X164812743Y-81371466D02*
X164860362Y-81419085D01*
X164907981Y-81561942D01*
X164907981Y-81657180D01*
X164860362Y-81800038D01*
X164765124Y-81895276D01*
X164669886Y-81942895D01*
X164479410Y-81990514D01*
X164336552Y-81990514D01*
X164146076Y-81942895D01*
X164050838Y-81895276D01*
X163955600Y-81800038D01*
X163907981Y-81657180D01*
X163907981Y-81561942D01*
X163955600Y-81419085D01*
X164003219Y-81371466D01*
X164907981Y-80419085D02*
X164907981Y-80990514D01*
X164907981Y-80704800D02*
X163907981Y-80704800D01*
X164050838Y-80800038D01*
X164146076Y-80895276D01*
X164193695Y-80990514D01*
D15*
X91152229Y-149752800D02*
X92240800Y-149752800D01*
X92458514Y-149825372D01*
X92603657Y-149970515D01*
X92676229Y-150188229D01*
X92676229Y-150333372D01*
X92676229Y-148228800D02*
X92676229Y-149099657D01*
X92676229Y-148664229D02*
X91152229Y-148664229D01*
X91369943Y-148809372D01*
X91515086Y-148954514D01*
X91587657Y-149099657D01*
X98975429Y-153163657D02*
X97451429Y-153163657D01*
X97451429Y-152800800D01*
X97524000Y-152583085D01*
X97669143Y-152437943D01*
X97814286Y-152365371D01*
X98104571Y-152292800D01*
X98322286Y-152292800D01*
X98612571Y-152365371D01*
X98757714Y-152437943D01*
X98902857Y-152583085D01*
X98975429Y-152800800D01*
X98975429Y-153163657D01*
X98830286Y-150768800D02*
X98902857Y-150841371D01*
X98975429Y-151059085D01*
X98975429Y-151204228D01*
X98902857Y-151421943D01*
X98757714Y-151567085D01*
X98612571Y-151639657D01*
X98322286Y-151712228D01*
X98104571Y-151712228D01*
X97814286Y-151639657D01*
X97669143Y-151567085D01*
X97524000Y-151421943D01*
X97451429Y-151204228D01*
X97451429Y-151059085D01*
X97524000Y-150841371D01*
X97596571Y-150768800D01*
X97451429Y-149680228D02*
X98540000Y-149680228D01*
X98757714Y-149752800D01*
X98902857Y-149897943D01*
X98975429Y-150115657D01*
X98975429Y-150260800D01*
X98540000Y-149027085D02*
X98540000Y-148301371D01*
X98975429Y-149172228D02*
X97451429Y-148664228D01*
X98975429Y-148156228D01*
X98830286Y-146777371D02*
X98902857Y-146849942D01*
X98975429Y-147067656D01*
X98975429Y-147212799D01*
X98902857Y-147430514D01*
X98757714Y-147575656D01*
X98612571Y-147648228D01*
X98322286Y-147720799D01*
X98104571Y-147720799D01*
X97814286Y-147648228D01*
X97669143Y-147575656D01*
X97524000Y-147430514D01*
X97451429Y-147212799D01*
X97451429Y-147067656D01*
X97524000Y-146849942D01*
X97596571Y-146777371D01*
X98975429Y-146124228D02*
X97451429Y-146124228D01*
X98975429Y-145253371D02*
X98104571Y-145906514D01*
X97451429Y-145253371D02*
X98322286Y-146124228D01*
D13*
X101918505Y-65598981D02*
X101918505Y-64598981D01*
X102299458Y-64598981D01*
X102394696Y-64646600D01*
X102442315Y-64694219D01*
X102489934Y-64789457D01*
X102489934Y-64932314D01*
X102442315Y-65027552D01*
X102394696Y-65075171D01*
X102299458Y-65122790D01*
X101918505Y-65122790D01*
X102823267Y-64598981D02*
X103442315Y-64598981D01*
X103108981Y-64979933D01*
X103251839Y-64979933D01*
X103347077Y-65027552D01*
X103394696Y-65075171D01*
X103442315Y-65170410D01*
X103442315Y-65408505D01*
X103394696Y-65503743D01*
X103347077Y-65551362D01*
X103251839Y-65598981D01*
X102966124Y-65598981D01*
X102870886Y-65551362D01*
X102823267Y-65503743D01*
X139497981Y-88967895D02*
X138497981Y-88967895D01*
X138497981Y-88586942D01*
X138545600Y-88491704D01*
X138593219Y-88444085D01*
X138688457Y-88396466D01*
X138831314Y-88396466D01*
X138926552Y-88444085D01*
X138974171Y-88491704D01*
X139021790Y-88586942D01*
X139021790Y-88967895D01*
X138497981Y-87491704D02*
X138497981Y-87967895D01*
X138974171Y-88015514D01*
X138926552Y-87967895D01*
X138878933Y-87872657D01*
X138878933Y-87634561D01*
X138926552Y-87539323D01*
X138974171Y-87491704D01*
X139069410Y-87444085D01*
X139307505Y-87444085D01*
X139402743Y-87491704D01*
X139450362Y-87539323D01*
X139497981Y-87634561D01*
X139497981Y-87872657D01*
X139450362Y-87967895D01*
X139402743Y-88015514D01*
X95187505Y-128112181D02*
X95187505Y-127112181D01*
X95568458Y-127112181D01*
X95663696Y-127159800D01*
X95711315Y-127207419D01*
X95758934Y-127302657D01*
X95758934Y-127445514D01*
X95711315Y-127540752D01*
X95663696Y-127588371D01*
X95568458Y-127635990D01*
X95187505Y-127635990D01*
X96616077Y-127112181D02*
X96425600Y-127112181D01*
X96330362Y-127159800D01*
X96282743Y-127207419D01*
X96187505Y-127350276D01*
X96139886Y-127540752D01*
X96139886Y-127921705D01*
X96187505Y-128016943D01*
X96235124Y-128064562D01*
X96330362Y-128112181D01*
X96520839Y-128112181D01*
X96616077Y-128064562D01*
X96663696Y-128016943D01*
X96711315Y-127921705D01*
X96711315Y-127683610D01*
X96663696Y-127588371D01*
X96616077Y-127540752D01*
X96520839Y-127493133D01*
X96330362Y-127493133D01*
X96235124Y-127540752D01*
X96187505Y-127588371D01*
X96139886Y-127683610D01*
X161127981Y-87062895D02*
X160127981Y-87062895D01*
X160127981Y-86681942D01*
X160175600Y-86586704D01*
X160223219Y-86539085D01*
X160318457Y-86491466D01*
X160461314Y-86491466D01*
X160556552Y-86539085D01*
X160604171Y-86586704D01*
X160651790Y-86681942D01*
X160651790Y-87062895D01*
X160127981Y-86158133D02*
X160127981Y-85491466D01*
X161127981Y-85920038D01*
X161127981Y-89602895D02*
X160127981Y-89602895D01*
X160127981Y-89221942D01*
X160175600Y-89126704D01*
X160223219Y-89079085D01*
X160318457Y-89031466D01*
X160461314Y-89031466D01*
X160556552Y-89079085D01*
X160604171Y-89126704D01*
X160651790Y-89221942D01*
X160651790Y-89602895D01*
X160556552Y-88460038D02*
X160508933Y-88555276D01*
X160461314Y-88602895D01*
X160366076Y-88650514D01*
X160318457Y-88650514D01*
X160223219Y-88602895D01*
X160175600Y-88555276D01*
X160127981Y-88460038D01*
X160127981Y-88269561D01*
X160175600Y-88174323D01*
X160223219Y-88126704D01*
X160318457Y-88079085D01*
X160366076Y-88079085D01*
X160461314Y-88126704D01*
X160508933Y-88174323D01*
X160556552Y-88269561D01*
X160556552Y-88460038D01*
X160604171Y-88555276D01*
X160651790Y-88602895D01*
X160747029Y-88650514D01*
X160937505Y-88650514D01*
X161032743Y-88602895D01*
X161080362Y-88555276D01*
X161127981Y-88460038D01*
X161127981Y-88269561D01*
X161080362Y-88174323D01*
X161032743Y-88126704D01*
X160937505Y-88079085D01*
X160747029Y-88079085D01*
X160651790Y-88126704D01*
X160604171Y-88174323D01*
X160556552Y-88269561D01*
X161127981Y-92142895D02*
X160127981Y-92142895D01*
X160127981Y-91761942D01*
X160175600Y-91666704D01*
X160223219Y-91619085D01*
X160318457Y-91571466D01*
X160461314Y-91571466D01*
X160556552Y-91619085D01*
X160604171Y-91666704D01*
X160651790Y-91761942D01*
X160651790Y-92142895D01*
X161127981Y-91095276D02*
X161127981Y-90904800D01*
X161080362Y-90809561D01*
X161032743Y-90761942D01*
X160889886Y-90666704D01*
X160699410Y-90619085D01*
X160318457Y-90619085D01*
X160223219Y-90666704D01*
X160175600Y-90714323D01*
X160127981Y-90809561D01*
X160127981Y-91000038D01*
X160175600Y-91095276D01*
X160223219Y-91142895D01*
X160318457Y-91190514D01*
X160556552Y-91190514D01*
X160651790Y-91142895D01*
X160699410Y-91095276D01*
X160747029Y-91000038D01*
X160747029Y-90809561D01*
X160699410Y-90714323D01*
X160651790Y-90666704D01*
X160556552Y-90619085D01*
X107265134Y-61326381D02*
X106931800Y-60850190D01*
X106693705Y-61326381D02*
X106693705Y-60326381D01*
X107074658Y-60326381D01*
X107169896Y-60374000D01*
X107217515Y-60421619D01*
X107265134Y-60516857D01*
X107265134Y-60659714D01*
X107217515Y-60754952D01*
X107169896Y-60802571D01*
X107074658Y-60850190D01*
X106693705Y-60850190D01*
X108217515Y-61326381D02*
X107646086Y-61326381D01*
X107931800Y-61326381D02*
X107931800Y-60326381D01*
X107836562Y-60469238D01*
X107741324Y-60564476D01*
X107646086Y-60612095D01*
X111887934Y-44994181D02*
X111554600Y-44517990D01*
X111316505Y-44994181D02*
X111316505Y-43994181D01*
X111697458Y-43994181D01*
X111792696Y-44041800D01*
X111840315Y-44089419D01*
X111887934Y-44184657D01*
X111887934Y-44327514D01*
X111840315Y-44422752D01*
X111792696Y-44470371D01*
X111697458Y-44517990D01*
X111316505Y-44517990D01*
X112792696Y-43994181D02*
X112316505Y-43994181D01*
X112268886Y-44470371D01*
X112316505Y-44422752D01*
X112411743Y-44375133D01*
X112649839Y-44375133D01*
X112745077Y-44422752D01*
X112792696Y-44470371D01*
X112840315Y-44565610D01*
X112840315Y-44803705D01*
X112792696Y-44898943D01*
X112745077Y-44946562D01*
X112649839Y-44994181D01*
X112411743Y-44994181D01*
X112316505Y-44946562D01*
X112268886Y-44898943D01*
X138799162Y-80068305D02*
X138846781Y-79925448D01*
X138846781Y-79687352D01*
X138799162Y-79592114D01*
X138751543Y-79544495D01*
X138656305Y-79496876D01*
X138561067Y-79496876D01*
X138465829Y-79544495D01*
X138418210Y-79592114D01*
X138370590Y-79687352D01*
X138322971Y-79877829D01*
X138275352Y-79973067D01*
X138227733Y-80020686D01*
X138132495Y-80068305D01*
X138037257Y-80068305D01*
X137942019Y-80020686D01*
X137894400Y-79973067D01*
X137846781Y-79877829D01*
X137846781Y-79639733D01*
X137894400Y-79496876D01*
X138846781Y-79068305D02*
X137846781Y-79068305D01*
X137846781Y-78687352D01*
X137894400Y-78592114D01*
X137942019Y-78544495D01*
X138037257Y-78496876D01*
X138180114Y-78496876D01*
X138275352Y-78544495D01*
X138322971Y-78592114D01*
X138370590Y-78687352D01*
X138370590Y-79068305D01*
X138846781Y-77544495D02*
X138846781Y-78115924D01*
X138846781Y-77830210D02*
X137846781Y-77830210D01*
X137989638Y-77925448D01*
X138084876Y-78020686D01*
X138132495Y-78115924D01*
X146466829Y-71686732D02*
X146466829Y-70924827D01*
X146847781Y-71305779D02*
X146085876Y-71305779D01*
X95862267Y-125083562D02*
X96005124Y-125131181D01*
X96243220Y-125131181D01*
X96338458Y-125083562D01*
X96386077Y-125035943D01*
X96433696Y-124940705D01*
X96433696Y-124845467D01*
X96386077Y-124750229D01*
X96338458Y-124702610D01*
X96243220Y-124654990D01*
X96052743Y-124607371D01*
X95957505Y-124559752D01*
X95909886Y-124512133D01*
X95862267Y-124416895D01*
X95862267Y-124321657D01*
X95909886Y-124226419D01*
X95957505Y-124178800D01*
X96052743Y-124131181D01*
X96290839Y-124131181D01*
X96433696Y-124178800D01*
X96767029Y-124131181D02*
X97005124Y-125131181D01*
X97195601Y-124416895D01*
X97386077Y-125131181D01*
X97624172Y-124131181D01*
X97909886Y-124131181D02*
X98528934Y-124131181D01*
X98195600Y-124512133D01*
X98338458Y-124512133D01*
X98433696Y-124559752D01*
X98481315Y-124607371D01*
X98528934Y-124702610D01*
X98528934Y-124940705D01*
X98481315Y-125035943D01*
X98433696Y-125083562D01*
X98338458Y-125131181D01*
X98052743Y-125131181D01*
X97957505Y-125083562D01*
X97909886Y-125035943D01*
X93004648Y-130211229D02*
X93766553Y-130211229D01*
X93385601Y-130592181D02*
X93385601Y-129830276D01*
X120823695Y-76697181D02*
X120823695Y-77506705D01*
X120871314Y-77601943D01*
X120918933Y-77649562D01*
X121014171Y-77697181D01*
X121204648Y-77697181D01*
X121299886Y-77649562D01*
X121347505Y-77601943D01*
X121395124Y-77506705D01*
X121395124Y-76697181D01*
X122347505Y-76697181D02*
X121871314Y-76697181D01*
X121823695Y-77173371D01*
X121871314Y-77125752D01*
X121966552Y-77078133D01*
X122204648Y-77078133D01*
X122299886Y-77125752D01*
X122347505Y-77173371D01*
X122395124Y-77268610D01*
X122395124Y-77506705D01*
X122347505Y-77601943D01*
X122299886Y-77649562D01*
X122204648Y-77697181D01*
X121966552Y-77697181D01*
X121871314Y-77649562D01*
X121823695Y-77601943D01*
D16*
X123811792Y-82970990D02*
X123811792Y-82470990D01*
X124097506Y-82970990D01*
X124097506Y-82470990D01*
X124430840Y-82470990D02*
X124526078Y-82470990D01*
X124573697Y-82494800D01*
X124621316Y-82542419D01*
X124645125Y-82637657D01*
X124645125Y-82804324D01*
X124621316Y-82899562D01*
X124573697Y-82947181D01*
X124526078Y-82970990D01*
X124430840Y-82970990D01*
X124383221Y-82947181D01*
X124335602Y-82899562D01*
X124311792Y-82804324D01*
X124311792Y-82637657D01*
X124335602Y-82542419D01*
X124383221Y-82494800D01*
X124430840Y-82470990D01*
X125240364Y-82970990D02*
X125240364Y-82470990D01*
X125430840Y-82470990D01*
X125478459Y-82494800D01*
X125502268Y-82518610D01*
X125526078Y-82566229D01*
X125526078Y-82637657D01*
X125502268Y-82685276D01*
X125478459Y-82709086D01*
X125430840Y-82732895D01*
X125240364Y-82732895D01*
X125716554Y-82828133D02*
X125954649Y-82828133D01*
X125668935Y-82970990D02*
X125835602Y-82470990D01*
X126002268Y-82970990D01*
X126097506Y-82470990D02*
X126383220Y-82470990D01*
X126240363Y-82970990D02*
X126240363Y-82470990D01*
X126478458Y-82470990D02*
X126764172Y-82470990D01*
X126621315Y-82970990D02*
X126621315Y-82470990D01*
X126930839Y-82709086D02*
X127097505Y-82709086D01*
X127168934Y-82970990D02*
X126930839Y-82970990D01*
X126930839Y-82470990D01*
X127168934Y-82470990D01*
X127668934Y-82970990D02*
X127502267Y-82732895D01*
X127383220Y-82970990D02*
X127383220Y-82470990D01*
X127573696Y-82470990D01*
X127621315Y-82494800D01*
X127645124Y-82518610D01*
X127668934Y-82566229D01*
X127668934Y-82637657D01*
X127645124Y-82685276D01*
X127621315Y-82709086D01*
X127573696Y-82732895D01*
X127383220Y-82732895D01*
X127883220Y-82970990D02*
X127883220Y-82470990D01*
X128168934Y-82970990D01*
X128168934Y-82470990D01*
X128764172Y-82828133D02*
X129002267Y-82828133D01*
X128716553Y-82970990D02*
X128883220Y-82470990D01*
X129049886Y-82970990D01*
X129502267Y-82970990D02*
X129335600Y-82732895D01*
X129216553Y-82970990D02*
X129216553Y-82470990D01*
X129407029Y-82470990D01*
X129454648Y-82494800D01*
X129478457Y-82518610D01*
X129502267Y-82566229D01*
X129502267Y-82637657D01*
X129478457Y-82685276D01*
X129454648Y-82709086D01*
X129407029Y-82732895D01*
X129216553Y-82732895D01*
X129716553Y-82709086D02*
X129883219Y-82709086D01*
X129954648Y-82970990D02*
X129716553Y-82970990D01*
X129716553Y-82470990D01*
X129954648Y-82470990D01*
X130145124Y-82828133D02*
X130383219Y-82828133D01*
X130097505Y-82970990D02*
X130264172Y-82470990D01*
X130430838Y-82970990D01*
D13*
X101871315Y-85197181D02*
X102204648Y-86197181D01*
X102537982Y-85197181D01*
X102871315Y-86197181D02*
X102871315Y-85197181D01*
X103347505Y-86197181D02*
X103347505Y-85197181D01*
X103918934Y-86197181D01*
X103918934Y-85197181D01*
X104395124Y-85816229D02*
X105157029Y-85816229D01*
X104776077Y-86197181D02*
X104776077Y-85435276D01*
X101871315Y-82197181D02*
X102204648Y-83197181D01*
X102537982Y-82197181D01*
X102871315Y-83197181D02*
X102871315Y-82197181D01*
X103347505Y-83197181D02*
X103347505Y-82197181D01*
X103918934Y-83197181D01*
X103918934Y-82197181D01*
X104395124Y-82816229D02*
X105157029Y-82816229D01*
X134204648Y-82697181D02*
X134537981Y-83697181D01*
X134871315Y-82697181D01*
X135395124Y-82697181D02*
X135585601Y-82697181D01*
X135680839Y-82744800D01*
X135776077Y-82840038D01*
X135823696Y-83030514D01*
X135823696Y-83363848D01*
X135776077Y-83554324D01*
X135680839Y-83649562D01*
X135585601Y-83697181D01*
X135395124Y-83697181D01*
X135299886Y-83649562D01*
X135204648Y-83554324D01*
X135157029Y-83363848D01*
X135157029Y-83030514D01*
X135204648Y-82840038D01*
X135299886Y-82744800D01*
X135395124Y-82697181D01*
X136252267Y-82697181D02*
X136252267Y-83506705D01*
X136299886Y-83601943D01*
X136347505Y-83649562D01*
X136442743Y-83697181D01*
X136633220Y-83697181D01*
X136728458Y-83649562D01*
X136776077Y-83601943D01*
X136823696Y-83506705D01*
X136823696Y-82697181D01*
X137157029Y-82697181D02*
X137728458Y-82697181D01*
X137442743Y-83697181D02*
X137442743Y-82697181D01*
X138061791Y-83316229D02*
X138823696Y-83316229D01*
X134204648Y-85197181D02*
X134537981Y-86197181D01*
X134871315Y-85197181D01*
X135395124Y-85197181D02*
X135585601Y-85197181D01*
X135680839Y-85244800D01*
X135776077Y-85340038D01*
X135823696Y-85530514D01*
X135823696Y-85863848D01*
X135776077Y-86054324D01*
X135680839Y-86149562D01*
X135585601Y-86197181D01*
X135395124Y-86197181D01*
X135299886Y-86149562D01*
X135204648Y-86054324D01*
X135157029Y-85863848D01*
X135157029Y-85530514D01*
X135204648Y-85340038D01*
X135299886Y-85244800D01*
X135395124Y-85197181D01*
X136252267Y-85197181D02*
X136252267Y-86006705D01*
X136299886Y-86101943D01*
X136347505Y-86149562D01*
X136442743Y-86197181D01*
X136633220Y-86197181D01*
X136728458Y-86149562D01*
X136776077Y-86101943D01*
X136823696Y-86006705D01*
X136823696Y-85197181D01*
X137157029Y-85197181D02*
X137728458Y-85197181D01*
X137442743Y-86197181D02*
X137442743Y-85197181D01*
X138061791Y-85816229D02*
X138823696Y-85816229D01*
X138442744Y-86197181D02*
X138442744Y-85435276D01*
X126949886Y-141093371D02*
X127092743Y-141140990D01*
X127140362Y-141188610D01*
X127187981Y-141283848D01*
X127187981Y-141426705D01*
X127140362Y-141521943D01*
X127092743Y-141569562D01*
X126997505Y-141617181D01*
X126616552Y-141617181D01*
X126616552Y-140617181D01*
X126949886Y-140617181D01*
X127045124Y-140664800D01*
X127092743Y-140712419D01*
X127140362Y-140807657D01*
X127140362Y-140902895D01*
X127092743Y-140998133D01*
X127045124Y-141045752D01*
X126949886Y-141093371D01*
X126616552Y-141093371D01*
X127473695Y-140617181D02*
X128045124Y-140617181D01*
X127759409Y-141617181D02*
X127759409Y-140617181D01*
X128330838Y-140712419D02*
X128378457Y-140664800D01*
X128473695Y-140617181D01*
X128711791Y-140617181D01*
X128807029Y-140664800D01*
X128854648Y-140712419D01*
X128902267Y-140807657D01*
X128902267Y-140902895D01*
X128854648Y-141045752D01*
X128283219Y-141617181D01*
X128902267Y-141617181D01*
X126949886Y-98093371D02*
X127092743Y-98140990D01*
X127140362Y-98188610D01*
X127187981Y-98283848D01*
X127187981Y-98426705D01*
X127140362Y-98521943D01*
X127092743Y-98569562D01*
X126997505Y-98617181D01*
X126616552Y-98617181D01*
X126616552Y-97617181D01*
X126949886Y-97617181D01*
X127045124Y-97664800D01*
X127092743Y-97712419D01*
X127140362Y-97807657D01*
X127140362Y-97902895D01*
X127092743Y-97998133D01*
X127045124Y-98045752D01*
X126949886Y-98093371D01*
X126616552Y-98093371D01*
X127473695Y-97617181D02*
X128045124Y-97617181D01*
X127759409Y-98617181D02*
X127759409Y-97617181D01*
X128283219Y-97617181D02*
X128902267Y-97617181D01*
X128568933Y-97998133D01*
X128711791Y-97998133D01*
X128807029Y-98045752D01*
X128854648Y-98093371D01*
X128902267Y-98188610D01*
X128902267Y-98426705D01*
X128854648Y-98521943D01*
X128807029Y-98569562D01*
X128711791Y-98617181D01*
X128426076Y-98617181D01*
X128330838Y-98569562D01*
X128283219Y-98521943D01*
M02*
