G04 #@! TF.FileFunction,Copper,L1,Top,Signal*
%FSLAX46Y46*%
G04 Gerber Fmt 4.6, Leading zero omitted, Abs format (unit mm)*
G04 Created by KiCad (PCBNEW 4.0.2+dfsg1-stable) date 2017年09月12日 18時24分26秒*
%MOMM*%
G01*
G04 APERTURE LIST*
%ADD10C,0.100000*%
%ADD11C,0.900000*%
%ADD12R,3.556000X3.556000*%
%ADD13C,3.556000*%
%ADD14R,2.000000X1.900000*%
%ADD15C,1.900000*%
%ADD16R,1.501140X2.700020*%
%ADD17R,1.727200X2.032000*%
%ADD18O,1.727200X2.032000*%
%ADD19C,1.524000*%
%ADD20C,1.500000*%
%ADD21R,2.032000X2.032000*%
%ADD22O,2.032000X2.032000*%
%ADD23R,1.727200X1.727200*%
%ADD24O,1.727200X1.727200*%
%ADD25R,1.300000X1.300000*%
%ADD26C,1.300000*%
%ADD27R,2.999740X5.001260*%
%ADD28R,5.001260X5.001260*%
%ADD29R,2.235200X2.235200*%
%ADD30C,1.620000*%
%ADD31C,1.850000*%
%ADD32C,1.600200*%
%ADD33C,2.000000*%
%ADD34R,7.000000X3.000000*%
%ADD35R,5.000000X3.000000*%
%ADD36C,1.399540*%
%ADD37C,0.600000*%
%ADD38C,1.270000*%
%ADD39C,0.508000*%
%ADD40C,0.381000*%
%ADD41C,0.203200*%
G04 APERTURE END LIST*
D10*
D11*
X174665600Y-71719800D03*
X174665600Y-70449800D03*
X173395600Y-71719800D03*
X173395600Y-70449800D03*
X172125600Y-71719800D03*
X172125600Y-70449800D03*
X170855600Y-71719800D03*
X170855600Y-70449800D03*
X169585600Y-71719800D03*
X169585600Y-70449800D03*
X168315600Y-71719800D03*
X168315600Y-70449800D03*
X167045600Y-71719800D03*
X167045600Y-70449800D03*
X165775600Y-71719800D03*
X165775600Y-70449800D03*
X164505600Y-71719800D03*
X164505600Y-70449800D03*
X163235600Y-71719800D03*
X163235600Y-70449800D03*
X161965600Y-71719800D03*
X161965600Y-70449800D03*
X160695600Y-71719800D03*
X160695600Y-70449800D03*
X159425600Y-71719800D03*
X159425600Y-70449800D03*
D12*
X104875600Y-124744800D03*
D13*
X178535600Y-124744800D03*
D14*
X140629600Y-38318800D03*
D15*
X140629600Y-40858800D03*
D16*
X94160300Y-137759800D03*
X98960900Y-137759800D03*
D17*
X163997600Y-78069800D03*
D18*
X166537600Y-78069800D03*
X169077600Y-78069800D03*
X171617600Y-78069800D03*
X174157600Y-78069800D03*
X176697600Y-78069800D03*
D19*
X132247600Y-44541800D03*
X142407600Y-44541800D03*
X150789600Y-56606800D03*
X140629600Y-56606800D03*
X140832800Y-53177800D03*
X150992800Y-53177800D03*
D20*
X150535600Y-45049800D03*
X145455600Y-45049800D03*
X150535600Y-37429800D03*
X145455600Y-37429800D03*
D21*
X124085600Y-138244800D03*
D22*
X147273600Y-138460800D03*
D19*
X102275600Y-64734800D03*
X104815600Y-64734800D03*
X107355600Y-64734800D03*
X109895600Y-64734800D03*
X112435600Y-64734800D03*
X114975600Y-64734800D03*
X117515600Y-64734800D03*
X120055600Y-64734800D03*
X122595600Y-64734800D03*
X125135600Y-64734800D03*
X127675600Y-64734800D03*
X130215600Y-64734800D03*
X132755600Y-64734800D03*
X135295600Y-64734800D03*
X137835600Y-64734800D03*
X140375600Y-64734800D03*
X142915600Y-64734800D03*
X145455600Y-64734800D03*
X147995600Y-64734800D03*
X150535600Y-64734800D03*
X150535600Y-49494800D03*
X147995600Y-49494800D03*
X145455600Y-49494800D03*
X142915600Y-49494800D03*
X140375600Y-49494800D03*
X137835600Y-49494800D03*
X135295600Y-49494800D03*
X132755600Y-49494800D03*
X130215600Y-49494800D03*
X127675600Y-49494800D03*
X125135600Y-49494800D03*
X122595600Y-49494800D03*
X120055600Y-49494800D03*
X117515600Y-49494800D03*
X114975600Y-49494800D03*
X112435600Y-49494800D03*
X109895600Y-49494800D03*
X107355600Y-49494800D03*
X104815600Y-49494800D03*
X102275600Y-49494800D03*
D21*
X148630600Y-70449800D03*
D22*
X146090600Y-70449800D03*
D23*
X135085600Y-40244800D03*
D24*
X135085600Y-37704800D03*
X132545600Y-40244800D03*
X132545600Y-37704800D03*
X130005600Y-40244800D03*
X130005600Y-37704800D03*
X127465600Y-40244800D03*
X127465600Y-37704800D03*
X124925600Y-40244800D03*
X124925600Y-37704800D03*
X122385600Y-40244800D03*
X122385600Y-37704800D03*
X119845600Y-40244800D03*
X119845600Y-37704800D03*
X117305600Y-40244800D03*
X117305600Y-37704800D03*
X114765600Y-40244800D03*
X114765600Y-37704800D03*
X112225600Y-40244800D03*
X112225600Y-37704800D03*
X109685600Y-40244800D03*
X109685600Y-37704800D03*
X107145600Y-40244800D03*
X107145600Y-37704800D03*
D25*
X158155600Y-78704800D03*
D26*
X158155600Y-83704800D03*
D27*
X99886200Y-145993600D03*
D28*
X95034800Y-142993860D03*
X95085600Y-149244800D03*
D29*
X102656600Y-70246600D03*
D17*
X135085600Y-74744800D03*
D18*
X132545600Y-74744800D03*
X130005600Y-74744800D03*
X127465600Y-74744800D03*
X124925600Y-74744800D03*
X122385600Y-74744800D03*
X119845600Y-74744800D03*
X117305600Y-74744800D03*
X114765600Y-74744800D03*
X112225600Y-74744800D03*
X109685600Y-74744800D03*
X107145600Y-74744800D03*
D30*
X147995600Y-88229800D03*
X145995600Y-88229800D03*
X143995600Y-88229800D03*
D31*
X148725600Y-90949800D03*
D30*
X141995600Y-88229800D03*
D31*
X141725600Y-90949800D03*
X148725600Y-85509800D03*
X141725600Y-85509800D03*
D30*
X95925600Y-118709800D03*
X95925600Y-120709800D03*
X95925600Y-122709800D03*
D31*
X98645600Y-117979800D03*
D30*
X95925600Y-124709800D03*
D31*
X98645600Y-124979800D03*
X93205600Y-117979800D03*
X93205600Y-124979800D03*
D17*
X165775600Y-86324800D03*
D18*
X168315600Y-86324800D03*
X170855600Y-86324800D03*
X173395600Y-86324800D03*
D17*
X165775600Y-88864800D03*
D18*
X168315600Y-88864800D03*
X170855600Y-88864800D03*
X173395600Y-88864800D03*
D17*
X165775600Y-91404800D03*
D18*
X168315600Y-91404800D03*
X170855600Y-91404800D03*
X173395600Y-91404800D03*
D19*
X112511800Y-60874000D03*
X102351800Y-60874000D03*
X106974600Y-44541800D03*
X117134600Y-44541800D03*
D32*
X146395400Y-81981400D03*
X146395400Y-75631400D03*
D33*
X93395760Y-132679800D03*
X100995440Y-132679800D03*
D34*
X136085600Y-80744800D03*
X136085600Y-88244800D03*
D35*
X104085600Y-88244800D03*
X104085600Y-80244800D03*
D12*
X104875600Y-146244800D03*
D13*
X178535600Y-146244800D03*
D12*
X104875600Y-103244800D03*
D13*
X178535600Y-103244800D03*
D36*
X110251200Y-67401800D03*
D37*
X158206400Y-66944600D03*
D36*
X131993600Y-103596800D03*
D37*
X139029400Y-53914400D03*
X137835600Y-66563600D03*
X135422600Y-57495800D03*
X133339800Y-56225800D03*
X130672800Y-55235200D03*
X131155400Y-61255000D03*
X142229800Y-60162800D03*
X138191200Y-60975600D03*
X136514800Y-62982200D03*
X158282600Y-72659600D03*
X133924000Y-63541000D03*
D36*
X98059200Y-130647800D03*
X153786800Y-95341800D03*
D37*
X158993800Y-74310600D03*
D36*
X135117800Y-114849000D03*
X156809400Y-47920000D03*
D37*
X126024600Y-121376800D03*
X125008600Y-120614800D03*
X143423600Y-78958800D03*
X134686000Y-72659600D03*
X127904200Y-71542000D03*
X144058600Y-78222200D03*
X135346400Y-72075400D03*
X128615400Y-70830800D03*
X129428200Y-69992600D03*
X136413200Y-71694400D03*
X144744400Y-77688800D03*
X145354000Y-77130000D03*
X136997400Y-70830800D03*
X130241000Y-69205200D03*
D38*
X99886200Y-145993600D02*
X99886200Y-141952600D01*
X154498000Y-117973200D02*
X154498000Y-117979800D01*
X136159200Y-117973200D02*
X154498000Y-117973200D01*
X117820400Y-136312000D02*
X136159200Y-117973200D01*
X105526800Y-136312000D02*
X117820400Y-136312000D01*
X99886200Y-141952600D02*
X105526800Y-136312000D01*
X98645600Y-117979800D02*
X154498000Y-117979800D01*
X154498000Y-117979800D02*
X172093600Y-117979800D01*
X172093600Y-117979800D02*
X178535600Y-111537800D01*
X178535600Y-103244800D02*
X169102200Y-103244800D01*
X169102200Y-103244800D02*
X156807200Y-90949800D01*
X178535600Y-124744800D02*
X178535600Y-111537800D01*
X178535600Y-111537800D02*
X178535600Y-103244800D01*
X178535600Y-146244800D02*
X178535600Y-124744800D01*
X95085600Y-149244800D02*
X96635000Y-149244800D01*
X96635000Y-149244800D02*
X99886200Y-145993600D01*
X110759200Y-67859000D02*
X110759200Y-67808200D01*
X110708400Y-67808200D02*
X110759200Y-67859000D01*
X110657600Y-67808200D02*
X110708400Y-67808200D01*
X110251200Y-67401800D02*
X110657600Y-67808200D01*
X107145600Y-74744800D02*
X107145600Y-77184800D01*
X107145600Y-77184800D02*
X104085600Y-80244800D01*
X104085600Y-80244800D02*
X135585600Y-80244800D01*
X135585600Y-80244800D02*
X136085600Y-80744800D01*
X147995600Y-64734800D02*
X147995600Y-65827000D01*
X129352000Y-67808200D02*
X110759200Y-67808200D01*
X129555200Y-68011400D02*
X129352000Y-67808200D01*
X145811200Y-68011400D02*
X129555200Y-68011400D01*
X147995600Y-65827000D02*
X145811200Y-68011400D01*
X110759200Y-67808200D02*
X109921000Y-67808200D01*
X107145600Y-70583600D02*
X107145600Y-74744800D01*
X109921000Y-67808200D02*
X107145600Y-70583600D01*
X141725600Y-90949800D02*
X148725600Y-90949800D01*
X148725600Y-85509800D02*
X149441200Y-85509800D01*
X149441200Y-85509800D02*
X149540600Y-85410400D01*
X149540600Y-85410400D02*
X156450000Y-85410400D01*
X156450000Y-85410400D02*
X158155600Y-83704800D01*
X148725600Y-90949800D02*
X156807200Y-90949800D01*
X156807200Y-90949800D02*
X157262200Y-91404800D01*
X157262200Y-91404800D02*
X165775600Y-91404800D01*
X168315600Y-91404800D02*
X170855600Y-91404800D01*
X165775600Y-91404800D02*
X168315600Y-91404800D01*
X170855600Y-91404800D02*
X173395600Y-91404800D01*
X171617600Y-78069800D02*
X171617600Y-78654000D01*
X171617600Y-78654000D02*
X173624200Y-80660600D01*
X179085200Y-91100000D02*
X173700400Y-91100000D01*
X179491600Y-90693600D02*
X179085200Y-91100000D01*
X179491600Y-81930600D02*
X179491600Y-90693600D01*
X178221600Y-80660600D02*
X179491600Y-81930600D01*
X173624200Y-80660600D02*
X178221600Y-80660600D01*
X173700400Y-91100000D02*
X173395600Y-91404800D01*
D39*
X155387000Y-68570200D02*
X156580800Y-68570200D01*
X151856400Y-68265400D02*
X154117000Y-68265400D01*
X154117000Y-68265400D02*
X154421800Y-68570200D01*
X154421800Y-68570200D02*
X155387000Y-68570200D01*
X148325800Y-64734800D02*
X151856400Y-68265400D01*
X156580800Y-68570200D02*
X158206400Y-66944600D01*
X147995600Y-64734800D02*
X148325800Y-64734800D01*
D38*
X140629600Y-38318800D02*
X141467800Y-38318800D01*
X141467800Y-38318800D02*
X145455600Y-42306600D01*
X156733200Y-53431800D02*
X150992800Y-53177800D01*
X160517800Y-49647200D02*
X156733200Y-53431800D01*
X160517800Y-47488200D02*
X160517800Y-49647200D01*
X155336200Y-42306600D02*
X160517800Y-47488200D01*
X145455600Y-42306600D02*
X155336200Y-42306600D01*
D40*
X124925600Y-40244800D02*
X124925600Y-39443200D01*
X124925600Y-39443200D02*
X125389600Y-38979200D01*
X119845600Y-37704800D02*
X119806000Y-37704800D01*
X119806000Y-37704800D02*
X118531600Y-38979200D01*
X113500000Y-38979200D02*
X112225600Y-37704800D01*
X118531600Y-38979200D02*
X113500000Y-38979200D01*
X130005600Y-37704800D02*
X130005600Y-37792200D01*
X130005600Y-37792200D02*
X128818600Y-38979200D01*
X128818600Y-38979200D02*
X125389600Y-38979200D01*
X125389600Y-38979200D02*
X120436600Y-38979200D01*
X120436600Y-38979200D02*
X119845600Y-38388200D01*
X119845600Y-38388200D02*
X119845600Y-37704800D01*
X114765600Y-40244800D02*
X115047400Y-40244800D01*
X115047400Y-40244800D02*
X116448800Y-41646200D01*
X116448800Y-41646200D02*
X133684200Y-41646200D01*
X133684200Y-41646200D02*
X135085600Y-40244800D01*
X114950200Y-103244800D02*
X129457200Y-103244800D01*
X129809200Y-103596800D02*
X131993600Y-103596800D01*
X129457200Y-103244800D02*
X129809200Y-103596800D01*
D41*
X139029400Y-53914400D02*
X139029400Y-53127000D01*
X141061400Y-51095000D02*
X141366200Y-51095000D01*
X139029400Y-53127000D02*
X141061400Y-51095000D01*
X148935400Y-51095000D02*
X150535600Y-49494800D01*
X141366200Y-51095000D02*
X148935400Y-51095000D01*
D40*
X104875600Y-103244800D02*
X114950200Y-103244800D01*
D41*
X125135600Y-64734800D02*
X125465800Y-64734800D01*
X125465800Y-64734800D02*
X127066000Y-66335000D01*
X127066000Y-66335000D02*
X137607000Y-66335000D01*
X137607000Y-66335000D02*
X137835600Y-66563600D01*
X166537600Y-76571200D02*
X166537600Y-78069800D01*
X168366400Y-74742400D02*
X166537600Y-76571200D01*
X173776600Y-74742400D02*
X168366400Y-74742400D01*
X176164200Y-72354800D02*
X173776600Y-74742400D01*
X176164200Y-69357600D02*
X176164200Y-72354800D01*
X172176400Y-65369800D02*
X176164200Y-69357600D01*
X161152800Y-65369800D02*
X172176400Y-65369800D01*
X155310800Y-59527800D02*
X161152800Y-65369800D01*
X137454600Y-59527800D02*
X155310800Y-59527800D01*
X135422600Y-57495800D02*
X137454600Y-59527800D01*
X169077600Y-76342600D02*
X169077600Y-78069800D01*
X170068200Y-75352000D02*
X169077600Y-76342600D01*
X173979800Y-75352000D02*
X170068200Y-75352000D01*
X176773800Y-72558000D02*
X173979800Y-75352000D01*
X176773800Y-68773400D02*
X176773800Y-72558000D01*
X172811400Y-64811000D02*
X176773800Y-68773400D01*
X161483000Y-64811000D02*
X172811400Y-64811000D01*
X155590200Y-58918200D02*
X161483000Y-64811000D01*
X138064200Y-58918200D02*
X155590200Y-58918200D01*
X135727400Y-56581400D02*
X138064200Y-58918200D01*
X133695400Y-56581400D02*
X135727400Y-56581400D01*
X133339800Y-56225800D02*
X133695400Y-56581400D01*
X174157600Y-78069800D02*
X174157600Y-76139400D01*
X135168600Y-55235200D02*
X130672800Y-55235200D01*
X138140400Y-58207000D02*
X135168600Y-55235200D01*
X155641000Y-58207000D02*
X138140400Y-58207000D01*
X160924200Y-63490200D02*
X155641000Y-58207000D01*
X172659000Y-63490200D02*
X160924200Y-63490200D01*
X177256400Y-68087600D02*
X172659000Y-63490200D01*
X177256400Y-73040600D02*
X177256400Y-68087600D01*
X174157600Y-76139400D02*
X177256400Y-73040600D01*
X150281600Y-60162800D02*
X155209200Y-60162800D01*
X164683400Y-69129000D02*
X164683400Y-69103600D01*
X164175400Y-69129000D02*
X164683400Y-69129000D01*
X155209200Y-60162800D02*
X164175400Y-69129000D01*
X174665600Y-71719800D02*
X175173600Y-71719800D01*
X175173600Y-71719800D02*
X175707000Y-71186400D01*
X175707000Y-71186400D02*
X175707000Y-69687800D01*
X175707000Y-69687800D02*
X175122800Y-69103600D01*
X175122800Y-69103600D02*
X164683400Y-69103600D01*
X132247600Y-60162800D02*
X131155400Y-61255000D01*
X131155400Y-61255000D02*
X131104600Y-61305800D01*
X150281600Y-60162800D02*
X142229800Y-60162800D01*
X142229800Y-60162800D02*
X132247600Y-60162800D01*
X149722800Y-60924800D02*
X155183800Y-60924800D01*
X163921400Y-69662400D02*
X171338200Y-69662400D01*
X155183800Y-60924800D02*
X163921400Y-69662400D01*
X138191200Y-60975600D02*
X138191200Y-60924800D01*
X138191200Y-60924800D02*
X138191200Y-60975600D01*
X138191200Y-60975600D02*
X138191200Y-60924800D01*
X134000200Y-60924800D02*
X138191200Y-60924800D01*
X138191200Y-60924800D02*
X149722800Y-60924800D01*
X171338200Y-69662400D02*
X172125600Y-70449800D01*
X114975600Y-64734800D02*
X117312400Y-62398000D01*
X132527000Y-62398000D02*
X134000200Y-60924800D01*
X132527000Y-62398000D02*
X117312400Y-62398000D01*
X158181000Y-70551400D02*
X158181000Y-70145000D01*
X150942000Y-61864600D02*
X150002200Y-62804400D01*
X155158400Y-61864600D02*
X150942000Y-61864600D01*
X160289200Y-66995400D02*
X155158400Y-61864600D01*
X160289200Y-68036800D02*
X160289200Y-66995400D01*
X158181000Y-70145000D02*
X160289200Y-68036800D01*
X139080200Y-62804400D02*
X139334200Y-62804400D01*
X136743400Y-62982200D02*
X136921200Y-62804400D01*
X141645600Y-62804400D02*
X150002200Y-62804400D01*
X136921200Y-62804400D02*
X139080200Y-62804400D01*
X136514800Y-62982200D02*
X136743400Y-62982200D01*
X139334200Y-62804400D02*
X140070800Y-63541000D01*
X140070800Y-63541000D02*
X140909000Y-63541000D01*
X140909000Y-63541000D02*
X141645600Y-62804400D01*
X136514800Y-62982200D02*
X136464000Y-62982200D01*
X136210000Y-62728200D02*
X133695400Y-62728200D01*
X136464000Y-62982200D02*
X136210000Y-62728200D01*
X158181000Y-70551400D02*
X158181000Y-71669000D01*
X170855600Y-71719800D02*
X168925200Y-73650200D01*
X160162200Y-73650200D02*
X168925200Y-73650200D01*
X158181000Y-71669000D02*
X160162200Y-73650200D01*
X133695400Y-62728200D02*
X133365200Y-63058400D01*
X133365200Y-63058400D02*
X119192000Y-63058400D01*
X119192000Y-63058400D02*
X117515600Y-64734800D01*
X158282600Y-72659600D02*
X157546000Y-71923000D01*
X157546000Y-71923000D02*
X157546000Y-69992600D01*
X157546000Y-69992600D02*
X157673000Y-69865600D01*
X150383200Y-63426700D02*
X150383200Y-63312400D01*
X159885998Y-67652602D02*
X157673000Y-69865600D01*
X159885998Y-67252598D02*
X159885998Y-67652602D01*
X155056800Y-62423400D02*
X159885998Y-67252598D01*
X151272200Y-62423400D02*
X155056800Y-62423400D01*
X150383200Y-63312400D02*
X151272200Y-62423400D01*
X140375600Y-64734800D02*
X140477200Y-64734800D01*
X140477200Y-64734800D02*
X141785300Y-63426700D01*
X135473400Y-63363200D02*
X135600400Y-63363200D01*
X137124400Y-63820400D02*
X137581600Y-63363200D01*
X136057600Y-63820400D02*
X137124400Y-63820400D01*
X135600400Y-63363200D02*
X136057600Y-63820400D01*
X141785300Y-63426700D02*
X150383200Y-63426700D01*
X139004000Y-63363200D02*
X139067500Y-63426700D01*
X139067500Y-63426700D02*
X140375600Y-64734800D01*
X134101800Y-63363200D02*
X135473400Y-63363200D01*
X137581600Y-63363200D02*
X139004000Y-63363200D01*
X133924000Y-63541000D02*
X134101800Y-63363200D01*
D38*
X93395760Y-132679800D02*
X93395760Y-136995260D01*
X93395760Y-136995260D02*
X94160300Y-137759800D01*
X98960900Y-131549500D02*
X98960900Y-137759800D01*
X98059200Y-130647800D02*
X98960900Y-131549500D01*
X98960900Y-137759800D02*
X98960900Y-139067760D01*
X98960900Y-139067760D02*
X95034800Y-142993860D01*
X94160300Y-142119360D02*
X95034800Y-142993860D01*
X142255200Y-55362200D02*
X142052000Y-55362200D01*
X134203400Y-52568200D02*
X133720800Y-52568200D01*
X137022800Y-55387600D02*
X134203400Y-52568200D01*
X139283400Y-55387600D02*
X137022800Y-55387600D01*
X139740600Y-54930400D02*
X139283400Y-55387600D01*
X141620200Y-54930400D02*
X139740600Y-54930400D01*
X142052000Y-55362200D02*
X141620200Y-54930400D01*
X135905200Y-95240200D02*
X111081000Y-95240200D01*
X153786800Y-95341800D02*
X153685200Y-95240200D01*
X135905200Y-95240200D02*
X153685200Y-95240200D01*
X111081000Y-95240200D02*
X104085600Y-88244800D01*
X151348400Y-74107400D02*
X148630600Y-71389600D01*
X158790600Y-74107400D02*
X151348400Y-74107400D01*
X158993800Y-74310600D02*
X158790600Y-74107400D01*
X148630600Y-71389600D02*
X148630600Y-70449800D01*
X168315600Y-88864800D02*
X165775600Y-88864800D01*
X170855600Y-88864800D02*
X168315600Y-88864800D01*
X173395600Y-88864800D02*
X170855600Y-88864800D01*
X150789600Y-56606800D02*
X143499800Y-56606800D01*
X143499800Y-56606800D02*
X142255200Y-55362200D01*
X133720800Y-52568200D02*
X110429000Y-52568200D01*
X110429000Y-52568200D02*
X107355600Y-49494800D01*
D41*
X109895600Y-64734800D02*
X109895600Y-65166600D01*
X109895600Y-65166600D02*
X108574800Y-66487400D01*
X108574800Y-66487400D02*
X103850400Y-66487400D01*
X103850400Y-66487400D02*
X102656600Y-67681200D01*
X102656600Y-67681200D02*
X102656600Y-70246600D01*
D38*
X135085600Y-74744800D02*
X136466400Y-74744800D01*
X142102800Y-80381200D02*
X142102800Y-83022800D01*
X136466400Y-74744800D02*
X142102800Y-80381200D01*
X134127200Y-115839600D02*
X97398800Y-115839600D01*
X135117800Y-114849000D02*
X134127200Y-115839600D01*
X146573200Y-84394400D02*
X146573200Y-85994600D01*
X147995600Y-87417000D02*
X147995600Y-88229800D01*
X146573200Y-85994600D02*
X147995600Y-87417000D01*
X139702500Y-84203900D02*
X140883600Y-83022800D01*
X139702500Y-84203900D02*
X136085600Y-87820800D01*
X140883600Y-83022800D02*
X142102800Y-83022800D01*
X142102800Y-83022800D02*
X144033200Y-83022800D01*
X144033200Y-83022800D02*
X145404800Y-84394400D01*
X145404800Y-84394400D02*
X146573200Y-84394400D01*
X149900600Y-83048200D02*
X149900600Y-83022800D01*
X147919400Y-83048200D02*
X149900600Y-83048200D01*
X146573200Y-84394400D02*
X147919400Y-83048200D01*
X135085600Y-74744800D02*
X137172800Y-74744800D01*
X141467800Y-70449800D02*
X146090600Y-70449800D01*
X137172800Y-74744800D02*
X141467800Y-70449800D01*
X137196200Y-37704800D02*
X135085600Y-37704800D01*
X137835600Y-38344200D02*
X137196200Y-37704800D01*
X137835600Y-43830600D02*
X137835600Y-38344200D01*
X141213800Y-47208800D02*
X137835600Y-43830600D01*
X156098200Y-47208800D02*
X141213800Y-47208800D01*
X156809400Y-47920000D02*
X156098200Y-47208800D01*
X95925600Y-118709800D02*
X95925600Y-117312800D01*
X95925600Y-117312800D02*
X97398800Y-115839600D01*
X158155600Y-78704800D02*
X155895000Y-78704800D01*
X151577000Y-83022800D02*
X150916600Y-83022800D01*
X150916600Y-83022800D02*
X149900600Y-83022800D01*
X155895000Y-78704800D02*
X151577000Y-83022800D01*
X136085600Y-87820800D02*
X136085600Y-88244800D01*
X132545600Y-37704800D02*
X135085600Y-37704800D01*
D41*
X95925600Y-122709800D02*
X101603000Y-122709800D01*
X125237200Y-122164200D02*
X126024600Y-121376800D01*
X102148600Y-122164200D02*
X125237200Y-122164200D01*
X101603000Y-122709800D02*
X102148600Y-122164200D01*
X124551400Y-120640200D02*
X124983200Y-120640200D01*
X124481800Y-120709800D02*
X124551400Y-120640200D01*
X95925600Y-120709800D02*
X124481800Y-120709800D01*
X124983200Y-120640200D02*
X125008600Y-120614800D01*
X165775600Y-86324800D02*
X165775600Y-85588200D01*
X165775600Y-85588200D02*
X159654200Y-79466800D01*
X159654200Y-79466800D02*
X159654200Y-77714200D01*
X159654200Y-77714200D02*
X159146200Y-77206200D01*
X159146200Y-77206200D02*
X155818800Y-77206200D01*
X155818800Y-77206200D02*
X153685200Y-79339800D01*
X153685200Y-79339800D02*
X143804600Y-79339800D01*
X143804600Y-79339800D02*
X143423600Y-78958800D01*
X134686000Y-72659600D02*
X134076400Y-72050000D01*
X134076400Y-72050000D02*
X128412200Y-72050000D01*
X128412200Y-72050000D02*
X127904200Y-71542000D01*
X168315600Y-84089600D02*
X168315600Y-86324800D01*
X167604400Y-83378400D02*
X168315600Y-84089600D01*
X164454800Y-83378400D02*
X167604400Y-83378400D01*
X160619400Y-79543000D02*
X164454800Y-83378400D01*
X160619400Y-77714200D02*
X160619400Y-79543000D01*
X159603400Y-76698200D02*
X160619400Y-77714200D01*
X155666400Y-76698200D02*
X159603400Y-76698200D01*
X153736000Y-78628600D02*
X155666400Y-76698200D01*
X144465000Y-78628600D02*
X153736000Y-78628600D01*
X144058600Y-78222200D02*
X144465000Y-78628600D01*
X134584400Y-71313400D02*
X135346400Y-72075400D01*
X129098000Y-71313400D02*
X134584400Y-71313400D01*
X128615400Y-70830800D02*
X129098000Y-71313400D01*
X170855600Y-86324800D02*
X170855600Y-83886400D01*
X129834600Y-70399000D02*
X129428200Y-69992600D01*
X135117800Y-70399000D02*
X129834600Y-70399000D01*
X136413200Y-71694400D02*
X135117800Y-70399000D01*
X145100000Y-78044400D02*
X144744400Y-77688800D01*
X153456600Y-78044400D02*
X145100000Y-78044400D01*
X155310800Y-76190200D02*
X153456600Y-78044400D01*
X160060600Y-76190200D02*
X155310800Y-76190200D01*
X161127400Y-77257000D02*
X160060600Y-76190200D01*
X161127400Y-79263600D02*
X161127400Y-77257000D01*
X164683400Y-82819600D02*
X161127400Y-79263600D01*
X169788800Y-82819600D02*
X164683400Y-82819600D01*
X170855600Y-83886400D02*
X169788800Y-82819600D01*
X173395600Y-83937200D02*
X173395600Y-86324800D01*
X171795400Y-82337000D02*
X173395600Y-83937200D01*
X164861200Y-82337000D02*
X171795400Y-82337000D01*
X161838600Y-79314400D02*
X164861200Y-82337000D01*
X161838600Y-77282400D02*
X161838600Y-79314400D01*
X160060600Y-75504400D02*
X161838600Y-77282400D01*
X155260000Y-75504400D02*
X160060600Y-75504400D01*
X153228000Y-77536400D02*
X155260000Y-75504400D01*
X145760400Y-77536400D02*
X153228000Y-77536400D01*
X145354000Y-77130000D02*
X145760400Y-77536400D01*
X135829000Y-69662400D02*
X136997400Y-70830800D01*
X130698200Y-69662400D02*
X135829000Y-69662400D01*
X130241000Y-69205200D02*
X130698200Y-69662400D01*
M02*
