M48
;DRILL file {KiCad 4.0.2+dfsg1-stable} date 2017年07月20日 15時33分49秒
;FORMAT={-:-/ absolute / inch / decimal}
FMAT,2
INCH,TZ
T1C0.016
T2C0.020
T3C0.026
T4C0.029
T5C0.030
T6C0.031
T7C0.031
T8C0.032
T9C0.032
T10C0.039
T11C0.039
T12C0.040
T13C0.050
T14C0.079
T15C0.091
T16C0.157
%
G90
G05
M72
T1
X2.4649Y-2.3829
X2.4649Y-5.1388
X2.6249Y-2.8929
X2.6249Y-5.6488
X3.0742Y-2.3876
X3.0742Y-5.1435
X3.3649Y-2.9429
X3.3649Y-5.6988
X3.4349Y-3.6229
X3.4349Y-6.3788
X3.4949Y-2.9629
X3.4949Y-5.7188
X4.3144Y-3.2774
X4.8666Y-4.0586
X5.4394Y-5.8979
X5.4744Y-5.9279
X5.6994Y-5.8829
X5.7844Y-6.3329
X6.0294Y-6.3279
X6.0894Y-6.3279
X6.2994Y-5.4529
X6.5694Y-5.6329
X6.7544Y-5.6529
T2
X4.3097Y-2.8587
X4.3097Y-2.9087
X4.3597Y-2.8587
X4.3597Y-2.9087
X4.4097Y-2.8587
X4.4097Y-2.9087
X4.4597Y-2.8587
X4.4597Y-2.9087
X4.5097Y-2.8587
X4.5097Y-2.9087
X4.5597Y-2.8587
X4.5597Y-2.9087
X4.6097Y-2.8587
X4.6097Y-2.9087
X4.6597Y-2.8587
X4.6597Y-2.9087
X4.7097Y-2.8587
X4.7097Y-2.9087
X4.7597Y-2.8587
X4.7597Y-2.9087
X4.8097Y-2.8587
X4.8097Y-2.9087
X4.8597Y-2.8587
X4.8597Y-2.9087
X4.9097Y-2.8587
X4.9097Y-2.9087
T3
X5.0294Y-5.7129
X5.1294Y-5.7129
X5.2294Y-5.7129
X5.6294Y-5.6529
X5.7294Y-5.6529
X5.8294Y-5.6529
T4
X2.6964Y-3.7249
X2.6964Y-3.9808
X2.6964Y-6.4808
X2.6964Y-6.7367
X2.8735Y-3.7249
X2.8735Y-3.9808
X2.8735Y-6.4808
X2.8735Y-6.7367
X2.977Y-3.5943
X2.977Y-3.7714
X2.977Y-3.9043
X2.977Y-4.0814
X2.977Y-6.3502
X2.977Y-6.5274
X2.977Y-6.6602
X2.977Y-6.8374
X3.2329Y-3.5943
X3.2329Y-3.7714
X3.2329Y-3.9043
X3.2329Y-4.0814
X3.2329Y-6.3502
X3.2329Y-6.5274
X3.2329Y-6.6602
X3.2329Y-6.8374
X3.3464Y-3.7249
X3.3464Y-3.9808
X3.3464Y-6.4808
X3.3464Y-6.7367
X3.3564Y-1.4849
X3.3564Y-1.7408
X3.3564Y-1.8849
X3.3564Y-2.1408
X3.3564Y-4.2408
X3.3564Y-4.4967
X3.3564Y-4.6408
X3.3564Y-4.8967
X3.5235Y-3.7249
X3.5235Y-3.9808
X3.5235Y-6.4808
X3.5235Y-6.7367
X3.5335Y-1.4849
X3.5335Y-1.7408
X3.5335Y-1.8849
X3.5335Y-2.1408
X3.5335Y-4.2408
X3.5335Y-4.4967
X3.5335Y-4.6408
X3.5335Y-4.8967
T5
X3.712Y-3.3683
X3.712Y-3.9683
X3.812Y-3.3683
X3.812Y-3.9683
X3.912Y-3.3683
X3.912Y-3.9683
X4.012Y-3.3683
X4.012Y-3.9683
X4.112Y-3.3683
X4.112Y-3.9683
X4.212Y-3.3683
X4.212Y-3.9683
X4.312Y-3.3683
X4.312Y-3.9683
X4.412Y-3.3683
X4.412Y-3.9683
X4.512Y-3.3683
X4.512Y-3.9683
X4.612Y-3.3683
X4.612Y-3.9683
X4.712Y-3.3683
X4.712Y-3.9683
X4.812Y-3.3683
X4.812Y-3.9683
X4.912Y-3.3683
X4.912Y-3.9683
X5.012Y-3.3683
X5.012Y-3.9683
X5.112Y-3.3683
X5.112Y-3.9683
X5.212Y-3.3683
X5.212Y-3.9683
X5.2794Y-5.9779
X5.2794Y-6.0279
X5.2794Y-6.0779
X5.2794Y-6.1279
X5.312Y-3.3683
X5.312Y-3.9683
X5.412Y-3.3683
X5.412Y-3.9683
X5.512Y-3.3683
X5.512Y-3.9683
X5.612Y-3.3683
X5.612Y-3.9683
T6
X2.5449Y-1.5329
X2.5449Y-1.6329
X2.5449Y-1.7329
X2.5449Y-1.8329
X2.5449Y-1.9329
X2.5449Y-2.0329
X2.5449Y-2.1329
X2.5449Y-2.2329
X2.5449Y-2.3329
X2.5449Y-2.4329
X2.5449Y-2.5329
X2.5449Y-2.6329
X2.5449Y-2.7329
X2.5449Y-2.8329
X2.5449Y-2.9329
X2.5449Y-3.0329
X2.5449Y-3.1329
X2.5449Y-3.2329
X2.5449Y-3.3329
X2.5449Y-3.4329
X2.5449Y-4.2888
X2.5449Y-4.3888
X2.5449Y-4.4888
X2.5449Y-4.5888
X2.5449Y-4.6888
X2.5449Y-4.7888
X2.5449Y-4.8888
X2.5449Y-4.9888
X2.5449Y-5.0888
X2.5449Y-5.1888
X2.5449Y-5.2888
X2.5449Y-5.3888
X2.5449Y-5.4888
X2.5449Y-5.5888
X2.5449Y-5.6888
X2.5449Y-5.7888
X2.5449Y-5.8888
X2.5449Y-5.9888
X2.5449Y-6.0888
X2.5449Y-6.1888
X3.1449Y-1.5329
X3.1449Y-1.6329
X3.1449Y-1.7329
X3.1449Y-1.8329
X3.1449Y-1.9329
X3.1449Y-2.0329
X3.1449Y-2.1329
X3.1449Y-2.2329
X3.1449Y-2.3329
X3.1449Y-2.4329
X3.1449Y-2.5329
X3.1449Y-2.6329
X3.1449Y-2.7329
X3.1449Y-2.8329
X3.1449Y-2.9329
X3.1449Y-3.0329
X3.1449Y-3.1329
X3.1449Y-3.2329
X3.1449Y-3.3329
X3.1449Y-3.4329
X3.1449Y-4.2888
X3.1449Y-4.3888
X3.1449Y-4.4888
X3.1449Y-4.5888
X3.1449Y-4.6888
X3.1449Y-4.7888
X3.1449Y-4.8888
X3.1449Y-4.9888
X3.1449Y-5.0888
X3.1449Y-5.1888
X3.1449Y-5.2888
X3.1449Y-5.3888
X3.1449Y-5.4888
X3.1449Y-5.5888
X3.1449Y-5.6888
X3.1449Y-5.7888
X3.1449Y-5.8888
X3.1449Y-5.9888
X3.1449Y-6.0888
X3.1449Y-6.1888
T7
X3.4316Y-2.6229
X3.4316Y-2.7229
X3.4316Y-2.8229
X3.4316Y-2.9229
X3.4316Y-5.3788
X3.4316Y-5.4788
X3.4316Y-5.5788
X3.4316Y-5.6788
X4.4094Y-5.7029
X4.5078Y-5.7029
T8
X4.1794Y-6.6529
X4.2794Y-6.6529
X4.3794Y-6.6529
X4.4794Y-6.6529
X4.5794Y-6.6529
T9
X2.4549Y-1.6829
X2.4549Y-2.0829
X2.4549Y-4.4388
X2.4549Y-4.8388
X2.4649Y-3.3829
X2.4649Y-3.7829
X2.4649Y-6.1388
X2.4649Y-6.5388
X2.7149Y-2.4929
X2.7149Y-2.8929
X2.7149Y-5.2488
X2.7149Y-5.6488
X2.9949Y-2.5629
X2.9949Y-2.9629
X2.9949Y-5.3188
X2.9949Y-5.7188
X4.7794Y-5.7529
X4.7794Y-5.9529
X4.7794Y-6.1529
X4.8794Y-5.7529
X5.0794Y-5.9529
X5.0794Y-6.1529
X5.2758Y-4.4388
X5.6758Y-4.4388
X5.8467Y-4.4388
X6.2467Y-4.4388
X6.3029Y-1.8386
X6.7029Y-1.8386
T10
X2.8549Y-2.5466
X2.8549Y-3.334
X2.8549Y-5.3026
X2.8549Y-6.09
X6.7866Y-1.5386
X6.7866Y-1.7386
X6.9466Y-2.8074
X6.9466Y-3.5948
X7.0866Y-1.5386
X7.0866Y-1.7386
T11
X2.4549Y-1.4729
X2.4549Y-1.5729
X2.4549Y-4.2288
X2.4549Y-4.3288
X2.7049Y-1.6579
X2.7049Y-4.4138
X2.9549Y-1.6579
X2.9549Y-4.4138
X4.0978Y-4.4146
X4.0978Y-4.5146
X4.0978Y-4.5946
X4.0978Y-4.6946
X4.3734Y-5.9033
X4.3734Y-6.2025
X4.5694Y-6.1129
X5.3494Y-5.5529
X6.1057Y-5.6199
X6.5029Y-1.6386
X6.6029Y-1.6386
T12
X2.5179Y-3.8892
X2.5179Y-3.9892
X2.5179Y-4.0892
X2.5179Y-6.6451
X2.5179Y-6.7451
X2.5179Y-6.8451
X3.0049Y-3.2079
X3.0049Y-3.3079
X3.0049Y-5.9638
X3.0049Y-6.0638
X3.8766Y-4.5736
X3.8766Y-4.6736
X4.1794Y-6.4779
X4.2794Y-6.4779
X4.3794Y-6.4779
X4.4794Y-6.4779
X4.5794Y-6.4779
X4.9566Y-5.1586
X5.4364Y-2.5096
X5.4364Y-2.6096
X5.4364Y-2.7096
X5.4364Y-2.8096
X5.4364Y-2.9096
X5.4364Y-3.0096
X5.8294Y-6.0529
X5.8695Y-5.1671
X5.9294Y-5.9529
X5.9294Y-6.1529
X6.6016Y-3.5236
X6.6016Y-3.6236
X6.6016Y-3.7236
X6.6016Y-3.8236
X6.6016Y-3.9236
X6.6016Y-4.0236
X6.6016Y-4.1236
X6.6016Y-4.2236
X6.6016Y-4.3236
X6.6016Y-4.4236
X6.6016Y-4.5236
X6.6016Y-4.6236
X6.7016Y-3.5236
X6.7016Y-3.6236
X6.7016Y-3.7236
X6.7016Y-3.8236
X6.7016Y-3.9236
X6.7016Y-4.0236
X6.7016Y-4.1236
X6.7016Y-4.2236
X6.7016Y-4.3236
X6.7016Y-4.4236
X6.7016Y-4.5236
X6.7016Y-4.6236
T13
X6.0266Y-4.3286
X6.2816Y-4.0986
T14
X6.9466Y-1.9586
X6.9466Y-4.8586
T15
X4.2028Y-4.2946
X4.2028Y-4.8346
T16
X6.6018Y-6.1108
T0
M30
