G04 #@! TF.FileFunction,Legend,Bot*
%FSLAX46Y46*%
G04 Gerber Fmt 4.6, Leading zero omitted, Abs format (unit mm)*
G04 Created by KiCad (PCBNEW 4.0.2+dfsg1-stable) date 2017年07月20日 15時33分43秒*
%MOMM*%
G01*
G04 APERTURE LIST*
%ADD10C,0.100000*%
%ADD11C,0.175000*%
%ADD12C,0.300000*%
%ADD13C,0.150000*%
G04 APERTURE END LIST*
D10*
D11*
X105255456Y-162256133D02*
X104898313Y-162256133D01*
X104862599Y-161922800D01*
X104898313Y-161956133D01*
X104969742Y-161989467D01*
X105148313Y-161989467D01*
X105219742Y-161956133D01*
X105255456Y-161922800D01*
X105291171Y-161856133D01*
X105291171Y-161689467D01*
X105255456Y-161622800D01*
X105219742Y-161589467D01*
X105148313Y-161556133D01*
X104969742Y-161556133D01*
X104898313Y-161589467D01*
X104862599Y-161622800D01*
X105505457Y-162256133D02*
X105755457Y-161556133D01*
X106005457Y-162256133D01*
X107398314Y-161556133D02*
X107398314Y-162256133D01*
X107576886Y-162256133D01*
X107684029Y-162222800D01*
X107755457Y-162156133D01*
X107791172Y-162089467D01*
X107826886Y-161956133D01*
X107826886Y-161856133D01*
X107791172Y-161722800D01*
X107755457Y-161656133D01*
X107684029Y-161589467D01*
X107576886Y-161556133D01*
X107398314Y-161556133D01*
X108148314Y-161822800D02*
X108719743Y-161822800D01*
X108434029Y-161556133D02*
X108434029Y-162089467D01*
X110219743Y-161556133D02*
X110219743Y-162256133D01*
X110398315Y-162256133D01*
X110505458Y-162222800D01*
X110576886Y-162156133D01*
X110612601Y-162089467D01*
X110648315Y-161956133D01*
X110648315Y-161856133D01*
X110612601Y-161722800D01*
X110576886Y-161656133D01*
X110505458Y-161589467D01*
X110398315Y-161556133D01*
X110219743Y-161556133D01*
X110969743Y-161822800D02*
X111541172Y-161822800D01*
X113434030Y-162222800D02*
X113362601Y-162256133D01*
X113255458Y-162256133D01*
X113148315Y-162222800D01*
X113076887Y-162156133D01*
X113041172Y-162089467D01*
X113005458Y-161956133D01*
X113005458Y-161856133D01*
X113041172Y-161722800D01*
X113076887Y-161656133D01*
X113148315Y-161589467D01*
X113255458Y-161556133D01*
X113326887Y-161556133D01*
X113434030Y-161589467D01*
X113469744Y-161622800D01*
X113469744Y-161856133D01*
X113326887Y-161856133D01*
X113791172Y-161556133D02*
X113791172Y-162256133D01*
X114219744Y-161556133D01*
X114219744Y-162256133D01*
X114576886Y-161556133D02*
X114576886Y-162256133D01*
X114755458Y-162256133D01*
X114862601Y-162222800D01*
X114934029Y-162156133D01*
X114969744Y-162089467D01*
X115005458Y-161956133D01*
X115005458Y-161856133D01*
X114969744Y-161722800D01*
X114934029Y-161656133D01*
X114862601Y-161589467D01*
X114755458Y-161556133D01*
X114576886Y-161556133D01*
X116291173Y-162222800D02*
X116219744Y-162256133D01*
X116112601Y-162256133D01*
X116005458Y-162222800D01*
X115934030Y-162156133D01*
X115898315Y-162089467D01*
X115862601Y-161956133D01*
X115862601Y-161856133D01*
X115898315Y-161722800D01*
X115934030Y-161656133D01*
X116005458Y-161589467D01*
X116112601Y-161556133D01*
X116184030Y-161556133D01*
X116291173Y-161589467D01*
X116326887Y-161622800D01*
X116326887Y-161856133D01*
X116184030Y-161856133D01*
X116648315Y-161556133D02*
X116648315Y-162256133D01*
X117076887Y-161556133D01*
X117076887Y-162256133D01*
X117434029Y-161556133D02*
X117434029Y-162256133D01*
X117612601Y-162256133D01*
X117719744Y-162222800D01*
X117791172Y-162156133D01*
X117826887Y-162089467D01*
X117862601Y-161956133D01*
X117862601Y-161856133D01*
X117826887Y-161722800D01*
X117791172Y-161656133D01*
X117719744Y-161589467D01*
X117612601Y-161556133D01*
X117434029Y-161556133D01*
X105155076Y-167717133D02*
X105640791Y-167717133D01*
X105397934Y-167017133D02*
X105397934Y-167717133D01*
X105843172Y-167717133D02*
X106409838Y-167017133D01*
X106409838Y-167717133D02*
X105843172Y-167017133D01*
X107866981Y-167017133D02*
X107583648Y-167350467D01*
X107381267Y-167017133D02*
X107381267Y-167717133D01*
X107705076Y-167717133D01*
X107786029Y-167683800D01*
X107826505Y-167650467D01*
X107866981Y-167583800D01*
X107866981Y-167483800D01*
X107826505Y-167417133D01*
X107786029Y-167383800D01*
X107705076Y-167350467D01*
X107381267Y-167350467D01*
X108150315Y-167717133D02*
X108716981Y-167017133D01*
X108716981Y-167717133D02*
X108150315Y-167017133D01*
X110740791Y-167717133D02*
X110336029Y-167717133D01*
X110295553Y-167383800D01*
X110336029Y-167417133D01*
X110416981Y-167450467D01*
X110619362Y-167450467D01*
X110700315Y-167417133D01*
X110740791Y-167383800D01*
X110781267Y-167317133D01*
X110781267Y-167150467D01*
X110740791Y-167083800D01*
X110700315Y-167050467D01*
X110619362Y-167017133D01*
X110416981Y-167017133D01*
X110336029Y-167050467D01*
X110295553Y-167083800D01*
X111024124Y-167717133D02*
X111307458Y-167017133D01*
X111590791Y-167717133D01*
X112440791Y-167717133D02*
X112966981Y-167717133D01*
X112683648Y-167450467D01*
X112805076Y-167450467D01*
X112886029Y-167417133D01*
X112926505Y-167383800D01*
X112966981Y-167317133D01*
X112966981Y-167150467D01*
X112926505Y-167083800D01*
X112886029Y-167050467D01*
X112805076Y-167017133D01*
X112562219Y-167017133D01*
X112481267Y-167050467D01*
X112440791Y-167083800D01*
X113209838Y-167717133D02*
X113493172Y-167017133D01*
X113776505Y-167717133D01*
X113978886Y-167717133D02*
X114505076Y-167717133D01*
X114221743Y-167450467D01*
X114343171Y-167450467D01*
X114424124Y-167417133D01*
X114464600Y-167383800D01*
X114505076Y-167317133D01*
X114505076Y-167150467D01*
X114464600Y-167083800D01*
X114424124Y-167050467D01*
X114343171Y-167017133D01*
X114100314Y-167017133D01*
X114019362Y-167050467D01*
X113978886Y-167083800D01*
X115962219Y-167683800D02*
X115881267Y-167717133D01*
X115759838Y-167717133D01*
X115638410Y-167683800D01*
X115557457Y-167617133D01*
X115516981Y-167550467D01*
X115476505Y-167417133D01*
X115476505Y-167317133D01*
X115516981Y-167183800D01*
X115557457Y-167117133D01*
X115638410Y-167050467D01*
X115759838Y-167017133D01*
X115840790Y-167017133D01*
X115962219Y-167050467D01*
X116002695Y-167083800D01*
X116002695Y-167317133D01*
X115840790Y-167317133D01*
X116366981Y-167017133D02*
X116366981Y-167717133D01*
X116852695Y-167017133D01*
X116852695Y-167717133D01*
X117257457Y-167017133D02*
X117257457Y-167717133D01*
X117459838Y-167717133D01*
X117581266Y-167683800D01*
X117662219Y-167617133D01*
X117702695Y-167550467D01*
X117743171Y-167417133D01*
X117743171Y-167317133D01*
X117702695Y-167183800D01*
X117662219Y-167117133D01*
X117581266Y-167050467D01*
X117459838Y-167017133D01*
X117257457Y-167017133D01*
D12*
X150747886Y-142231371D02*
X151247886Y-141517086D01*
X151605029Y-142231371D02*
X151605029Y-140731371D01*
X151033601Y-140731371D01*
X150890743Y-140802800D01*
X150819315Y-140874229D01*
X150747886Y-141017086D01*
X150747886Y-141231371D01*
X150819315Y-141374229D01*
X150890743Y-141445657D01*
X151033601Y-141517086D01*
X151605029Y-141517086D01*
X150105029Y-140731371D02*
X150105029Y-141945657D01*
X150033601Y-142088514D01*
X149962172Y-142159943D01*
X149819315Y-142231371D01*
X149533601Y-142231371D01*
X149390743Y-142159943D01*
X149319315Y-142088514D01*
X149247886Y-141945657D01*
X149247886Y-140731371D01*
X148533600Y-142231371D02*
X148533600Y-140731371D01*
X147676457Y-142231371D01*
X147676457Y-140731371D01*
X145819314Y-142231371D02*
X145819314Y-140731371D01*
X145247886Y-140731371D01*
X145105028Y-140802800D01*
X145033600Y-140874229D01*
X144962171Y-141017086D01*
X144962171Y-141231371D01*
X145033600Y-141374229D01*
X145105028Y-141445657D01*
X145247886Y-141517086D01*
X145819314Y-141517086D01*
X143462171Y-142231371D02*
X143962171Y-141517086D01*
X144319314Y-142231371D02*
X144319314Y-140731371D01*
X143747886Y-140731371D01*
X143605028Y-140802800D01*
X143533600Y-140874229D01*
X143462171Y-141017086D01*
X143462171Y-141231371D01*
X143533600Y-141374229D01*
X143605028Y-141445657D01*
X143747886Y-141517086D01*
X144319314Y-141517086D01*
X142533600Y-140731371D02*
X142247886Y-140731371D01*
X142105028Y-140802800D01*
X141962171Y-140945657D01*
X141890743Y-141231371D01*
X141890743Y-141731371D01*
X141962171Y-142017086D01*
X142105028Y-142159943D01*
X142247886Y-142231371D01*
X142533600Y-142231371D01*
X142676457Y-142159943D01*
X142819314Y-142017086D01*
X142890743Y-141731371D01*
X142890743Y-141231371D01*
X142819314Y-140945657D01*
X142676457Y-140802800D01*
X142533600Y-140731371D01*
X140462171Y-140802800D02*
X140605028Y-140731371D01*
X140819314Y-140731371D01*
X141033599Y-140802800D01*
X141176457Y-140945657D01*
X141247885Y-141088514D01*
X141319314Y-141374229D01*
X141319314Y-141588514D01*
X141247885Y-141874229D01*
X141176457Y-142017086D01*
X141033599Y-142159943D01*
X140819314Y-142231371D01*
X140676457Y-142231371D01*
X140462171Y-142159943D01*
X140390742Y-142088514D01*
X140390742Y-141588514D01*
X140676457Y-141588514D01*
D13*
X76881860Y-42610180D02*
X76881860Y-41609420D01*
X76381480Y-42109800D02*
X77379700Y-42109800D01*
X72881360Y-42109800D02*
G75*
G03X72881360Y-42109800I-1000760J0D01*
G01*
X78080740Y-42109800D02*
G75*
G03X78080740Y-42109800I-6200140J0D01*
G01*
X72515600Y-87184800D02*
X76015600Y-87184800D01*
X76015600Y-87184800D02*
X76015600Y-82184800D01*
X72515600Y-87184800D02*
X69015600Y-87184800D01*
X69015600Y-87184800D02*
X69015600Y-82184800D01*
X84515600Y-70684800D02*
G75*
G03X84515600Y-70684800I-12000000J0D01*
G01*
X156886020Y-139994800D02*
X157734380Y-140995560D01*
X157734380Y-140995560D02*
X157734380Y-138994040D01*
X157734380Y-138994040D02*
X156886020Y-139994800D01*
X156886020Y-139994800D02*
X156886020Y-138994040D01*
X156886020Y-139994800D02*
X156886020Y-140995560D01*
X155029280Y-138194800D02*
X155029280Y-138394600D01*
X155486320Y-138194800D02*
X155486320Y-138393800D01*
X159636840Y-138194800D02*
X159636840Y-138343800D01*
X155034360Y-141794800D02*
X155034360Y-141645800D01*
X155486320Y-141794800D02*
X155486320Y-141645800D01*
X159636840Y-141794800D02*
X159636840Y-141645800D01*
X155486320Y-138045820D02*
X155486320Y-138243940D01*
X155486320Y-141993780D02*
X155486320Y-141795660D01*
X159631760Y-137998360D02*
X159631760Y-138196480D01*
X155029280Y-137998360D02*
X159631760Y-137998360D01*
X155029280Y-137998360D02*
X155029280Y-138196480D01*
X155034360Y-141993780D02*
X155034360Y-141795660D01*
X155034360Y-141993780D02*
X159636840Y-141993780D01*
X159636840Y-141993780D02*
X159636840Y-141795660D01*
X72515600Y-157184800D02*
X76015600Y-157184800D01*
X76015600Y-157184800D02*
X76015600Y-152184800D01*
X72515600Y-157184800D02*
X69015600Y-157184800D01*
X69015600Y-157184800D02*
X69015600Y-152184800D01*
X84515600Y-140684800D02*
G75*
G03X84515600Y-140684800I-12000000J0D01*
G01*
X76881860Y-112610180D02*
X76881860Y-111609420D01*
X76381480Y-112109800D02*
X77379700Y-112109800D01*
X72881360Y-112109800D02*
G75*
G03X72881360Y-112109800I-1000760J0D01*
G01*
X78080740Y-112109800D02*
G75*
G03X78080740Y-112109800I-6200140J0D01*
G01*
X73142505Y-50515562D02*
X72999648Y-50563181D01*
X72761552Y-50563181D01*
X72666314Y-50515562D01*
X72618695Y-50467943D01*
X72571076Y-50372705D01*
X72571076Y-50277467D01*
X72618695Y-50182229D01*
X72666314Y-50134610D01*
X72761552Y-50086990D01*
X72952029Y-50039371D01*
X73047267Y-49991752D01*
X73094886Y-49944133D01*
X73142505Y-49848895D01*
X73142505Y-49753657D01*
X73094886Y-49658419D01*
X73047267Y-49610800D01*
X72952029Y-49563181D01*
X72713933Y-49563181D01*
X72571076Y-49610800D01*
X72142505Y-50563181D02*
X72142505Y-49563181D01*
X71761552Y-49563181D01*
X71666314Y-49610800D01*
X71618695Y-49658419D01*
X71571076Y-49753657D01*
X71571076Y-49896514D01*
X71618695Y-49991752D01*
X71666314Y-50039371D01*
X71761552Y-50086990D01*
X72142505Y-50086990D01*
X70618695Y-50563181D02*
X71190124Y-50563181D01*
X70904410Y-50563181D02*
X70904410Y-49563181D01*
X70999648Y-49706038D01*
X71094886Y-49801276D01*
X71190124Y-49848895D01*
X79762172Y-42181229D02*
X79000267Y-42181229D01*
X79381219Y-42562181D02*
X79381219Y-41800276D01*
X73301314Y-57613371D02*
X73158457Y-57660990D01*
X73110838Y-57708610D01*
X73063219Y-57803848D01*
X73063219Y-57946705D01*
X73110838Y-58041943D01*
X73158457Y-58089562D01*
X73253695Y-58137181D01*
X73634648Y-58137181D01*
X73634648Y-57137181D01*
X73301314Y-57137181D01*
X73206076Y-57184800D01*
X73158457Y-57232419D01*
X73110838Y-57327657D01*
X73110838Y-57422895D01*
X73158457Y-57518133D01*
X73206076Y-57565752D01*
X73301314Y-57613371D01*
X73634648Y-57613371D01*
X72777505Y-57137181D02*
X72206076Y-57137181D01*
X72491791Y-58137181D02*
X72491791Y-57137181D01*
X71920362Y-57232419D02*
X71872743Y-57184800D01*
X71777505Y-57137181D01*
X71539409Y-57137181D01*
X71444171Y-57184800D01*
X71396552Y-57232419D01*
X71348933Y-57327657D01*
X71348933Y-57422895D01*
X71396552Y-57565752D01*
X71967981Y-58137181D01*
X71348933Y-58137181D01*
X158668933Y-143499562D02*
X158526076Y-143547181D01*
X158287980Y-143547181D01*
X158192742Y-143499562D01*
X158145123Y-143451943D01*
X158097504Y-143356705D01*
X158097504Y-143261467D01*
X158145123Y-143166229D01*
X158192742Y-143118610D01*
X158287980Y-143070990D01*
X158478457Y-143023371D01*
X158573695Y-142975752D01*
X158621314Y-142928133D01*
X158668933Y-142832895D01*
X158668933Y-142737657D01*
X158621314Y-142642419D01*
X158573695Y-142594800D01*
X158478457Y-142547181D01*
X158240361Y-142547181D01*
X158097504Y-142594800D01*
X157764171Y-142547181D02*
X157526076Y-143547181D01*
X157335599Y-142832895D01*
X157145123Y-143547181D01*
X156907028Y-142547181D01*
X156002266Y-143547181D02*
X156573695Y-143547181D01*
X156287981Y-143547181D02*
X156287981Y-142547181D01*
X156383219Y-142690038D01*
X156478457Y-142785276D01*
X156573695Y-142832895D01*
X154097505Y-137347181D02*
X154097505Y-136347181D01*
X153526076Y-137347181D02*
X153954648Y-136775752D01*
X153526076Y-136347181D02*
X154097505Y-136918610D01*
X160573695Y-137111467D02*
X160097504Y-137111467D01*
X160668933Y-137397181D02*
X160335600Y-136397181D01*
X160002266Y-137397181D01*
X73301314Y-127613371D02*
X73158457Y-127660990D01*
X73110838Y-127708610D01*
X73063219Y-127803848D01*
X73063219Y-127946705D01*
X73110838Y-128041943D01*
X73158457Y-128089562D01*
X73253695Y-128137181D01*
X73634648Y-128137181D01*
X73634648Y-127137181D01*
X73301314Y-127137181D01*
X73206076Y-127184800D01*
X73158457Y-127232419D01*
X73110838Y-127327657D01*
X73110838Y-127422895D01*
X73158457Y-127518133D01*
X73206076Y-127565752D01*
X73301314Y-127613371D01*
X73634648Y-127613371D01*
X72777505Y-127137181D02*
X72206076Y-127137181D01*
X72491791Y-128137181D02*
X72491791Y-127137181D01*
X71920362Y-127232419D02*
X71872743Y-127184800D01*
X71777505Y-127137181D01*
X71539409Y-127137181D01*
X71444171Y-127184800D01*
X71396552Y-127232419D01*
X71348933Y-127327657D01*
X71348933Y-127422895D01*
X71396552Y-127565752D01*
X71967981Y-128137181D01*
X71348933Y-128137181D01*
X73142505Y-120515562D02*
X72999648Y-120563181D01*
X72761552Y-120563181D01*
X72666314Y-120515562D01*
X72618695Y-120467943D01*
X72571076Y-120372705D01*
X72571076Y-120277467D01*
X72618695Y-120182229D01*
X72666314Y-120134610D01*
X72761552Y-120086990D01*
X72952029Y-120039371D01*
X73047267Y-119991752D01*
X73094886Y-119944133D01*
X73142505Y-119848895D01*
X73142505Y-119753657D01*
X73094886Y-119658419D01*
X73047267Y-119610800D01*
X72952029Y-119563181D01*
X72713933Y-119563181D01*
X72571076Y-119610800D01*
X72142505Y-120563181D02*
X72142505Y-119563181D01*
X71761552Y-119563181D01*
X71666314Y-119610800D01*
X71618695Y-119658419D01*
X71571076Y-119753657D01*
X71571076Y-119896514D01*
X71618695Y-119991752D01*
X71666314Y-120039371D01*
X71761552Y-120086990D01*
X72142505Y-120086990D01*
X70618695Y-120563181D02*
X71190124Y-120563181D01*
X70904410Y-120563181D02*
X70904410Y-119563181D01*
X70999648Y-119706038D01*
X71094886Y-119801276D01*
X71190124Y-119848895D01*
X79762172Y-112181229D02*
X79000267Y-112181229D01*
X79381219Y-112562181D02*
X79381219Y-111800276D01*
M02*
