G04 #@! TF.FileFunction,Profile,NP*
%FSLAX46Y46*%
G04 Gerber Fmt 4.6, Leading zero omitted, Abs format (unit mm)*
G04 Created by KiCad (PCBNEW 4.0.2+dfsg1-stable) date 2017年07月20日 15時33分43秒*
%MOMM*%
G01*
G04 APERTURE LIST*
%ADD10C,0.100000*%
%ADD11C,0.200000*%
G04 APERTURE END LIST*
D10*
D11*
X91085600Y-171244800D02*
X91085600Y-176244800D01*
X61085600Y-106244800D02*
X61085600Y-36244800D01*
X61085600Y-36244800D02*
X91085600Y-36244800D01*
X89085600Y-103244800D02*
G75*
G03X89085600Y-103244800I-1000000J0D01*
G01*
X72085600Y-103244800D02*
G75*
G03X72085600Y-103244800I-1000000J0D01*
G01*
X72085600Y-38244800D02*
G75*
G03X72085600Y-38244800I-1000000J0D01*
G01*
X77930600Y-45189800D02*
G75*
G03X77295600Y-44554800I-635000J0D01*
G01*
X66800600Y-44554800D02*
G75*
G03X66165600Y-45189800I0J-635000D01*
G01*
X66165600Y-58079800D02*
G75*
G03X66800600Y-58714800I635000J0D01*
G01*
X77295600Y-58714800D02*
G75*
G03X77930600Y-58079800I0J635000D01*
G01*
X77930600Y-54079800D02*
X77930600Y-45189800D01*
X77595600Y-44554800D02*
X66800600Y-44554800D01*
X66165600Y-45189800D02*
X66165600Y-54079800D01*
X66800600Y-58714800D02*
X77595600Y-58714800D01*
X66165600Y-57984800D02*
X66165600Y-54174800D01*
X77930600Y-58111800D02*
X77930600Y-54047800D01*
X181085600Y-136244800D02*
X191085600Y-136244800D01*
X156085600Y-129244800D02*
X157085600Y-129244800D01*
X156085600Y-133244800D02*
X166085600Y-133244800D01*
X157085600Y-129244800D02*
X166085600Y-129244800D01*
X106085600Y-133244800D02*
X116085600Y-133244800D01*
X106085600Y-129244800D02*
X116085600Y-129244800D01*
X154085600Y-131244800D02*
G75*
G03X156085600Y-133244800I2000000J0D01*
G01*
X156085600Y-129244800D02*
G75*
G03X154085600Y-131244800I0J-2000000D01*
G01*
X168085600Y-131244800D02*
G75*
G03X166085600Y-129244800I-2000000J0D01*
G01*
X166085600Y-133244800D02*
G75*
G03X168085600Y-131244800I0J2000000D01*
G01*
X118085600Y-131244800D02*
G75*
G03X116085600Y-129244800I-2000000J0D01*
G01*
X116085600Y-133244800D02*
G75*
G03X118085600Y-131244800I0J2000000D01*
G01*
X106085600Y-129244800D02*
G75*
G03X104085600Y-131244800I0J-2000000D01*
G01*
X104085600Y-131244800D02*
G75*
G03X106085600Y-133244800I2000000J0D01*
G01*
X98321668Y-41244800D02*
G75*
G03X98321668Y-41244800I-2236068J0D01*
G01*
X188321668Y-41244800D02*
G75*
G03X188321668Y-41244800I-2236068J0D01*
G01*
X188321668Y-131244800D02*
G75*
G03X188321668Y-131244800I-2236068J0D01*
G01*
X98321668Y-131244800D02*
G75*
G03X98321668Y-131244800I-2236068J0D01*
G01*
X177685600Y-131244800D02*
G75*
G03X177685600Y-131244800I-1600000J0D01*
G01*
X191085600Y-36244800D02*
X191085600Y-136244800D01*
X91085600Y-36244800D02*
X191085600Y-36244800D01*
X159150666Y-208424600D02*
G75*
G03X159150666Y-208424600I-1666666J0D01*
G01*
X154984000Y-208424600D02*
X159984000Y-208424600D01*
X157484000Y-205924600D02*
X157484000Y-210924600D01*
X181085600Y-171244800D02*
X181085600Y-168744800D01*
X91085600Y-171244800D02*
X181085600Y-171244800D01*
X181085600Y-138744800D02*
X181085600Y-136244800D01*
X127685600Y-168744800D02*
G75*
G03X127685600Y-168744800I-1600000J0D01*
G01*
X97685600Y-168744800D02*
G75*
G03X97685600Y-168744800I-1600000J0D01*
G01*
X97685600Y-138744800D02*
G75*
G03X97685600Y-138744800I-1600000J0D01*
G01*
X127685600Y-138744800D02*
G75*
G03X127685600Y-138744800I-1600000J0D01*
G01*
X172685600Y-168744800D02*
G75*
G03X172685600Y-168744800I-1600000J0D01*
G01*
X172685600Y-138744800D02*
G75*
G03X172685600Y-138744800I-1600000J0D01*
G01*
X181085600Y-168744800D02*
X181085600Y-153744800D01*
X181085600Y-153744800D02*
X181085600Y-138744800D01*
X159150666Y-210924600D02*
G75*
G03X159150666Y-210924600I-1666666J0D01*
G01*
X154984000Y-210924600D02*
X159984000Y-210924600D01*
X157484000Y-208424600D02*
X157484000Y-213424600D01*
X77930600Y-128111800D02*
X77930600Y-124047800D01*
X66165600Y-127984800D02*
X66165600Y-124174800D01*
X66800600Y-128714800D02*
X77595600Y-128714800D01*
X66165600Y-115189800D02*
X66165600Y-124079800D01*
X77595600Y-114554800D02*
X66800600Y-114554800D01*
X77930600Y-124079800D02*
X77930600Y-115189800D01*
X77295600Y-128714800D02*
G75*
G03X77930600Y-128079800I0J635000D01*
G01*
X66165600Y-128079800D02*
G75*
G03X66800600Y-128714800I635000J0D01*
G01*
X66800600Y-114554800D02*
G75*
G03X66165600Y-115189800I0J-635000D01*
G01*
X77930600Y-115189800D02*
G75*
G03X77295600Y-114554800I-635000J0D01*
G01*
X72085600Y-108244800D02*
G75*
G03X72085600Y-108244800I-1000000J0D01*
G01*
X72085600Y-173244800D02*
G75*
G03X72085600Y-173244800I-1000000J0D01*
G01*
X89085600Y-173244800D02*
G75*
G03X89085600Y-173244800I-1000000J0D01*
G01*
X91085600Y-176244800D02*
X61085600Y-176244800D01*
X61085600Y-176244800D02*
X61085600Y-106244800D01*
M02*
