G04 #@! TF.FileFunction,Copper,L1,Top,Signal*
%FSLAX46Y46*%
G04 Gerber Fmt 4.6, Leading zero omitted, Abs format (unit mm)*
G04 Created by KiCad (PCBNEW 4.0.2+dfsg1-stable) date 2017年07月20日 15時33分43秒*
%MOMM*%
G01*
G04 APERTURE LIST*
%ADD10C,0.100000*%
%ADD11C,1.524000*%
%ADD12R,2.700020X1.501140*%
%ADD13R,2.032000X1.727200*%
%ADD14O,2.032000X1.727200*%
%ADD15R,2.000000X1.900000*%
%ADD16C,1.900000*%
%ADD17C,1.200000*%
%ADD18C,1.600200*%
%ADD19C,2.000000*%
%ADD20R,2.032000X2.032000*%
%ADD21O,2.032000X2.032000*%
%ADD22R,3.000000X3.000000*%
%ADD23O,4.000000X4.000000*%
%ADD24R,1.900000X2.000000*%
%ADD25C,1.501140*%
%ADD26C,2.999740*%
%ADD27C,1.500000*%
%ADD28C,0.900000*%
%ADD29R,1.727200X1.727200*%
%ADD30O,1.727200X1.727200*%
%ADD31R,0.900000X0.900000*%
%ADD32R,1.200000X1.600000*%
%ADD33R,1.300000X1.300000*%
%ADD34C,1.300000*%
%ADD35R,1.600000X1.200000*%
%ADD36O,1.700000X2.000000*%
%ADD37R,1.727200X2.032000*%
%ADD38O,1.727200X2.032000*%
%ADD39C,1.700000*%
%ADD40R,0.900000X1.700000*%
%ADD41C,1.397000*%
%ADD42R,2.000000X2.000000*%
%ADD43R,0.900000X1.400000*%
%ADD44R,1.400000X0.900000*%
%ADD45C,5.000000*%
%ADD46O,1.905000X1.117600*%
%ADD47R,1.905000X1.117600*%
%ADD48C,0.600000*%
%ADD49C,1.399540*%
%ADD50C,2.540000*%
%ADD51C,0.203200*%
%ADD52C,0.508000*%
%ADD53C,0.381000*%
%ADD54C,1.016000*%
%ADD55C,0.254000*%
G04 APERTURE END LIST*
D10*
D11*
X64641600Y-38934800D03*
X64641600Y-41474800D03*
X64641600Y-44014800D03*
X64641600Y-46554800D03*
X64641600Y-49094800D03*
X64641600Y-51634800D03*
X64641600Y-54174800D03*
X64641600Y-56714800D03*
X64641600Y-59254800D03*
X64641600Y-61794800D03*
X64641600Y-64334800D03*
X64641600Y-66874800D03*
X64641600Y-69414800D03*
X64641600Y-71954800D03*
X64641600Y-74494800D03*
X64641600Y-77034800D03*
X64641600Y-79574800D03*
X64641600Y-82114800D03*
X64641600Y-84654800D03*
X64641600Y-87194800D03*
X79881600Y-87194800D03*
X79881600Y-84654800D03*
X79881600Y-82114800D03*
X79881600Y-79574800D03*
X79881600Y-77034800D03*
X79881600Y-74494800D03*
X79881600Y-71954800D03*
X79881600Y-69414800D03*
X79881600Y-66874800D03*
X79881600Y-64334800D03*
X79881600Y-61794800D03*
X79881600Y-59254800D03*
X79881600Y-56714800D03*
X79881600Y-54174800D03*
X79881600Y-51634800D03*
X79881600Y-49094800D03*
X79881600Y-46554800D03*
X79881600Y-44014800D03*
X79881600Y-41474800D03*
X79881600Y-38934800D03*
X75615600Y-95794800D03*
X82115600Y-95794800D03*
X82115600Y-91294800D03*
X75615600Y-91294800D03*
X75615600Y-103668800D03*
X82115600Y-103668800D03*
X82115600Y-99168800D03*
X75615600Y-99168800D03*
X89497600Y-101112800D03*
X89497600Y-94612800D03*
X84997600Y-94612800D03*
X84997600Y-101112800D03*
X68487600Y-94612800D03*
X68487600Y-101112800D03*
X72987600Y-101112800D03*
X72987600Y-94612800D03*
X89751600Y-44216800D03*
X89751600Y-37716800D03*
X85251600Y-37716800D03*
X85251600Y-44216800D03*
X89751600Y-54376800D03*
X89751600Y-47876800D03*
X85251600Y-47876800D03*
X85251600Y-54376800D03*
D12*
X72515600Y-81098800D03*
X72515600Y-76272800D03*
D13*
X63955600Y-98784800D03*
D14*
X63955600Y-101324800D03*
X63955600Y-103864800D03*
D15*
X62355600Y-37410800D03*
D16*
X62355600Y-39950800D03*
D17*
X87163600Y-66620800D03*
X87163600Y-69160800D03*
X87163600Y-71700800D03*
X87163600Y-74240800D03*
D18*
X68705600Y-42109800D03*
X75055600Y-42109800D03*
D11*
X76071600Y-65096800D03*
X76071600Y-75256800D03*
X68959600Y-73478800D03*
X68959600Y-63318800D03*
X62355600Y-52904800D03*
X62355600Y-42744800D03*
X62609600Y-96084800D03*
X62609600Y-85924800D03*
D19*
X72515600Y-64684800D03*
X72515600Y-84684800D03*
D20*
X76325600Y-84019800D03*
D21*
X76325600Y-81479800D03*
D22*
X176443600Y-49748800D03*
D23*
X176443600Y-123408800D03*
D19*
X176443600Y-91308800D03*
X176443600Y-71308800D03*
D24*
X165173600Y-41620800D03*
D16*
X167713600Y-41620800D03*
D12*
X160085600Y-51344500D03*
X160085600Y-56145100D03*
D25*
X104083480Y-112131940D03*
X104083480Y-114671940D03*
X104083480Y-116703940D03*
X104083480Y-119243940D03*
D26*
X106750480Y-109083940D03*
X106750480Y-122799940D03*
D13*
X138085600Y-63744800D03*
D14*
X138085600Y-66284800D03*
X138085600Y-68824800D03*
X138085600Y-71364800D03*
X138085600Y-73904800D03*
X138085600Y-76444800D03*
D11*
X160093600Y-46700800D03*
X170253600Y-46700800D03*
X134005600Y-112744800D03*
X144165600Y-112744800D03*
X148505600Y-112744800D03*
X158665600Y-112744800D03*
D27*
X179999600Y-39080800D03*
X179999600Y-44160800D03*
X172379600Y-39080800D03*
X172379600Y-44160800D03*
D20*
X125897600Y-131028800D03*
D21*
X149085600Y-131244800D03*
D28*
X109465600Y-73879800D03*
X109465600Y-72609800D03*
X110735600Y-73879800D03*
X110735600Y-72609800D03*
X112005600Y-73879800D03*
X112005600Y-72609800D03*
X113275600Y-73879800D03*
X113275600Y-72609800D03*
X114545600Y-73879800D03*
X114545600Y-72609800D03*
X115815600Y-73879800D03*
X115815600Y-72609800D03*
X117085600Y-73879800D03*
X117085600Y-72609800D03*
X118355600Y-73879800D03*
X118355600Y-72609800D03*
X119625600Y-73879800D03*
X119625600Y-72609800D03*
X120895600Y-73879800D03*
X120895600Y-72609800D03*
X122165600Y-73879800D03*
X122165600Y-72609800D03*
X123435600Y-73879800D03*
X123435600Y-72609800D03*
X124705600Y-73879800D03*
X124705600Y-72609800D03*
D11*
X142545600Y-85554800D03*
X140005600Y-85554800D03*
X137465600Y-85554800D03*
X134925600Y-85554800D03*
X132385600Y-85554800D03*
X129845600Y-85554800D03*
X127305600Y-85554800D03*
X124765600Y-85554800D03*
X122225600Y-85554800D03*
X119685600Y-85554800D03*
X117145600Y-85554800D03*
X114605600Y-85554800D03*
X112065600Y-85554800D03*
X109525600Y-85554800D03*
X106985600Y-85554800D03*
X104445600Y-85554800D03*
X101905600Y-85554800D03*
X99365600Y-85554800D03*
X96825600Y-85554800D03*
X94285600Y-85554800D03*
X94285600Y-100794800D03*
X96825600Y-100794800D03*
X99365600Y-100794800D03*
X101905600Y-100794800D03*
X104445600Y-100794800D03*
X106985600Y-100794800D03*
X109525600Y-100794800D03*
X112065600Y-100794800D03*
X114605600Y-100794800D03*
X117145600Y-100794800D03*
X119685600Y-100794800D03*
X122225600Y-100794800D03*
X124765600Y-100794800D03*
X127305600Y-100794800D03*
X129845600Y-100794800D03*
X132385600Y-100794800D03*
X134925600Y-100794800D03*
X137465600Y-100794800D03*
X140005600Y-100794800D03*
X142545600Y-100794800D03*
D20*
X98465600Y-116169800D03*
D21*
X98465600Y-118709800D03*
D29*
X170220600Y-117439800D03*
D30*
X167680600Y-117439800D03*
X170220600Y-114899800D03*
X167680600Y-114899800D03*
X170220600Y-112359800D03*
X167680600Y-112359800D03*
X170220600Y-109819800D03*
X167680600Y-109819800D03*
X170220600Y-107279800D03*
X167680600Y-107279800D03*
X170220600Y-104739800D03*
X167680600Y-104739800D03*
X170220600Y-102199800D03*
X167680600Y-102199800D03*
X170220600Y-99659800D03*
X167680600Y-99659800D03*
X170220600Y-97119800D03*
X167680600Y-97119800D03*
X170220600Y-94579800D03*
X167680600Y-94579800D03*
X170220600Y-92039800D03*
X167680600Y-92039800D03*
X170220600Y-89499800D03*
X167680600Y-89499800D03*
D31*
X143215600Y-159554800D03*
X143215600Y-155554800D03*
X143215600Y-158214800D03*
X143215600Y-156894800D03*
X140215600Y-158214800D03*
X140215600Y-159554800D03*
X140215600Y-155554800D03*
X140215600Y-156894800D03*
D32*
X167035600Y-141494800D03*
X163635600Y-141494800D03*
D33*
X111997600Y-144854800D03*
D34*
X114497600Y-144854800D03*
D35*
X178545600Y-138074800D03*
X178545600Y-141474800D03*
D36*
X148065600Y-143584800D03*
X145525600Y-143584800D03*
X142985600Y-143584800D03*
X132825600Y-145108800D03*
X130285600Y-145108800D03*
X127745600Y-145108800D03*
D37*
X106155600Y-164539800D03*
D38*
X108695600Y-164539800D03*
X111235600Y-164539800D03*
X113775600Y-164539800D03*
X116315600Y-164539800D03*
D39*
X116315600Y-168984800D03*
X111235600Y-168984800D03*
X113775600Y-168984800D03*
X108695600Y-168984800D03*
X106155600Y-168984800D03*
D13*
X148065600Y-153744800D03*
D14*
X150605600Y-151204800D03*
X150605600Y-156284800D03*
D40*
X131735600Y-147648800D03*
X128835600Y-147648800D03*
D41*
X121395600Y-146124800D03*
X123935600Y-146124800D03*
D31*
X143215600Y-151934800D03*
X143215600Y-147934800D03*
X143215600Y-150594800D03*
X143215600Y-149274800D03*
X140215600Y-150594800D03*
X140215600Y-151934800D03*
X140215600Y-147934800D03*
X140215600Y-149274800D03*
D19*
X111085600Y-157544640D03*
X111085600Y-149944960D03*
D41*
X129015600Y-151204800D03*
X129015600Y-156284800D03*
X121395600Y-151204800D03*
X121395600Y-156284800D03*
D42*
X104335600Y-145744800D03*
X94335600Y-145744800D03*
X94335600Y-161744800D03*
X104335600Y-161744800D03*
D43*
X174085600Y-144854800D03*
X172815600Y-144854800D03*
X171545600Y-144854800D03*
X170275600Y-144854800D03*
X169005600Y-144854800D03*
X167735600Y-144854800D03*
X166465600Y-144854800D03*
X165195600Y-144854800D03*
X163925600Y-144854800D03*
X162655600Y-144854800D03*
X161385600Y-144854800D03*
X160115600Y-144854800D03*
X158845600Y-144854800D03*
X157575600Y-144854800D03*
D44*
X156051600Y-148029800D03*
X156051600Y-149299800D03*
X156051600Y-150569800D03*
X156051600Y-151839800D03*
X156051600Y-153109800D03*
X156051600Y-154379800D03*
X156051600Y-155649800D03*
X156051600Y-156919800D03*
X156051600Y-158189800D03*
X156051600Y-159459800D03*
D43*
X157575600Y-162634800D03*
X158845600Y-162634800D03*
X160115600Y-162634800D03*
X161385600Y-162634800D03*
X162655600Y-162634800D03*
X163925600Y-162634800D03*
X165195600Y-162634800D03*
X166465600Y-162634800D03*
X167735600Y-162634800D03*
X169005600Y-162634800D03*
X170275600Y-162634800D03*
X171545600Y-162634800D03*
X172815600Y-162634800D03*
X174085600Y-162634800D03*
D45*
X167685600Y-155214800D03*
D46*
X134095600Y-151839800D03*
D47*
X134095600Y-153109800D03*
D46*
X134095600Y-154379800D03*
X134095600Y-155649800D03*
D20*
X76325600Y-154019800D03*
D21*
X76325600Y-151479800D03*
D19*
X72515600Y-134684800D03*
X72515600Y-154684800D03*
D11*
X62609600Y-166084800D03*
X62609600Y-155924800D03*
X62355600Y-122904800D03*
X62355600Y-112744800D03*
X68959600Y-143478800D03*
X68959600Y-133318800D03*
X76071600Y-135096800D03*
X76071600Y-145256800D03*
D18*
X68705600Y-112109800D03*
X75055600Y-112109800D03*
D17*
X87163600Y-136620800D03*
X87163600Y-139160800D03*
X87163600Y-141700800D03*
X87163600Y-144240800D03*
D15*
X62355600Y-107410800D03*
D16*
X62355600Y-109950800D03*
D13*
X63955600Y-168784800D03*
D14*
X63955600Y-171324800D03*
X63955600Y-173864800D03*
D12*
X72515600Y-151098800D03*
X72515600Y-146272800D03*
D11*
X89751600Y-124376800D03*
X89751600Y-117876800D03*
X85251600Y-117876800D03*
X85251600Y-124376800D03*
X89751600Y-114216800D03*
X89751600Y-107716800D03*
X85251600Y-107716800D03*
X85251600Y-114216800D03*
X68487600Y-164612800D03*
X68487600Y-171112800D03*
X72987600Y-171112800D03*
X72987600Y-164612800D03*
X89497600Y-171112800D03*
X89497600Y-164612800D03*
X84997600Y-164612800D03*
X84997600Y-171112800D03*
X75615600Y-173668800D03*
X82115600Y-173668800D03*
X82115600Y-169168800D03*
X75615600Y-169168800D03*
X75615600Y-165794800D03*
X82115600Y-165794800D03*
X82115600Y-161294800D03*
X75615600Y-161294800D03*
X64641600Y-108934800D03*
X64641600Y-111474800D03*
X64641600Y-114014800D03*
X64641600Y-116554800D03*
X64641600Y-119094800D03*
X64641600Y-121634800D03*
X64641600Y-124174800D03*
X64641600Y-126714800D03*
X64641600Y-129254800D03*
X64641600Y-131794800D03*
X64641600Y-134334800D03*
X64641600Y-136874800D03*
X64641600Y-139414800D03*
X64641600Y-141954800D03*
X64641600Y-144494800D03*
X64641600Y-147034800D03*
X64641600Y-149574800D03*
X64641600Y-152114800D03*
X64641600Y-154654800D03*
X64641600Y-157194800D03*
X79881600Y-157194800D03*
X79881600Y-154654800D03*
X79881600Y-152114800D03*
X79881600Y-149574800D03*
X79881600Y-147034800D03*
X79881600Y-144494800D03*
X79881600Y-141954800D03*
X79881600Y-139414800D03*
X79881600Y-136874800D03*
X79881600Y-134334800D03*
X79881600Y-131794800D03*
X79881600Y-129254800D03*
X79881600Y-126714800D03*
X79881600Y-124174800D03*
X79881600Y-121634800D03*
X79881600Y-119094800D03*
X79881600Y-116554800D03*
X79881600Y-114014800D03*
X79881600Y-111474800D03*
X79881600Y-108934800D03*
D48*
X62609600Y-60524800D03*
X144763600Y-149426800D03*
D49*
X155085600Y-142744800D03*
X135873600Y-141044800D03*
D50*
X159552600Y-104104800D03*
D48*
X62609600Y-130524800D03*
X78085600Y-60644800D03*
X66673600Y-73478800D03*
X139048600Y-150569800D03*
D49*
X116061600Y-155268800D03*
D50*
X153075600Y-109946800D03*
D48*
X66673600Y-143478800D03*
X78085600Y-130644800D03*
X88771600Y-75256800D03*
X123611600Y-103088800D03*
X88771600Y-145256800D03*
X109585600Y-83244800D03*
X160003600Y-138504800D03*
X171560600Y-143584800D03*
X166861600Y-143076800D03*
X154669600Y-160729800D03*
X146922600Y-160856800D03*
X153145600Y-160729800D03*
X138159600Y-149807800D03*
X87247600Y-92020800D03*
X87247600Y-162020800D03*
X85469600Y-74748800D03*
X85469600Y-144748800D03*
D51*
X86815600Y-58652800D02*
X86053600Y-59414800D01*
X86815600Y-128652800D02*
X86053600Y-129414800D01*
D52*
X62609600Y-54428800D02*
X62609600Y-60524800D01*
X63625600Y-53412800D02*
X62609600Y-54428800D01*
X65965590Y-73886712D02*
X65965590Y-83330810D01*
X62609600Y-86686800D02*
X64641600Y-84654800D01*
X62609600Y-88718800D02*
X62609600Y-86686800D01*
X65657600Y-91766800D02*
X62609600Y-88718800D01*
X65657600Y-99894800D02*
X65657600Y-91766800D01*
X64227600Y-101324800D02*
X65657600Y-99894800D01*
X63955600Y-101324800D02*
X64227600Y-101324800D01*
X63879600Y-84654800D02*
X62609600Y-85924800D01*
X64641600Y-84654800D02*
X63879600Y-84654800D01*
X76071600Y-68240800D02*
X72515600Y-64684800D01*
X76071600Y-75256800D02*
X76071600Y-68240800D01*
X75309600Y-75510800D02*
X75309600Y-80463800D01*
X75309600Y-80463800D02*
X76325600Y-81479800D01*
X75563600Y-75256800D02*
X75309600Y-75510800D01*
X76071600Y-75256800D02*
X75563600Y-75256800D01*
X63625600Y-52396800D02*
X63625600Y-53412800D01*
X63371600Y-52142800D02*
X63625600Y-52396800D01*
X63371600Y-45538800D02*
X63371600Y-52142800D01*
X66546600Y-42109800D02*
X66165600Y-42490800D01*
X68705600Y-42109800D02*
X66546600Y-42109800D01*
X65919599Y-73840721D02*
X65965590Y-73886712D01*
X65919599Y-73116879D02*
X65919599Y-73840721D01*
X65965590Y-73070888D02*
X65919599Y-73116879D01*
X65965590Y-69614811D02*
X65965590Y-73070888D01*
X66165600Y-69414801D02*
X65965590Y-69614811D01*
X65965590Y-83330810D02*
X64641600Y-84654800D01*
X66165600Y-68906800D02*
X66165600Y-69414801D01*
X65403600Y-68144800D02*
X66165600Y-68906800D01*
X63879600Y-68144800D02*
X65403600Y-68144800D01*
X62609600Y-66874800D02*
X63879600Y-68144800D01*
X62609600Y-60524800D02*
X62609600Y-66874800D01*
X79721600Y-41634800D02*
X79881600Y-41474800D01*
X79881600Y-41474800D02*
X79881600Y-38934800D01*
D53*
X63371600Y-43458800D02*
X64185600Y-42644800D01*
X64185600Y-42644800D02*
X66011600Y-42644800D01*
X66011600Y-42644800D02*
X66165600Y-42490800D01*
X63371600Y-45538800D02*
X63371600Y-43458800D01*
D54*
X167680600Y-102199800D02*
X161330600Y-102199800D01*
X161330600Y-102199800D02*
X159552600Y-103977800D01*
X176443600Y-91308800D02*
X176443600Y-89245800D01*
X167680600Y-94579800D02*
X165775600Y-94579800D01*
X165775600Y-94579800D02*
X164505600Y-95849800D01*
X164505600Y-95849800D02*
X164505600Y-96484800D01*
X164505600Y-99024800D02*
X167680600Y-102199800D01*
X164505600Y-96484800D02*
X164505600Y-99024800D01*
X170220600Y-107279800D02*
X175681600Y-107279800D01*
X175681600Y-107279800D02*
X176443600Y-108041800D01*
X176443600Y-123408800D02*
X165394600Y-123408800D01*
X158665600Y-116679800D02*
X158665600Y-112744800D01*
X165394600Y-123408800D02*
X158665600Y-116679800D01*
X106750480Y-122799940D02*
X106750480Y-109083940D01*
D52*
X104083480Y-112131940D02*
X104083480Y-111750940D01*
X104083480Y-111750940D02*
X106750480Y-109083940D01*
D54*
X176443600Y-123408800D02*
X176443600Y-108041800D01*
X176443600Y-108041800D02*
X176443600Y-91308800D01*
D51*
X143215600Y-149274800D02*
X144611600Y-149274800D01*
X144611600Y-149274800D02*
X144763600Y-149426800D01*
D54*
X156051600Y-148029800D02*
X160500600Y-148029800D01*
X160500600Y-148029800D02*
X167685600Y-155214800D01*
X162335600Y-142744800D02*
X155085600Y-142744800D01*
X163585600Y-141494800D02*
X162335600Y-142744800D01*
D51*
X134095600Y-153109800D02*
X132952600Y-153109800D01*
X131735600Y-151892800D02*
X131735600Y-147648800D01*
X132952600Y-153109800D02*
X131735600Y-151892800D01*
D54*
X163635600Y-141494800D02*
X163585600Y-141494800D01*
D55*
X131735600Y-147648800D02*
X132825600Y-147648800D01*
X131735600Y-147648800D02*
X131735600Y-147066800D01*
D54*
X135365600Y-141552800D02*
X131428600Y-141552800D01*
X135873600Y-141044800D02*
X135365600Y-141552800D01*
D55*
X132825600Y-147648800D02*
X132825600Y-145108800D01*
D54*
X132825600Y-145108800D02*
X132825600Y-144473800D01*
X132825600Y-144473800D02*
X131428600Y-141552800D01*
X131428600Y-141552800D02*
X131365100Y-141489300D01*
X131365100Y-141489300D02*
X122792600Y-141489300D01*
X122792600Y-141489300D02*
X120633600Y-143648300D01*
X120633600Y-143648300D02*
X120633600Y-145362800D01*
X114497600Y-144854800D02*
X120125600Y-144854800D01*
X120125600Y-144854800D02*
X120633600Y-145362800D01*
X120633600Y-145362800D02*
X121395600Y-146124800D01*
X111085600Y-149944960D02*
X111085600Y-148266800D01*
X111085600Y-148266800D02*
X114497600Y-144854800D01*
X94335600Y-145744800D02*
X97518600Y-145744800D01*
X112275100Y-142632300D02*
X114497600Y-144854800D01*
X109775100Y-142632300D02*
X112275100Y-142632300D01*
X108378100Y-144029300D02*
X109775100Y-142632300D01*
X99234100Y-144029300D02*
X108378100Y-144029300D01*
X97518600Y-145744800D02*
X99234100Y-144029300D01*
X94335600Y-145744800D02*
X94335600Y-161744800D01*
X178545600Y-141474800D02*
X177465600Y-141474800D01*
X177465600Y-141474800D02*
X174085600Y-144854800D01*
X174085600Y-144854800D02*
X174085600Y-157569800D01*
X174085600Y-157569800D02*
X173465600Y-158189800D01*
X174085600Y-162634800D02*
X174085600Y-157539800D01*
X171760600Y-155214800D02*
X167685600Y-155214800D01*
X174085600Y-157539800D02*
X171760600Y-155214800D01*
D53*
X174085600Y-144854800D02*
X175800600Y-144854800D01*
X175800600Y-144854800D02*
X178545600Y-142109800D01*
D54*
X164505600Y-84165800D02*
X164505600Y-96484800D01*
X166029600Y-82641800D02*
X164505600Y-84165800D01*
X169839600Y-82641800D02*
X166029600Y-82641800D01*
X176443600Y-89245800D02*
X169839600Y-82641800D01*
X159552600Y-103977800D02*
X159552600Y-104104800D01*
D53*
X63371600Y-115538800D02*
X63371600Y-113458800D01*
X66011600Y-112644800D02*
X66165600Y-112490800D01*
X64185600Y-112644800D02*
X66011600Y-112644800D01*
X63371600Y-113458800D02*
X64185600Y-112644800D01*
D52*
X79881600Y-111474800D02*
X79881600Y-108934800D01*
X79721600Y-111634800D02*
X79881600Y-111474800D01*
X62609600Y-130524800D02*
X62609600Y-136874800D01*
X62609600Y-136874800D02*
X63879600Y-138144800D01*
X63879600Y-138144800D02*
X65403600Y-138144800D01*
X65403600Y-138144800D02*
X66165600Y-138906800D01*
X66165600Y-138906800D02*
X66165600Y-139414801D01*
X65965590Y-153330810D02*
X64641600Y-154654800D01*
X66165600Y-139414801D02*
X65965590Y-139614811D01*
X65965590Y-139614811D02*
X65965590Y-143070888D01*
X65965590Y-143070888D02*
X65919599Y-143116879D01*
X65919599Y-143116879D02*
X65919599Y-143840721D01*
X65919599Y-143840721D02*
X65965590Y-143886712D01*
X68705600Y-112109800D02*
X66546600Y-112109800D01*
X66546600Y-112109800D02*
X66165600Y-112490800D01*
X63371600Y-115538800D02*
X63371600Y-122142800D01*
X63371600Y-122142800D02*
X63625600Y-122396800D01*
X63625600Y-122396800D02*
X63625600Y-123412800D01*
X76071600Y-145256800D02*
X75563600Y-145256800D01*
X75563600Y-145256800D02*
X75309600Y-145510800D01*
X75309600Y-150463800D02*
X76325600Y-151479800D01*
X75309600Y-145510800D02*
X75309600Y-150463800D01*
X76071600Y-145256800D02*
X76071600Y-138240800D01*
X76071600Y-138240800D02*
X72515600Y-134684800D01*
X64641600Y-154654800D02*
X63879600Y-154654800D01*
X63879600Y-154654800D02*
X62609600Y-155924800D01*
X63955600Y-171324800D02*
X64227600Y-171324800D01*
X64227600Y-171324800D02*
X65657600Y-169894800D01*
X65657600Y-169894800D02*
X65657600Y-161766800D01*
X65657600Y-161766800D02*
X62609600Y-158718800D01*
X62609600Y-158718800D02*
X62609600Y-156686800D01*
X62609600Y-156686800D02*
X64641600Y-154654800D01*
X65965590Y-143886712D02*
X65965590Y-153330810D01*
X63625600Y-123412800D02*
X62609600Y-124428800D01*
X62609600Y-124428800D02*
X62609600Y-130524800D01*
D51*
X81913600Y-53666800D02*
X80643599Y-52396799D01*
X81913600Y-59887252D02*
X81913600Y-53666800D01*
X80643599Y-52396799D02*
X79881600Y-51634800D01*
X88136600Y-66110252D02*
X81913600Y-59887252D01*
X87163600Y-71700800D02*
X88136600Y-70727800D01*
X88136600Y-70727800D02*
X88136600Y-66110252D01*
X88136600Y-140727800D02*
X88136600Y-136110252D01*
X87163600Y-141700800D02*
X88136600Y-140727800D01*
X88136600Y-136110252D02*
X81913600Y-129887252D01*
X80643599Y-122396799D02*
X79881600Y-121634800D01*
X81913600Y-129887252D02*
X81913600Y-123666800D01*
X81913600Y-123666800D02*
X80643599Y-122396799D01*
D52*
X77149600Y-59508800D02*
X76833600Y-59508800D01*
X78021600Y-59508800D02*
X77149600Y-59508800D01*
X78611600Y-58918800D02*
X78021600Y-59508800D01*
X78611600Y-54174800D02*
X78611600Y-57730800D01*
X78611600Y-57730800D02*
X78611600Y-58918800D01*
X78085600Y-60644800D02*
X77958600Y-60517800D01*
X77595600Y-59954800D02*
X77149600Y-59508800D01*
X78085600Y-60644800D02*
X77595600Y-59954800D01*
X69213600Y-59508800D02*
X69340600Y-59381800D01*
X79881600Y-44014800D02*
X79119600Y-44014800D01*
X66673600Y-62048800D02*
X69213600Y-59508800D01*
X67127610Y-68359532D02*
X66673600Y-67905522D01*
X66673600Y-67905522D02*
X66673600Y-62048800D01*
X71639300Y-76158500D02*
X68959600Y-73478800D01*
X72515600Y-76158500D02*
X71639300Y-76158500D01*
X66673600Y-86432800D02*
X66673600Y-74748800D01*
X66673600Y-101164800D02*
X66673600Y-86432800D01*
X63973600Y-103864800D02*
X66673600Y-101164800D01*
X63955600Y-103864800D02*
X63973600Y-103864800D01*
X65911600Y-87194800D02*
X66673600Y-86432800D01*
X64641600Y-87194800D02*
X65911600Y-87194800D01*
X66673600Y-73478800D02*
X66673600Y-74494800D01*
X66673600Y-74494800D02*
X66727598Y-74548798D01*
X66727598Y-74548798D02*
X66727598Y-74748800D01*
X66727598Y-74748800D02*
X66673600Y-74748800D01*
X67127610Y-69454068D02*
X67127610Y-68359532D01*
X66673600Y-69908078D02*
X67127610Y-69454068D01*
X66673600Y-74748800D02*
X66673600Y-69908078D01*
X76833600Y-59508800D02*
X69213600Y-59508800D01*
X78611600Y-45284800D02*
X78611600Y-54174800D01*
X79881600Y-44014800D02*
X78611600Y-45284800D01*
D54*
X170220600Y-117439800D02*
X170220600Y-118836800D01*
X170220600Y-118836800D02*
X169585600Y-119471800D01*
X169585600Y-119471800D02*
X164632600Y-119471800D01*
X164632600Y-119471800D02*
X161457600Y-116296800D01*
X161457600Y-116296800D02*
X161457600Y-113121800D01*
X94285600Y-100794800D02*
X94285600Y-85554800D01*
X98465600Y-116169800D02*
X98338600Y-116169800D01*
X98338600Y-116169800D02*
X94285600Y-112116800D01*
X94285600Y-112116800D02*
X94285600Y-100794800D01*
X120585600Y-67744800D02*
X115085600Y-67744800D01*
X115085600Y-67744800D02*
X114085600Y-66744800D01*
X160085600Y-56145100D02*
X132185300Y-56145100D01*
X132185300Y-56145100D02*
X120585600Y-67744800D01*
D52*
X123435600Y-73879800D02*
X123435600Y-74594800D01*
X123435600Y-74594800D02*
X124085600Y-75244800D01*
X124085600Y-75244800D02*
X125085600Y-75244800D01*
X125085600Y-75244800D02*
X127085600Y-73244800D01*
X127085600Y-73244800D02*
X120585600Y-66744800D01*
X120585600Y-66744800D02*
X114085600Y-66744800D01*
D54*
X114085600Y-66744800D02*
X108085600Y-66744800D01*
X94285600Y-74544800D02*
X94285600Y-80244800D01*
X94285600Y-80244800D02*
X94285600Y-85554800D01*
X101085600Y-67744800D02*
X94285600Y-74544800D01*
X107085600Y-67744800D02*
X101085600Y-67744800D01*
X108085600Y-66744800D02*
X107085600Y-67744800D01*
D52*
X94285600Y-85554800D02*
X94285600Y-92044800D01*
X94285600Y-92044800D02*
X94285600Y-100794800D01*
D51*
X139073600Y-150594800D02*
X140215600Y-150594800D01*
X139048600Y-150569800D02*
X139073600Y-150594800D01*
D54*
X172815600Y-142299800D02*
X173530600Y-142299800D01*
X173530600Y-142299800D02*
X177755600Y-138074800D01*
X177755600Y-138074800D02*
X178545600Y-138074800D01*
X116061600Y-155268800D02*
X116061600Y-156284800D01*
X111997600Y-144854800D02*
X111045100Y-144854800D01*
X111045100Y-144854800D02*
X106346100Y-149553800D01*
X121395600Y-156284800D02*
X116061600Y-156284800D01*
X116061600Y-156284800D02*
X113077100Y-156284800D01*
X113077100Y-156284800D02*
X106346100Y-149553800D01*
X104741100Y-148220300D02*
X104335600Y-145744800D01*
X105012600Y-148220300D02*
X104741100Y-148220300D01*
X106346100Y-149553800D02*
X105012600Y-148220300D01*
X121395600Y-156284800D02*
X129015600Y-156284800D01*
X113775600Y-168984800D02*
X113775600Y-167968800D01*
X118093600Y-166635300D02*
X128444100Y-156284800D01*
X115109100Y-166635300D02*
X118093600Y-166635300D01*
X113775600Y-167968800D02*
X115109100Y-166635300D01*
X128444100Y-156284800D02*
X129015600Y-156284800D01*
X148065600Y-143584800D02*
X148065600Y-148664800D01*
X148065600Y-148664800D02*
X150605600Y-151204800D01*
X172815600Y-144854800D02*
X172815600Y-142299800D01*
X151875600Y-139774800D02*
X150923100Y-140727300D01*
X150923100Y-140727300D02*
X148065600Y-143584800D01*
X168385600Y-139774800D02*
X151875600Y-139774800D01*
X170290600Y-141679800D02*
X168385600Y-139774800D01*
X172195600Y-141679800D02*
X170290600Y-141679800D01*
X172815600Y-142299800D02*
X172195600Y-141679800D01*
D53*
X178545600Y-138074800D02*
X178340600Y-138074800D01*
X172815600Y-144234800D02*
X172815600Y-144854800D01*
D54*
X161457600Y-113121800D02*
X158282600Y-109946800D01*
X158282600Y-109946800D02*
X153075600Y-109946800D01*
X153075600Y-109946800D02*
X152948600Y-109819800D01*
D52*
X79881600Y-114014800D02*
X78611600Y-115284800D01*
X78611600Y-115284800D02*
X78611600Y-124174800D01*
X76833600Y-129508800D02*
X69213600Y-129508800D01*
X66673600Y-144748800D02*
X66673600Y-139908078D01*
X66673600Y-139908078D02*
X67127610Y-139454068D01*
X67127610Y-139454068D02*
X67127610Y-138359532D01*
X66727598Y-144748800D02*
X66673600Y-144748800D01*
X66727598Y-144548798D02*
X66727598Y-144748800D01*
X66673600Y-144494800D02*
X66727598Y-144548798D01*
X66673600Y-143478800D02*
X66673600Y-144494800D01*
X64641600Y-157194800D02*
X65911600Y-157194800D01*
X65911600Y-157194800D02*
X66673600Y-156432800D01*
X63955600Y-173864800D02*
X63973600Y-173864800D01*
X63973600Y-173864800D02*
X66673600Y-171164800D01*
X66673600Y-171164800D02*
X66673600Y-156432800D01*
X66673600Y-156432800D02*
X66673600Y-144748800D01*
X72515600Y-146158500D02*
X71639300Y-146158500D01*
X71639300Y-146158500D02*
X68959600Y-143478800D01*
X66673600Y-137905522D02*
X66673600Y-132048800D01*
X67127610Y-138359532D02*
X66673600Y-137905522D01*
X66673600Y-132048800D02*
X69213600Y-129508800D01*
X79881600Y-114014800D02*
X79119600Y-114014800D01*
X69213600Y-129508800D02*
X69340600Y-129381800D01*
X78085600Y-130644800D02*
X77595600Y-129954800D01*
X77595600Y-129954800D02*
X77149600Y-129508800D01*
X78085600Y-130644800D02*
X77958600Y-130517800D01*
X78611600Y-127730800D02*
X78611600Y-128918800D01*
X78611600Y-124174800D02*
X78611600Y-127730800D01*
X78611600Y-128918800D02*
X78021600Y-129508800D01*
X78021600Y-129508800D02*
X77149600Y-129508800D01*
X77149600Y-129508800D02*
X76833600Y-129508800D01*
X72515600Y-80959100D02*
X72515600Y-84684800D01*
X75660600Y-84684800D02*
X76325600Y-84019800D01*
X72515600Y-84684800D02*
X75660600Y-84684800D01*
D54*
X160085600Y-51344500D02*
X174847900Y-51344500D01*
X174847900Y-51344500D02*
X176443600Y-49748800D01*
D52*
X72515600Y-154684800D02*
X75660600Y-154684800D01*
X75660600Y-154684800D02*
X76325600Y-154019800D01*
X72515600Y-150959100D02*
X72515600Y-154684800D01*
D51*
X62355600Y-39950800D02*
X62355600Y-42744800D01*
D54*
X170253600Y-46700800D02*
X169041600Y-46700800D01*
X167713600Y-45372800D02*
X167713600Y-41620800D01*
X169041600Y-46700800D02*
X167713600Y-45372800D01*
D51*
X62355600Y-109950800D02*
X62355600Y-112744800D01*
X174988100Y-59342300D02*
X164056100Y-59342300D01*
X144566600Y-92801800D02*
X143123600Y-94244800D01*
X144566600Y-78831800D02*
X144566600Y-92801800D01*
X164056100Y-59342300D02*
X144566600Y-78831800D01*
X124765600Y-100794800D02*
X124765600Y-98564800D01*
X124765600Y-98564800D02*
X129085600Y-94244800D01*
X129085600Y-94244800D02*
X143123600Y-94244800D01*
X160085600Y-41744800D02*
X160085600Y-46692800D01*
X162085600Y-39744800D02*
X160085600Y-41744800D01*
X169085600Y-39744800D02*
X162085600Y-39744800D01*
X171085600Y-41744800D02*
X169085600Y-39744800D01*
X179585600Y-41744800D02*
X171085600Y-41744800D01*
X181585600Y-43744800D02*
X179585600Y-41744800D01*
X181585600Y-52744800D02*
X181585600Y-43744800D01*
X174988100Y-59342300D02*
X181585600Y-52744800D01*
X160085600Y-46692800D02*
X160093600Y-46700800D01*
D52*
X68273600Y-101578800D02*
X68273600Y-93958800D01*
X67523601Y-70059355D02*
X68959600Y-68623356D01*
X68959600Y-68623356D02*
X68959600Y-64396430D01*
X68273600Y-93958800D02*
X67523601Y-93208801D01*
X67523601Y-93208801D02*
X67523601Y-70059355D01*
X68959600Y-64396430D02*
X68959600Y-63318800D01*
X89863600Y-101324800D02*
X89863600Y-93704800D01*
X90041600Y-54936800D02*
X90041600Y-47316800D01*
X90041600Y-44776800D02*
X90041600Y-37156800D01*
X90041600Y-47316800D02*
X90041600Y-44776800D01*
X90133630Y-55028830D02*
X90041600Y-54936800D01*
X90105599Y-93462801D02*
X90105599Y-55000799D01*
X90105599Y-55000799D02*
X90133630Y-55028830D01*
X89863600Y-93704800D02*
X90105599Y-93462801D01*
X89497600Y-101112800D02*
X89497600Y-94612800D01*
X89497600Y-94070800D02*
X90105599Y-93462801D01*
X89497600Y-94612800D02*
X89497600Y-94070800D01*
X89751600Y-54376800D02*
X89751600Y-47876800D01*
X89751600Y-47876800D02*
X89751600Y-44216800D01*
X89751600Y-44216800D02*
X89751600Y-37716800D01*
D51*
X144165600Y-112744800D02*
X144165600Y-94091800D01*
X164251600Y-60416800D02*
X175913600Y-60416800D01*
X145455600Y-79212800D02*
X164251600Y-60416800D01*
X145455600Y-92801800D02*
X145455600Y-79212800D01*
X144165600Y-94091800D02*
X145455600Y-92801800D01*
D54*
X179999600Y-39080800D02*
X179999600Y-40658800D01*
X179999600Y-40658800D02*
X183585600Y-44244800D01*
X183585600Y-44244800D02*
X183585600Y-52744800D01*
X183585600Y-52744800D02*
X175913600Y-60416800D01*
X179999600Y-39080800D02*
X172379600Y-39080800D01*
X144165600Y-112744800D02*
X148505600Y-112744800D01*
X148505600Y-112744800D02*
X149085600Y-113324800D01*
X149085600Y-113324800D02*
X149085600Y-131244800D01*
D52*
X89751600Y-114216800D02*
X89751600Y-107716800D01*
X89751600Y-117876800D02*
X89751600Y-114216800D01*
X89751600Y-124376800D02*
X89751600Y-117876800D01*
X89497600Y-164612800D02*
X89497600Y-164070800D01*
X89497600Y-164070800D02*
X90105599Y-163462801D01*
X89497600Y-171112800D02*
X89497600Y-164612800D01*
X89863600Y-163704800D02*
X90105599Y-163462801D01*
X90105599Y-125000799D02*
X90133630Y-125028830D01*
X90105599Y-163462801D02*
X90105599Y-125000799D01*
X90133630Y-125028830D02*
X90041600Y-124936800D01*
X90041600Y-117316800D02*
X90041600Y-114776800D01*
X90041600Y-114776800D02*
X90041600Y-107156800D01*
X90041600Y-124936800D02*
X90041600Y-117316800D01*
X89863600Y-171324800D02*
X89863600Y-163704800D01*
X68959600Y-134396430D02*
X68959600Y-133318800D01*
X67523601Y-163208801D02*
X67523601Y-140059355D01*
X68273600Y-163958800D02*
X67523601Y-163208801D01*
X68959600Y-138623356D02*
X68959600Y-134396430D01*
X67523601Y-140059355D02*
X68959600Y-138623356D01*
X68273600Y-171578800D02*
X68273600Y-163958800D01*
D51*
X65708400Y-46885000D02*
X65708400Y-60601000D01*
X65784600Y-60651800D02*
X64641600Y-61794800D01*
X65708400Y-44091000D02*
X66241800Y-43557600D01*
X66241800Y-43557600D02*
X73607800Y-43557600D01*
X73607800Y-43557600D02*
X75055600Y-42109800D01*
X65708400Y-46885000D02*
X65708400Y-44091000D01*
X65708400Y-116885000D02*
X65708400Y-114091000D01*
X73607800Y-113557600D02*
X75055600Y-112109800D01*
X66241800Y-113557600D02*
X73607800Y-113557600D01*
X65708400Y-114091000D02*
X66241800Y-113557600D01*
X65784600Y-130651800D02*
X64641600Y-131794800D01*
X65708400Y-116885000D02*
X65708400Y-130601000D01*
X84453600Y-55444800D02*
X84211601Y-55686799D01*
D52*
X84453600Y-55444800D02*
X84453600Y-55174800D01*
D51*
X84211601Y-55686799D02*
X84211601Y-56702799D01*
X84211601Y-56702799D02*
X83945600Y-56968800D01*
D52*
X84961600Y-54936800D02*
X84961600Y-47316800D01*
D51*
X84961600Y-54936800D02*
X84453600Y-55444800D01*
D52*
X85251600Y-54376800D02*
X85251600Y-47876800D01*
X84453600Y-55174800D02*
X85251600Y-54376800D01*
D51*
X83945600Y-56968800D02*
X83945600Y-60778800D01*
X83945600Y-60778800D02*
X89047810Y-65881010D01*
X89047810Y-65881010D02*
X89047810Y-74218590D01*
X89047810Y-74218590D02*
X88771600Y-74494800D01*
X88771600Y-74494800D02*
X88771600Y-75256800D01*
X144111100Y-92219300D02*
X144111100Y-78271300D01*
X164759600Y-57622800D02*
X175035600Y-57622800D01*
X144111100Y-78271300D02*
X164759600Y-57622800D01*
X143147600Y-93182800D02*
X144111100Y-92219300D01*
X128945600Y-93182800D02*
X143147600Y-93182800D01*
X123611600Y-98516800D02*
X128945600Y-93182800D01*
X123611600Y-103088800D02*
X123611600Y-98516800D01*
D54*
X179999600Y-44160800D02*
X179999600Y-52658800D01*
X179999600Y-52658800D02*
X175035600Y-57622800D01*
X172379600Y-44160800D02*
X179999600Y-44160800D01*
D51*
X88771600Y-144494800D02*
X88771600Y-145256800D01*
X89047810Y-144218590D02*
X88771600Y-144494800D01*
X89047810Y-135881010D02*
X89047810Y-144218590D01*
X83945600Y-130778800D02*
X89047810Y-135881010D01*
X83945600Y-126968800D02*
X83945600Y-130778800D01*
D52*
X84453600Y-125174800D02*
X85251600Y-124376800D01*
X85251600Y-124376800D02*
X85251600Y-117876800D01*
D51*
X84961600Y-124936800D02*
X84453600Y-125444800D01*
D52*
X84961600Y-124936800D02*
X84961600Y-117316800D01*
D51*
X84211601Y-126702799D02*
X83945600Y-126968800D01*
X84211601Y-125686799D02*
X84211601Y-126702799D01*
D52*
X84453600Y-125444800D02*
X84453600Y-125174800D01*
D51*
X84453600Y-125444800D02*
X84211601Y-125686799D01*
X87763599Y-73640801D02*
X87163600Y-74240800D01*
X79881600Y-49094800D02*
X82929600Y-52142800D01*
X82929600Y-52142800D02*
X82929600Y-60333026D01*
X82929600Y-60333026D02*
X88644600Y-66048026D01*
X88644600Y-66048026D02*
X88644600Y-72759800D01*
X88644600Y-72759800D02*
X87763599Y-73640801D01*
X88644600Y-142759800D02*
X87763599Y-143640801D01*
X88644600Y-136048026D02*
X88644600Y-142759800D01*
X82929600Y-130333026D02*
X88644600Y-136048026D01*
X82929600Y-122142800D02*
X82929600Y-130333026D01*
X79881600Y-119094800D02*
X82929600Y-122142800D01*
X87763599Y-143640801D02*
X87163600Y-144240800D01*
X103136100Y-95694300D02*
X103136100Y-102482300D01*
X103136100Y-102482300D02*
X100585600Y-105032800D01*
X104083480Y-114671940D02*
X104012740Y-114671940D01*
X104012740Y-114671940D02*
X100585600Y-111244800D01*
X100585600Y-111244800D02*
X100585600Y-105032800D01*
X103136100Y-95694300D02*
X108085600Y-90744800D01*
X108085600Y-90744800D02*
X125585600Y-90744800D01*
X125585600Y-90744800D02*
X127305600Y-89024800D01*
X127305600Y-89024800D02*
X127305600Y-85554800D01*
X100612100Y-96218300D02*
X100612100Y-102593300D01*
X100612100Y-102593300D02*
X98085600Y-105119800D01*
X124765600Y-85554800D02*
X124765600Y-88064800D01*
X98085600Y-110706060D02*
X104083480Y-116703940D01*
X98085600Y-105119800D02*
X98085600Y-110706060D01*
X107085600Y-89744800D02*
X100612100Y-96218300D01*
X123085600Y-89744800D02*
X107085600Y-89744800D01*
X124765600Y-88064800D02*
X123085600Y-89744800D01*
X127739100Y-73561300D02*
X127739100Y-69243300D01*
X130697600Y-66284800D02*
X135015600Y-66284800D01*
X127739100Y-69243300D02*
X130697600Y-66284800D01*
X135015600Y-66284800D02*
X138085600Y-66284800D01*
X127675600Y-73624800D02*
X127739100Y-73561300D01*
X127675600Y-82768800D02*
X127675600Y-73624800D01*
X128564600Y-83657800D02*
X127675600Y-82768800D01*
X128564600Y-89245800D02*
X128564600Y-83657800D01*
X126659600Y-91150800D02*
X128564600Y-89245800D01*
X118277600Y-91150800D02*
X126659600Y-91150800D01*
X109525600Y-100794800D02*
X109525600Y-99902800D01*
X109525600Y-99902800D02*
X118277600Y-91150800D01*
X138085600Y-68824800D02*
X129808600Y-68824800D01*
X112065600Y-98505800D02*
X112065600Y-100794800D01*
X118785600Y-91785800D02*
X112065600Y-98505800D01*
X127040600Y-91785800D02*
X118785600Y-91785800D01*
X131104600Y-87721800D02*
X127040600Y-91785800D01*
X131104600Y-84546800D02*
X131104600Y-87721800D01*
X128183600Y-81625800D02*
X131104600Y-84546800D01*
X128183600Y-70449800D02*
X128183600Y-81625800D01*
X129808600Y-68824800D02*
X128183600Y-70449800D01*
X127421600Y-92674800D02*
X133517600Y-86578800D01*
X118912600Y-92674800D02*
X127421600Y-92674800D01*
X114605600Y-100794800D02*
X114605600Y-96981800D01*
X133390600Y-70068800D02*
X137226600Y-73904800D01*
X130215600Y-70068800D02*
X133390600Y-70068800D01*
X128691600Y-71592800D02*
X130215600Y-70068800D01*
X128691600Y-79847800D02*
X128691600Y-71592800D01*
X133517600Y-84673800D02*
X128691600Y-79847800D01*
X133517600Y-86578800D02*
X133517600Y-84673800D01*
X114605600Y-96981800D02*
X118912600Y-92674800D01*
X137226600Y-73904800D02*
X138085600Y-73904800D01*
D54*
X117145600Y-100794800D02*
X117145600Y-122276800D01*
X117145600Y-122276800D02*
X125897600Y-131028800D01*
D52*
X111085600Y-82244800D02*
X111085600Y-83994800D01*
X110085600Y-81244800D02*
X111085600Y-82244800D01*
X103085600Y-81244800D02*
X110085600Y-81244800D01*
X98585600Y-76744800D02*
X103085600Y-81244800D01*
X98585600Y-72244800D02*
X98585600Y-76744800D01*
X101585600Y-69244800D02*
X98585600Y-72244800D01*
X110585600Y-69244800D02*
X101585600Y-69244800D01*
X112005600Y-72609800D02*
X112005600Y-70664800D01*
X111085600Y-83994800D02*
X109525600Y-85554800D01*
X112005600Y-70664800D02*
X110585600Y-69244800D01*
X104445600Y-83884800D02*
X104445600Y-85554800D01*
X105085600Y-83244800D02*
X104445600Y-83884800D01*
X109585600Y-83244800D02*
X105085600Y-83244800D01*
D54*
X98465600Y-118709800D02*
X103549340Y-118709800D01*
X103549340Y-118709800D02*
X104083480Y-119243940D01*
X96814600Y-103088800D02*
X96814600Y-111343800D01*
X100751600Y-115912060D02*
X104083480Y-119243940D01*
X100751600Y-115280800D02*
X100751600Y-115912060D01*
X96814600Y-111343800D02*
X100751600Y-115280800D01*
D52*
X95925600Y-97754800D02*
X95925600Y-99532800D01*
D54*
X96306600Y-97373800D02*
X95925600Y-97754800D01*
X99365600Y-94314800D02*
X96306600Y-97373800D01*
X99365600Y-85554800D02*
X99365600Y-94314800D01*
D52*
X98084600Y-99151800D02*
X96306600Y-97373800D01*
X98084600Y-102199800D02*
X98084600Y-99151800D01*
X97195600Y-103088800D02*
X98084600Y-102199800D01*
X96179600Y-103088800D02*
X96814600Y-103088800D01*
X96814600Y-103088800D02*
X97195600Y-103088800D01*
X95544600Y-102453800D02*
X96179600Y-103088800D01*
X95544600Y-99913800D02*
X95544600Y-102453800D01*
X95925600Y-99532800D02*
X95544600Y-99913800D01*
X104083480Y-119243940D02*
X104083480Y-119242680D01*
D51*
X140215600Y-147934800D02*
X140215600Y-147878800D01*
X140215600Y-147878800D02*
X142858600Y-145235800D01*
X142858600Y-145235800D02*
X143874600Y-145235800D01*
X143874600Y-145235800D02*
X145525600Y-143584800D01*
X143215600Y-150594800D02*
X144992600Y-150594800D01*
X150351600Y-138504800D02*
X160003600Y-138504800D01*
X146795600Y-142060800D02*
X150351600Y-138504800D01*
X146795600Y-148791800D02*
X146795600Y-142060800D01*
X144992600Y-150594800D02*
X146795600Y-148791800D01*
X171545600Y-144854800D02*
X171545600Y-144454800D01*
X171545600Y-144454800D02*
X169835600Y-142744800D01*
X168285600Y-142744800D02*
X167035600Y-141494800D01*
X169835600Y-142744800D02*
X168285600Y-142744800D01*
D53*
X171545600Y-144854800D02*
X171545600Y-143599800D01*
X171545600Y-143599800D02*
X171560600Y-143584800D01*
D51*
X170275600Y-144854800D02*
X170275600Y-144184800D01*
X170275600Y-144184800D02*
X169675600Y-143584800D01*
X166861600Y-143076800D02*
X167369600Y-143584800D01*
X167369600Y-143584800D02*
X169675600Y-143584800D01*
D55*
X128835600Y-147648800D02*
X128835600Y-146198800D01*
X128835600Y-146198800D02*
X127745600Y-145108800D01*
D54*
X106155600Y-164539800D02*
X105060600Y-164539800D01*
X105060600Y-164539800D02*
X104335600Y-161744800D01*
X111235600Y-168984800D02*
X111235600Y-168730800D01*
X111235600Y-168730800D02*
X108949600Y-166444800D01*
X108949600Y-166444800D02*
X108060600Y-166444800D01*
X108060600Y-166444800D02*
X106155600Y-164539800D01*
D51*
X162655600Y-162634800D02*
X162655600Y-160524300D01*
X151367600Y-161491800D02*
X151240600Y-161364800D01*
X155939600Y-161491800D02*
X151367600Y-161491800D01*
X157463600Y-159967800D02*
X155939600Y-161491800D01*
X162099100Y-159967800D02*
X157463600Y-159967800D01*
X162655600Y-160524300D02*
X162099100Y-159967800D01*
X148065600Y-153744800D02*
X148065600Y-158189800D01*
X148065600Y-158189800D02*
X151240600Y-161364800D01*
X157575600Y-162634800D02*
X156574600Y-162634800D01*
X141969600Y-149180800D02*
X143215600Y-147934800D01*
X141969600Y-160221800D02*
X141969600Y-149180800D01*
X145017600Y-163269800D02*
X141969600Y-160221800D01*
X155939600Y-163269800D02*
X145017600Y-163269800D01*
X156574600Y-162634800D02*
X155939600Y-163269800D01*
X108695600Y-168984800D02*
X109203600Y-168984800D01*
X109203600Y-168984800D02*
X110514898Y-170296098D01*
X123427600Y-164539800D02*
X123554600Y-164539800D01*
X117671302Y-170296098D02*
X123427600Y-164539800D01*
X110514898Y-170296098D02*
X117671302Y-170296098D01*
X169005600Y-163919800D02*
X169005600Y-162634800D01*
X165845600Y-167079800D02*
X169005600Y-163919800D01*
X131555600Y-167079800D02*
X165845600Y-167079800D01*
X129015600Y-164539800D02*
X131555600Y-167079800D01*
X123554600Y-164539800D02*
X129015600Y-164539800D01*
X170275600Y-162634800D02*
X170275600Y-163284800D01*
X170275600Y-163284800D02*
X165210600Y-168349800D01*
X165210600Y-168349800D02*
X130920600Y-168349800D01*
X130920600Y-168349800D02*
X127745600Y-165174800D01*
X127745600Y-165174800D02*
X123935600Y-165174800D01*
X123935600Y-165174800D02*
X118411100Y-170699300D01*
X118411100Y-170699300D02*
X107870100Y-170699300D01*
X107870100Y-170699300D02*
X106155600Y-168984800D01*
X154669600Y-160729800D02*
X155939600Y-159459800D01*
X155939600Y-159459800D02*
X156051600Y-159459800D01*
X140215600Y-155554800D02*
X140215600Y-155292800D01*
X140215600Y-155292800D02*
X136762600Y-151839800D01*
X136762600Y-151839800D02*
X134095600Y-151839800D01*
X146922600Y-160856800D02*
X146922600Y-159713800D01*
X146922600Y-159713800D02*
X144103600Y-156894800D01*
X144103600Y-156894800D02*
X143215600Y-156894800D01*
X143215600Y-156894800D02*
X144103600Y-156894800D01*
X156051600Y-158189800D02*
X155685600Y-158189800D01*
X155685600Y-158189800D02*
X153145600Y-160729800D01*
X134095600Y-154379800D02*
X136508600Y-154379800D01*
X139023600Y-156894800D02*
X140215600Y-156894800D01*
X136508600Y-154379800D02*
X139023600Y-156894800D01*
X134095600Y-155649800D02*
X136000600Y-155649800D01*
X138565600Y-158214800D02*
X140215600Y-158214800D01*
X136000600Y-155649800D02*
X138565600Y-158214800D01*
X157575600Y-144854800D02*
X155812600Y-144854800D01*
X144890600Y-153879800D02*
X143215600Y-155554800D01*
X144890600Y-152220800D02*
X144890600Y-153879800D01*
X146668600Y-150442800D02*
X144890600Y-152220800D01*
X147938600Y-150442800D02*
X146668600Y-150442800D01*
X149970600Y-152474800D02*
X147938600Y-150442800D01*
X152256600Y-152474800D02*
X149970600Y-152474800D01*
X152764600Y-151966800D02*
X152256600Y-152474800D01*
X152764600Y-147902800D02*
X152764600Y-151966800D01*
X155812600Y-144854800D02*
X152764600Y-147902800D01*
X158845600Y-162634800D02*
X158845600Y-161730800D01*
X155812600Y-162253800D02*
X146795600Y-162253800D01*
X156955600Y-161110800D02*
X155812600Y-162253800D01*
X158225600Y-161110800D02*
X156955600Y-161110800D01*
X158845600Y-161730800D02*
X158225600Y-161110800D01*
X144407600Y-158214800D02*
X143215600Y-158214800D01*
X145144600Y-158951800D02*
X144407600Y-158214800D01*
X145144600Y-160602800D02*
X145144600Y-158951800D01*
X146795600Y-162253800D02*
X145144600Y-160602800D01*
X140215600Y-149274800D02*
X138819600Y-149274800D01*
X138286600Y-149807800D02*
X138159600Y-149807800D01*
X138819600Y-149274800D02*
X138286600Y-149807800D01*
X160115600Y-162634800D02*
X160115600Y-163792800D01*
X130539600Y-152728800D02*
X129015600Y-151204800D01*
X130539600Y-156919800D02*
X130539600Y-152728800D01*
X137651600Y-164031800D02*
X130539600Y-156919800D01*
X159876600Y-164031800D02*
X137651600Y-164031800D01*
X160115600Y-163792800D02*
X159876600Y-164031800D01*
D52*
X63955600Y-97430800D02*
X62609600Y-96084800D01*
X63955600Y-98784800D02*
X63955600Y-97430800D01*
D51*
X87247600Y-86432800D02*
X87247600Y-92020800D01*
X83945600Y-83130800D02*
X87247600Y-86432800D01*
X83945600Y-69668800D02*
X83945600Y-83130800D01*
X81405600Y-67128800D02*
X83945600Y-69668800D01*
X81405600Y-55848002D02*
X81405600Y-67128800D01*
X79881600Y-54324002D02*
X81405600Y-55848002D01*
X79881600Y-54174800D02*
X79881600Y-54324002D01*
X79881600Y-124174800D02*
X79881600Y-124324002D01*
X79881600Y-124324002D02*
X81405600Y-125848002D01*
X81405600Y-125848002D02*
X81405600Y-137128800D01*
X81405600Y-137128800D02*
X83945600Y-139668800D01*
X83945600Y-139668800D02*
X83945600Y-153130800D01*
X83945600Y-153130800D02*
X87247600Y-156432800D01*
X87247600Y-156432800D02*
X87247600Y-162020800D01*
D52*
X63955600Y-168784800D02*
X63955600Y-167430800D01*
X63955600Y-167430800D02*
X62609600Y-166084800D01*
D51*
X85769599Y-75048799D02*
X85469600Y-74748800D01*
X86579202Y-75858402D02*
X85769599Y-75048799D01*
X89451021Y-75467751D02*
X89060370Y-75858402D01*
X89060370Y-75858402D02*
X86579202Y-75858402D01*
D52*
X84961600Y-44776800D02*
X84961600Y-37156800D01*
D51*
X85977600Y-45792800D02*
X88263600Y-48078800D01*
X84961600Y-44776800D02*
X85977600Y-45792800D01*
X88263600Y-48078800D02*
X88263600Y-55444800D01*
X88263600Y-55444800D02*
X89451021Y-56632221D01*
X89451021Y-56632221D02*
X89451021Y-75467751D01*
D52*
X85251600Y-44216800D02*
X85251600Y-37716800D01*
X85977600Y-44942800D02*
X85251600Y-44216800D01*
X85977600Y-45792800D02*
X85977600Y-44942800D01*
X85977600Y-115792800D02*
X85977600Y-114942800D01*
X85977600Y-114942800D02*
X85251600Y-114216800D01*
X85251600Y-114216800D02*
X85251600Y-107716800D01*
D51*
X89451021Y-126632221D02*
X89451021Y-145467751D01*
X88263600Y-125444800D02*
X89451021Y-126632221D01*
X88263600Y-118078800D02*
X88263600Y-125444800D01*
X84961600Y-114776800D02*
X85977600Y-115792800D01*
X85977600Y-115792800D02*
X88263600Y-118078800D01*
D52*
X84961600Y-114776800D02*
X84961600Y-107156800D01*
D51*
X89060370Y-145858402D02*
X86579202Y-145858402D01*
X89451021Y-145467751D02*
X89060370Y-145858402D01*
X86579202Y-145858402D02*
X85769599Y-145048799D01*
X85769599Y-145048799D02*
X85469600Y-144748800D01*
D52*
X73353600Y-95322800D02*
X73353600Y-93958800D01*
X73353600Y-101578800D02*
X73353600Y-95322800D01*
D51*
X75657600Y-93958800D02*
X81913600Y-87702800D01*
X81913600Y-87702800D02*
X81913600Y-73986800D01*
X81913600Y-73986800D02*
X79881600Y-71954800D01*
X73353600Y-93958800D02*
X75657600Y-93958800D01*
D52*
X73353600Y-94978800D02*
X72987600Y-94612800D01*
X73353600Y-95322800D02*
X73353600Y-94978800D01*
X73353600Y-165322800D02*
X73353600Y-164978800D01*
X73353600Y-164978800D02*
X72987600Y-164612800D01*
D51*
X73353600Y-163958800D02*
X75657600Y-163958800D01*
X81913600Y-143986800D02*
X79881600Y-141954800D01*
X81913600Y-157702800D02*
X81913600Y-143986800D01*
X75657600Y-163958800D02*
X81913600Y-157702800D01*
D52*
X73353600Y-171578800D02*
X73353600Y-165322800D01*
X73353600Y-165322800D02*
X73353600Y-163958800D01*
X84783600Y-101324800D02*
X84783600Y-93704800D01*
D51*
X84783600Y-85492800D02*
X82675600Y-83384800D01*
X82675600Y-83384800D02*
X82675600Y-72208800D01*
X82675600Y-72208800D02*
X79881600Y-69414800D01*
X84783600Y-93704800D02*
X84783600Y-85492800D01*
D52*
X84997600Y-94612800D02*
X84997600Y-101112800D01*
X84997600Y-164612800D02*
X84997600Y-171112800D01*
D51*
X84783600Y-163704800D02*
X84783600Y-155492800D01*
X82675600Y-142208800D02*
X79881600Y-139414800D01*
X82675600Y-153384800D02*
X82675600Y-142208800D01*
X84783600Y-155492800D02*
X82675600Y-153384800D01*
D52*
X84783600Y-171324800D02*
X84783600Y-163704800D01*
D51*
X82751600Y-101494800D02*
X83945600Y-102688800D01*
X83945600Y-102688800D02*
X85215600Y-102688800D01*
X85215600Y-102688800D02*
X86231600Y-101672800D01*
X86231600Y-101672800D02*
X86231600Y-86178800D01*
X86231600Y-86178800D02*
X83078802Y-83026002D01*
X83078802Y-83026002D02*
X83078802Y-70072002D01*
X83078802Y-70072002D02*
X79881600Y-66874800D01*
X82751600Y-101418800D02*
X82751600Y-101494800D01*
X82751600Y-99038800D02*
X82751600Y-101418800D01*
D52*
X82751600Y-99804800D02*
X82115600Y-99168800D01*
X82751600Y-101418800D02*
X82751600Y-99804800D01*
X82751600Y-171418800D02*
X82751600Y-169804800D01*
X82751600Y-169804800D02*
X82115600Y-169168800D01*
D51*
X82751600Y-169038800D02*
X82751600Y-171418800D01*
X82751600Y-171418800D02*
X82751600Y-171494800D01*
X83078802Y-140072002D02*
X79881600Y-136874800D01*
X83078802Y-153026002D02*
X83078802Y-140072002D01*
X86231600Y-156178800D02*
X83078802Y-153026002D01*
X86231600Y-171672800D02*
X86231600Y-156178800D01*
X85215600Y-172688800D02*
X86231600Y-171672800D01*
X83945600Y-172688800D02*
X85215600Y-172688800D01*
X82751600Y-171494800D02*
X83945600Y-172688800D01*
X79881600Y-64334800D02*
X79881600Y-64588800D01*
X78611600Y-87684800D02*
X75131600Y-91164800D01*
X79881600Y-64588800D02*
X78611600Y-65858800D01*
X78611600Y-65858800D02*
X78611600Y-73732800D01*
X78611600Y-73732800D02*
X78611600Y-73986800D01*
X78611600Y-73986800D02*
X78611600Y-87684800D01*
X78611600Y-143986800D02*
X78611600Y-157684800D01*
X78611600Y-143732800D02*
X78611600Y-143986800D01*
X78611600Y-135858800D02*
X78611600Y-143732800D01*
X79881600Y-134588800D02*
X78611600Y-135858800D01*
X78611600Y-157684800D02*
X75131600Y-161164800D01*
X79881600Y-134334800D02*
X79881600Y-134588800D01*
M02*
