G04 #@! TF.FileFunction,Copper,L2,Bot,Signal*
%FSLAX46Y46*%
G04 Gerber Fmt 4.6, Leading zero omitted, Abs format (unit mm)*
G04 Created by KiCad (PCBNEW 4.0.2+dfsg1-stable) date 2017年07月20日 15時33分43秒*
%MOMM*%
G01*
G04 APERTURE LIST*
%ADD10C,0.100000*%
%ADD11C,1.524000*%
%ADD12R,2.032000X1.727200*%
%ADD13O,2.032000X1.727200*%
%ADD14R,2.000000X1.900000*%
%ADD15C,1.900000*%
%ADD16C,1.200000*%
%ADD17C,1.600200*%
%ADD18C,2.000000*%
%ADD19R,2.032000X2.032000*%
%ADD20O,2.032000X2.032000*%
%ADD21R,3.000000X3.000000*%
%ADD22O,4.000000X4.000000*%
%ADD23R,1.900000X2.000000*%
%ADD24C,1.501140*%
%ADD25C,2.999740*%
%ADD26C,1.500000*%
%ADD27C,0.900000*%
%ADD28R,1.727200X1.727200*%
%ADD29O,1.727200X1.727200*%
%ADD30R,1.300000X1.300000*%
%ADD31C,1.300000*%
%ADD32O,1.700000X2.000000*%
%ADD33R,1.727200X2.032000*%
%ADD34O,1.727200X2.032000*%
%ADD35C,1.700000*%
%ADD36C,1.397000*%
%ADD37R,3.500120X2.301240*%
%ADD38C,5.000000*%
%ADD39O,1.905000X1.117600*%
%ADD40R,1.905000X1.117600*%
%ADD41C,0.600000*%
%ADD42C,1.399540*%
%ADD43C,2.540000*%
%ADD44C,0.508000*%
%ADD45C,1.016000*%
%ADD46C,0.203200*%
%ADD47C,2.540000*%
%ADD48C,2.032000*%
%ADD49C,0.381000*%
G04 APERTURE END LIST*
D10*
D11*
X64641600Y-38934800D03*
X64641600Y-41474800D03*
X64641600Y-44014800D03*
X64641600Y-46554800D03*
X64641600Y-49094800D03*
X64641600Y-51634800D03*
X64641600Y-54174800D03*
X64641600Y-56714800D03*
X64641600Y-59254800D03*
X64641600Y-61794800D03*
X64641600Y-64334800D03*
X64641600Y-66874800D03*
X64641600Y-69414800D03*
X64641600Y-71954800D03*
X64641600Y-74494800D03*
X64641600Y-77034800D03*
X64641600Y-79574800D03*
X64641600Y-82114800D03*
X64641600Y-84654800D03*
X64641600Y-87194800D03*
X79881600Y-87194800D03*
X79881600Y-84654800D03*
X79881600Y-82114800D03*
X79881600Y-79574800D03*
X79881600Y-77034800D03*
X79881600Y-74494800D03*
X79881600Y-71954800D03*
X79881600Y-69414800D03*
X79881600Y-66874800D03*
X79881600Y-64334800D03*
X79881600Y-61794800D03*
X79881600Y-59254800D03*
X79881600Y-56714800D03*
X79881600Y-54174800D03*
X79881600Y-51634800D03*
X79881600Y-49094800D03*
X79881600Y-46554800D03*
X79881600Y-44014800D03*
X79881600Y-41474800D03*
X79881600Y-38934800D03*
X75615600Y-95794800D03*
X82115600Y-95794800D03*
X82115600Y-91294800D03*
X75615600Y-91294800D03*
X75615600Y-103668800D03*
X82115600Y-103668800D03*
X82115600Y-99168800D03*
X75615600Y-99168800D03*
X89497600Y-101112800D03*
X89497600Y-94612800D03*
X84997600Y-94612800D03*
X84997600Y-101112800D03*
X68487600Y-94612800D03*
X68487600Y-101112800D03*
X72987600Y-101112800D03*
X72987600Y-94612800D03*
X89751600Y-44216800D03*
X89751600Y-37716800D03*
X85251600Y-37716800D03*
X85251600Y-44216800D03*
X89751600Y-54376800D03*
X89751600Y-47876800D03*
X85251600Y-47876800D03*
X85251600Y-54376800D03*
D12*
X63955600Y-98784800D03*
D13*
X63955600Y-101324800D03*
X63955600Y-103864800D03*
D14*
X62355600Y-37410800D03*
D15*
X62355600Y-39950800D03*
D16*
X87163600Y-66620800D03*
X87163600Y-69160800D03*
X87163600Y-71700800D03*
X87163600Y-74240800D03*
D17*
X68705600Y-42109800D03*
X75055600Y-42109800D03*
D11*
X76071600Y-65096800D03*
X76071600Y-75256800D03*
X68959600Y-73478800D03*
X68959600Y-63318800D03*
X62355600Y-52904800D03*
X62355600Y-42744800D03*
X62609600Y-96084800D03*
X62609600Y-85924800D03*
D18*
X72515600Y-64684800D03*
X72515600Y-84684800D03*
D19*
X76325600Y-84019800D03*
D20*
X76325600Y-81479800D03*
D21*
X176443600Y-49748800D03*
D22*
X176443600Y-123408800D03*
D18*
X176443600Y-91308800D03*
X176443600Y-71308800D03*
D23*
X165173600Y-41620800D03*
D15*
X167713600Y-41620800D03*
D24*
X104083480Y-112131940D03*
X104083480Y-114671940D03*
X104083480Y-116703940D03*
X104083480Y-119243940D03*
D25*
X106750480Y-109083940D03*
X106750480Y-122799940D03*
D12*
X138085600Y-63744800D03*
D13*
X138085600Y-66284800D03*
X138085600Y-68824800D03*
X138085600Y-71364800D03*
X138085600Y-73904800D03*
X138085600Y-76444800D03*
D11*
X160093600Y-46700800D03*
X170253600Y-46700800D03*
X134005600Y-112744800D03*
X144165600Y-112744800D03*
X148505600Y-112744800D03*
X158665600Y-112744800D03*
D26*
X179999600Y-39080800D03*
X179999600Y-44160800D03*
X172379600Y-39080800D03*
X172379600Y-44160800D03*
D19*
X125897600Y-131028800D03*
D20*
X149085600Y-131244800D03*
D27*
X109465600Y-73879800D03*
X109465600Y-72609800D03*
X110735600Y-73879800D03*
X110735600Y-72609800D03*
X112005600Y-73879800D03*
X112005600Y-72609800D03*
X113275600Y-73879800D03*
X113275600Y-72609800D03*
X114545600Y-73879800D03*
X114545600Y-72609800D03*
X115815600Y-73879800D03*
X115815600Y-72609800D03*
X117085600Y-73879800D03*
X117085600Y-72609800D03*
X118355600Y-73879800D03*
X118355600Y-72609800D03*
X119625600Y-73879800D03*
X119625600Y-72609800D03*
X120895600Y-73879800D03*
X120895600Y-72609800D03*
X122165600Y-73879800D03*
X122165600Y-72609800D03*
X123435600Y-73879800D03*
X123435600Y-72609800D03*
X124705600Y-73879800D03*
X124705600Y-72609800D03*
D11*
X142545600Y-85554800D03*
X140005600Y-85554800D03*
X137465600Y-85554800D03*
X134925600Y-85554800D03*
X132385600Y-85554800D03*
X129845600Y-85554800D03*
X127305600Y-85554800D03*
X124765600Y-85554800D03*
X122225600Y-85554800D03*
X119685600Y-85554800D03*
X117145600Y-85554800D03*
X114605600Y-85554800D03*
X112065600Y-85554800D03*
X109525600Y-85554800D03*
X106985600Y-85554800D03*
X104445600Y-85554800D03*
X101905600Y-85554800D03*
X99365600Y-85554800D03*
X96825600Y-85554800D03*
X94285600Y-85554800D03*
X94285600Y-100794800D03*
X96825600Y-100794800D03*
X99365600Y-100794800D03*
X101905600Y-100794800D03*
X104445600Y-100794800D03*
X106985600Y-100794800D03*
X109525600Y-100794800D03*
X112065600Y-100794800D03*
X114605600Y-100794800D03*
X117145600Y-100794800D03*
X119685600Y-100794800D03*
X122225600Y-100794800D03*
X124765600Y-100794800D03*
X127305600Y-100794800D03*
X129845600Y-100794800D03*
X132385600Y-100794800D03*
X134925600Y-100794800D03*
X137465600Y-100794800D03*
X140005600Y-100794800D03*
X142545600Y-100794800D03*
D19*
X98465600Y-116169800D03*
D20*
X98465600Y-118709800D03*
D28*
X170220600Y-117439800D03*
D29*
X167680600Y-117439800D03*
X170220600Y-114899800D03*
X167680600Y-114899800D03*
X170220600Y-112359800D03*
X167680600Y-112359800D03*
X170220600Y-109819800D03*
X167680600Y-109819800D03*
X170220600Y-107279800D03*
X167680600Y-107279800D03*
X170220600Y-104739800D03*
X167680600Y-104739800D03*
X170220600Y-102199800D03*
X167680600Y-102199800D03*
X170220600Y-99659800D03*
X167680600Y-99659800D03*
X170220600Y-97119800D03*
X167680600Y-97119800D03*
X170220600Y-94579800D03*
X167680600Y-94579800D03*
X170220600Y-92039800D03*
X167680600Y-92039800D03*
X170220600Y-89499800D03*
X167680600Y-89499800D03*
D30*
X111997600Y-144854800D03*
D31*
X114497600Y-144854800D03*
D32*
X148065600Y-143584800D03*
X145525600Y-143584800D03*
X142985600Y-143584800D03*
X132825600Y-145108800D03*
X130285600Y-145108800D03*
X127745600Y-145108800D03*
D33*
X106155600Y-164539800D03*
D34*
X108695600Y-164539800D03*
X111235600Y-164539800D03*
X113775600Y-164539800D03*
X116315600Y-164539800D03*
D35*
X116315600Y-168984800D03*
X111235600Y-168984800D03*
X113775600Y-168984800D03*
X108695600Y-168984800D03*
X106155600Y-168984800D03*
D12*
X148065600Y-153744800D03*
D13*
X150605600Y-151204800D03*
X150605600Y-156284800D03*
D36*
X121395600Y-146124800D03*
X123935600Y-146124800D03*
D18*
X111085600Y-157544640D03*
X111085600Y-149944960D03*
D37*
X154635580Y-139994800D03*
X160035620Y-139994800D03*
D36*
X129015600Y-151204800D03*
X129015600Y-156284800D03*
X121395600Y-151204800D03*
X121395600Y-156284800D03*
D38*
X167685600Y-155214800D03*
D39*
X134095600Y-151839800D03*
D40*
X134095600Y-153109800D03*
D39*
X134095600Y-154379800D03*
X134095600Y-155649800D03*
D19*
X76325600Y-154019800D03*
D20*
X76325600Y-151479800D03*
D18*
X72515600Y-134684800D03*
X72515600Y-154684800D03*
D11*
X62609600Y-166084800D03*
X62609600Y-155924800D03*
X62355600Y-122904800D03*
X62355600Y-112744800D03*
X68959600Y-143478800D03*
X68959600Y-133318800D03*
X76071600Y-135096800D03*
X76071600Y-145256800D03*
D17*
X68705600Y-112109800D03*
X75055600Y-112109800D03*
D16*
X87163600Y-136620800D03*
X87163600Y-139160800D03*
X87163600Y-141700800D03*
X87163600Y-144240800D03*
D14*
X62355600Y-107410800D03*
D15*
X62355600Y-109950800D03*
D12*
X63955600Y-168784800D03*
D13*
X63955600Y-171324800D03*
X63955600Y-173864800D03*
D11*
X89751600Y-124376800D03*
X89751600Y-117876800D03*
X85251600Y-117876800D03*
X85251600Y-124376800D03*
X89751600Y-114216800D03*
X89751600Y-107716800D03*
X85251600Y-107716800D03*
X85251600Y-114216800D03*
X68487600Y-164612800D03*
X68487600Y-171112800D03*
X72987600Y-171112800D03*
X72987600Y-164612800D03*
X89497600Y-171112800D03*
X89497600Y-164612800D03*
X84997600Y-164612800D03*
X84997600Y-171112800D03*
X75615600Y-173668800D03*
X82115600Y-173668800D03*
X82115600Y-169168800D03*
X75615600Y-169168800D03*
X75615600Y-165794800D03*
X82115600Y-165794800D03*
X82115600Y-161294800D03*
X75615600Y-161294800D03*
X64641600Y-108934800D03*
X64641600Y-111474800D03*
X64641600Y-114014800D03*
X64641600Y-116554800D03*
X64641600Y-119094800D03*
X64641600Y-121634800D03*
X64641600Y-124174800D03*
X64641600Y-126714800D03*
X64641600Y-129254800D03*
X64641600Y-131794800D03*
X64641600Y-134334800D03*
X64641600Y-136874800D03*
X64641600Y-139414800D03*
X64641600Y-141954800D03*
X64641600Y-144494800D03*
X64641600Y-147034800D03*
X64641600Y-149574800D03*
X64641600Y-152114800D03*
X64641600Y-154654800D03*
X64641600Y-157194800D03*
X79881600Y-157194800D03*
X79881600Y-154654800D03*
X79881600Y-152114800D03*
X79881600Y-149574800D03*
X79881600Y-147034800D03*
X79881600Y-144494800D03*
X79881600Y-141954800D03*
X79881600Y-139414800D03*
X79881600Y-136874800D03*
X79881600Y-134334800D03*
X79881600Y-131794800D03*
X79881600Y-129254800D03*
X79881600Y-126714800D03*
X79881600Y-124174800D03*
X79881600Y-121634800D03*
X79881600Y-119094800D03*
X79881600Y-116554800D03*
X79881600Y-114014800D03*
X79881600Y-111474800D03*
X79881600Y-108934800D03*
D41*
X62609600Y-60524800D03*
X144763600Y-149426800D03*
D42*
X155085600Y-142744800D03*
X135873600Y-141044800D03*
D43*
X159552600Y-104104800D03*
D41*
X62609600Y-130524800D03*
X78085600Y-60644800D03*
X66673600Y-73478800D03*
X139048600Y-150569800D03*
D42*
X116061600Y-155268800D03*
D43*
X153075600Y-109946800D03*
D41*
X66673600Y-143478800D03*
X78085600Y-130644800D03*
X88771600Y-75256800D03*
X123611600Y-103088800D03*
X88771600Y-145256800D03*
X109585600Y-83244800D03*
X160003600Y-138504800D03*
X171560600Y-143584800D03*
X166861600Y-143076800D03*
X154669600Y-160729800D03*
X146922600Y-160856800D03*
X153145600Y-160729800D03*
X138159600Y-149807800D03*
X87247600Y-92020800D03*
X87247600Y-162020800D03*
X85469600Y-74748800D03*
X85469600Y-144748800D03*
D44*
X79721600Y-41634800D02*
X79881600Y-41474800D01*
X68705600Y-38934800D02*
X68705600Y-42109800D01*
X67181600Y-37410800D02*
X68705600Y-38934800D01*
X62355600Y-37410800D02*
X67181600Y-37410800D01*
X78103600Y-41474800D02*
X77087600Y-40458800D01*
X77087600Y-40458800D02*
X70356600Y-40458800D01*
X70356600Y-40458800D02*
X68705600Y-42109800D01*
X79881600Y-41474800D02*
X78103600Y-41474800D01*
X71595600Y-65604800D02*
X72515600Y-64684800D01*
X67943600Y-65604800D02*
X71595600Y-65604800D01*
X66927600Y-64588800D02*
X67943600Y-65604800D01*
X66927600Y-60524800D02*
X66927600Y-64588800D01*
X62609600Y-60524800D02*
X66927600Y-60524800D01*
X82421600Y-69160800D02*
X81405600Y-68144800D01*
X81405600Y-68144800D02*
X77087600Y-68144800D01*
X77087600Y-68144800D02*
X73627600Y-64684800D01*
X73627600Y-64684800D02*
X72515600Y-64684800D01*
X84199600Y-69160800D02*
X82421600Y-69160800D01*
X86739600Y-66620800D02*
X84199600Y-69160800D01*
X87163600Y-66620800D02*
X86739600Y-66620800D01*
D45*
X167680600Y-112359800D02*
X159050600Y-112359800D01*
X159050600Y-112359800D02*
X158665600Y-112744800D01*
X96825600Y-85554800D02*
X96825600Y-76984800D01*
X96825600Y-76984800D02*
X97085600Y-76724800D01*
X142545600Y-100794800D02*
X140005600Y-100794800D01*
X154135600Y-100794800D02*
X142545600Y-100794800D01*
D44*
X123435600Y-72609800D02*
X123435600Y-65894800D01*
X123435600Y-65894800D02*
X123085600Y-66244800D01*
X123085600Y-66244800D02*
X123085600Y-66744800D01*
X123085600Y-66744800D02*
X123085600Y-66244800D01*
D45*
X98585600Y-93244800D02*
X98585600Y-89244800D01*
X95424740Y-109083940D02*
X92585600Y-106244800D01*
X92585600Y-106244800D02*
X92585600Y-99244800D01*
X92585600Y-99244800D02*
X98585600Y-93244800D01*
X106750480Y-109083940D02*
X95424740Y-109083940D01*
X155085600Y-69244800D02*
X155085600Y-71244800D01*
X155085600Y-71244800D02*
X155085600Y-71364800D01*
X143085600Y-57244800D02*
X155085600Y-69244800D01*
X132085600Y-57244800D02*
X143085600Y-57244800D01*
X122585600Y-66744800D02*
X123085600Y-66244800D01*
X123085600Y-66244800D02*
X132085600Y-57244800D01*
X98585600Y-66744800D02*
X122585600Y-66744800D01*
X97085600Y-68244800D02*
X98585600Y-66744800D01*
X97085600Y-76724800D02*
X97085600Y-68244800D01*
X96825600Y-76984800D02*
X97085600Y-76724800D01*
X96825600Y-87484800D02*
X96825600Y-76984800D01*
X98585600Y-89244800D02*
X96825600Y-87484800D01*
X138085600Y-71364800D02*
X148249600Y-71364800D01*
X148249600Y-71364800D02*
X155085600Y-71364800D01*
X155085600Y-71364800D02*
X165173600Y-71364800D01*
X165173600Y-71364800D02*
X165085600Y-71276800D01*
X165085600Y-71276800D02*
X165085600Y-71244800D01*
X165085600Y-71244800D02*
X165173600Y-71244800D01*
X165173600Y-41620800D02*
X165173600Y-71244800D01*
X165173600Y-71244800D02*
X165173600Y-74332800D01*
X176443600Y-85602800D02*
X176443600Y-91308800D01*
X165173600Y-74332800D02*
X176443600Y-85602800D01*
D46*
X145843100Y-148347300D02*
X145843100Y-146442300D01*
X144763600Y-149426800D02*
X145843100Y-148347300D01*
D47*
X155085600Y-142744800D02*
X155215600Y-142744800D01*
X155215600Y-142744800D02*
X167685600Y-155214800D01*
X150605600Y-156284800D02*
X157590600Y-156284800D01*
X157590600Y-156284800D02*
X158660600Y-155214800D01*
X158660600Y-155214800D02*
X167685600Y-155214800D01*
D45*
X153272600Y-142568800D02*
X153145600Y-142568800D01*
X153272600Y-142582800D02*
X153272600Y-142568800D01*
X153145600Y-142709800D02*
X153272600Y-142582800D01*
X155050600Y-142709800D02*
X153145600Y-142709800D01*
X155085600Y-142744800D02*
X155050600Y-142709800D01*
D48*
X153145600Y-147394800D02*
X153145600Y-142568800D01*
D45*
X152891600Y-147648800D02*
X153145600Y-147394800D01*
X147049600Y-147648800D02*
X152891600Y-147648800D01*
X145525600Y-146124800D02*
X145843100Y-146442300D01*
X145843100Y-146442300D02*
X147049600Y-147648800D01*
D48*
X153145600Y-142568800D02*
X153145600Y-141484780D01*
X153145600Y-141484780D02*
X154635580Y-139994800D01*
D45*
X113775600Y-164539800D02*
X113775600Y-162634800D01*
X108441600Y-152588960D02*
X111085600Y-149944960D01*
X108441600Y-158316800D02*
X108441600Y-152588960D01*
X110473600Y-160348800D02*
X108441600Y-158316800D01*
X111489600Y-160348800D02*
X110473600Y-160348800D01*
X113775600Y-162634800D02*
X111489600Y-160348800D01*
X140445600Y-143584800D02*
X138413600Y-143584800D01*
X138413600Y-143584800D02*
X135873600Y-141044800D01*
X137905600Y-143584800D02*
X140445600Y-143584800D01*
X142985600Y-146124800D02*
X145525600Y-146124800D01*
X140445600Y-143584800D02*
X142985600Y-146124800D01*
X142985600Y-143584800D02*
X145525600Y-146124800D01*
X116315600Y-168984800D02*
X116315600Y-164539800D01*
X116315600Y-164539800D02*
X113775600Y-164539800D01*
X142985600Y-143584800D02*
X137905600Y-143584800D01*
X137905600Y-143584800D02*
X132825600Y-145108800D01*
X158665600Y-104991800D02*
X158665600Y-105324800D01*
X159552600Y-104104800D02*
X158665600Y-104991800D01*
X158665600Y-112744800D02*
X158665600Y-105324800D01*
X158665600Y-105324800D02*
X154135600Y-100794800D01*
D44*
X87163600Y-136620800D02*
X86739600Y-136620800D01*
X86739600Y-136620800D02*
X84199600Y-139160800D01*
X84199600Y-139160800D02*
X82421600Y-139160800D01*
X73627600Y-134684800D02*
X72515600Y-134684800D01*
X77087600Y-138144800D02*
X73627600Y-134684800D01*
X81405600Y-138144800D02*
X77087600Y-138144800D01*
X82421600Y-139160800D02*
X81405600Y-138144800D01*
X62609600Y-130524800D02*
X66927600Y-130524800D01*
X66927600Y-130524800D02*
X66927600Y-134588800D01*
X66927600Y-134588800D02*
X67943600Y-135604800D01*
X67943600Y-135604800D02*
X71595600Y-135604800D01*
X71595600Y-135604800D02*
X72515600Y-134684800D01*
X79881600Y-111474800D02*
X78103600Y-111474800D01*
X70356600Y-110458800D02*
X68705600Y-112109800D01*
X77087600Y-110458800D02*
X70356600Y-110458800D01*
X78103600Y-111474800D02*
X77087600Y-110458800D01*
X62355600Y-107410800D02*
X67181600Y-107410800D01*
X67181600Y-107410800D02*
X68705600Y-108934800D01*
X68705600Y-108934800D02*
X68705600Y-112109800D01*
X79721600Y-111634800D02*
X79881600Y-111474800D01*
X86993600Y-64588800D02*
X88517600Y-66112800D01*
X86485600Y-64588800D02*
X86993600Y-64588800D01*
X84961600Y-66112800D02*
X86485600Y-64588800D01*
X84961600Y-66620800D02*
X84961600Y-66112800D01*
X84961600Y-66620800D02*
X81405600Y-63064800D01*
X81405600Y-63064800D02*
X81405600Y-61286800D01*
X81405600Y-61286800D02*
X80643600Y-60524800D01*
X80643600Y-60524800D02*
X77849600Y-60524800D01*
X77849600Y-60524800D02*
X78085600Y-60644800D01*
X66419600Y-73478800D02*
X66673600Y-73478800D01*
X68959600Y-73478800D02*
X66419600Y-73478800D01*
X87163600Y-69160800D02*
X86739600Y-69160800D01*
X79881600Y-87194800D02*
X64641600Y-87194800D01*
X88517600Y-66112800D02*
X88517600Y-67806800D01*
X88517600Y-67806800D02*
X87163600Y-69160800D01*
D45*
X134005600Y-112744800D02*
X107006458Y-112744800D01*
X98465600Y-114391800D02*
X98465600Y-116169800D01*
X102275600Y-110581800D02*
X98465600Y-114391800D01*
X104843458Y-110581800D02*
X102275600Y-110581800D01*
X107006458Y-112744800D02*
X104843458Y-110581800D01*
X137465600Y-100794800D02*
X137465600Y-106864800D01*
X134005600Y-110324800D02*
X134005600Y-112744800D01*
D46*
X130285600Y-145108800D02*
X130285600Y-145235800D01*
X130285600Y-145235800D02*
X133587600Y-148537800D01*
X139048600Y-149553800D02*
X139048600Y-150569800D01*
X138032600Y-148537800D02*
X139048600Y-149553800D01*
X133587600Y-148537800D02*
X138032600Y-148537800D01*
D45*
X116315600Y-149172800D02*
X116315600Y-155014800D01*
X116315600Y-155014800D02*
X116061600Y-155268800D01*
X130285600Y-145108800D02*
X130285600Y-146124800D01*
X116315600Y-149172800D02*
X111997600Y-144854800D01*
X127237600Y-149172800D02*
X116315600Y-149172800D01*
X130285600Y-146124800D02*
X127999600Y-148410800D01*
X127999600Y-148410800D02*
X127237600Y-149172800D01*
X130285600Y-145108800D02*
X130285600Y-141933800D01*
X148065600Y-140536800D02*
X148065600Y-143584800D01*
X146478100Y-138949300D02*
X148065600Y-140536800D01*
X133270100Y-138949300D02*
X146478100Y-138949300D01*
X130285600Y-141933800D02*
X133270100Y-138949300D01*
X135907600Y-108422800D02*
X151551600Y-108422800D01*
X151551600Y-108422800D02*
X153075600Y-109946800D01*
X137465600Y-106864800D02*
X135907600Y-108422800D01*
X135907600Y-108422800D02*
X134005600Y-110324800D01*
D44*
X88517600Y-137806800D02*
X87163600Y-139160800D01*
X88517600Y-136112800D02*
X88517600Y-137806800D01*
X79881600Y-157194800D02*
X64641600Y-157194800D01*
X87163600Y-139160800D02*
X86739600Y-139160800D01*
X68959600Y-143478800D02*
X66419600Y-143478800D01*
X66419600Y-143478800D02*
X66673600Y-143478800D01*
X77849600Y-130524800D02*
X78085600Y-130644800D01*
X80643600Y-130524800D02*
X77849600Y-130524800D01*
X81405600Y-131286800D02*
X80643600Y-130524800D01*
X81405600Y-133064800D02*
X81405600Y-131286800D01*
X84961600Y-136620800D02*
X81405600Y-133064800D01*
X84961600Y-136620800D02*
X84961600Y-136112800D01*
X84961600Y-136112800D02*
X86485600Y-134588800D01*
X86485600Y-134588800D02*
X86993600Y-134588800D01*
X86993600Y-134588800D02*
X88517600Y-136112800D01*
D45*
X176443600Y-71308800D02*
X176443600Y-49748800D01*
D46*
X78585600Y-59044800D02*
X77785600Y-59844800D01*
X77785600Y-59844800D02*
X66685600Y-59844800D01*
X66685600Y-59844800D02*
X65585600Y-58744800D01*
X65585600Y-58744800D02*
X65585600Y-58444800D01*
X65331999Y-58191199D02*
X64339999Y-58191199D01*
X62355600Y-56206800D02*
X62355600Y-52904800D01*
X64339999Y-58191199D02*
X62355600Y-56206800D01*
X78585600Y-58244800D02*
X78585600Y-59044800D01*
X65585600Y-58444800D02*
X65331999Y-58191199D01*
X79881600Y-56948800D02*
X78585600Y-58244800D01*
X79881600Y-56714800D02*
X79881600Y-56948800D01*
X79881600Y-126714800D02*
X79881600Y-126948800D01*
X79881600Y-126948800D02*
X78585600Y-128244800D01*
X65585600Y-128444800D02*
X65331999Y-128191199D01*
X78585600Y-128244800D02*
X78585600Y-129044800D01*
X64339999Y-128191199D02*
X62355600Y-126206800D01*
X62355600Y-126206800D02*
X62355600Y-122904800D01*
X65331999Y-128191199D02*
X64339999Y-128191199D01*
X65585600Y-128744800D02*
X65585600Y-128444800D01*
X66685600Y-129844800D02*
X65585600Y-128744800D01*
X77785600Y-129844800D02*
X66685600Y-129844800D01*
X78585600Y-129044800D02*
X77785600Y-129844800D01*
D44*
X70483600Y-63318800D02*
X71245600Y-62556800D01*
X71245600Y-62556800D02*
X73531600Y-62556800D01*
X73531600Y-62556800D02*
X76071600Y-65096800D01*
X68959600Y-63318800D02*
X70483600Y-63318800D01*
X81499600Y-96244800D02*
X75131600Y-96244800D01*
X82751600Y-96244800D02*
X81499600Y-96244800D01*
X70559600Y-96244800D02*
X68273600Y-93958800D01*
X73023600Y-96244800D02*
X70559600Y-96244800D01*
X75131600Y-96244800D02*
X73023600Y-96244800D01*
X88499600Y-95068800D02*
X89863600Y-93704800D01*
X87323600Y-96244800D02*
X88499600Y-95068800D01*
X82751600Y-96244800D02*
X87323600Y-96244800D01*
X75131600Y-104118800D02*
X74971600Y-103958800D01*
X76485600Y-104118800D02*
X75131600Y-104118800D01*
X81245600Y-104118800D02*
X76485600Y-104118800D01*
X82751600Y-104118800D02*
X81245600Y-104118800D01*
X75131600Y-104118800D02*
X75615600Y-103668800D01*
X75581600Y-103668800D02*
X75131600Y-104118800D01*
X75615600Y-103668800D02*
X75581600Y-103668800D01*
X68927600Y-94612800D02*
X70559600Y-96244800D01*
X68487600Y-94612800D02*
X68927600Y-94612800D01*
X75615600Y-102486800D02*
X74293600Y-101164800D01*
X74293600Y-101164800D02*
X74293600Y-99894800D01*
X74293600Y-99894800D02*
X73023600Y-98624800D01*
X73023600Y-98624800D02*
X73023600Y-96244800D01*
X75615600Y-103668800D02*
X75615600Y-102486800D01*
X75165600Y-96244800D02*
X75615600Y-95794800D01*
X73023600Y-96244800D02*
X75165600Y-96244800D01*
X81949600Y-95794800D02*
X81499600Y-96244800D01*
X82115600Y-95794800D02*
X81949600Y-95794800D01*
X88263600Y-95068800D02*
X88499600Y-95068800D01*
X88499600Y-95068800D02*
X88263600Y-95068800D01*
X88955600Y-94612800D02*
X88499600Y-95068800D01*
X89497600Y-94612800D02*
X88955600Y-94612800D01*
D46*
X81695600Y-103668800D02*
X81245600Y-104118800D01*
X82115600Y-103668800D02*
X81695600Y-103668800D01*
X76035600Y-103668800D02*
X76485600Y-104118800D01*
X75615600Y-103668800D02*
X76035600Y-103668800D01*
X75615600Y-173668800D02*
X76035600Y-173668800D01*
X76035600Y-173668800D02*
X76485600Y-174118800D01*
X82115600Y-173668800D02*
X81695600Y-173668800D01*
X81695600Y-173668800D02*
X81245600Y-174118800D01*
D44*
X89497600Y-164612800D02*
X88955600Y-164612800D01*
X88955600Y-164612800D02*
X88499600Y-165068800D01*
X88499600Y-165068800D02*
X88263600Y-165068800D01*
X88263600Y-165068800D02*
X88499600Y-165068800D01*
X82115600Y-165794800D02*
X81949600Y-165794800D01*
X81949600Y-165794800D02*
X81499600Y-166244800D01*
X73023600Y-166244800D02*
X75165600Y-166244800D01*
X75165600Y-166244800D02*
X75615600Y-165794800D01*
X75615600Y-173668800D02*
X75615600Y-172486800D01*
X73023600Y-168624800D02*
X73023600Y-166244800D01*
X74293600Y-169894800D02*
X73023600Y-168624800D01*
X74293600Y-171164800D02*
X74293600Y-169894800D01*
X75615600Y-172486800D02*
X74293600Y-171164800D01*
X68487600Y-164612800D02*
X68927600Y-164612800D01*
X68927600Y-164612800D02*
X70559600Y-166244800D01*
X75615600Y-173668800D02*
X75581600Y-173668800D01*
X75581600Y-173668800D02*
X75131600Y-174118800D01*
X75131600Y-174118800D02*
X75615600Y-173668800D01*
X82751600Y-174118800D02*
X81245600Y-174118800D01*
X81245600Y-174118800D02*
X76485600Y-174118800D01*
X76485600Y-174118800D02*
X75131600Y-174118800D01*
X75131600Y-174118800D02*
X74971600Y-173958800D01*
X82751600Y-166244800D02*
X87323600Y-166244800D01*
X87323600Y-166244800D02*
X88499600Y-165068800D01*
X88499600Y-165068800D02*
X89863600Y-163704800D01*
X75131600Y-166244800D02*
X73023600Y-166244800D01*
X73023600Y-166244800D02*
X70559600Y-166244800D01*
X70559600Y-166244800D02*
X68273600Y-163958800D01*
X82751600Y-166244800D02*
X81499600Y-166244800D01*
X81499600Y-166244800D02*
X75131600Y-166244800D01*
X68959600Y-133318800D02*
X70483600Y-133318800D01*
X73531600Y-132556800D02*
X76071600Y-135096800D01*
X71245600Y-132556800D02*
X73531600Y-132556800D01*
X70483600Y-133318800D02*
X71245600Y-132556800D01*
D46*
X88771600Y-75256800D02*
X87247600Y-75256800D01*
X85469600Y-77034800D02*
X79881600Y-77034800D01*
X87247600Y-75256800D02*
X85469600Y-77034800D01*
X106212600Y-103215800D02*
X123103600Y-103215800D01*
X123103600Y-103215800D02*
X123230600Y-103088800D01*
X123230600Y-103088800D02*
X123611600Y-103088800D01*
X104445600Y-101448800D02*
X106212600Y-103215800D01*
X104445600Y-100794800D02*
X104445600Y-101448800D01*
X87247600Y-145256800D02*
X85469600Y-147034800D01*
X85469600Y-147034800D02*
X79881600Y-147034800D01*
X88771600Y-145256800D02*
X87247600Y-145256800D01*
D44*
X114605600Y-100794800D02*
X114605600Y-100724800D01*
D46*
X101905600Y-85554800D02*
X101905600Y-87224800D01*
X168950600Y-106009800D02*
X170220600Y-104739800D01*
X168950600Y-110327800D02*
X168950600Y-106009800D01*
X168188600Y-111089800D02*
X168950600Y-110327800D01*
X165902600Y-111089800D02*
X168188600Y-111089800D01*
X162727600Y-107914800D02*
X165902600Y-111089800D01*
X162727600Y-101564800D02*
X162727600Y-107914800D01*
X154853600Y-93690800D02*
X162727600Y-101564800D01*
X108371600Y-93690800D02*
X154853600Y-93690800D01*
X101905600Y-87224800D02*
X108371600Y-93690800D01*
D44*
X109465600Y-73879800D02*
X109465600Y-75364800D01*
X101905600Y-82924800D02*
X101905600Y-85554800D01*
X109465600Y-75364800D02*
X101905600Y-82924800D01*
D46*
X167680600Y-109819800D02*
X165648600Y-109819800D01*
X117026600Y-93055800D02*
X109525600Y-85554800D01*
X165648600Y-109819800D02*
X163616600Y-107787800D01*
D44*
X112005600Y-72609800D02*
X112005600Y-72164800D01*
D46*
X155361600Y-93055800D02*
X117026600Y-93055800D01*
X163616600Y-101310800D02*
X155361600Y-93055800D01*
X163616600Y-107787800D02*
X163616600Y-101310800D01*
X110784600Y-84673800D02*
X110784600Y-86243586D01*
X110403600Y-84292800D02*
X110784600Y-84673800D01*
X108752600Y-84292800D02*
X110403600Y-84292800D01*
X106985600Y-85554800D02*
X107490600Y-85554800D01*
X107490600Y-85554800D02*
X108752600Y-84292800D01*
X164505600Y-104104800D02*
X167680600Y-107279800D01*
X164505600Y-101056800D02*
X164505600Y-104104800D01*
X155869600Y-92420800D02*
X164505600Y-101056800D01*
X116961814Y-92420800D02*
X155869600Y-92420800D01*
X110784600Y-86243586D02*
X116961814Y-92420800D01*
D44*
X113275600Y-73879800D02*
X113275600Y-76554800D01*
X106985600Y-82844800D02*
X106985600Y-85554800D01*
X113275600Y-76554800D02*
X106985600Y-82844800D01*
D46*
X167680600Y-104739800D02*
X166918600Y-104739800D01*
X166918600Y-104739800D02*
X165140600Y-102961800D01*
X165140600Y-102961800D02*
X165140600Y-100802800D01*
X165140600Y-100802800D02*
X155869600Y-91531800D01*
X155869600Y-91531800D02*
X118150600Y-91531800D01*
X118150600Y-91531800D02*
X113324600Y-86705800D01*
D44*
X124705600Y-73879800D02*
X124705600Y-75124800D01*
D46*
X113324600Y-86705800D02*
X113324600Y-83244800D01*
D44*
X116585600Y-83244800D02*
X113324600Y-83244800D01*
X113324600Y-83244800D02*
X109585600Y-83244800D01*
X124705600Y-75124800D02*
X116585600Y-83244800D01*
D45*
X167680600Y-114899800D02*
X167680600Y-117439800D01*
X104083480Y-119243940D02*
X132983460Y-119243940D01*
X134787600Y-117439800D02*
X167680600Y-117439800D01*
X132983460Y-119243940D02*
X134787600Y-117439800D01*
D46*
X160035620Y-138536820D02*
X160035620Y-139994800D01*
X160003600Y-138504800D02*
X160035620Y-138536820D01*
X160035620Y-139994800D02*
X160335600Y-139994800D01*
X160335600Y-139994800D02*
X164835600Y-144494800D01*
X164835600Y-144494800D02*
X167335600Y-144494800D01*
X167335600Y-144494800D02*
X169515600Y-142314800D01*
D49*
X171560600Y-143584800D02*
X171560600Y-142314800D01*
X166480600Y-139774800D02*
X167750600Y-141044800D01*
X166480600Y-139774800D02*
X167750600Y-141044800D01*
X167750600Y-141044800D02*
X169020600Y-142314800D01*
X171560600Y-142314800D02*
X169515600Y-142314800D01*
X169515600Y-142314800D02*
X169020600Y-142314800D01*
D46*
X123935600Y-145870800D02*
X132317600Y-137488800D01*
X132317600Y-137488800D02*
X161273600Y-137488800D01*
X161273600Y-137488800D02*
X162289600Y-138504800D01*
X162289600Y-138504800D02*
X162289600Y-140536800D01*
X162289600Y-140536800D02*
X164321600Y-142568800D01*
X164321600Y-142568800D02*
X166353600Y-142568800D01*
X166353600Y-142568800D02*
X166861600Y-143076800D01*
X123935600Y-146124800D02*
X123935600Y-145870800D01*
X123935600Y-146124800D02*
X125205600Y-146124800D01*
X125205600Y-146124800D02*
X127745600Y-145108800D01*
X150859600Y-164539800D02*
X154669600Y-160729800D01*
X111085600Y-157544640D02*
X129005440Y-157544640D01*
X129005440Y-157544640D02*
X136000600Y-164539800D01*
X136000600Y-164539800D02*
X150859600Y-164539800D01*
X153145600Y-160729800D02*
X146795600Y-160729800D01*
X130158600Y-150061800D02*
X129015600Y-151204800D01*
X137905600Y-150061800D02*
X130158600Y-150061800D01*
X138159600Y-149807800D02*
X137905600Y-150061800D01*
X121395600Y-151204800D02*
X129015600Y-151204800D01*
X64133600Y-96084800D02*
X62609600Y-96084800D01*
X67689600Y-92528800D02*
X64133600Y-96084800D01*
X86739600Y-92528800D02*
X67689600Y-92528800D01*
X87247600Y-92020800D02*
X86739600Y-92528800D01*
X87247600Y-162020800D02*
X86739600Y-162528800D01*
X86739600Y-162528800D02*
X67689600Y-162528800D01*
X67689600Y-162528800D02*
X64133600Y-166084800D01*
X64133600Y-166084800D02*
X62609600Y-166084800D01*
X84961600Y-74494800D02*
X79881600Y-74494800D01*
X85469600Y-74748800D02*
X85215600Y-74494800D01*
X80135600Y-74748800D02*
X79881600Y-74494800D01*
X85215600Y-74494800D02*
X85469600Y-74748800D01*
X79881600Y-74494800D02*
X85215600Y-74494800D01*
X85469600Y-74748800D02*
X80135600Y-74748800D01*
X85215600Y-74494800D02*
X84961600Y-74494800D01*
X85215600Y-74494800D02*
X84961600Y-74494800D01*
X85215600Y-144494800D02*
X84961600Y-144494800D01*
X85215600Y-144494800D02*
X84961600Y-144494800D01*
X85469600Y-144748800D02*
X80135600Y-144748800D01*
X79881600Y-144494800D02*
X85215600Y-144494800D01*
X85215600Y-144494800D02*
X85469600Y-144748800D01*
X80135600Y-144748800D02*
X79881600Y-144494800D01*
X85469600Y-144748800D02*
X85215600Y-144494800D01*
X84961600Y-144494800D02*
X79881600Y-144494800D01*
D44*
X82751600Y-99038800D02*
X75131600Y-99038800D01*
X82751600Y-99038800D02*
X82115600Y-99168800D01*
X82621600Y-99168800D02*
X82751600Y-99038800D01*
X82115600Y-99168800D02*
X82621600Y-99168800D01*
X82115600Y-169168800D02*
X82621600Y-169168800D01*
X82621600Y-169168800D02*
X82751600Y-169038800D01*
X82751600Y-169038800D02*
X82115600Y-169168800D01*
X82751600Y-169038800D02*
X75131600Y-169038800D01*
X75131600Y-91164800D02*
X82751600Y-91164800D01*
X75131600Y-161164800D02*
X82751600Y-161164800D01*
M02*
