G04 #@! TF.FileFunction,Soldermask,Bot*
%FSLAX46Y46*%
G04 Gerber Fmt 4.6, Leading zero omitted, Abs format (unit mm)*
G04 Created by KiCad (PCBNEW 4.0.2+dfsg1-stable) date 2017年07月20日 15時33分43秒*
%MOMM*%
G01*
G04 APERTURE LIST*
%ADD10C,0.100000*%
%ADD11C,1.924000*%
%ADD12R,2.432000X2.127200*%
%ADD13O,2.432000X2.127200*%
%ADD14R,2.400000X2.300000*%
%ADD15C,2.300000*%
%ADD16C,3.600000*%
%ADD17C,1.600000*%
%ADD18C,2.000200*%
%ADD19C,2.400000*%
%ADD20C,1.900000*%
%ADD21R,2.432000X2.432000*%
%ADD22O,2.432000X2.432000*%
%ADD23R,3.400000X3.400000*%
%ADD24O,4.400000X4.400000*%
%ADD25R,2.300000X2.400000*%
%ADD26C,1.901140*%
%ADD27C,3.399740*%
%ADD28C,3.400000*%
%ADD29C,1.300000*%
%ADD30R,2.127200X2.127200*%
%ADD31O,2.127200X2.127200*%
%ADD32R,1.700000X1.700000*%
%ADD33C,1.700000*%
%ADD34O,2.100000X2.400000*%
%ADD35R,2.127200X2.432000*%
%ADD36O,2.127200X2.432000*%
%ADD37C,2.100000*%
%ADD38C,1.797000*%
%ADD39R,3.900120X2.701240*%
%ADD40C,5.400000*%
%ADD41O,2.305000X1.517600*%
%ADD42R,2.305000X1.517600*%
G04 APERTURE END LIST*
D10*
D11*
X64641600Y-38934800D03*
X64641600Y-41474800D03*
X64641600Y-44014800D03*
X64641600Y-46554800D03*
X64641600Y-49094800D03*
X64641600Y-51634800D03*
X64641600Y-54174800D03*
X64641600Y-56714800D03*
X64641600Y-59254800D03*
X64641600Y-61794800D03*
X64641600Y-64334800D03*
X64641600Y-66874800D03*
X64641600Y-69414800D03*
X64641600Y-71954800D03*
X64641600Y-74494800D03*
X64641600Y-77034800D03*
X64641600Y-79574800D03*
X64641600Y-82114800D03*
X64641600Y-84654800D03*
X64641600Y-87194800D03*
X79881600Y-87194800D03*
X79881600Y-84654800D03*
X79881600Y-82114800D03*
X79881600Y-79574800D03*
X79881600Y-77034800D03*
X79881600Y-74494800D03*
X79881600Y-71954800D03*
X79881600Y-69414800D03*
X79881600Y-66874800D03*
X79881600Y-64334800D03*
X79881600Y-61794800D03*
X79881600Y-59254800D03*
X79881600Y-56714800D03*
X79881600Y-54174800D03*
X79881600Y-51634800D03*
X79881600Y-49094800D03*
X79881600Y-46554800D03*
X79881600Y-44014800D03*
X79881600Y-41474800D03*
X79881600Y-38934800D03*
X75615600Y-95794800D03*
X82115600Y-95794800D03*
X82115600Y-91294800D03*
X75615600Y-91294800D03*
X75615600Y-103668800D03*
X82115600Y-103668800D03*
X82115600Y-99168800D03*
X75615600Y-99168800D03*
X89497600Y-101112800D03*
X89497600Y-94612800D03*
X84997600Y-94612800D03*
X84997600Y-101112800D03*
X68487600Y-94612800D03*
X68487600Y-101112800D03*
X72987600Y-101112800D03*
X72987600Y-94612800D03*
X89751600Y-44216800D03*
X89751600Y-37716800D03*
X85251600Y-37716800D03*
X85251600Y-44216800D03*
X89751600Y-54376800D03*
X89751600Y-47876800D03*
X85251600Y-47876800D03*
X85251600Y-54376800D03*
D12*
X63955600Y-98784800D03*
D13*
X63955600Y-101324800D03*
X63955600Y-103864800D03*
D14*
X62355600Y-37410800D03*
D15*
X62355600Y-39950800D03*
D16*
X86663600Y-82080800D03*
X86663600Y-58780800D03*
D17*
X87163600Y-66620800D03*
X87163600Y-69160800D03*
X87163600Y-71700800D03*
X87163600Y-74240800D03*
D18*
X68705600Y-42109800D03*
X75055600Y-42109800D03*
D11*
X76071600Y-65096800D03*
X76071600Y-75256800D03*
X68959600Y-73478800D03*
X68959600Y-63318800D03*
X62355600Y-52904800D03*
X62355600Y-42744800D03*
X62609600Y-96084800D03*
X62609600Y-85924800D03*
D19*
X72515600Y-64684800D03*
X72515600Y-84684800D03*
D20*
X62915600Y-70684800D03*
X76915600Y-62584800D03*
X76915600Y-78784800D03*
D21*
X76325600Y-84019800D03*
D22*
X76325600Y-81479800D03*
D23*
X176443600Y-49748800D03*
D24*
X176443600Y-123408800D03*
D19*
X176443600Y-91308800D03*
X176443600Y-71308800D03*
D20*
X166843600Y-85308800D03*
X180843600Y-93408800D03*
X180843600Y-77208800D03*
D25*
X165173600Y-41620800D03*
D15*
X167713600Y-41620800D03*
D26*
X104083480Y-112131940D03*
X104083480Y-114671940D03*
X104083480Y-116703940D03*
X104083480Y-119243940D03*
D27*
X106750480Y-109083940D03*
X106750480Y-122799940D03*
D12*
X138085600Y-63744800D03*
D13*
X138085600Y-66284800D03*
X138085600Y-68824800D03*
X138085600Y-71364800D03*
X138085600Y-73904800D03*
X138085600Y-76444800D03*
D11*
X160093600Y-46700800D03*
X170253600Y-46700800D03*
X134005600Y-112744800D03*
X144165600Y-112744800D03*
X148505600Y-112744800D03*
X158665600Y-112744800D03*
D20*
X179999600Y-39080800D03*
X179999600Y-44160800D03*
X172379600Y-39080800D03*
X172379600Y-44160800D03*
D21*
X125897600Y-131028800D03*
D22*
X149085600Y-131244800D03*
D28*
X117085600Y-39344800D03*
X130985600Y-73244800D03*
X103685600Y-73244800D03*
D29*
X109465600Y-73879800D03*
X109465600Y-72609800D03*
X110735600Y-73879800D03*
X110735600Y-72609800D03*
X112005600Y-73879800D03*
X112005600Y-72609800D03*
X113275600Y-73879800D03*
X113275600Y-72609800D03*
X114545600Y-73879800D03*
X114545600Y-72609800D03*
X115815600Y-73879800D03*
X115815600Y-72609800D03*
X117085600Y-73879800D03*
X117085600Y-72609800D03*
X118355600Y-73879800D03*
X118355600Y-72609800D03*
X119625600Y-73879800D03*
X119625600Y-72609800D03*
X120895600Y-73879800D03*
X120895600Y-72609800D03*
X122165600Y-73879800D03*
X122165600Y-72609800D03*
X123435600Y-73879800D03*
X123435600Y-72609800D03*
X124705600Y-73879800D03*
X124705600Y-72609800D03*
D11*
X142545600Y-85554800D03*
X140005600Y-85554800D03*
X137465600Y-85554800D03*
X134925600Y-85554800D03*
X132385600Y-85554800D03*
X129845600Y-85554800D03*
X127305600Y-85554800D03*
X124765600Y-85554800D03*
X122225600Y-85554800D03*
X119685600Y-85554800D03*
X117145600Y-85554800D03*
X114605600Y-85554800D03*
X112065600Y-85554800D03*
X109525600Y-85554800D03*
X106985600Y-85554800D03*
X104445600Y-85554800D03*
X101905600Y-85554800D03*
X99365600Y-85554800D03*
X96825600Y-85554800D03*
X94285600Y-85554800D03*
X94285600Y-100794800D03*
X96825600Y-100794800D03*
X99365600Y-100794800D03*
X101905600Y-100794800D03*
X104445600Y-100794800D03*
X106985600Y-100794800D03*
X109525600Y-100794800D03*
X112065600Y-100794800D03*
X114605600Y-100794800D03*
X117145600Y-100794800D03*
X119685600Y-100794800D03*
X122225600Y-100794800D03*
X124765600Y-100794800D03*
X127305600Y-100794800D03*
X129845600Y-100794800D03*
X132385600Y-100794800D03*
X134925600Y-100794800D03*
X137465600Y-100794800D03*
X140005600Y-100794800D03*
X142545600Y-100794800D03*
D21*
X98465600Y-116169800D03*
D22*
X98465600Y-118709800D03*
D30*
X170220600Y-117439800D03*
D31*
X167680600Y-117439800D03*
X170220600Y-114899800D03*
X167680600Y-114899800D03*
X170220600Y-112359800D03*
X167680600Y-112359800D03*
X170220600Y-109819800D03*
X167680600Y-109819800D03*
X170220600Y-107279800D03*
X167680600Y-107279800D03*
X170220600Y-104739800D03*
X167680600Y-104739800D03*
X170220600Y-102199800D03*
X167680600Y-102199800D03*
X170220600Y-99659800D03*
X167680600Y-99659800D03*
X170220600Y-97119800D03*
X167680600Y-97119800D03*
X170220600Y-94579800D03*
X167680600Y-94579800D03*
X170220600Y-92039800D03*
X167680600Y-92039800D03*
X170220600Y-89499800D03*
X167680600Y-89499800D03*
D32*
X111997600Y-144854800D03*
D33*
X114497600Y-144854800D03*
D34*
X148065600Y-143584800D03*
X145525600Y-143584800D03*
X142985600Y-143584800D03*
X132825600Y-145108800D03*
X130285600Y-145108800D03*
X127745600Y-145108800D03*
D35*
X106155600Y-164539800D03*
D36*
X108695600Y-164539800D03*
X111235600Y-164539800D03*
X113775600Y-164539800D03*
X116315600Y-164539800D03*
D37*
X116315600Y-168984800D03*
X111235600Y-168984800D03*
X113775600Y-168984800D03*
X108695600Y-168984800D03*
X106155600Y-168984800D03*
D12*
X148065600Y-153744800D03*
D13*
X150605600Y-151204800D03*
X150605600Y-156284800D03*
D38*
X121395600Y-146124800D03*
X123935600Y-146124800D03*
D19*
X111085600Y-157544640D03*
X111085600Y-149944960D03*
D39*
X154635580Y-139994800D03*
X160035620Y-139994800D03*
D38*
X129015600Y-151204800D03*
X129015600Y-156284800D03*
X121395600Y-151204800D03*
X121395600Y-156284800D03*
D40*
X167685600Y-155214800D03*
D41*
X134095600Y-151839800D03*
D42*
X134095600Y-153109800D03*
D41*
X134095600Y-154379800D03*
X134095600Y-155649800D03*
D21*
X76325600Y-154019800D03*
D22*
X76325600Y-151479800D03*
D19*
X72515600Y-134684800D03*
X72515600Y-154684800D03*
D20*
X62915600Y-140684800D03*
X76915600Y-132584800D03*
X76915600Y-148784800D03*
D11*
X62609600Y-166084800D03*
X62609600Y-155924800D03*
X62355600Y-122904800D03*
X62355600Y-112744800D03*
X68959600Y-143478800D03*
X68959600Y-133318800D03*
X76071600Y-135096800D03*
X76071600Y-145256800D03*
D18*
X68705600Y-112109800D03*
X75055600Y-112109800D03*
D16*
X86663600Y-152080800D03*
X86663600Y-128780800D03*
D17*
X87163600Y-136620800D03*
X87163600Y-139160800D03*
X87163600Y-141700800D03*
X87163600Y-144240800D03*
D14*
X62355600Y-107410800D03*
D15*
X62355600Y-109950800D03*
D12*
X63955600Y-168784800D03*
D13*
X63955600Y-171324800D03*
X63955600Y-173864800D03*
D11*
X89751600Y-124376800D03*
X89751600Y-117876800D03*
X85251600Y-117876800D03*
X85251600Y-124376800D03*
X89751600Y-114216800D03*
X89751600Y-107716800D03*
X85251600Y-107716800D03*
X85251600Y-114216800D03*
X68487600Y-164612800D03*
X68487600Y-171112800D03*
X72987600Y-171112800D03*
X72987600Y-164612800D03*
X89497600Y-171112800D03*
X89497600Y-164612800D03*
X84997600Y-164612800D03*
X84997600Y-171112800D03*
X75615600Y-173668800D03*
X82115600Y-173668800D03*
X82115600Y-169168800D03*
X75615600Y-169168800D03*
X75615600Y-165794800D03*
X82115600Y-165794800D03*
X82115600Y-161294800D03*
X75615600Y-161294800D03*
X64641600Y-108934800D03*
X64641600Y-111474800D03*
X64641600Y-114014800D03*
X64641600Y-116554800D03*
X64641600Y-119094800D03*
X64641600Y-121634800D03*
X64641600Y-124174800D03*
X64641600Y-126714800D03*
X64641600Y-129254800D03*
X64641600Y-131794800D03*
X64641600Y-134334800D03*
X64641600Y-136874800D03*
X64641600Y-139414800D03*
X64641600Y-141954800D03*
X64641600Y-144494800D03*
X64641600Y-147034800D03*
X64641600Y-149574800D03*
X64641600Y-152114800D03*
X64641600Y-154654800D03*
X64641600Y-157194800D03*
X79881600Y-157194800D03*
X79881600Y-154654800D03*
X79881600Y-152114800D03*
X79881600Y-149574800D03*
X79881600Y-147034800D03*
X79881600Y-144494800D03*
X79881600Y-141954800D03*
X79881600Y-139414800D03*
X79881600Y-136874800D03*
X79881600Y-134334800D03*
X79881600Y-131794800D03*
X79881600Y-129254800D03*
X79881600Y-126714800D03*
X79881600Y-124174800D03*
X79881600Y-121634800D03*
X79881600Y-119094800D03*
X79881600Y-116554800D03*
X79881600Y-114014800D03*
X79881600Y-111474800D03*
X79881600Y-108934800D03*
M02*
