M48
;DRILL file {KiCad 4.0.2+dfsg1-stable} date 2017年10月10日 18時50分31秒
;FORMAT={-:-/ absolute / inch / decimal}
FMAT,2
INCH,TZ
T1C0.016
T2C0.020
T3C0.030
T4C0.031
T5C0.031
T6C0.032
T7C0.036
T8C0.039
T9C0.039
T10C0.040
T11C0.050
T12C0.053
T13C0.080
T14C0.138
%
G90
G05
M72
T1
X4.9216Y-5.1423
X4.9616Y-5.1723
X5.0356Y-2.8166
X5.0636Y-2.7886
X5.0956Y-2.7556
X5.1266Y-4.4386
X5.1276Y-2.7246
X5.1446Y-2.1746
X5.1636Y-2.4116
X5.2496Y-2.2136
X5.2726Y-2.5016
X5.3026Y-2.8606
X5.3286Y-2.8376
X5.3316Y-2.2636
X5.3706Y-2.8226
X5.3746Y-2.4796
X5.3936Y-2.7886
X5.4266Y-2.6206
X5.4406Y-2.4006
X5.4736Y-2.1226
X5.5996Y-2.3686
X5.6466Y-3.1086
X5.6716Y-3.0796
X5.6986Y-3.0586
X5.7226Y-3.0366
X6.2286Y-2.6356
X6.2316Y-2.8606
X6.2596Y-2.9256
X6.2966Y-2.6286
X6.3466Y-2.6386
X6.4066Y-1.9486
X6.4066Y-2.3286
X6.4266Y-1.9986
X7.2227Y-4.0274
X7.2666Y-4.0286
X7.3166Y-4.0286
X7.3466Y-4.0486
X7.3466Y-4.0886
X7.8624Y-2.8463
X8.0396Y-5.0608
X8.079Y-5.0018
X8.4727Y-5.0018
X8.5416Y-5.0116
X8.7187Y-5.0018
X8.8762Y-5.0805
X9.388Y-2.7281
T2
X6.2766Y-2.7736
X6.2766Y-2.8236
X6.3266Y-2.7736
X6.3266Y-2.8236
X6.3766Y-2.7736
X6.3766Y-2.8236
X6.4266Y-2.7736
X6.4266Y-2.8236
X6.4766Y-2.7736
X6.4766Y-2.8236
X6.5266Y-2.7736
X6.5266Y-2.8236
X6.5766Y-2.7736
X6.5766Y-2.8236
X6.6266Y-2.7736
X6.6266Y-2.8236
X6.6766Y-2.7736
X6.6766Y-2.8236
X6.7266Y-2.7736
X6.7266Y-2.8236
X6.7766Y-2.7736
X6.7766Y-2.8236
X6.8266Y-2.7736
X6.8266Y-2.8236
X6.8766Y-2.7736
X6.8766Y-2.8236
T3
X4.0266Y-1.9486
X4.0266Y-2.5486
X4.1266Y-1.9486
X4.1266Y-2.5486
X4.2266Y-1.9486
X4.2266Y-2.5486
X4.3266Y-1.9486
X4.3266Y-2.5486
X4.4266Y-1.9486
X4.4266Y-2.5486
X4.5266Y-1.9486
X4.5266Y-2.5486
X4.6266Y-1.9486
X4.6266Y-2.5486
X4.7266Y-1.9486
X4.7266Y-2.5486
X4.8266Y-1.9486
X4.8266Y-2.5486
X4.9266Y-1.9486
X4.9266Y-2.5486
X5.0266Y-1.9486
X5.0266Y-2.5486
X5.1266Y-1.9486
X5.1266Y-2.5486
X5.2266Y-1.9486
X5.2266Y-2.5486
X5.3266Y-1.9486
X5.3266Y-2.5486
X5.4266Y-1.9486
X5.4266Y-2.5486
X5.5266Y-1.9486
X5.5266Y-2.5486
X5.6266Y-1.9486
X5.6266Y-2.5486
X5.7266Y-1.9486
X5.7266Y-2.5486
X5.8266Y-1.9486
X5.8266Y-2.5486
X5.9266Y-1.9486
X5.9266Y-2.5486
T4
X7.5266Y-4.1986
X7.5266Y-4.7986
X7.6266Y-4.1986
X7.6266Y-4.7986
X7.7266Y-4.1986
X7.7266Y-4.7986
X7.8266Y-4.1986
X7.8266Y-4.7986
X7.9266Y-4.1986
X7.9266Y-4.7986
X8.0266Y-4.1986
X8.0266Y-4.7986
X8.1266Y-4.1986
X8.1266Y-4.7986
X8.2266Y-4.1986
X8.2266Y-4.7986
X8.3266Y-4.1986
X8.3266Y-4.7986
X8.4266Y-4.1986
X8.4266Y-4.7986
X8.5266Y-4.1986
X8.5266Y-4.7986
X8.6266Y-4.1986
X8.6266Y-4.7986
X8.7266Y-4.1986
X8.7266Y-4.7986
X8.8266Y-4.1986
X8.8266Y-4.7986
X8.9266Y-4.1986
X8.9266Y-4.7986
X9.0266Y-4.1986
X9.0266Y-4.7986
X9.1266Y-4.1986
X9.1266Y-4.7986
X9.2266Y-4.1986
X9.2266Y-4.7986
X9.3266Y-4.1986
X9.3266Y-4.7986
X9.4266Y-4.1986
X9.4266Y-4.7986
T5
X6.2266Y-3.0986
X6.2266Y-3.2955
X8.1766Y-2.6919
X8.2766Y-2.6919
X8.3766Y-2.6919
X8.4766Y-2.6919
X8.5766Y-2.6919
X8.6766Y-2.6919
X8.7766Y-2.6919
T6
X4.2116Y-1.7536
X4.2766Y-3.8986
X4.6116Y-1.7536
X4.6766Y-3.8986
X5.2066Y-1.7536
X5.5366Y-2.2286
X5.5446Y-2.0936
X5.6066Y-1.7536
X5.9366Y-2.2286
X5.9446Y-2.0936
X8.3266Y-5.0986
X8.7266Y-5.0986
T7
X3.7766Y-5.0673
X3.7766Y-5.1461
X3.7766Y-5.2248
X3.7766Y-5.3035
X5.5904Y-3.4736
X5.6691Y-3.4736
X5.7479Y-3.4736
X5.8266Y-3.4736
T8
X4.0979Y-3.1592
X4.0979Y-3.4742
X5.3577Y-3.1789
X5.3577Y-3.4742
X5.7266Y-1.4736
X5.7266Y-1.7736
X5.9266Y-1.4736
X5.9266Y-1.7736
X7.6262Y-2.7478
X7.6262Y-3.5352
T9
X3.677Y-5.6173
X3.8606Y-5.5373
X3.9762Y-5.6173
X4.0666Y-4.0486
X4.3406Y-2.6536
X5.3196Y-4.9153
X5.5366Y-1.5086
X5.5366Y-1.6086
X5.7636Y-2.9776
X5.7636Y-3.2276
X6.0546Y-3.7536
X6.1736Y-1.8866
X7.8766Y-2.4033
X8.1183Y-2.5313
X8.1675Y-5.3955
X8.4766Y-5.7986
X8.4766Y-6.0486
X8.4825Y-5.3561
X8.7483Y-5.3955
X9.014Y-2.2557
X9.114Y-2.2557
T10
X4.0416Y-2.7656
X4.2183Y-1.4844
X4.2183Y-1.5844
X4.2183Y-2.9427
X4.3183Y-1.4844
X4.3183Y-1.5844
X4.3183Y-2.9427
X4.4183Y-1.4844
X4.4183Y-1.5844
X4.4183Y-2.9427
X4.5183Y-1.4844
X4.5183Y-1.5844
X4.5183Y-2.9427
X4.5703Y-1.3482
X4.6183Y-1.4844
X4.6183Y-1.5844
X4.6183Y-2.9427
X4.6703Y-1.3482
X4.7183Y-1.4844
X4.7183Y-1.5844
X4.7183Y-2.9427
X4.7703Y-1.3482
X4.8183Y-1.4844
X4.8183Y-1.5844
X4.8183Y-2.9427
X4.8853Y-5.8364
X4.9183Y-1.4844
X4.9183Y-1.5844
X4.9183Y-2.9427
X5.0002Y-1.3482
X5.0183Y-1.4844
X5.0183Y-1.5844
X5.0183Y-2.9427
X5.1002Y-1.3482
X5.1183Y-1.4844
X5.1183Y-1.5844
X5.1183Y-2.9427
X5.2002Y-1.3482
X5.2183Y-1.4844
X5.2183Y-1.5844
X5.2183Y-2.9427
X5.3183Y-1.4844
X5.3183Y-1.5844
X5.3183Y-2.9427
X5.7516Y-2.7736
X5.7982Y-5.8449
X5.8516Y-2.7736
X6.2632Y-1.5451
X6.342Y-1.7026
X6.4566Y-3.0736
X6.5266Y-3.3986
X6.5266Y-3.4986
X6.5266Y-3.5986
X6.5388Y-2.3718
X6.5566Y-3.0736
X6.6266Y-3.3986
X6.6266Y-3.4986
X6.6266Y-3.5986
X6.6566Y-3.0736
X6.7266Y-3.3986
X6.7266Y-3.4986
X6.7266Y-3.5986
X6.7566Y-3.0736
X6.8266Y-3.3986
X6.8266Y-3.4986
X6.8266Y-3.5986
X6.8566Y-3.0736
X6.9566Y-3.0736
X7.6262Y-3.0234
X7.6262Y-3.1234
X7.7766Y-2.2486
X7.8766Y-2.2486
X7.9766Y-2.2486
T11
X7.6065Y-3.8502
T12
X3.6695Y-5.0386
X3.6695Y-5.3142
X3.8837Y-5.0386
X3.8837Y-5.3142
X5.5797Y-3.3665
X5.5797Y-3.5807
X5.8553Y-3.3665
X5.8553Y-3.5807
T13
X4.1766Y-5.3246
X4.1766Y-6.1514
X4.216Y-4.4978
X6.9719Y-4.4978
X6.9719Y-5.3246
X6.9719Y-6.1514
T14
X6.775Y-1.7774
T6
X3.9325Y-6.1845G85X3.9325Y-6.0984
G05
T9
X3.6923Y-6.0234G85X3.7907Y-6.0234
G05
X3.6943Y-6.2695G85X3.7927Y-6.2695
G05
T0
M30
