G04 #@! TF.FileFunction,Soldermask,Bot*
%FSLAX46Y46*%
G04 Gerber Fmt 4.6, Leading zero omitted, Abs format (unit mm)*
G04 Created by KiCad (PCBNEW 4.0.2+dfsg1-stable) date 2017年10月10日 18時50分28秒*
%MOMM*%
G01*
G04 APERTURE LIST*
%ADD10C,0.100000*%
%ADD11C,2.400000*%
%ADD12C,1.900000*%
%ADD13C,3.600000*%
%ADD14C,1.600000*%
%ADD15R,2.127200X2.432000*%
%ADD16O,2.127200X2.432000*%
%ADD17R,2.300000X2.400000*%
%ADD18C,2.300000*%
%ADD19C,1.924000*%
%ADD20R,2.432000X2.432000*%
%ADD21O,2.432000X2.432000*%
%ADD22C,2.000200*%
%ADD23C,3.400000*%
%ADD24C,1.300000*%
%ADD25R,3.956000X3.956000*%
%ADD26C,3.956000*%
%ADD27R,2.400000X2.300000*%
%ADD28R,2.127200X2.127200*%
%ADD29O,2.127200X2.127200*%
%ADD30R,1.700000X1.700000*%
%ADD31C,1.700000*%
%ADD32R,3.399740X5.401260*%
%ADD33R,5.401260X5.401260*%
%ADD34R,2.635200X2.635200*%
%ADD35C,2.020000*%
%ADD36C,2.250000*%
%ADD37R,7.400000X3.400000*%
%ADD38R,5.400000X3.400000*%
%ADD39O,5.400000X5.400000*%
G04 APERTURE END LIST*
D10*
D11*
X193705600Y-69794800D03*
X193705600Y-89794800D03*
D12*
X184105600Y-75794800D03*
X198105600Y-67694800D03*
X198105600Y-83894800D03*
D13*
X226955600Y-68874800D03*
X203655600Y-68874800D03*
X226955600Y-92674800D03*
X203655600Y-92674800D03*
D14*
X207685600Y-68374800D03*
X210225600Y-68374800D03*
X212765600Y-68374800D03*
X215305600Y-68374800D03*
X217845600Y-68374800D03*
X220385600Y-68374800D03*
X222925600Y-68374800D03*
D15*
X202605600Y-57114800D03*
D16*
X200065600Y-57114800D03*
X197525600Y-57114800D03*
D17*
X228955600Y-57294800D03*
D18*
X231495600Y-57294800D03*
D19*
X221655600Y-129504800D03*
X211495600Y-129504800D03*
D20*
X193705600Y-76794800D03*
D21*
X193705600Y-79334800D03*
D19*
X239435600Y-106644800D03*
X236895600Y-106644800D03*
X234355600Y-106644800D03*
X231815600Y-106644800D03*
X229275600Y-106644800D03*
X226735600Y-106644800D03*
X224195600Y-106644800D03*
X221655600Y-106644800D03*
X219115600Y-106644800D03*
X216575600Y-106644800D03*
X214035600Y-106644800D03*
X211495600Y-106644800D03*
X208955600Y-106644800D03*
X206415600Y-106644800D03*
X203875600Y-106644800D03*
X201335600Y-106644800D03*
X198795600Y-106644800D03*
X196255600Y-106644800D03*
X193715600Y-106644800D03*
X191175600Y-106644800D03*
X191175600Y-121884800D03*
X193715600Y-121884800D03*
X196255600Y-121884800D03*
X198795600Y-121884800D03*
X201335600Y-121884800D03*
X203875600Y-121884800D03*
X206415600Y-121884800D03*
X208955600Y-121884800D03*
X211495600Y-121884800D03*
X214035600Y-121884800D03*
X216575600Y-121884800D03*
X219115600Y-121884800D03*
X221655600Y-121884800D03*
X224195600Y-121884800D03*
X226735600Y-121884800D03*
X229275600Y-121884800D03*
X231815600Y-121884800D03*
X234355600Y-121884800D03*
X236895600Y-121884800D03*
X239435600Y-121884800D03*
D22*
X215305600Y-147284800D03*
X215305600Y-153634800D03*
D23*
X167045600Y-37184800D03*
X153145600Y-71084800D03*
X180445600Y-71084800D03*
D24*
X174665600Y-71719800D03*
X174665600Y-70449800D03*
X173395600Y-71719800D03*
X173395600Y-70449800D03*
X172125600Y-71719800D03*
X172125600Y-70449800D03*
X170855600Y-71719800D03*
X170855600Y-70449800D03*
X169585600Y-71719800D03*
X169585600Y-70449800D03*
X168315600Y-71719800D03*
X168315600Y-70449800D03*
X167045600Y-71719800D03*
X167045600Y-70449800D03*
X165775600Y-71719800D03*
X165775600Y-70449800D03*
X164505600Y-71719800D03*
X164505600Y-70449800D03*
X163235600Y-71719800D03*
X163235600Y-70449800D03*
X161965600Y-71719800D03*
X161965600Y-70449800D03*
X160695600Y-71719800D03*
X160695600Y-70449800D03*
X159425600Y-71719800D03*
X159425600Y-70449800D03*
D25*
X106085600Y-135244800D03*
D26*
X177085600Y-135244800D03*
D27*
X140629600Y-38318800D03*
D18*
X140629600Y-40858800D03*
D15*
X163997600Y-78069800D03*
D16*
X166537600Y-78069800D03*
X169077600Y-78069800D03*
X171617600Y-78069800D03*
X174157600Y-78069800D03*
X176697600Y-78069800D03*
D19*
X132247600Y-44541800D03*
X142407600Y-44541800D03*
X150789600Y-56606800D03*
X140629600Y-56606800D03*
X140832800Y-53177800D03*
X150992800Y-53177800D03*
D12*
X150535600Y-45049800D03*
X145455600Y-45049800D03*
X150535600Y-37429800D03*
X145455600Y-37429800D03*
D20*
X124085600Y-148244800D03*
D21*
X147273600Y-148460800D03*
D19*
X102275600Y-64734800D03*
X104815600Y-64734800D03*
X107355600Y-64734800D03*
X109895600Y-64734800D03*
X112435600Y-64734800D03*
X114975600Y-64734800D03*
X117515600Y-64734800D03*
X120055600Y-64734800D03*
X122595600Y-64734800D03*
X125135600Y-64734800D03*
X127675600Y-64734800D03*
X130215600Y-64734800D03*
X132755600Y-64734800D03*
X135295600Y-64734800D03*
X137835600Y-64734800D03*
X140375600Y-64734800D03*
X142915600Y-64734800D03*
X145455600Y-64734800D03*
X147995600Y-64734800D03*
X150535600Y-64734800D03*
X150535600Y-49494800D03*
X147995600Y-49494800D03*
X145455600Y-49494800D03*
X142915600Y-49494800D03*
X140375600Y-49494800D03*
X137835600Y-49494800D03*
X135295600Y-49494800D03*
X132755600Y-49494800D03*
X130215600Y-49494800D03*
X127675600Y-49494800D03*
X125135600Y-49494800D03*
X122595600Y-49494800D03*
X120055600Y-49494800D03*
X117515600Y-49494800D03*
X114975600Y-49494800D03*
X112435600Y-49494800D03*
X109895600Y-49494800D03*
X107355600Y-49494800D03*
X104815600Y-49494800D03*
X102275600Y-49494800D03*
D20*
X148630600Y-70449800D03*
D21*
X146090600Y-70449800D03*
D28*
X135085600Y-40244800D03*
D29*
X135085600Y-37704800D03*
X132545600Y-40244800D03*
X132545600Y-37704800D03*
X130005600Y-40244800D03*
X130005600Y-37704800D03*
X127465600Y-40244800D03*
X127465600Y-37704800D03*
X124925600Y-40244800D03*
X124925600Y-37704800D03*
X122385600Y-40244800D03*
X122385600Y-37704800D03*
X119845600Y-40244800D03*
X119845600Y-37704800D03*
X117305600Y-40244800D03*
X117305600Y-37704800D03*
X114765600Y-40244800D03*
X114765600Y-37704800D03*
X112225600Y-40244800D03*
X112225600Y-37704800D03*
X109685600Y-40244800D03*
X109685600Y-37704800D03*
X107145600Y-40244800D03*
X107145600Y-37704800D03*
D30*
X158155600Y-78704800D03*
D31*
X158155600Y-83704800D03*
D32*
X99886200Y-155993600D03*
D33*
X95034800Y-152993860D03*
X95085600Y-159244800D03*
D34*
X102656600Y-70246600D03*
D15*
X135085600Y-74744800D03*
D16*
X132545600Y-74744800D03*
X130005600Y-74744800D03*
X127465600Y-74744800D03*
X124925600Y-74744800D03*
X122385600Y-74744800D03*
X119845600Y-74744800D03*
X117305600Y-74744800D03*
X114765600Y-74744800D03*
X112225600Y-74744800D03*
X109685600Y-74744800D03*
X107145600Y-74744800D03*
D35*
X147995600Y-88229800D03*
X145995600Y-88229800D03*
X143995600Y-88229800D03*
D36*
X148725600Y-90949800D03*
D35*
X141995600Y-88229800D03*
D36*
X141725600Y-90949800D03*
X148725600Y-85509800D03*
X141725600Y-85509800D03*
D35*
X95925600Y-128709800D03*
X95925600Y-130709800D03*
X95925600Y-132709800D03*
D36*
X98645600Y-127979800D03*
D35*
X95925600Y-134709800D03*
D36*
X98645600Y-134979800D03*
X93205600Y-127979800D03*
X93205600Y-134979800D03*
D15*
X165775600Y-86324800D03*
D16*
X168315600Y-86324800D03*
X170855600Y-86324800D03*
X173395600Y-86324800D03*
D15*
X165775600Y-88864800D03*
D16*
X168315600Y-88864800D03*
X170855600Y-88864800D03*
X173395600Y-88864800D03*
D15*
X165775600Y-91404800D03*
D16*
X168315600Y-91404800D03*
X170855600Y-91404800D03*
X173395600Y-91404800D03*
D19*
X108625600Y-99024800D03*
X118785600Y-99024800D03*
X106974600Y-44541800D03*
X117134600Y-44541800D03*
D22*
X146395400Y-81981400D03*
X146395400Y-75631400D03*
D11*
X93395760Y-142679800D03*
X100995440Y-142679800D03*
D37*
X136085600Y-80744800D03*
X136085600Y-88244800D03*
D38*
X104085600Y-88244800D03*
X104085600Y-80244800D03*
D25*
X106085600Y-156244800D03*
D26*
X177085600Y-156244800D03*
D25*
X107085600Y-114244800D03*
D26*
X177085600Y-114244800D03*
D15*
X132085600Y-34244800D03*
D16*
X129545600Y-34244800D03*
X127005600Y-34244800D03*
D15*
X116085600Y-34244800D03*
D16*
X118625600Y-34244800D03*
X121165600Y-34244800D03*
D39*
X172085600Y-45144800D03*
D34*
X159085600Y-39244800D03*
X161085600Y-43244800D03*
X166085600Y-60244800D03*
M02*
